<svg xmlns="http://www.w3.org/2000/svg" viewBox="0 0 132.12 47.22"><defs><style>.cls-1{fill:#ff9207;}</style></defs><title>Asset 1</title><g id="Layer_2" data-name="Layer 2"><g id="Blip"><path class="cls-1" d="M33.54,24q1.76,3.32,1.76,4.62A12.52,12.52,0,0,1,35,30.94q-2,10.2-12.89,12.64c-.31,0-2.86.3-7.67.82l-7.11.79c-2.61.3-5.06.6-7.37.9Q2.1,38,5,29.33a138.91,138.91,0,0,1,5.68-13.91q.78-1.7,2.25-4.59c-.83.27-1.55.49-2.18.64L8.57,1.17A91.54,91.54,0,0,1,22,0c.85,0,1.81.05,2.89.15,3,.23,4.69.38,5.12.45a21.82,21.82,0,0,1,5.22,1.62q6.31,2.63,6.32,9a12.61,12.61,0,0,1-.27,2.3Q40,19.81,33.54,24Zm-7.71,6q0-2.45-3.2-3.57A9.23,9.23,0,0,0,19.55,26H18.8a3.26,3.26,0,0,1-.53-.06l-.45-.05a5.31,5.31,0,0,0-1.39.34l-.6,1.88q-.9,1.8-2.18,4.7c-.15.37-.54,1.45-1.17,3.23L15,36a20.25,20.25,0,0,0,6.77-1.2Q25.83,33.21,25.83,29.93Zm6.24-17.37q0-2.42-3.19-3.57a9,9,0,0,0-3.05-.38H25a23,23,0,0,0-5,1l2.15,1.09a42.9,42.9,0,0,0-2.26,4.74c-.05.12-.45,1.2-1.2,3.23l2.59-.08a21,21,0,0,0,6.81-1.16C30.74,16.35,32.07,14.74,32.07,12.56Z"/><path class="cls-1" d="M52.45,18.05c-.2.72-.72,2.44-1.54,5.15l-2.52,7.86c-.65,2.15-1.17,3.89-1.54,5.22q5.22-.3,15.64-.79l-2.86,8.69H53.16a131.7,131.7,0,0,0-19.47,2.1v-.11c0-.28.52-2.29,1.58-6.05q1.88-6.61,3.34-10.68,2.49-6.92,5.64-13.95c.33-.8,1-2.26,1.88-4.36l2.67-6.2a29.74,29.74,0,0,1,1.77-3.76L52.45,1h.9A24.56,24.56,0,0,0,56.62.75L59.48.3q-.37.68-2,4.63L53.31,15.68C53.21,16,52.92,16.82,52.45,18.05Z"/><path class="cls-1" d="M72.64,37.64l1-3.43q.34-1.16,1.51-4.77a144.4,144.4,0,0,1,5.71-13.95q.95-2.22,3-6.28-3.27.52-9.93,1.47l2.63-9q4.74-.4,11.88-1Q96,.11,101.66,0L98.88,8.76q-5.79,0-9.13.11l2.59,1.43c-.6,1.16-1.35,2.88-2.26,5.19q-1.72,4.24-4.77,14Q84.22,33,83.24,36.85c.65,0,1.77-.09,3.35-.19l4.66-.15-2.78,8.76q-7,0-9.18.11-3.45.27-15.71,1.84l2.63-9.06,3-.3Z"/><path class="cls-1" d="M106.81,26.21l-1,3.12q-1,3.38-3.76,14.1l-.34,0q-4.82.95-11.09,2.63,2.1-8.12,5-16.76a138.91,138.91,0,0,1,5.68-13.91q.78-1.7,2.25-4.59c-.83.27-1.55.49-2.18.64L99.18,1.17A91.54,91.54,0,0,1,112.57,0c.85,0,1.81.05,2.89.15,3,.23,4.69.38,5.12.45a21.82,21.82,0,0,1,5.22,1.62q6.31,2.63,6.32,9a12.61,12.61,0,0,1-.27,2.3q-1.46,7.62-11.76,10.94A44.91,44.91,0,0,1,106.81,26.21Zm15.87-13.65q0-2.42-3.19-3.57a9,9,0,0,0-3-.38h-.79a23,23,0,0,0-5,1l2.15,1.09a42.9,42.9,0,0,0-2.26,4.74c0,.12-.45,1.2-1.2,3.23l2.59-.08a21,21,0,0,0,6.81-1.16C121.35,16.35,122.68,14.74,122.68,12.56Z"/></g></g></svg>
