<svg xmlns="http://www.w3.org/2000/svg" viewBox="0 0 100 100"><defs><style>.cls-1{fill:#ff9207;}</style></defs><title>Asset 4</title><g id="Layer_2" data-name="Layer 2"><g id="TAP"><path class="cls-1" d="M16.93,68.64q-3.27,11.89-8.37,11.9-4.13,0-6.43-9.8Q0,61.71,0,47.26c0-2.07,0-4.28.1-6.61Q.62,25.13,4,13.93C6.34,6.35,9,2.54,12,2.54q6.78,0,9.6,15.84l-5.9,9.8q-1.22-8.46-4.09-8.46c-1.94,0-3.58,2.15-4.87,6.42A69.67,69.67,0,0,0,4.48,42.49c-.07,1.57-.1,2.91-.1,4a56.75,56.75,0,0,0,1.31,13c.92,3.85,2.09,5.79,3.54,5.79s3-2.08,4.16-6.23C14.81,62.91,15.51,64.82,16.93,68.64Z"/><path class="cls-1" d="M26.88,33.08q-.15,1.85-.8,8.71c-.53,5.32-.79,8-1.31,13.3-.34,3.65-.61,6.59-.8,8.84q2.72-.51,8.13-1.33c-.59,5.87-.89,8.81-1.49,14.69H27.25q-3.43,0-10.13,3.56v-.19c0-.46.27-3.88.83-10.24q1-11.19,1.74-18.07,1.29-11.7,2.93-23.6c.17-1.35.49-3.81,1-7.38.55-4.2.83-6.29,1.38-10.49q.56-4.34.92-6.36l1-.26h.47a4.53,4.53,0,0,0,1.7-.44l1.49-.77c-.13.77-.47,3.37-1,7.83-.88,7.27-1.31,10.91-2.19,18.19C27.28,29.66,27.13,31,26.88,33.08Z"/><path class="cls-1" d="M37.38,66.22l.55-5.79c.11-1.31.37-4,.78-8.08.61-6.09,1.62-14,3-23.6q.49-3.75,1.56-10.62-1.7.89-5.16,2.48c.55-6.11.82-9.16,1.37-15.27,1.64-.46,3.71-1,6.18-1.65a39,39,0,0,1,6.84-1.15c-.58,5.93-.86,8.9-1.44,14.83a45.19,45.19,0,0,0-4.75.19c.53,1,.8,1.45,1.34,2.41-.31,2-.69,4.89-1.17,8.78q-.89,7.19-2.48,23.6-.57,6-1.08,12.54c.34,0,.92-.15,1.74-.32l2.43-.26L45.61,79.14a32.23,32.23,0,0,0-4.77.19,67.82,67.82,0,0,0-8.17,3.11c.55-6.13.82-9.19,1.37-15.33l1.56-.51C36.06,66.52,36.65,66.39,37.38,66.22Z"/><path class="cls-1" d="M67.35,68.64Q64.1,80.54,59,80.54q-4.12,0-6.43-9.8-2.13-9-2.13-23.48c0-2.07,0-4.28.1-6.61Q51,25.13,54.45,13.93c2.32-7.58,5-11.39,8-11.39q6.8,0,9.6,15.84l-5.9,9.8q-1.22-8.46-4.09-8.46c-1.94,0-3.58,2.15-4.87,6.42A69.67,69.67,0,0,0,54.9,42.49c-.07,1.57-.1,2.91-.1,4a56.75,56.75,0,0,0,1.31,13c.92,3.85,2.09,5.79,3.54,5.79s3-2.08,4.16-6.23C65.23,62.91,65.94,64.82,67.35,68.64Z"/><path class="cls-1" d="M84.28,74.3,78.36,79c.14-2.21.21-4.45.21-6.74a95.36,95.36,0,0,0-.72-12q-.88-7-2.46-9L75,55.6q-.48,5.28-1.68,20.48l-5.93,4.77c.68-8.14,1.44-16.57,2.33-25.25q1-9.85,3-23.6C74,22.61,75.54,13.23,77.17,3.88l.6-.19a23.27,23.27,0,0,1,4.09-1.15c-1.64,9.79-3,19.63-4.4,29.46,0,.34-.22,1.74-.53,4.2q4.38-6,8.37-20A116.83,116.83,0,0,0,88.15,3.88l.65-.19a22.67,22.67,0,0,1,4.06-1.15,132.83,132.83,0,0,1-7.7,31.3Q82.4,41.36,79.3,45q2,3.31,3.55,10.63a70.72,70.72,0,0,1,1.63,14.69C84.48,71.57,84.41,72.9,84.28,74.3Z"/><path class="cls-1" d="M86.65,78.25l7.09-2.93q-.52,5.66-1.54,19l-.22.13A59.67,59.67,0,0,0,84.79,100Q85.67,88.5,86.65,78.25ZM100,0c-.76,15.06-2.14,30.08-3.46,45.1l-1.9,19.47-6.88,2q1.88-19.88,3.74-39.76.81-11.13,2-24.11A65.25,65.25,0,0,1,100,0Z"/></g></g></svg>
