<?xml version="1.0" encoding="utf-8"?>
<!-- Generator: Adobe Illustrator 22.0.1, SVG Export Plug-In . SVG Version: 6.00 Build 0)  -->
<svg version="1.1" xmlns="http://www.w3.org/2000/svg" xmlns:xlink="http://www.w3.org/1999/xlink" x="0px" y="0px"
	 viewBox="0 0 1600 900" style="enable-background:new 0 0 1600 900;" xml:space="preserve">
<style type="text/css">
	.st0{fill:#494D56;}
	.st1{clip-path:url(#SVGID_2_);fill:#1F2532;}
	.st2{clip-path:url(#SVGID_2_);fill:#373A41;}
	.st3{clip-path:url(#SVGID_2_);fill:none;stroke:#000000;stroke-miterlimit:10;}
	.st4{clip-path:url(#SVGID_2_);}
	.st5{fill:#373A41;}
	.st6{fill:none;stroke:#000000;stroke-width:0.5;stroke-linecap:round;stroke-linejoin:round;}
	.st7{clip-path:url(#SVGID_2_);fill:#494D56;}
	.st8{fill:none;stroke:#000000;stroke-miterlimit:10;}
	.st9{clip-path:url(#SVGID_4_);fill:url(#SVGID_5_);}
	.st10{clip-path:url(#SVGID_2_);fill:url(#SVGID_6_);}
</style>
<g id="Layer_1">
</g>
<g id="Layer_2">
</g>
<g id="Layer_3">
</g>
<g id="Layer_5">
</g>
<g id="Layer_4">
	<g>
		<defs>
			<rect id="SVGID_1_" width="1600" height="900"/>
		</defs>
		<clipPath id="SVGID_2_">
			<use xlink:href="#SVGID_1_"  style="overflow:visible;"/>
		</clipPath>
		<rect x="-150.2" y="-149.3" class="st1" width="1970.1" height="1108.1"/>
		<polygon class="st2" points="1819.8,958.8 -6.8,958.8 773.9,532.6 1819.8,908.3 		"/>
		<g id="XMLID_1_" class="st4">
			<g>
				<polygon class="st0" points="613.7,134.5 613.7,380.5 564,357.5 564,153.3 				"/>
				<path class="st5" d="M613.7,380.5L375.8,493.2v-48.4l10.7-5v25.8c19.4,4.1,16.5-7.7,16.5-7.7v-25.7l60.2-27.9v23.5
					c20.3,3.7,17.9-8.6,17.9-8.6l-0.1-23.1l56.4-26.1v21.3c18.8,3.4,16.5-7.9,16.5-7.9v-21l10.1-4.7L613.7,380.5z"/>
				<polygon points="564,153.3 564,357.5 554,362.2 554,157.1 				"/>
				<path class="st0" d="M554,383.2c0,0,2.2,11.4-16.5,7.9v-21.3l16.5-7.7V383.2z"/>
				<polygon class="st0" points="554,157.1 554,362.2 537.4,369.9 537.4,163.4 				"/>
				<polygon class="st0" points="554,157.1 554,157.1 537.4,163.4 537.4,163.3 				"/>
				<polygon points="537.4,163.4 537.4,369.9 481.1,396 480,185.2 				"/>
				<path class="st0" d="M481.2,419.1c0,0,2.3,12.3-17.9,8.6v-23.5l17.8-8.3L481.2,419.1z"/>
				<polygon class="st0" points="480,185.2 481.1,396 463.2,404.3 463.2,191.6 				"/>
				<polygon class="st0" points="480,185 480,185.2 463.2,191.6 463.2,191.4 				"/>
				<polygon points="463.2,191.6 463.2,404.3 403.1,432.2 403.1,214.4 				"/>
				<path class="st0" d="M403.1,457.9c0,0,2.9,11.8-16.5,7.7v-25.8l16.5-7.7V457.9z"/>
				<polygon class="st0" points="403.1,214.4 403.1,432.2 386.6,439.8 386.6,220.7 				"/>
				<polygon class="st0" points="403.1,214.1 403.1,214.4 386.6,220.7 386.6,220.3 				"/>
				<polygon points="386.6,220.7 386.6,439.8 375.8,444.8 375.8,224.8 				"/>
			</g>
			<g>
				<line class="st6" x1="386.6" y1="220.3" x2="375.8" y2="224.4"/>
				<line class="st6" x1="463.2" y1="191.4" x2="403.1" y2="214.1"/>
				<line class="st6" x1="537.4" y1="163.3" x2="480" y2="185"/>
				<line class="st6" x1="564" y1="153.3" x2="554" y2="157.1"/>
			</g>
		</g>
		<line class="st3" x1="885.6" y1="411.7" x2="1284.8" y2="551.7"/>
		<rect x="806.2" y="466.2" class="st7" width="10.5" height="154.1"/>
		<rect x="1163.5" y="598.2" class="st7" width="10.5" height="154.1"/>
		<polygon class="st2" points="1284.8,551.7 1186.3,615.7 782.5,466.2 885.6,411.7 		"/>
		<g id="XMLID_2_" class="st4">
			<g>
				<path d="M866.5,533.3c-5.1,4.1-14.7,6.4-19.8,8.7c-1.8,0.8-3.7,1.8-4.4,3.6c-0.5,1.3-0.3,2.7-0.1,4c1.9,14.2-0.9,28.6-1.1,43
					c-0.1,9,0.7,18-0.2,27c-1.3,12.6-6.3,24.9-5.1,37.5c1,9.2,8.5,23.5,8.6,32.7c0,0.7,0,1.4-0.3,2.1c-0.4,0.7-1.1,1.2-1.7,1.6
					c-3.1,2-6.5,3.6-10.1,4.8c-3.2,1-6.4,1.7-9.7,2.4c-10.7,2.2-21.3,4.4-32,6.6c-4.9,1-9.9,2-15,1.9c-5-0.2-10.2-1.7-13.9-5.1
					c-0.8-0.8-1.7-1.8-1.6-3c0.1-0.6,0.4-1.2,0.7-1.7c1.2-2.2,2.5-4.4,3.7-6.7c0.9-1.6,1.7-3.1,3-4.4c1.4-1.5,3.2-2.6,4.9-3.7
					c8.9-5.8,17-12.7,24.2-20.5c1.7-1.8,3.3-3.7,4.3-6c1-2.3,1.2-5,0-7.2c-2.4-7.1-0.2-18.5,0-26c0.1-3.2-0.1-6.4-0.3-9.6
					c-0.9-12.9-1.8-25.9-2.8-38.8c-0.2-3-0.4-6.1-0.4-9.1c0.1-3.6,0.5-7.2,0.7-10.7c0.9-14-1-28.1,0.4-42c0.4-4.5,1.3-9.2,4-12.9
					c1.8-2.4,4.4-4.2,6.9-5.9c6.5-4.3,13.4-8,20.5-11.1l-0.1-0.3c-1.5-4.9-2.9-9.9-4.3-14.8c-0.4-1.2-0.7-2.5-0.8-3.8
					c-0.1-1.5,0.1-3,0.4-4.5c1.5-9,3.1-17.9,5-26.8c0.7-3,1.3-6,1.7-9.1c0.8-6.2,0.6-12.9,3.9-18.3l0.2-1
					c0.4-10.1,1.4-20.2,4.5-29.8c3.1-9.6,8.5-18.7,16.5-24.8c2.8-2.1,5.9-3.9,8.7-6.1c0.6-0.5,1.2-1.1,1.3-1.9
					c0.1-0.6-0.1-1.1-0.3-1.6c-2.4-5.9-4.8-11.8-7.1-17.7c-2.4-6-4.8-12.1-5.1-18.5c-0.4-7.5,2.2-14.8,5.1-21.8
					c2.5-6.1,5.3-12.1,9.7-17.1c5.8-6.5,13.9-10.5,22.5-11.9c8.5-1.4,17.4-0.2,25.5,2.8c4.1,1.5,8,3.4,11.1,6.5
					c5.7,5.8,7,14.4,8,22.4c1.2,9.3,2.4,18.5,3.6,27.8c0.4,3.1,0.8,6.3,2,9.1l0.4-0.1c5.9,2,11.8,4,17.8,6
					c11.8,3.9,23.7,8,33.6,15.5c2.8,2.1,5.4,4.4,7.4,7.2c4.1,5.7,8.5,19.1,9.7,26.1c4,22.4,10.7,52.9,14.6,83.7l0.3,0
					c1.4,11.5,3.6,22.1,2.2,33.9c-1,8.2-0.2,15.6-10.1,21.3c-9.2,5.3-16,20.9-17.6,24.3l-0.3,0.6c-0.5,4.6-0.3,8.3,0.2,12.9
					c1.6,16.8,3.6,24.1,5.2,40.9c0.5,5.2,1,10.3,0.8,15.5c-0.4,7.7-2.3,15.2-2.7,22.9c-0.7,14.4,2.1,38.6-5.6,48.2h0
					c1.5,4.3,2.2,8.8,2.2,13.2c0,2.1-0.2,4.3,0.5,6.4c0.4,1.1,1,2.2,1.3,3.4c0.3,1.8-0.3,3.6-1,5.3c-2.4,5.7-5.8,11-10,15.7
					c-1,1.1-2,2.1-3.2,2.9c-1.8,1.2-4.1,1.6-6.3,2c-12.7,1.8-25.6-0.8-38.1-3.5c-1.4-0.3-3.1-0.8-3.6-2c-0.5-1.2,0.2-2.5,0.8-3.7
					c8.9-15.2,13.7-32.3,21.9-47.8c1-2.5-1.3-6.8-1.2-9.5c0.2-17.2,2.8-35.4-0.7-52.3c-0.7-3.4-1.6-6.7-1.8-10.2
					c-0.4-4.9,0.5-9.8,0.2-14.7c-0.4-6.1-2.6-12.1-3.1-18.2c-0.5-5.5-0.6-5.1-1.3-10.6c-0.4-3.1-2.7-8.6-4-11.5
					c-7.4-16.7-20.3-18.6-25.5-22.3c-2.3,0.9-4.4,1.8-7.4,3.2c-3.5,1.6-8,5.4-10.9,6.8c-2.4,1.1-5.5,3.5-7.9,4.7
					c-2.3,1.2-4.1,0.8-7,1.9c-2.4,0.8-4.2,0.9-6.6,1.3c-2.2,0.3-4.3-0.8-6.2-1.9C874.2,538.7,870.1,536.2,866.5,533.3z M900.5,455
					c-1.3-1.4-2.2-5.7-3.4-7.1c-3.1-3.5-4.8-5.6-7.2-9.7c-0.8-1.3-1.5-2.7-2.5-3.8c-0.8-0.8-2.9-2.5-3.8-3.2c-3-2.1-4.2-4.2-7.2-6.3
					c-0.5-0.3-1-0.7-1.6-0.5c-0.7,0.2-1,0.9-1.1,1.6c-0.7,2.7-3.3,11.1-3.6,13.9c-1.2,11.9-6.5,16.8-8,28.6
					c4.1-0.4,8.1-1.5,11.9-3.1c4-1.8,7.7-4.2,11.9-5.8C891.6,457.2,895.3,458.6,900.5,455z"/>
			</g>
			<g>
				<path class="st8" d="M941.8,324.2c-0.1-0.2-0.2-0.4-0.3-0.6c-1.2-2.9-1.6-6-2-9.1c-1.2-9.3-2.4-18.5-3.6-27.8
					c-1-8-2.4-16.7-8-22.4c-3-3.1-7-5-11.1-6.5c-8.1-2.9-17-4.1-25.5-2.8c-8.5,1.4-16.7,5.4-22.5,11.9c-4.4,4.9-7.2,11-9.7,17.1
					c-2.9,7-5.4,14.3-5.1,21.8c0.3,6.4,2.8,12.5,5.1,18.5c2.4,5.9,4.8,11.8,7.1,17.7c0.2,0.5,0.4,1.1,0.3,1.6
					c-0.1,0.8-0.7,1.4-1.3,1.9c-2.7,2.3-5.8,4-8.7,6.1c-8,6.1-13.4,15.2-16.5,24.8c-3.1,9.6-4,19.8-4.5,29.8"/>
				<path class="st8" d="M835.6,407.1c-3.3,5.4-3.1,12.1-3.9,18.3c-0.4,3.1-1.1,6.1-1.7,9.1c-1.9,8.9-3.6,17.9-5,26.8
					c-0.2,1.5-0.5,3-0.4,4.5c0.1,1.3,0.5,2.5,0.8,3.8c1.4,5,2.9,9.9,4.3,14.8"/>
				<path class="st8" d="M942,323.6c5.9,2,11.8,4,17.8,6c11.8,3.9,23.7,8,33.6,15.5c2.8,2.1,5.4,4.4,7.4,7.2
					c4.1,5.7,8.5,19.1,9.7,26.1c4,22.4,10.7,52.9,14.6,83.7c0.9,7.4,1.7,14.8,2.3,22.1"/>
				<path class="st8" d="M1024.7,455.7c0.2,2.1,0.4,4.2,0.7,6.2c1.4,11.5,3.6,22.1,2.2,33.9c-1,8.2-0.2,15.6-10.1,21.3
					c-9.2,5.3-16,20.9-17.6,24.3"/>
				<path class="st8" d="M830.1,484.7c-0.1,0-0.1,0.1-0.2,0.1c-7.1,3.2-13.9,6.9-20.5,11.1c-2.6,1.7-5.1,3.4-6.9,5.9
					c-2.7,3.6-3.6,8.3-4,12.9c-1.4,14,0.5,28.1-0.4,42c-0.2,3.6-0.6,7.2-0.7,10.7c0,3,0.2,6.1,0.4,9.1c0.9,12.9,1.8,25.9,2.8,38.8
					c0.2,3.2,0.5,6.4,0.3,9.6c-0.2,7.5-2.4,18.9,0,26"/>
				<path class="st8" d="M900.5,455c-1.3-1.4-2.2-5.7-3.4-7.1c-3.1-3.5-4.8-5.6-7.2-9.7c-0.8-1.3-1.5-2.7-2.5-3.8
					c-0.8-0.8-2.9-2.5-3.8-3.2c-3-2.1-4.2-4.2-7.2-6.3c-0.5-0.3-1-0.7-1.6-0.5c-0.7,0.2-1,0.9-1.1,1.6c-0.7,2.7-3.3,11.1-3.6,13.9
					c-1.2,11.9-6.5,16.8-8,28.6c4.1-0.4,8.1-1.5,11.9-3.1c4-1.8,7.7-4.2,11.9-5.8C891.6,457.2,895.3,458.6,900.5,455z"/>
				<path class="st8" d="M866.5,533.3c-5.1,4.1-14.7,6.4-19.8,8.7c-1.8,0.8-3.7,1.8-4.4,3.6c-0.5,1.3-0.3,2.7-0.1,4
					c1.9,14.2-0.9,28.6-1.1,43c-0.1,9,0.7,18-0.2,27c-1.3,12.6-6.3,24.9-5.1,37.5c0,0.1,0,0.2,0,0.4"/>
				<path class="st8" d="M999.6,542.1c-0.5,4.6-0.3,8.3,0.2,12.9c1.6,16.8,3.6,24.1,5.2,40.9c0.5,5.2,1,10.3,0.8,15.5
					c-0.4,7.7-2.3,15.2-2.7,22.9c-0.7,14.4,2.1,38.6-5.6,48.2"/>
				<path class="st8" d="M924.2,525.1c5.1,3.7,18,5.6,25.5,22.3c1.3,2.9,3.6,8.4,4,11.5c0.7,5.5,0.8,5.1,1.3,10.6
					c0.5,6.1,2.7,12.1,3.1,18.2c0.3,4.9-0.5,9.8-0.2,14.7c0.3,3.4,1.1,6.8,1.8,10.2c3.5,16.9,0.9,35.1,0.7,52.3c0,2.7,2.2,7,1.2,9.5
					"/>
				<path class="st8" d="M800.9,650.9c1.1,2.2,0.9,4.9,0,7.2c-1,2.3-2.6,4.2-4.3,6c-7.2,7.8-15.3,14.7-24.2,20.5
					c-1.7,1.1-3.5,2.2-4.9,3.7c-1.2,1.3-2.1,2.9-3,4.4c-1.2,2.2-2.5,4.4-3.7,6.7c-0.3,0.5-0.6,1.1-0.7,1.7c-0.1,1.2,0.7,2.2,1.6,3
					c3.7,3.4,8.9,4.9,13.9,5.1c5,0.2,10-0.8,15-1.9c10.7-2.2,21.3-4.4,32-6.6c3.3-0.7,6.5-1.3,9.7-2.4c3.5-1.2,7-2.8,10.1-4.8
					c0.7-0.4,1.4-0.9,1.7-1.6c0.3-0.6,0.3-1.3,0.3-2.1c-0.1-9.2-7.6-23.6-8.6-32.7"/>
				<path class="st8" d="M961.7,674.3c-8.2,15.6-13.1,32.6-21.9,47.8c-0.7,1.1-1.4,2.5-0.8,3.7c0.6,1.3,2.2,1.7,3.6,2
					c12.5,2.7,25.4,5.3,38.1,3.5c2.2-0.3,4.4-0.8,6.3-2c1.2-0.8,2.3-1.8,3.2-2.9c4.2-4.7,7.6-10,10-15.7c0.7-1.7,1.4-3.5,1-5.3
					c-0.2-1.2-0.9-2.2-1.3-3.4c-0.7-2-0.5-4.2-0.5-6.4c0-4.5-0.7-9-2.2-13.2c0-0.1-0.1-0.2-0.1-0.3"/>
				<path class="st8" d="M853.4,520.5c2.4,1,3.9,3.4,5.5,5.4c2.2,2.8,4.8,5.2,7.6,7.4c3.7,2.9,7.7,5.4,11.8,7.7
					c1.9,1.1,4,2.2,6.2,1.9c2.5-0.4,4.3-0.4,6.6-1.3c2.9-1,4.7-0.7,7-1.9c2.3-1.2,5.5-3.5,7.9-4.7c2.9-1.4,7.4-5.3,10.9-6.8
					c3-1.4,5.1-2.3,7.4-3.2c1.8-0.7,3.8-1.3,6.3-2.1c2.8-0.9,5.7-1.7,8.6-2.3c2.5-0.5,5-0.7,7.5-1.3c2.8-0.7,5.6-1.9,8.5-2.2"/>
			</g>
		</g>
		<g class="st4">
			<defs>
				<polygon id="SVGID_3_" points="375.8,224.2 1422.9,-176 1422.9,1084 375.8,492.7 				"/>
			</defs>
			<clipPath id="SVGID_4_">
				<use xlink:href="#SVGID_3_"  style="overflow:visible;"/>
			</clipPath>

				<radialGradient id="SVGID_5_" cx="-501.567" cy="162.4976" r="1046.1443" gradientTransform="matrix(0.8437 0 0 0.6603 592.4246 49.2606)" gradientUnits="userSpaceOnUse">
				<stop  offset="6.153846e-02" style="stop-color:#FFFFFF"/>
				<stop  offset="0.5178" style="stop-color:#8B8E95;stop-opacity:0.5138"/>
				<stop  offset="0.8487" style="stop-color:#3D434E;stop-opacity:0.1612"/>
				<stop  offset="1" style="stop-color:#1F2532;stop-opacity:0"/>
			</radialGradient>
			<polygon class="st9" points="1238.2,858.3 -897.6,858.3 -944.9,-545.2 1283.4,-545.2 			"/>
		</g>
		<polyline class="st7" points="322.5,928.8 322.5,-179.3 339,-179.3 339,928.8 		"/>
		<polyline class="st7" points="229.8,928.8 229.8,-179.3 246.3,-179.3 246.3,928.8 		"/>
		<polyline class="st7" points="142.9,928.8 142.9,-179.3 159.4,-179.3 159.4,928.8 		"/>
		<polyline class="st7" points="62.5,928.8 62.5,-179.3 79,-179.3 79,928.8 		"/>
		<polyline class="st7" points="413.5,928.8 413.5,-179.3 430,-179.3 430,928.8 		"/>
		<polyline class="st7" points="492.3,932.9 492.3,-175.2 508.8,-175.2 508.8,932.9 		"/>
		<polyline class="st7" points="577.3,928.8 577.3,-179.3 593.8,-179.3 593.8,928.8 		"/>
		<polyline class="st7" points="663.8,928.8 663.8,-179.3 680.4,-179.3 680.4,928.8 		"/>
		<polyline class="st7" points="745.9,928.8 745.9,-179.3 762.4,-179.3 762.4,928.8 		"/>
		<polyline class="st7" points="832.1,928.9 832.1,-179.2 848.6,-179.2 848.6,928.9 		"/>
		<polyline class="st7" points="929,930.8 929,-177.2 945.5,-177.2 945.5,930.8 		"/>
		<polyline class="st7" points="1025.4,928.8 1025.4,-179.3 1041.9,-179.3 1041.9,928.8 		"/>
		<polyline class="st7" points="1107.8,928.8 1107.8,-179.3 1124.3,-179.3 1124.3,928.8 		"/>
		<polyline class="st7" points="1212.4,928.8 1212.4,-179.3 1228.9,-179.3 1228.9,928.8 		"/>
		<polyline class="st7" points="1313.4,928.8 1313.4,-179.3 1329.9,-179.3 1329.9,928.8 		"/>
		<polyline class="st7" points="1413.1,928.8 1413.1,-179.3 1429.6,-179.3 1429.6,928.8 		"/>
		<polyline class="st7" points="1515.3,928.8 1515.3,-179.3 1531.8,-179.3 1531.8,928.8 		"/>

			<radialGradient id="SVGID_6_" cx="907.4146" cy="407.1751" r="1055.4045" gradientTransform="matrix(0.8914 0 0 0.4887 -7.4439 254.0343)" gradientUnits="userSpaceOnUse">
			<stop  offset="0.2667" style="stop-color:#1F2532;stop-opacity:0"/>
			<stop  offset="1" style="stop-color:#1F2532"/>
		</radialGradient>
		<ellipse class="st10" cx="801.5" cy="453" rx="1135" ry="634.4"/>
	</g>
</g>
</svg>
