<svg xmlns="http://www.w3.org/2000/svg" xmlns:xlink="http://www.w3.org/1999/xlink" viewBox="0 0 4800 900"><defs><style>.cls-1{fill:#1f2532;}.cls-2{fill:#fff;}.cls-3{fill:#8bcce4;}.cls-4{fill:#494d56;}.cls-5{fill:#ff9207;}.cls-6{fill:#303641;}.cls-7{fill:#6894a0;}.cls-8{fill:url(#linear-gradient);}.cls-9{fill:url(#linear-gradient-2);}.cls-10{fill:url(#linear-gradient-3);}</style><linearGradient id="linear-gradient" x1="-989.5" y1="560.5" x2="1457" y2="560.5" gradientUnits="userSpaceOnUse"><stop offset="0.56" stop-color="#fff" stop-opacity="0"/><stop offset="1" stop-color="#fff" stop-opacity="0.4"/></linearGradient><linearGradient id="linear-gradient-2" x1="610.5" x2="3057" xlink:href="#linear-gradient"/><linearGradient id="linear-gradient-3" x1="2210.5" x2="4657" xlink:href="#linear-gradient"/></defs><title>frame 2</title><g id="Layer_1" data-name="Layer 1"><rect class="cls-1" x="1600" width="1600" height="900"/><rect class="cls-1" x="3200" width="1600" height="900"/></g><g id="skærm"><polygon class="cls-2" points="3057 734 3093 189 2424 269 2405 627 3057 734"/><polygon class="cls-2" points="4657 734 4693 189 4024 269 4005 627 4657 734"/></g><g id="margin_osv" data-name="margin osv"><polygon class="cls-3" points="3093 197 3072 734 2888 713 2914 214 3093 197"/><polygon class="cls-3" points="2547 238 2526 648 2393 627 2410 258 2547 238"/><polygon class="cls-4" points="3093 197 3089.76 238 2405 299 2412.09 265.6 3093 197"/><polygon class="cls-3" points="4693 197 4672 734 4488 713 4514 214 4693 197"/><polygon class="cls-3" points="4147 238 4126 648 3993 627 4010 258 4147 238"/><polygon class="cls-4" points="4693 197 4689.76 238 4005 299 4012.09 265.6 4693 197"/></g><g id="ramme"><polygon class="cls-5" points="2780 627 2609 605 2617 413 2789 401 2780 627"/><path class="cls-5" d="M2393,242l-17,403,732,124,27-617Zm637,461-607-91,14-335,620-63Z"/><polygon class="cls-2" points="2626.5 424.5 2620.5 594.5 2763.5 612.5 2772.5 416.5 2626.5 424.5"/><polygon class="cls-5" points="2644 389 2558 389.5 2562 293.5 2648 287.5 2644 389"/><polygon class="cls-5" points="2880 376 2794 376.5 2798 280.5 2884 274.5 2880 376"/><polygon class="cls-5" points="2754 379 2668 379.5 2672 283.5 2758 277.5 2754 379"/><polygon class="cls-2" points="2566.75 299.25 2563.75 384.25 2636 379 2639.75 295.25 2566.75 299.25"/><polygon class="cls-2" points="2681.75 288.25 2678.75 373.25 2751 368 2754.75 284.25 2681.75 288.25"/><polygon class="cls-2" points="2803.75 285.25 2800.75 370.25 2873 365 2876.75 281.25 2803.75 285.25"/><path d="M2669.37,510.48a66.61,66.61,0,0,1,15.78-6.84c5.44-1.65,11.74-3.88,17.43-4.12,8.53-.35,34.91,13.75,24,24.07-7.15,6.78-21,6.93-30.08,5.33a47.09,47.09,0,0,1-13.78-4.73c-3.75-2-16.69-9.41-11.35-15.06,1.1-1.17-.66-2.94-1.77-1.77-9.14,9.68,13.07,20.16,19.71,22.32,11.31,3.68,27.8,4.32,37.8-3.31,13.65-10.42-5.49-22.59-14.33-27-7.29-3.64-13.94-2-21.49,0-8.09,2.09-16,4.58-23.19,9-1.37.84-.12,3,1.26,2.16Z"/><path d="M2649.84,542.46c-1.58-6.54,6.47-11.05,11.37-13.06a36.39,36.39,0,0,1,14-2.64c8.45.07,25.87,4.28,26.23,14.92.39,11.75-12.9,18.13-22.93,17.62a42.1,42.1,0,0,1-16.45-4.35c-5.18-2.58-8.15-7-11-11.89a1.25,1.25,0,0,0-2.16,1.26c3.5,6.06,7,10.68,13.54,13.56,6.81,3,14.56,4.73,22,3.62,10.22-1.52,22.22-11.32,19.06-22.91-1.52-5.56-8.33-9.17-13.22-11.22a40.2,40.2,0,0,0-18.1-3c-9,.6-27.79,6.5-24.82,18.77.38,1.56,2.79.9,2.41-.66Z"/><path d="M2720.69,531.72c7.31-2,17.49,4.95,19.49,12,2.3,8.06-2.62,15.82-9.48,19.72-12,6.81-30.66,4.38-40.11-5.69-1.11-1.18-2.87.59-1.77,1.77,11.75,12.51,37.46,14.51,49.34,1.11,5.27-6,7-15.12,2.41-22-4-6-13.33-11.27-20.54-9.3a1.25,1.25,0,0,0,.66,2.41Z"/><path d="M2675.79,513.74c4.28,1.8,7.61,5.15,11.81,7.06,3.59,1.64,7.53,1.85,11.41,2.09,8.45.54,16.91.49,24.49-3.72,1.41-.78.15-2.94-1.26-2.16-7.63,4.24-16.42,3.94-24.87,3.27-4.9-.39-8.48-1.3-12.64-4.07a51,51,0,0,0-8.27-4.88c-1.48-.63-2.13,1.79-.67,2.41Z"/><path d="M2690.13,506.71a2.61,2.61,0,0,0-1.89,2.84,2.71,2.71,0,0,0,2.88,2.38,3,3,0,0,0,3-2.71,2.12,2.12,0,0,0-1.08-1.84,5.57,5.57,0,0,0-.76-.32l-.18-.07c-.08,0-.08,0,0,0l-.11-.06a.51.51,0,0,1,.22.33,1.27,1.27,0,0,0-1.53-.87,1.25,1.25,0,0,0-.88,1.53,2.54,2.54,0,0,0,1.67,1.49l.18.07c.09,0,.08,0,0,0,.16,0,.07.14,0-.07s0-.2-.25-.08a.72.72,0,0,1-.27.1s-.25,0-.17,0c-.12,0-.37-.21-.17,0-.09-.1,0-.21,0-.33,0,.12.09,0,0,0,.37-.1-.33.06.08,0,1.57-.34.9-2.75-.67-2.41Z"/><path d="M2707.91,509.08a2.31,2.31,0,0,0-2.93.38,2.28,2.28,0,0,0,.05,3.17,2.53,2.53,0,0,0,3.08.45,2.9,2.9,0,0,0,1.28-3,1.27,1.27,0,0,0-1.54-.87,1.29,1.29,0,0,0-.87,1.54c0-.11,0-.09,0,.07,0-.12,0-.1,0,.06,0-.07-.05.06-.11.11a.1.1,0,0,1,.1,0c-.15,0-.17,0-.06,0s.1,0,0,0a.09.09,0,0,1,.09.05c-.11-.11-.12-.12-.06-.05a.24.24,0,0,1,0,.14.53.53,0,0,1-.08.17c.08-.13.08-.14,0,0s-.09.07,0,0a.22.22,0,0,1-.18,0c.33.06-.27-.18,0,0a1.26,1.26,0,0,0,1.71-.45,1.27,1.27,0,0,0-.45-1.71Z"/><path d="M2663.87,544.5c-.77-3.7,4.5-6.66,7.44-6.57,2.75.09,11.33,3.25,7,6.69-1.26,1,.52,2.76,1.77,1.76a4.73,4.73,0,0,0,1.37-5.58c-1.24-3.09-5.11-4.55-8.13-5.11-5.3-1-13.2,3-11.86,9.47.33,1.58,2.74.91,2.41-.66Z"/><path d="M2671.59,540.49c-1.69-.66-3.13,1.77-1.9,3,1.47,1.48,3.7-.89,2.68-2.48a1.28,1.28,0,0,0-1.71-.45,1.26,1.26,0,0,0-.45,1.71c-.35-.53.29-.92.73-.84l.56.33a.82.82,0,0,1,.16.79l-.23.24c-.62,0-.79,0-.5.09a1.25,1.25,0,0,0,1.53-.87,1.28,1.28,0,0,0-.87-1.54Z"/><path d="M2721.66,548.6a9.94,9.94,0,0,1,6-3.45c2.7-.42,6.88.6,6.29,4.25-.25,1.58,2.16,2.26,2.41.67.6-3.7-1.83-6.67-5.46-7.37a12,12,0,0,0-11,4.13c-1.07,1.2.7,3,1.77,1.77Z"/><path d="M2727.87,549.38l.56-.21a1.29,1.29,0,0,0,.87-1.54,1.26,1.26,0,0,0-1.54-.87l-.55.21a1.29,1.29,0,0,0-.88,1.54,1.27,1.27,0,0,0,1.54.87Z"/><path d="M2737.53,535.44c8.4-.44,16.74.68,25.16.39,1.61-.06,1.61-2.56,0-2.5-8.42.29-16.76-.83-25.16-.39-1.6.09-1.61,2.59,0,2.5Z"/><path d="M2741.12,537.53c7.41-.72,15.62.86,22.79-1.17a1.25,1.25,0,0,0-.67-2.41c-3.63,1-7,.65-10.73.58a98.45,98.45,0,0,0-11.39.5c-1.59.15-1.6,2.65,0,2.5Z"/><path d="M2765.54,532.09c-.21.2.12,0-.14.09.21-.09-.14,0-.16,0-.21.07-.43.11-.64.19a2.42,2.42,0,0,0-1.46,1.16,1.25,1.25,0,0,0,2,1.51c1-1,1.8-2,1.77-3.48a1.25,1.25,0,0,0-2.5,0,1,1,0,0,1-.25.84l0,.07-.2.22c-.17.2-.36.39-.54.59l2,1.51c.11-.22-.05,0-.09,0s.14-.07,0,0l.64-.19a3.36,3.36,0,0,0,1.46-.79c1.14-1.13-.63-2.9-1.77-1.77Z"/><path d="M2762,532.45a2.71,2.71,0,0,0,.07,3.29,4.39,4.39,0,0,0,2.5,1.2,1.25,1.25,0,0,0,.66-2.41,3.65,3.65,0,0,1-1.27-.42c.15.09-.13-.09,0,0s0,0,0-.07l0,.07c-.17.26.16-.26.05-.07l.17-.31a1.25,1.25,0,0,0-2.16-1.26Z"/><path d="M2628.05,510.9c3.26,5.5,6.6,10.07,12.47,13,5.61,2.75,11.83,3.8,17.95,4.74l-.3-2.29-2.44,1.16c-1.45.68-.18,2.84,1.26,2.15l2.45-1.15a1.26,1.26,0,0,0-.3-2.28c-5.26-.81-10.58-1.67-15.53-3.7-6.37-2.61-10-7.06-13.4-12.85a1.25,1.25,0,0,0-2.16,1.26Z"/><path d="M2626.54,522.59a5,5,0,0,0,2.48-3.26,7.09,7.09,0,0,0-1.25-4.46,1.25,1.25,0,0,0-2.16,1.26,5.74,5.74,0,0,1,1,2.46c0,.91-.62,1.37-1.29,1.85-1.3.92-.05,3.09,1.26,2.15Z"/><path d="M2626.56,525.93a1.25,1.25,0,0,0,0-2.5,1.25,1.25,0,0,0,0,2.5Z"/><path d="M2655.52,528.9c-3.55-2.15-7.34-2.88-11.4-3.61a52.47,52.47,0,0,1-14.71-4.87l-1,2.28q13,3.88,25.67,8.61l.33-2.45-1.84-.55a1.26,1.26,0,0,0-2.09.56,2.1,2.1,0,0,0,.4,2.21l1.41-1.83a167.88,167.88,0,0,0-17.06-5.8c-3.67-1-6.77-2.45-10.09-.09-1.3.92,0,3.09,1.26,2.16,3.29-2.34,10.31.91,13.62,2,3.93,1.25,7.78,2.66,11.61,4.18a1.26,1.26,0,0,0,1.41-1.84l-.15-.29-2.09.55a3.89,3.89,0,0,0,3.61,1.28,1.26,1.26,0,0,0,.33-2.46q-12.69-4.73-25.67-8.61c-1.33-.4-2.24,1.64-1,2.29a51.25,51.25,0,0,0,12.16,4.5c4.8,1.08,9.64,1.37,14,4a1.25,1.25,0,0,0,1.26-2.16Z"/><path d="M2631.35,516.29c-.19-3-2.23-5.29-3.52-7.86l.13,1,0-.11-2.29.29c-.05,0,0,0,0,.15.57,1.48,3,.84,2.41-.67-.1-.25-.18-.5-.3-.74a1.27,1.27,0,0,0-2.29.3c-.2,1.23.86,2.45,1.47,3.45a9.91,9.91,0,0,1,1.82,4.23c.1,1.6,2.6,1.61,2.5,0Z"/><path d="M2634.27,523.33c1.14-.41,2.33-.65,3.5-1a1.25,1.25,0,0,0-.33-2.45,28.52,28.52,0,0,1-6.31-1.54,1.25,1.25,0,0,0-1.58,1.21c0,.3,0,.6.08.91l1.88-1.08a2.59,2.59,0,0,1-1-1.49l-1.2,1.58a12.08,12.08,0,0,1,4,.62,27.33,27.33,0,0,1,2.67.8c.43.15,1.65,1,2.08,1,.14.18.17.15.09-.06s0-.41.27-.55c-.06-.11-.59-.13-.74-.24-.71-.51-1.6-.87-2.34-1.36-1.15-.78-2.25-1.63-3.32-2.51-1.24-1-3,.74-1.77,1.76,1.5,1.24,9.48,8,10.31,3.14.37-2.15-2.55-3.1-4.1-3.64-2.11-.73-4.91-1.7-7.18-1.44a1.27,1.27,0,0,0-1.21,1.58,5.88,5.88,0,0,0,2.17,3,1.27,1.27,0,0,0,1.89-1.08c0-.31-.06-.61-.08-.91l-1.58,1.2a31.4,31.4,0,0,0,7,1.63l-.34-2.46c-1.16.34-2.35.58-3.49,1-1.5.55-.85,3,.66,2.41Z"/><path d="M2624.08,515c.17.19.19.12.06-.24a.52.52,0,0,1,.12-.64l.09-.07c-.12.06-.14.07-.06,0l-.21,0c.2,0-.09,0-.15,0a1.25,1.25,0,0,0,0,2.5,3,3,0,0,0,2.13-.79,1.8,1.8,0,0,0-.21-2.62,1.25,1.25,0,0,0-1.77,1.77Z"/><path d="M2627.64,516c.06-.16-.14,0-.37,0a2,2,0,0,1-.73-.13,11.62,11.62,0,0,0-2.12-.47c-1.6-.13-1.59,2.37,0,2.5,1.18.1,2.18.75,3.41.54a2.73,2.73,0,0,0,2.22-1.82c.57-1.51-1.84-2.16-2.41-.67Z"/><path d="M2628,519.13a1.25,1.25,0,0,0,0-2.5,1.25,1.25,0,0,0,0,2.5Z"/><path d="M2625.15,519l-.18.08-.63-.17.08.05-.45-.45-.06-.12v-.66l0,.08.58-.75-.07.05a1.29,1.29,0,0,0-.45,1.71,1.26,1.26,0,0,0,1.71.45,1.47,1.47,0,0,0,.48-2,1.66,1.66,0,0,0-2.24-.41,1.25,1.25,0,0,0-.45,1.71,1.28,1.28,0,0,0,1.71.45Z"/><path d="M2626.6,521.08a1.25,1.25,0,0,0,0-2.5,1.25,1.25,0,0,0,0,2.5Z"/><path d="M2673.74,502.31c-6.54.78-12.62-9.35-15.9-13.89-2.77-3.83-7.5-4.53-10.26-8.1a1.25,1.25,0,0,0-1.52-.19,4.49,4.49,0,0,0-1.94,2.1,1.27,1.27,0,0,0,.75,1.84c2.34.62,9.27,1.26,9.73,4.16l1.84-1.41a32.8,32.8,0,0,1-6.65-3.89l-1,2.28c6,1,9.77,10.25,13.71,14.53,3.35,3.63,7.09,6.62,12.22,6.6a1.25,1.25,0,0,0,0-2.5c-7.11,0-12.51-7.71-16.11-13-2.46-3.65-4.48-7.19-9.16-8a1.26,1.26,0,0,0-1,2.29,33.07,33.07,0,0,0,6.65,3.89,1.27,1.27,0,0,0,1.83-1.42c-.74-4.58-8-5-11.48-5.9l.75,1.84c.41-.74,1.86.84,2.51,1.23,1.09.68,2.33,1.1,3.44,1.75,3.26,1.91,5,5.74,7.42,8.61,3.5,4.23,7.92,10.45,14.09,9.72,1.58-.18,1.6-2.68,0-2.5Z"/><path d="M2669.38,511c.37-.28.16-.06.41-.13.05,0,.25.24,0,0a1.27,1.27,0,0,0-1.77,0,1.29,1.29,0,0,0,0,1.77,2.21,2.21,0,0,0,3.09.13,1.26,1.26,0,0,0,0-1.77,1.3,1.3,0,0,0-1.77,0Z"/><path d="M2668.3,511.1c-4.27.69-9.56,4.16-13-.56-1.45-2-1.92-4.14-3.9-5.8a14.81,14.81,0,0,0-5.47-2.65c-2.34-.67-9.66-.61-9.94-3.91l-2.14.88c2.39,2.26,4.58,2.22,7.72,2.32,6,.18,10.59,2.27,13.79,7.56,1.4,2.32,2.26,4.69,5.26,5.11,3.15.44,6.48-2,9.07-3.36l-1.51-2c-3.49,2.95-6.76,4-10.92.88a36.31,36.31,0,0,1-5.27-5.53l-.55,2.09h1.19c1.58.5,2.1-1.81.66-2.41a21.92,21.92,0,0,0-4.93-1.5c-.16,0-6-.54-2.74.8,1.49.61,2.13-1.81.67-2.41-1.67-.69-4.75-.27-4,2.31.22.78.78,1.08,1.49,1.42a10.28,10.28,0,0,0,2.78.15,21.45,21.45,0,0,1,6.1,1.64l.66-2.41a3.07,3.07,0,0,0-2.52,0,1.26,1.26,0,0,0-.55,2.09c2.39,2.81,6.16,8.11,10.16,8.57,3.46.4,7-1.8,9.57-3.92,1.12-.95-.31-2.6-1.52-2-2.56,1.35-6.82,4.28-9.69,1.47-.79-.77-1.38-2.68-2-3.6a16.84,16.84,0,0,0-4.05-4.2,17.17,17.17,0,0,0-6.35-2.95c-3.34-.77-8,.62-10.73-2-.73-.68-2.23-.25-2.13.89a5.13,5.13,0,0,0,3.74,4.82c5,1.83,10.44.43,14.05,5.39,1.94,2.67,2.5,5.81,6,6.87,3.91,1.17,7.91-1.14,11.7-1.75,1.58-.26.91-2.67-.66-2.41Z"/><path d="M2683.43,500.73c-.51-2.32-1.21-3.77-3.52-4.51s-3.29.1-4.68-1.91c-1.15-1.67-.66-2.12-.54-4a9.4,9.4,0,0,0-.57-4.64c-3.33-7.75-14.09-6.33-18.9-12.52l-1.76,1.77a27.65,27.65,0,0,0,6.88,4.18c4.29,1.75,8.53,2.36,11.07,6.77,1.43,2.47,1.15,5.52,2.9,7.8,2.2,2.89,6.59,3.35,7.64,7.23a1.26,1.26,0,0,0,2.46-.33c0-2.44-.3-4.37-2.18-6-1.21-1.06-2.44-1.5-3.62-2.71-1.9-1.94-2.55-4-3.25-6.55-1.68-6.11-7-6.15-12.66-7.76a1.25,1.25,0,0,0-.66,2.41c3.16.9,6.56,1.35,9.07,3.52,2.21,1.91,2,4.14,3.23,6.73,1.7,3.62,7.53,6.34,7.57,10.38l2.45-.33c-.71-2.63-2.34-3.92-4.5-5.45-2.69-1.89-3.65-3-4.75-6.19a22,22,0,0,0-1.54-4c-4-6.92-12.51-6.8-18.35-11.45a1.25,1.25,0,0,0-1.76,1.77c5.65,7.29,19.24,4.89,18.55,16.53-.14,2.41-.17,4,1.72,5.62,2.22,1.94,6.57,1.11,7.29,4.35.34,1.57,2.75.9,2.41-.67Z"/><path d="M2692.21,497.2a1.25,1.25,0,0,0,0-2.5,1.25,1.25,0,0,0,0,2.5Z"/><path d="M2692.49,498.56l1.41,1.69a1.26,1.26,0,0,0,2.13-.88,14.36,14.36,0,0,0-1.74-6.81,1.26,1.26,0,0,0-2.33.63l-.05,3.66a1.25,1.25,0,0,0,2.5,0,7.5,7.5,0,0,0-2.57-6.26c-2.38-2.31-6.65-3-7.47-6.73-.15-.69.4-2.83.32-3.65a22.66,22.66,0,0,0-1.25-4.56,28.11,28.11,0,0,1-1.53-6.53c-.15-1.84-.55-6.53.75-7.81.19-1.26.38-1.17.59.27.14,1.17.33,2.32.57,3.47.35,1.72.84,3.42,1.3,5.11a89.29,89.29,0,0,1,2.36,12.15,9.16,9.16,0,0,0,2.32,5.45c3,3.35,5.72,5,6.91,9.79l2.28-1a19.65,19.65,0,0,0-5.59-7.15,20.74,20.74,0,0,0-2.74-1.78c-.76-.42-6-2.3-6.1-2.71a1.25,1.25,0,0,0,2.41-.67q-2.4-8.8-5.44-17.41l-2.29,1,4.88,10.85c.94,2.1,1.61,5.29,3.59,6.65a1.26,1.26,0,0,0,1.51-.2l.24-.2-2.14-.88.14,1.33,2.13-.89-.61-.94a1.26,1.26,0,0,0-2.41,0l-.34,1.27h2.41c-.85-4.57-.56-9.33-1.45-13.85-.59-3-2.16-5.53-3.86-8.07a1.26,1.26,0,0,0-2.28,1l2.1,9.13a1.26,1.26,0,0,0,2.46-.33,69.63,69.63,0,0,0-1-11.89c-.27-1.58-2.68-.91-2.41.66a65.09,65.09,0,0,1,.89,11.23l2.45-.34-2.1-9.13-2.29,1a22.72,22.72,0,0,1,3.88,12.26,76.46,76.46,0,0,0,1.18,9.05c.23,1.25,2.1,1.13,2.41,0l.34-1.26h-2.41a5.89,5.89,0,0,0,1.25,2,1.27,1.27,0,0,0,2.14-.88l-.14-1.33a1.27,1.27,0,0,0-2.13-.89c1.94-1.68-5.3-14.37-6.29-16.59-.58-1.28-2.76-.37-2.29,1q3,8.61,5.45,17.41l2.41-.67c-.78-2.54-2.55-4-4.83-2.08a1.25,1.25,0,0,0-.32,1.21c.54,2.69,2.72,4,5,5.18,4.44,2.34,7.74,4.57,10,9.26.64,1.31,2.62.37,2.29-1a17.16,17.16,0,0,0-4.7-8.45c-2.5-2.39-3.86-3.82-4.57-7.58-.39-2.07-.5-4.17-1-6.24-1.05-4.6-1.87-9.89-3.38-14.31-.48-1.42-1.45-3.18-3.32-2.59s-2.27,4.06-2.52,5.61a25.82,25.82,0,0,0,1.11,12.24,27.45,27.45,0,0,1,1.23,3.79c.26,1.55-.38,3.23-.35,4.66a6.37,6.37,0,0,0,0,1.8c1.63,5.3,10.56,4,10.22,11h2.5l.05-3.66-2.33.63a9.2,9.2,0,0,1,1.4,5.55l2.14-.89-1.42-1.69c-1-1.23-2.79.54-1.76,1.77Z"/><path d="M2709.68,496.81a7.18,7.18,0,0,0-1.41-3.67c-.72-1-2.05-2-2.56-3.08-1-2.26.2-3.86.34-5.88a28.09,28.09,0,0,0-.51-8.58c-.5-2.14-3.6-7.39-2.21-9.34l-2.28-.3c1.17,3.52,2.35,7,3.51,10.57a22.48,22.48,0,0,1,1.25,4.54c.23,2-.56,3.69-.54,5.63a7.42,7.42,0,0,0,1.2,4.45,17.09,17.09,0,0,0,1.87,2.12c.64.72,3.73,4.5,2.52,1l-2.41.66,1.13,2.7c.62,1.46,3,.82,2.41-.67l-1.13-2.69c-.6-1.44-3-.9-2.41.66.63,1.82,2.27,4.09,4.42,3a1.23,1.23,0,0,0,.62-1.08,6,6,0,0,0-1.63-3.51c-.76-1-2-1.72-2.64-2.74-3.07-4.56-.9-3.76-.9-6.7,0-6.41-2.84-12.52-4.86-18.59a1.27,1.27,0,0,0-2.29-.3c-1.18,1.66-.82,3-.2,4.89,1.3,3.94,2.89,7.52,2.77,11.82-.07,2.72-1.62,5.67-.77,8.39.79,2.57,3.9,3.91,4.21,6.71.18,1.58,2.68,1.59,2.5,0Z"/><path d="M2716.73,502.71c1.4-2.62,3.44-6.11,3.68-9.14.17-2.09-.81-3.26-1.58-5.13-2-4.87,2.35-6.26,4.52-9.66a7.86,7.86,0,0,0,.72-6.49l-1.54,1.54c6.67,1.55-2.65,9.41-3.6,10.72a3.87,3.87,0,0,0-.64,3.9c.18.53.83.82,1.09,1.26,1.85,3.16,2.88,3.11,2.36,6.63s-2.33,6.49-2.8,10l2.29-.3c-1.79-3.38-1.57-6.27-1-9.92h-2.41a33.93,33.93,0,0,1,1.66,6.58c.21,1.43,2.42,1,2.45-.34.06-2.14-.48-4.66-.2-6.75a18.57,18.57,0,0,1,.48-1.87c.26-1.51.41-2.12-.64-3.37s-2.8.54-1.77,1.76l-.16.72a1.24,1.24,0,0,0-.62,1.08,55.24,55.24,0,0,1,.41,8.43l2.46-.33a33.83,33.83,0,0,0-1.66-6.57c-.37-1-2.19-1.34-2.41,0-.71,4.36-.89,7.83,1.23,11.85.46.87,2.14.78,2.28-.3.58-4.27,3.13-8.11,3.08-12.47a8.67,8.67,0,0,0-.79-3.82c-.91-1.8-3.4-2.74-2-5.33.7-1.28,2.56-2.23,3.43-3.56a11.05,11.05,0,0,0,1.88-5c.16-2.72-1.1-4.72-3.76-5.34a1.27,1.27,0,0,0-1.54,1.54c1.34,5.23-6.29,7.59-6.07,12.87a14.23,14.23,0,0,0,1.25,4.34c1.55,4.4-.13,7.27-2.27,11.28-.76,1.42,1.4,2.68,2.16,1.26Z"/><path d="M2719.09,486.27a23.69,23.69,0,0,1,2.34-4.7c.19-.28.37-.56.57-.83s.8-.69.28-.77-1.19,1.91-1.42,2.42l2.16,1.26a9.3,9.3,0,0,0,.65-5.51c-.28-1.58-2.69-.91-2.41.67a6.2,6.2,0,0,1-.4,3.58c-.62,1.45,1.49,2.73,2.16,1.26.57-1.26,2-3.24,1.64-4.69a2.17,2.17,0,0,0-2.85-1.34c-1.29.46-2.13,2-2.81,3.12a26.21,26.21,0,0,0-2.32,4.87c-.55,1.51,1.86,2.16,2.41.66Z"/><path d="M2724.91,507.51c2.24-4.36,5.35-6.29,9.86-7.85a22.73,22.73,0,0,0,6.25-2.87,21.57,21.57,0,0,0,5.24-5.66c1.53-2.3,2.42-6.21,4.68-7.8l-1.83-.75c2.24,7.81-6.47,13.85-12.63,16.13-5.21,1.94-8.36,4.63-11.89,9l2.09,1.21a16.77,16.77,0,0,1,4.4-7.44,1.25,1.25,0,0,0-1.77-1.77,19.3,19.3,0,0,0-5,8.55c-.34,1.13,1.28,2.21,2.08,1.22a39.76,39.76,0,0,1,4.9-5.31c2.06-1.76,4.16-2.3,6.58-3.29a29,29,0,0,0,7.47-4.22c4.38-3.53,7.86-9,6.22-14.74a1.26,1.26,0,0,0-1.84-.75c-2.21,1.55-2.78,3.75-4,6.09-2,3.81-4.66,7.08-8.66,8.93-6.07,2.79-10.91,3.6-14.23,10.05-.73,1.43,1.43,2.7,2.16,1.27Z"/><path d="M2745.54,495.14q2.14-4.29,4.27-8.59l-2,.26a1.75,1.75,0,0,1,.44,1.63c-.18,1.59,2.32,1.58,2.5,0a4.19,4.19,0,0,0-1.17-3.4,1.27,1.27,0,0,0-2,.25q-2.12,4.31-4.27,8.59c-.72,1.43,1.43,2.7,2.16,1.26Z"/><path d="M2730.61,513c2.27-3.93,7.67-2.14,11.26-2.75a16.32,16.32,0,0,0,6.67-2.74c3-2.06,5.09-4.57,8.6-5.9s7.17-2.16,10.72-3.2l-1.41-1.84c-1.32,3-6,2.34-8.57,3.55s-4.48,3.16-6.54,4.91c-6.44,5.49-14.54,6.44-22.6,8.2l1.22,2.09c1.64-1.48,2.33-3.24,4.65-3.9,1.75-.5,3.32-.34,5-1.05l-1.22-2.09a6.38,6.38,0,0,1-5.84,2.08c-1.61-.08-1.6,2.42,0,2.5a9.61,9.61,0,0,0,7.61-2.82c.86-.8,0-2.57-1.22-2.09-2.29,1-5,.48-7.19,1.65-1.78.95-2.13,2.62-3.61,3.95-1,.88.07,2.34,1.22,2.09,7.58-1.66,16-2.46,22.15-7.52,3.4-2.78,6.25-6,10.78-6.62,3-.42,4.91-.61,6.27-3.67a1.26,1.26,0,0,0-1.41-1.83c-4,1.18-8.36,2.07-12.22,3.79-3.53,1.56-5.7,4.54-9,6.39-5.46,3.06-13.94-.66-17.53,5.56a1.25,1.25,0,0,0,2.16,1.26Z"/><path d="M2733.15,520.61a1.25,1.25,0,0,0,0-2.5,1.25,1.25,0,0,0,0,2.5Z"/><path d="M2735.29,520.58c5.4.16,8,1.84,12.73-1.51a36.44,36.44,0,0,1,16.35-6.59l-1.59-1.21c0,.23-6.12,1.32-6.9,1.59a13.23,13.23,0,0,0-4.78,2.79c-2.94,2.7-4.48,4.72-8.91,4.59-3.31-.1-6.67-.52-10-.78-1.6-.13-1.6,2.37,0,2.5,7.36.58,13.63,2.45,19.2-3,3.47-3.39,6.43-3.75,10.75-5.05,1.8-.54,2.89-.68,3.12-2.63.11-.88-.88-1.33-1.58-1.2-4.35.76-8.81,1.56-12.71,3.75-2,1.1-3.62,3.25-5.61,4.11-3.42,1.48-6.65.25-10.09.15-1.61-.05-1.61,2.45,0,2.5Z"/><polygon class="cls-5" points="4380 627 4209 605 4217 413 4389 401 4380 627"/><path class="cls-5" d="M3993,242l-17,403,732,124,27-617Zm637,461-607-91,14-335,620-63Z"/><polygon class="cls-2" points="4226.5 424.5 4220.5 594.5 4363.5 612.5 4372.5 416.5 4226.5 424.5"/><polygon class="cls-5" points="4244 389 4158 389.5 4162 293.5 4248 287.5 4244 389"/><polygon class="cls-5" points="4480 376 4394 376.5 4398 280.5 4484 274.5 4480 376"/><polygon class="cls-5" points="4354 379 4268 379.5 4272 283.5 4358 277.5 4354 379"/><polygon class="cls-2" points="4166.75 299.25 4163.75 384.25 4236 379 4239.75 295.25 4166.75 299.25"/><polygon class="cls-2" points="4281.75 288.25 4278.75 373.25 4351 368 4354.75 284.25 4281.75 288.25"/><polygon class="cls-2" points="4403.75 285.25 4400.75 370.25 4473 365 4476.75 281.25 4403.75 285.25"/><path d="M4269.37,510.48a66.61,66.61,0,0,1,15.78-6.84c5.44-1.65,11.74-3.88,17.43-4.12,8.53-.35,34.91,13.75,24,24.07-7.15,6.78-21,6.93-30.08,5.33a47.09,47.09,0,0,1-13.78-4.73c-3.75-2-16.69-9.41-11.35-15.06,1.1-1.17-.66-2.94-1.77-1.77-9.14,9.68,13.07,20.16,19.71,22.32,11.31,3.68,27.8,4.32,37.8-3.31,13.65-10.42-5.49-22.59-14.33-27-7.29-3.64-13.94-2-21.49,0-8.09,2.09-16,4.58-23.19,9-1.37.84-.12,3,1.26,2.16Z"/><path d="M4249.84,542.46c-1.58-6.54,6.47-11.05,11.37-13.06a36.39,36.39,0,0,1,14-2.64c8.45.07,25.87,4.28,26.23,14.92.39,11.75-12.9,18.13-22.93,17.62a42.1,42.1,0,0,1-16.45-4.35c-5.18-2.58-8.15-7-11-11.89a1.25,1.25,0,0,0-2.16,1.26c3.5,6.06,7,10.68,13.54,13.56,6.81,3,14.56,4.73,22,3.62,10.22-1.52,22.22-11.32,19.06-22.91-1.52-5.56-8.33-9.17-13.22-11.22a40.2,40.2,0,0,0-18.1-3c-9,.6-27.79,6.5-24.82,18.77.38,1.56,2.79.9,2.41-.66Z"/><path d="M4320.69,531.72c7.31-2,17.49,4.95,19.49,12,2.3,8.06-2.62,15.82-9.48,19.72-12,6.81-30.66,4.38-40.11-5.69-1.11-1.18-2.87.59-1.77,1.77,11.75,12.51,37.46,14.51,49.34,1.11,5.27-6,7-15.12,2.41-22-4-6-13.33-11.27-20.54-9.3a1.25,1.25,0,0,0,.66,2.41Z"/><path d="M4275.79,513.74c4.28,1.8,7.61,5.15,11.81,7.06,3.59,1.64,7.53,1.85,11.41,2.09,8.45.54,16.91.49,24.49-3.72,1.41-.78.15-2.94-1.26-2.16-7.63,4.24-16.42,3.94-24.87,3.27-4.9-.39-8.48-1.3-12.64-4.07a51,51,0,0,0-8.27-4.88c-1.48-.63-2.13,1.79-.67,2.41Z"/><path d="M4290.13,506.71a2.61,2.61,0,0,0-1.89,2.84,2.71,2.71,0,0,0,2.88,2.38,3,3,0,0,0,2.95-2.71,2.12,2.12,0,0,0-1.08-1.84,5.57,5.57,0,0,0-.76-.32l-.18-.07c-.08,0-.08,0,0,0l-.11-.06a.51.51,0,0,1,.22.33,1.27,1.27,0,0,0-1.53-.87,1.25,1.25,0,0,0-.88,1.53,2.54,2.54,0,0,0,1.67,1.49l.18.07c.09,0,.08,0,0,0,.16,0,.07.14,0-.07s0-.2-.25-.08a.72.72,0,0,1-.27.1s-.25,0-.17,0c-.12,0-.37-.21-.17,0-.09-.1,0-.21,0-.33,0,.12.09,0,0,0,.37-.1-.33.06.08,0,1.57-.34.9-2.75-.67-2.41Z"/><path d="M4307.91,509.08a2.31,2.31,0,0,0-2.93.38,2.28,2.28,0,0,0,.05,3.17,2.53,2.53,0,0,0,3.08.45,2.9,2.9,0,0,0,1.28-3,1.27,1.27,0,0,0-1.54-.87,1.29,1.29,0,0,0-.87,1.54c0-.11,0-.09,0,.07,0-.12,0-.1,0,.06,0-.07-.05.06-.11.11a.1.1,0,0,1,.1,0c-.15,0-.17,0-.06,0s.1,0-.05,0a.09.09,0,0,1,.09.05c-.11-.11-.12-.12-.06-.05a.24.24,0,0,1,0,.14.53.53,0,0,1-.08.17c.08-.13.08-.14,0,0s-.09.07,0,0a.22.22,0,0,1-.18,0c.33.06-.27-.18,0,0a1.26,1.26,0,0,0,1.71-.45,1.27,1.27,0,0,0-.45-1.71Z"/><path d="M4263.87,544.5c-.77-3.7,4.5-6.66,7.44-6.57,2.75.09,11.33,3.25,7,6.69-1.26,1,.52,2.76,1.77,1.76a4.73,4.73,0,0,0,1.37-5.58c-1.24-3.09-5.11-4.55-8.13-5.11-5.3-1-13.2,3-11.86,9.47.33,1.58,2.74.91,2.41-.66Z"/><path d="M4271.59,540.49c-1.69-.66-3.13,1.77-1.9,3,1.47,1.48,3.7-.89,2.68-2.48a1.28,1.28,0,0,0-1.71-.45,1.26,1.26,0,0,0-.45,1.71c-.35-.53.29-.92.73-.84l.56.33a.82.82,0,0,1,.16.79l-.23.24c-.62,0-.79,0-.5.09a1.25,1.25,0,0,0,1.53-.87,1.28,1.28,0,0,0-.87-1.54Z"/><path d="M4321.66,548.6a9.94,9.94,0,0,1,6-3.45c2.7-.42,6.88.6,6.29,4.25-.25,1.58,2.16,2.26,2.41.67.6-3.7-1.83-6.67-5.46-7.37a12,12,0,0,0-11,4.13c-1.07,1.2.7,3,1.77,1.77Z"/><path d="M4327.87,549.38l.56-.21a1.29,1.29,0,0,0,.87-1.54,1.26,1.26,0,0,0-1.54-.87l-.55.21a1.29,1.29,0,0,0-.88,1.54,1.27,1.27,0,0,0,1.54.87Z"/><path d="M4337.53,535.44c8.4-.44,16.74.68,25.16.39,1.61-.06,1.61-2.56,0-2.5-8.42.29-16.76-.83-25.16-.39-1.6.09-1.61,2.59,0,2.5Z"/><path d="M4341.12,537.53c7.41-.72,15.62.86,22.79-1.17a1.25,1.25,0,0,0-.67-2.41c-3.63,1-7,.65-10.73.58a98.45,98.45,0,0,0-11.39.5c-1.59.15-1.6,2.65,0,2.5Z"/><path d="M4365.54,532.09c-.21.2.12,0-.14.09.21-.09-.14,0-.16,0-.21.07-.43.11-.64.19a2.42,2.42,0,0,0-1.46,1.16,1.25,1.25,0,0,0,2,1.51c.95-1,1.8-2,1.77-3.48a1.25,1.25,0,0,0-2.5,0,1,1,0,0,1-.25.84l-.05.07-.2.22c-.17.2-.36.39-.54.59l2,1.51c.11-.22-.05,0-.09,0s.14-.07,0,0l.64-.19a3.36,3.36,0,0,0,1.46-.79c1.14-1.13-.63-2.9-1.77-1.77Z"/><path d="M4362,532.45a2.71,2.71,0,0,0,.07,3.29,4.39,4.39,0,0,0,2.5,1.2,1.25,1.25,0,0,0,.66-2.41,3.65,3.65,0,0,1-1.27-.42c.15.09-.13-.09,0,0s0,0,0-.07l0,.07c-.17.26.16-.26.05-.07l.17-.31a1.25,1.25,0,0,0-2.16-1.26Z"/><path d="M4228.05,510.9c3.26,5.5,6.6,10.07,12.47,13,5.61,2.75,11.83,3.8,17.95,4.74l-.3-2.29-2.44,1.16c-1.45.68-.18,2.84,1.26,2.15l2.45-1.15a1.26,1.26,0,0,0-.3-2.28c-5.26-.81-10.58-1.67-15.53-3.7-6.37-2.61-10-7.06-13.4-12.85a1.25,1.25,0,0,0-2.16,1.26Z"/><path d="M4226.54,522.59a5,5,0,0,0,2.48-3.26,7.09,7.09,0,0,0-1.25-4.46,1.25,1.25,0,0,0-2.16,1.26,5.74,5.74,0,0,1,1,2.46c0,.91-.62,1.37-1.29,1.85-1.3.92-.05,3.09,1.26,2.15Z"/><path d="M4226.56,525.93a1.25,1.25,0,0,0,0-2.5,1.25,1.25,0,0,0,0,2.5Z"/><path d="M4255.52,528.9c-3.55-2.15-7.34-2.88-11.4-3.61a52.47,52.47,0,0,1-14.71-4.87l-1,2.28q13,3.88,25.67,8.61l.33-2.45-1.84-.55a1.26,1.26,0,0,0-2.09.56,2.1,2.1,0,0,0,.4,2.21l1.41-1.83a167.88,167.88,0,0,0-17.06-5.8c-3.67-1-6.77-2.45-10.09-.09-1.3.92-.05,3.09,1.26,2.16,3.29-2.34,10.31.91,13.62,2,3.93,1.25,7.78,2.66,11.61,4.18a1.26,1.26,0,0,0,1.41-1.84l-.15-.29-2.09.55a3.89,3.89,0,0,0,3.61,1.28,1.26,1.26,0,0,0,.33-2.46q-12.69-4.73-25.67-8.61c-1.33-.4-2.24,1.64-1,2.29a51.25,51.25,0,0,0,12.16,4.5c4.8,1.08,9.64,1.37,13.95,4a1.25,1.25,0,0,0,1.26-2.16Z"/><path d="M4231.35,516.29c-.19-3-2.23-5.29-3.52-7.86l.13,1,0-.11-2.29.29s0,0,.05.15c.57,1.48,3,.84,2.41-.67-.1-.25-.18-.5-.3-.74a1.27,1.27,0,0,0-2.29.3c-.2,1.23.86,2.45,1.47,3.45a9.91,9.91,0,0,1,1.82,4.23c.1,1.6,2.6,1.61,2.5,0Z"/><path d="M4234.27,523.33c1.14-.41,2.33-.65,3.5-1a1.25,1.25,0,0,0-.33-2.45,28.52,28.52,0,0,1-6.31-1.54,1.25,1.25,0,0,0-1.58,1.21c0,.3.05.6.08.91l1.88-1.08a2.59,2.59,0,0,1-1-1.49l-1.2,1.58a12.08,12.08,0,0,1,4,.62,27.33,27.33,0,0,1,2.67.8c.43.15,1.65,1,2.08,1,.14.18.17.15.09-.06s0-.41.27-.55c-.06-.11-.59-.13-.74-.24-.71-.51-1.6-.87-2.34-1.36-1.15-.78-2.25-1.63-3.32-2.51-1.24-1-3,.74-1.77,1.76,1.5,1.24,9.48,8,10.31,3.14.37-2.15-2.55-3.1-4.1-3.64-2.11-.73-4.91-1.7-7.18-1.44a1.27,1.27,0,0,0-1.21,1.58,5.88,5.88,0,0,0,2.17,3,1.27,1.27,0,0,0,1.89-1.08c0-.31-.06-.61-.08-.91l-1.58,1.2a31.4,31.4,0,0,0,7,1.63l-.34-2.46c-1.16.34-2.35.58-3.49,1-1.5.55-.85,3,.66,2.41Z"/><path d="M4224.08,515c.17.19.19.12.06-.24a.52.52,0,0,1,.12-.64l.09-.07c-.12.06-.14.07-.06,0l-.21,0c.2,0-.09,0-.15,0a1.25,1.25,0,0,0,0,2.5,3,3,0,0,0,2.13-.79,1.8,1.8,0,0,0-.21-2.62,1.25,1.25,0,0,0-1.77,1.77Z"/><path d="M4227.64,516c.06-.16-.14,0-.37,0a2,2,0,0,1-.73-.13,11.62,11.62,0,0,0-2.12-.47c-1.6-.13-1.59,2.37,0,2.5,1.18.1,2.18.75,3.41.54a2.73,2.73,0,0,0,2.22-1.82c.57-1.51-1.84-2.16-2.41-.67Z"/><path d="M4228,519.13a1.25,1.25,0,0,0,0-2.5,1.25,1.25,0,0,0,0,2.5Z"/><path d="M4225.15,519l-.18.08-.63-.17.08.05-.45-.45-.06-.12v-.66l0,.08.58-.75-.07.05a1.29,1.29,0,0,0-.45,1.71,1.26,1.26,0,0,0,1.71.45,1.47,1.47,0,0,0,.48-2,1.66,1.66,0,0,0-2.24-.41,1.25,1.25,0,0,0-.45,1.71,1.28,1.28,0,0,0,1.71.45Z"/><path d="M4226.6,521.08a1.25,1.25,0,0,0,0-2.5,1.25,1.25,0,0,0,0,2.5Z"/><path d="M4273.74,502.31c-6.54.78-12.62-9.35-15.9-13.89-2.77-3.83-7.5-4.53-10.26-8.1a1.25,1.25,0,0,0-1.52-.19,4.49,4.49,0,0,0-1.94,2.1,1.27,1.27,0,0,0,.75,1.84c2.34.62,9.27,1.26,9.73,4.16l1.84-1.41a32.8,32.8,0,0,1-6.65-3.89l-1,2.28c5.95,1,9.77,10.25,13.71,14.53,3.35,3.63,7.09,6.62,12.22,6.6a1.25,1.25,0,0,0,0-2.5c-7.11,0-12.51-7.71-16.11-13-2.46-3.65-4.48-7.19-9.16-8a1.26,1.26,0,0,0-1,2.29,33.07,33.07,0,0,0,6.65,3.89,1.27,1.27,0,0,0,1.83-1.42c-.74-4.58-8-5-11.48-5.9l.75,1.84c.41-.74,1.86.84,2.51,1.23,1.09.68,2.33,1.1,3.44,1.75,3.26,1.91,5,5.74,7.42,8.61,3.5,4.23,7.92,10.45,14.09,9.72,1.58-.18,1.6-2.68,0-2.5Z"/><path d="M4269.38,511c.37-.28.16-.06.41-.13.05,0,.25.24,0,0a1.27,1.27,0,0,0-1.77,0,1.29,1.29,0,0,0,0,1.77,2.21,2.21,0,0,0,3.09.13,1.26,1.26,0,0,0,0-1.77,1.3,1.3,0,0,0-1.77,0Z"/><path d="M4268.3,511.1c-4.27.69-9.56,4.16-13-.56-1.45-2-1.92-4.14-3.9-5.8a14.81,14.81,0,0,0-5.47-2.65c-2.34-.67-9.66-.61-9.94-3.91l-2.14.88c2.39,2.26,4.58,2.22,7.72,2.32,6,.18,10.59,2.27,13.79,7.56,1.4,2.32,2.26,4.69,5.26,5.11s6.48-2,9.07-3.36l-1.51-2c-3.49,2.95-6.76,4-10.92.88a36.31,36.31,0,0,1-5.27-5.53l-.55,2.09h1.19c1.58.5,2.1-1.81.66-2.41a21.92,21.92,0,0,0-4.93-1.5c-.16,0-6-.54-2.74.8,1.49.61,2.13-1.81.67-2.41-1.67-.69-4.75-.27-4,2.31.22.78.78,1.08,1.49,1.42a10.28,10.28,0,0,0,2.78.15,21.45,21.45,0,0,1,6.1,1.64l.66-2.41a3.07,3.07,0,0,0-2.52,0,1.26,1.26,0,0,0-.55,2.09c2.39,2.81,6.16,8.11,10.16,8.57,3.46.4,7.05-1.8,9.57-3.92,1.12-.95-.31-2.6-1.52-2-2.56,1.35-6.82,4.28-9.69,1.47-.79-.77-1.38-2.68-2-3.6a16.84,16.84,0,0,0-4-4.2,17.17,17.17,0,0,0-6.35-2.95c-3.34-.77-8,.62-10.73-2-.73-.68-2.23-.25-2.13.89a5.13,5.13,0,0,0,3.74,4.82c5,1.83,10.44.43,14.05,5.39,1.94,2.67,2.5,5.81,6,6.87,3.91,1.17,7.91-1.14,11.7-1.75,1.58-.26.91-2.67-.66-2.41Z"/><path d="M4283.43,500.73c-.51-2.32-1.21-3.77-3.52-4.51s-3.29.1-4.68-1.91c-1.15-1.67-.66-2.12-.54-4a9.4,9.4,0,0,0-.57-4.64c-3.33-7.75-14.09-6.33-18.9-12.52l-1.76,1.77a27.65,27.65,0,0,0,6.88,4.18c4.29,1.75,8.53,2.36,11.07,6.77,1.43,2.47,1.15,5.52,2.9,7.8,2.2,2.89,6.59,3.35,7.64,7.23a1.26,1.26,0,0,0,2.46-.33c0-2.44-.3-4.37-2.18-6-1.21-1.06-2.44-1.5-3.62-2.71-1.9-1.94-2.55-4-3.25-6.55-1.68-6.11-7-6.15-12.66-7.76a1.25,1.25,0,0,0-.66,2.41c3.16.9,6.56,1.35,9.07,3.52,2.21,1.91,2,4.14,3.23,6.73,1.7,3.62,7.53,6.34,7.57,10.38l2.45-.33c-.71-2.63-2.34-3.92-4.5-5.45-2.69-1.89-3.65-3-4.75-6.19a22,22,0,0,0-1.54-4c-4-6.92-12.51-6.8-18.35-11.45a1.25,1.25,0,0,0-1.76,1.77c5.65,7.29,19.24,4.89,18.55,16.53-.14,2.41-.17,4,1.72,5.62,2.22,1.94,6.57,1.11,7.29,4.35.34,1.57,2.75.9,2.41-.67Z"/><path d="M4292.21,497.2a1.25,1.25,0,0,0,0-2.5,1.25,1.25,0,0,0,0,2.5Z"/><path d="M4292.49,498.56l1.41,1.69a1.26,1.26,0,0,0,2.13-.88,14.36,14.36,0,0,0-1.74-6.81,1.26,1.26,0,0,0-2.33.63l-.05,3.66a1.25,1.25,0,0,0,2.5,0,7.5,7.5,0,0,0-2.57-6.26c-2.38-2.31-6.65-3-7.47-6.73-.15-.69.4-2.83.32-3.65a22.66,22.66,0,0,0-1.25-4.56,28.11,28.11,0,0,1-1.53-6.53c-.15-1.84-.55-6.53.75-7.81.19-1.26.38-1.17.59.27.14,1.17.33,2.32.57,3.47.35,1.72.84,3.42,1.3,5.11a89.29,89.29,0,0,1,2.36,12.15,9.16,9.16,0,0,0,2.32,5.45c3,3.35,5.72,5,6.91,9.79l2.28-1a19.65,19.65,0,0,0-5.59-7.15,20.74,20.74,0,0,0-2.74-1.78c-.76-.42-6-2.3-6.1-2.71a1.25,1.25,0,0,0,2.41-.67q-2.4-8.8-5.44-17.41l-2.29,1,4.88,10.85c.94,2.1,1.61,5.29,3.59,6.65a1.26,1.26,0,0,0,1.51-.2l.24-.2-2.14-.88.14,1.33,2.13-.89-.61-.94a1.26,1.26,0,0,0-2.41,0l-.34,1.27h2.41c-.85-4.57-.56-9.33-1.45-13.85-.59-3-2.16-5.53-3.86-8.07a1.26,1.26,0,0,0-2.28,1l2.1,9.13a1.26,1.26,0,0,0,2.46-.33,69.63,69.63,0,0,0-1-11.89c-.27-1.58-2.68-.91-2.41.66a65.09,65.09,0,0,1,.89,11.23l2.45-.34-2.1-9.13-2.29,1a22.72,22.72,0,0,1,3.88,12.26,76.46,76.46,0,0,0,1.18,9.05c.23,1.25,2.1,1.13,2.41,0l.34-1.26h-2.41a5.89,5.89,0,0,0,1.25,2,1.27,1.27,0,0,0,2.14-.88l-.14-1.33a1.27,1.27,0,0,0-2.13-.89c1.94-1.68-5.3-14.37-6.29-16.59-.58-1.28-2.76-.37-2.29,1q3,8.61,5.45,17.41l2.41-.67c-.78-2.54-2.55-4-4.83-2.08a1.25,1.25,0,0,0-.32,1.21c.54,2.69,2.72,4,5,5.18,4.44,2.34,7.74,4.57,10,9.26.64,1.31,2.62.37,2.29-1a17.16,17.16,0,0,0-4.7-8.45c-2.5-2.39-3.86-3.82-4.57-7.58-.39-2.07-.5-4.17-1-6.24-1.05-4.6-1.87-9.89-3.38-14.31-.48-1.42-1.45-3.18-3.32-2.59s-2.27,4.06-2.52,5.61a25.82,25.82,0,0,0,1.11,12.24,27.45,27.45,0,0,1,1.23,3.79c.26,1.55-.38,3.23-.35,4.66a6.37,6.37,0,0,0,0,1.8c1.63,5.3,10.56,4,10.22,11h2.5l.05-3.66-2.33.63a9.2,9.2,0,0,1,1.4,5.55l2.14-.89-1.42-1.69c-1-1.23-2.79.54-1.76,1.77Z"/><path d="M4309.68,496.81a7.18,7.18,0,0,0-1.41-3.67c-.72-1-2.05-2-2.56-3.08-1-2.26.2-3.86.34-5.88a28.09,28.09,0,0,0-.51-8.58c-.5-2.14-3.6-7.39-2.21-9.34l-2.28-.3c1.17,3.52,2.35,7,3.51,10.57a22.48,22.48,0,0,1,1.25,4.54c.23,2-.56,3.69-.54,5.63a7.42,7.42,0,0,0,1.2,4.45,17.09,17.09,0,0,0,1.87,2.12c.64.72,3.73,4.5,2.52,1l-2.41.66,1.13,2.7c.62,1.46,3,.82,2.41-.67l-1.13-2.69c-.6-1.44-2.95-.9-2.41.66.63,1.82,2.27,4.09,4.42,3a1.23,1.23,0,0,0,.62-1.08,6,6,0,0,0-1.63-3.51c-.76-1-1.95-1.72-2.64-2.74-3.07-4.56-.9-3.76-.9-6.7,0-6.41-2.84-12.52-4.86-18.59a1.27,1.27,0,0,0-2.29-.3c-1.18,1.66-.82,3-.2,4.89,1.3,3.94,2.89,7.52,2.77,11.82-.07,2.72-1.62,5.67-.77,8.39.79,2.57,3.9,3.91,4.21,6.71.18,1.58,2.68,1.59,2.5,0Z"/><path d="M4316.73,502.71c1.4-2.62,3.44-6.11,3.68-9.14.17-2.09-.81-3.26-1.58-5.13-2-4.87,2.35-6.26,4.52-9.66a7.86,7.86,0,0,0,.72-6.49l-1.54,1.54c6.67,1.55-2.65,9.41-3.6,10.72a3.87,3.87,0,0,0-.64,3.9c.18.53.83.82,1.09,1.26,1.85,3.16,2.88,3.11,2.36,6.63s-2.33,6.49-2.8,10l2.29-.3c-1.79-3.38-1.57-6.27-1-9.92h-2.41a33.93,33.93,0,0,1,1.66,6.58c.21,1.43,2.42,1,2.45-.34.06-2.14-.48-4.66-.2-6.75a18.57,18.57,0,0,1,.48-1.87c.26-1.51.41-2.12-.64-3.37s-2.8.54-1.77,1.76l-.16.72a1.24,1.24,0,0,0-.62,1.08,55.24,55.24,0,0,1,.41,8.43l2.46-.33a33.83,33.83,0,0,0-1.66-6.57c-.37-1-2.19-1.34-2.41,0-.71,4.36-.89,7.83,1.23,11.85.46.87,2.14.78,2.28-.3.58-4.27,3.13-8.11,3.08-12.47a8.67,8.67,0,0,0-.79-3.82c-.91-1.8-3.4-2.74-2-5.33.7-1.28,2.56-2.23,3.43-3.56a11.05,11.05,0,0,0,1.88-5c.16-2.72-1.1-4.72-3.76-5.34a1.27,1.27,0,0,0-1.54,1.54c1.34,5.23-6.29,7.59-6.07,12.87a14.23,14.23,0,0,0,1.25,4.34c1.55,4.4-.13,7.27-2.27,11.28-.76,1.42,1.4,2.68,2.16,1.26Z"/><path d="M4319.09,486.27a23.69,23.69,0,0,1,2.34-4.7c.19-.28.37-.56.57-.83s.8-.69.28-.77-1.19,1.91-1.42,2.42l2.16,1.26a9.3,9.3,0,0,0,.65-5.51c-.28-1.58-2.69-.91-2.41.67a6.2,6.2,0,0,1-.4,3.58c-.62,1.45,1.49,2.73,2.16,1.26.57-1.26,2-3.24,1.64-4.69a2.17,2.17,0,0,0-2.85-1.34c-1.29.46-2.13,2-2.81,3.12a26.21,26.21,0,0,0-2.32,4.87c-.55,1.51,1.86,2.16,2.41.66Z"/><path d="M4324.91,507.51c2.24-4.36,5.35-6.29,9.86-7.85a22.73,22.73,0,0,0,6.25-2.87,21.57,21.57,0,0,0,5.24-5.66c1.53-2.3,2.42-6.21,4.68-7.8l-1.83-.75c2.24,7.81-6.47,13.85-12.63,16.13-5.21,1.94-8.36,4.63-11.89,9l2.09,1.21a16.77,16.77,0,0,1,4.4-7.44,1.25,1.25,0,0,0-1.77-1.77,19.3,19.3,0,0,0-5,8.55c-.34,1.13,1.28,2.21,2.08,1.22a39.76,39.76,0,0,1,4.9-5.31c2.06-1.76,4.16-2.3,6.58-3.29a29,29,0,0,0,7.47-4.22c4.38-3.53,7.86-9,6.22-14.74a1.26,1.26,0,0,0-1.84-.75c-2.21,1.55-2.78,3.75-4,6.09-2,3.81-4.66,7.08-8.66,8.93-6.07,2.79-10.91,3.6-14.23,10.05-.73,1.43,1.43,2.7,2.16,1.27Z"/><path d="M4345.54,495.14q2.15-4.29,4.27-8.59l-2,.26a1.75,1.75,0,0,1,.44,1.63c-.18,1.59,2.32,1.58,2.5,0a4.19,4.19,0,0,0-1.17-3.4,1.27,1.27,0,0,0-2,.25q-2.11,4.31-4.27,8.59c-.72,1.43,1.43,2.7,2.16,1.26Z"/><path d="M4330.61,513c2.27-3.93,7.67-2.14,11.26-2.75a16.32,16.32,0,0,0,6.67-2.74c3-2.06,5.09-4.57,8.6-5.9s7.17-2.16,10.72-3.2l-1.41-1.84c-1.32,3-6,2.34-8.57,3.55s-4.48,3.16-6.54,4.91c-6.44,5.49-14.54,6.44-22.6,8.2l1.22,2.09c1.64-1.48,2.33-3.24,4.65-3.9,1.75-.5,3.32-.34,5.05-1.05l-1.22-2.09a6.38,6.38,0,0,1-5.84,2.08c-1.61-.08-1.6,2.42,0,2.5a9.61,9.61,0,0,0,7.61-2.82c.86-.8,0-2.57-1.22-2.09-2.29,1-5,.48-7.19,1.65-1.78.95-2.13,2.62-3.61,3.95-1,.88.07,2.34,1.22,2.09,7.58-1.66,16-2.46,22.15-7.52,3.4-2.78,6.25-6,10.78-6.62,3-.42,4.91-.61,6.27-3.67a1.26,1.26,0,0,0-1.41-1.83c-4,1.18-8.36,2.07-12.22,3.79-3.53,1.56-5.7,4.54-9,6.39-5.46,3.06-13.94-.66-17.53,5.56a1.25,1.25,0,0,0,2.16,1.26Z"/><path d="M4333.15,520.61a1.25,1.25,0,0,0,0-2.5,1.25,1.25,0,0,0,0,2.5Z"/><path d="M4335.29,520.58c5.4.16,8,1.84,12.73-1.51a36.44,36.44,0,0,1,16.35-6.59l-1.59-1.21c0,.23-6.12,1.32-6.9,1.59a13.23,13.23,0,0,0-4.78,2.79c-2.94,2.7-4.48,4.72-8.91,4.59-3.31-.1-6.67-.52-10-.78-1.6-.13-1.6,2.37,0,2.5,7.36.58,13.63,2.45,19.2-3,3.47-3.39,6.43-3.75,10.75-5.05,1.8-.54,2.89-.68,3.12-2.63.11-.88-.88-1.33-1.58-1.2-4.35.76-8.81,1.56-12.71,3.75-2,1.1-3.62,3.25-5.61,4.11-3.42,1.48-6.65.25-10.09.15-1.61-.05-1.61,2.45,0,2.5Z"/></g><g id="Person"><path class="cls-6" d="M2167,258c-14-103-111-190.72-232-224a174.71,174.71,0,0,0-27.48-34h-296q-5.91,5.78-11.56,12V565.93c29.1,32.28,63.43,54.94,100.81,64.69,20.15,5.26,39.38,13.75,56.17,26.07A153.64,153.64,0,0,0,1848,686h.1a22,22,0,0,1,15.33,6c36.66,35.4,95.57,18,95.57,18,103-111.83,108.17-201.59,92.3-259.45,108.51-27.53,68.07-82.12,6.3-127.26C2108.64,328,2174.7,314.65,2167,258Z"/><path class="cls-6" d="M3767,258c-14-103-111-190.72-232-224a174.71,174.71,0,0,0-27.48-34h-296q-5.91,5.78-11.56,12V565.93c29.1,32.28,63.43,54.94,100.81,64.69,20.15,5.26,39.38,13.75,56.17,26.07A153.64,153.64,0,0,0,3448,686h.1a22,22,0,0,1,15.33,6c36.66,35.4,95.57,18,95.57,18,103-111.83,108.17-201.59,92.3-259.45,108.51-27.53,68.07-82.12,6.3-127.26C3708.64,328,3774.7,314.65,3767,258Z"/></g><g id="tunge"><rect class="cls-1" width="1600" height="900"/><polygon class="cls-2" points="1457 734 1493 189 824 269 805 627 1457 734"/><polygon class="cls-3" points="1493 197 1472 734 1288 713 1314 214 1493 197"/><polygon class="cls-3" points="947 238 926 648 793 627 810 258 947 238"/><polygon class="cls-4" points="1493 197 1489.76 238 805 299 812.09 265.6 1493 197"/><polygon class="cls-5" points="1180 627 1009 605 1017 413 1189 401 1180 627"/><path class="cls-5" d="M793,242,776,645l732,124,27-617Zm637,461L823,612l14-335,620-63Z"/><polygon class="cls-2" points="1026.5 424.5 1020.5 594.5 1163.5 612.5 1172.5 416.5 1026.5 424.5"/><polygon class="cls-5" points="1044 389 958 389.5 962 293.5 1048 287.5 1044 389"/><polygon class="cls-5" points="1280 376 1194 376.5 1198 280.5 1284 274.5 1280 376"/><polygon class="cls-5" points="1154 379 1068 379.5 1072 283.5 1158 277.5 1154 379"/><polygon class="cls-2" points="966.75 299.25 963.75 384.25 1036 379 1039.75 295.25 966.75 299.25"/><polygon class="cls-2" points="1081.75 288.25 1078.75 373.25 1151 368 1154.75 284.25 1081.75 288.25"/><polygon class="cls-2" points="1203.75 285.25 1200.75 370.25 1273 365 1276.75 281.25 1203.75 285.25"/><path d="M1069.37,510.48a66.61,66.61,0,0,1,15.78-6.84c5.44-1.65,11.74-3.88,17.43-4.12,8.53-.35,34.91,13.75,24,24.07-7.15,6.78-21,6.93-30.08,5.33a47.09,47.09,0,0,1-13.78-4.73c-3.75-2-16.69-9.41-11.35-15.06,1.1-1.17-.66-2.94-1.77-1.77-9.14,9.68,13.07,20.16,19.71,22.32,11.31,3.68,27.8,4.32,37.8-3.31,13.65-10.42-5.49-22.59-14.33-27-7.29-3.64-13.94-2-21.49,0-8.09,2.09-16,4.58-23.19,9-1.37.84-.12,3,1.26,2.16Z"/><path d="M1049.84,542.46c-1.58-6.54,6.47-11.05,11.37-13.06a36.39,36.39,0,0,1,14-2.64c8.45.07,25.87,4.28,26.23,14.92.39,11.75-12.9,18.13-22.93,17.62a42.1,42.1,0,0,1-16.45-4.35c-5.18-2.58-8.15-7-11-11.89a1.25,1.25,0,0,0-2.16,1.26c3.5,6.06,7,10.68,13.54,13.56,6.81,3,14.56,4.73,22,3.62,10.22-1.52,22.22-11.32,19.06-22.91-1.52-5.56-8.33-9.17-13.22-11.22a40.2,40.2,0,0,0-18.1-3c-9,.6-27.79,6.5-24.82,18.77.38,1.56,2.79.9,2.41-.66Z"/><path d="M1120.69,531.72c7.31-2,17.49,4.95,19.49,12,2.3,8.06-2.62,15.82-9.48,19.72-12,6.81-30.66,4.38-40.11-5.69-1.11-1.18-2.87.59-1.77,1.77,11.75,12.51,37.46,14.51,49.34,1.11,5.27-6,7-15.12,2.41-22-4-6-13.33-11.27-20.54-9.3a1.25,1.25,0,0,0,.66,2.41Z"/><path d="M1075.79,513.74c4.28,1.8,7.61,5.15,11.81,7.06,3.59,1.64,7.53,1.85,11.41,2.09,8.45.54,16.91.49,24.49-3.72,1.41-.78.15-2.94-1.26-2.16-7.63,4.24-16.42,3.94-24.87,3.27-4.9-.39-8.48-1.3-12.64-4.07a51,51,0,0,0-8.27-4.88c-1.48-.63-2.13,1.79-.67,2.41Z"/><path d="M1090.13,506.71a2.61,2.61,0,0,0-1.89,2.84,2.71,2.71,0,0,0,2.88,2.38,3,3,0,0,0,3-2.71,2.12,2.12,0,0,0-1.08-1.84,5.57,5.57,0,0,0-.76-.32l-.18-.07h0l-.11-.06a.51.51,0,0,1,.22.33,1.27,1.27,0,0,0-1.53-.87,1.25,1.25,0,0,0-.88,1.53,2.54,2.54,0,0,0,1.67,1.49l.18.07c.09,0,.08,0,0,0,.16,0,.07.14,0-.07s0-.2-.25-.08a.72.72,0,0,1-.27.1s-.25,0-.17,0c-.12,0-.37-.21-.17,0-.09-.1,0-.21,0-.33,0,.12.09,0,0,0,.37-.1-.33.06.08,0,1.57-.34.9-2.75-.67-2.41Z"/><path d="M1107.91,509.08a2.31,2.31,0,0,0-2.93.38,2.28,2.28,0,0,0,0,3.17,2.53,2.53,0,0,0,3.08.45,2.9,2.9,0,0,0,1.28-3,1.27,1.27,0,0,0-1.54-.87,1.29,1.29,0,0,0-.87,1.54c0-.11,0-.09,0,.07,0-.12,0-.1,0,.06,0-.07-.05.06-.11.11a.1.1,0,0,1,.1,0c-.15,0-.17,0-.06,0s.1,0,0,0a.09.09,0,0,1,.09.05c-.11-.11-.12-.12-.06-.05a.24.24,0,0,1,0,.14.53.53,0,0,1-.08.17c.08-.13.08-.14,0,0s-.09.07,0,0a.22.22,0,0,1-.18,0c.33.06-.27-.18,0,0a1.26,1.26,0,0,0,1.71-.45,1.27,1.27,0,0,0-.45-1.71Z"/><path d="M1063.87,544.5c-.77-3.7,4.5-6.66,7.44-6.57,2.75.09,11.33,3.25,7,6.69-1.26,1,.52,2.76,1.77,1.76a4.73,4.73,0,0,0,1.37-5.58c-1.24-3.09-5.11-4.55-8.13-5.11-5.3-1-13.2,3-11.86,9.47.33,1.58,2.74.91,2.41-.66Z"/><path d="M1071.59,540.49c-1.69-.66-3.13,1.77-1.9,3,1.47,1.48,3.7-.89,2.68-2.48a1.28,1.28,0,0,0-1.71-.45,1.26,1.26,0,0,0-.45,1.71c-.35-.53.29-.92.73-.84l.56.33a.82.82,0,0,1,.16.79l-.23.24c-.62,0-.79,0-.5.09a1.25,1.25,0,0,0,1.53-.87,1.28,1.28,0,0,0-.87-1.54Z"/><path d="M1121.66,548.6a9.94,9.94,0,0,1,6-3.45c2.7-.42,6.88.6,6.29,4.25-.25,1.58,2.16,2.26,2.41.67.6-3.7-1.83-6.67-5.46-7.37a12,12,0,0,0-11,4.13c-1.07,1.2.7,3,1.77,1.77Z"/><path d="M1127.87,549.38l.56-.21a1.29,1.29,0,0,0,.87-1.54,1.26,1.26,0,0,0-1.54-.87l-.55.21a1.29,1.29,0,0,0-.88,1.54,1.27,1.27,0,0,0,1.54.87Z"/><path d="M1137.53,535.44c8.4-.44,16.74.68,25.16.39,1.61-.06,1.61-2.56,0-2.5-8.42.29-16.76-.83-25.16-.39-1.6.09-1.61,2.59,0,2.5Z"/><path d="M1141.12,537.53c7.41-.72,15.62.86,22.79-1.17a1.25,1.25,0,0,0-.67-2.41c-3.63,1-7,.65-10.73.58a98.45,98.45,0,0,0-11.39.5c-1.59.15-1.6,2.65,0,2.5Z"/><path d="M1165.54,532.09c-.21.2.12,0-.14.09.21-.09-.14,0-.16,0-.21.07-.43.11-.64.19a2.42,2.42,0,0,0-1.46,1.16,1.25,1.25,0,0,0,2,1.51c1-1,1.8-2,1.77-3.48a1.25,1.25,0,0,0-2.5,0,1,1,0,0,1-.25.84l0,.07-.2.22c-.17.2-.36.39-.54.59l2,1.51c.11-.22,0,0-.09,0s.14-.07,0,0l.64-.19a3.36,3.36,0,0,0,1.46-.79c1.14-1.13-.63-2.9-1.77-1.77Z"/><path d="M1162,532.45a2.71,2.71,0,0,0,.07,3.29,4.39,4.39,0,0,0,2.5,1.2,1.25,1.25,0,0,0,.66-2.41,3.65,3.65,0,0,1-1.27-.42c.15.09-.13-.09,0,0s0,0,0-.07l0,.07c-.17.26.16-.26,0-.07l.17-.31a1.25,1.25,0,0,0-2.16-1.26Z"/><path d="M1028.05,510.9c3.26,5.5,6.6,10.07,12.47,13,5.61,2.75,11.83,3.8,18,4.74l-.3-2.29-2.44,1.16c-1.45.68-.18,2.84,1.26,2.15l2.45-1.15a1.26,1.26,0,0,0-.3-2.28c-5.26-.81-10.58-1.67-15.53-3.7-6.37-2.61-10-7.06-13.4-12.85a1.25,1.25,0,0,0-2.16,1.26Z"/><path d="M1026.54,522.59a5,5,0,0,0,2.48-3.26,7.09,7.09,0,0,0-1.25-4.46,1.25,1.25,0,0,0-2.16,1.26,5.74,5.74,0,0,1,1,2.46c0,.91-.62,1.37-1.29,1.85-1.3.92,0,3.09,1.26,2.15Z"/><path d="M1026.56,525.93a1.25,1.25,0,0,0,0-2.5,1.25,1.25,0,0,0,0,2.5Z"/><path d="M1055.52,528.9c-3.55-2.15-7.34-2.88-11.4-3.61a52.47,52.47,0,0,1-14.71-4.87l-1,2.28q13,3.88,25.67,8.61l.33-2.45-1.84-.55a1.26,1.26,0,0,0-2.09.56,2.1,2.1,0,0,0,.4,2.21l1.41-1.83a167.88,167.88,0,0,0-17.06-5.8c-3.67-1-6.77-2.45-10.09-.09-1.3.92,0,3.09,1.26,2.16,3.29-2.34,10.31.91,13.62,2,3.93,1.25,7.78,2.66,11.61,4.18a1.26,1.26,0,0,0,1.41-1.84l-.15-.29-2.09.55a3.89,3.89,0,0,0,3.61,1.28,1.26,1.26,0,0,0,.33-2.46q-12.69-4.73-25.67-8.61c-1.33-.4-2.24,1.64-1,2.29a51.25,51.25,0,0,0,12.16,4.5c4.8,1.08,9.64,1.37,14,4a1.25,1.25,0,0,0,1.26-2.16Z"/><path d="M1031.35,516.29c-.19-3-2.23-5.29-3.52-7.86l.13,1,0-.11-2.29.29s0,0,0,.15c.57,1.48,3,.84,2.41-.67-.1-.25-.18-.5-.3-.74a1.27,1.27,0,0,0-2.29.3c-.2,1.23.86,2.45,1.47,3.45a9.91,9.91,0,0,1,1.82,4.23c.1,1.6,2.6,1.61,2.5,0Z"/><path d="M1034.27,523.33c1.14-.41,2.33-.65,3.5-1a1.25,1.25,0,0,0-.33-2.45,28.52,28.52,0,0,1-6.31-1.54,1.25,1.25,0,0,0-1.58,1.21c0,.3,0,.6.08.91l1.88-1.08a2.59,2.59,0,0,1-1-1.49l-1.2,1.58a12.08,12.08,0,0,1,4,.62,27.33,27.33,0,0,1,2.67.8c.43.15,1.65,1,2.08,1,.14.18.17.15.09-.06s0-.41.27-.55c-.06-.11-.59-.13-.74-.24-.71-.51-1.6-.87-2.34-1.36-1.15-.78-2.25-1.63-3.32-2.51-1.24-1-3,.74-1.77,1.76,1.5,1.24,9.48,8,10.31,3.14.37-2.15-2.55-3.1-4.1-3.64-2.11-.73-4.91-1.7-7.18-1.44a1.27,1.27,0,0,0-1.21,1.58,5.88,5.88,0,0,0,2.17,3,1.27,1.27,0,0,0,1.89-1.08c0-.31-.06-.61-.08-.91l-1.58,1.2a31.4,31.4,0,0,0,7,1.63l-.34-2.46c-1.16.34-2.35.58-3.49,1-1.5.55-.85,3,.66,2.41Z"/><path d="M1024.08,515c.17.19.19.12.06-.24a.52.52,0,0,1,.12-.64l.09-.07c-.12.06-.14.07-.06,0l-.21,0c.2,0-.09,0-.15,0a1.25,1.25,0,0,0,0,2.5,3,3,0,0,0,2.13-.79,1.8,1.8,0,0,0-.21-2.62,1.25,1.25,0,0,0-1.77,1.77Z"/><path d="M1027.64,516c.06-.16-.14,0-.37,0a2,2,0,0,1-.73-.13,11.62,11.62,0,0,0-2.12-.47c-1.6-.13-1.59,2.37,0,2.5,1.18.1,2.18.75,3.41.54a2.73,2.73,0,0,0,2.22-1.82c.57-1.51-1.84-2.16-2.41-.67Z"/><path d="M1028,519.13a1.25,1.25,0,0,0,0-2.5,1.25,1.25,0,0,0,0,2.5Z"/><path d="M1025.15,519l-.18.08-.63-.17.08.05-.45-.45-.06-.12v-.66l0,.08.58-.75-.07.05a1.29,1.29,0,0,0-.45,1.71,1.26,1.26,0,0,0,1.71.45,1.47,1.47,0,0,0,.48-2,1.66,1.66,0,0,0-2.24-.41,1.25,1.25,0,0,0-.45,1.71,1.28,1.28,0,0,0,1.71.45Z"/><path d="M1026.6,521.08a1.25,1.25,0,0,0,0-2.5,1.25,1.25,0,0,0,0,2.5Z"/><path d="M1073.74,502.31c-6.54.78-12.62-9.35-15.9-13.89-2.77-3.83-7.5-4.53-10.26-8.1a1.25,1.25,0,0,0-1.52-.19,4.49,4.49,0,0,0-1.94,2.1,1.27,1.27,0,0,0,.75,1.84c2.34.62,9.27,1.26,9.73,4.16l1.84-1.41a32.8,32.8,0,0,1-6.65-3.89l-1,2.28c6,1,9.77,10.25,13.71,14.53,3.35,3.63,7.09,6.62,12.22,6.6a1.25,1.25,0,0,0,0-2.5c-7.11,0-12.51-7.71-16.11-13-2.46-3.65-4.48-7.19-9.16-8a1.26,1.26,0,0,0-1,2.29,33.07,33.07,0,0,0,6.65,3.89,1.27,1.27,0,0,0,1.83-1.42c-.74-4.58-8-5-11.48-5.9l.75,1.84c.41-.74,1.86.84,2.51,1.23,1.09.68,2.33,1.1,3.44,1.75,3.26,1.91,5,5.74,7.42,8.61,3.5,4.23,7.92,10.45,14.09,9.72,1.58-.18,1.6-2.68,0-2.5Z"/><path d="M1069.38,511c.37-.28.16-.06.41-.13,0,0,.25.24,0,0a1.27,1.27,0,0,0-1.77,0,1.29,1.29,0,0,0,0,1.77,2.21,2.21,0,0,0,3.09.13,1.26,1.26,0,0,0,0-1.77,1.3,1.3,0,0,0-1.77,0Z"/><path d="M1068.3,511.1c-4.27.69-9.56,4.16-13-.56-1.45-2-1.92-4.14-3.9-5.8a14.81,14.81,0,0,0-5.47-2.65c-2.34-.67-9.66-.61-9.94-3.91l-2.14.88c2.39,2.26,4.58,2.22,7.72,2.32,6,.18,10.59,2.27,13.79,7.56,1.4,2.32,2.26,4.69,5.26,5.11,3.15.44,6.48-2,9.07-3.36l-1.51-2c-3.49,2.95-6.76,4-10.92.88a36.31,36.31,0,0,1-5.27-5.53l-.55,2.09h1.19c1.58.5,2.1-1.81.66-2.41a21.92,21.92,0,0,0-4.93-1.5c-.16,0-6-.54-2.74.8,1.49.61,2.13-1.81.67-2.41-1.67-.69-4.75-.27-4,2.31.22.78.78,1.08,1.49,1.42a10.28,10.28,0,0,0,2.78.15,21.45,21.45,0,0,1,6.1,1.64l.66-2.41a3.07,3.07,0,0,0-2.52,0,1.26,1.26,0,0,0-.55,2.09c2.39,2.81,6.16,8.11,10.16,8.57,3.46.4,7.05-1.8,9.57-3.92,1.12-.95-.31-2.6-1.52-2-2.56,1.35-6.82,4.28-9.69,1.47-.79-.77-1.38-2.68-2-3.6a16.84,16.84,0,0,0-4-4.2,17.17,17.17,0,0,0-6.35-2.95c-3.34-.77-8,.62-10.73-2-.73-.68-2.23-.25-2.13.89a5.13,5.13,0,0,0,3.74,4.82c5,1.83,10.44.43,14,5.39,1.94,2.67,2.5,5.81,6,6.87,3.91,1.17,7.91-1.14,11.7-1.75,1.58-.26.91-2.67-.66-2.41Z"/><path d="M1083.43,500.73c-.51-2.32-1.21-3.77-3.52-4.51s-3.29.1-4.68-1.91c-1.15-1.67-.66-2.12-.54-4a9.4,9.4,0,0,0-.57-4.64c-3.33-7.75-14.09-6.33-18.9-12.52l-1.76,1.77a27.65,27.65,0,0,0,6.88,4.18c4.29,1.75,8.53,2.36,11.07,6.77,1.43,2.47,1.15,5.52,2.9,7.8,2.2,2.89,6.59,3.35,7.64,7.23a1.26,1.26,0,0,0,2.46-.33c0-2.44-.3-4.37-2.18-6-1.21-1.06-2.44-1.5-3.62-2.71-1.9-1.94-2.55-4-3.25-6.55-1.68-6.11-7-6.15-12.66-7.76a1.25,1.25,0,0,0-.66,2.41c3.16.9,6.56,1.35,9.07,3.52,2.21,1.91,2,4.14,3.23,6.73,1.7,3.62,7.53,6.34,7.57,10.38l2.45-.33c-.71-2.63-2.34-3.92-4.5-5.45-2.69-1.89-3.65-3-4.75-6.19a22,22,0,0,0-1.54-4c-4-6.92-12.51-6.8-18.35-11.45a1.25,1.25,0,0,0-1.76,1.77c5.65,7.29,19.24,4.89,18.55,16.53-.14,2.41-.17,4,1.72,5.62,2.22,1.94,6.57,1.11,7.29,4.35.34,1.57,2.75.9,2.41-.67Z"/><path d="M1092.21,497.2a1.25,1.25,0,0,0,0-2.5,1.25,1.25,0,0,0,0,2.5Z"/><path d="M1092.49,498.56l1.41,1.69a1.26,1.26,0,0,0,2.13-.88,14.36,14.36,0,0,0-1.74-6.81,1.26,1.26,0,0,0-2.33.63l0,3.66a1.25,1.25,0,0,0,2.5,0,7.5,7.5,0,0,0-2.57-6.26c-2.38-2.31-6.65-3-7.47-6.73-.15-.69.4-2.83.32-3.65a22.66,22.66,0,0,0-1.25-4.56,28.11,28.11,0,0,1-1.53-6.53c-.15-1.84-.55-6.53.75-7.81.19-1.26.38-1.17.59.27.14,1.17.33,2.32.57,3.47.35,1.72.84,3.42,1.3,5.11a89.29,89.29,0,0,1,2.36,12.15,9.16,9.16,0,0,0,2.32,5.45c3,3.35,5.72,5,6.91,9.79l2.28-1a19.65,19.65,0,0,0-5.59-7.15,20.74,20.74,0,0,0-2.74-1.78c-.76-.42-6-2.3-6.1-2.71a1.25,1.25,0,0,0,2.41-.67q-2.4-8.8-5.44-17.41l-2.29,1,4.88,10.85c.94,2.1,1.61,5.29,3.59,6.65a1.26,1.26,0,0,0,1.51-.2l.24-.2-2.14-.88.14,1.33,2.13-.89-.61-.94a1.26,1.26,0,0,0-2.41,0l-.34,1.27h2.41c-.85-4.57-.56-9.33-1.45-13.85-.59-3-2.16-5.53-3.86-8.07a1.26,1.26,0,0,0-2.28,1l2.1,9.13a1.26,1.26,0,0,0,2.46-.33,69.63,69.63,0,0,0-1-11.89c-.27-1.58-2.68-.91-2.41.66a65.09,65.09,0,0,1,.89,11.23l2.45-.34-2.1-9.13-2.29,1a22.72,22.72,0,0,1,3.88,12.26,76.46,76.46,0,0,0,1.18,9.05c.23,1.25,2.1,1.13,2.41,0l.34-1.26h-2.41a5.89,5.89,0,0,0,1.25,2,1.27,1.27,0,0,0,2.14-.88l-.14-1.33a1.27,1.27,0,0,0-2.13-.89c1.94-1.68-5.3-14.37-6.29-16.59-.58-1.28-2.76-.37-2.29,1q3,8.61,5.45,17.41l2.41-.67c-.78-2.54-2.55-4-4.83-2.08a1.25,1.25,0,0,0-.32,1.21c.54,2.69,2.72,4,5,5.18,4.44,2.34,7.74,4.57,10,9.26.64,1.31,2.62.37,2.29-1a17.16,17.16,0,0,0-4.7-8.45c-2.5-2.39-3.86-3.82-4.57-7.58-.39-2.07-.5-4.17-1-6.24-1.05-4.6-1.87-9.89-3.38-14.31-.48-1.42-1.45-3.18-3.32-2.59s-2.27,4.06-2.52,5.61a25.82,25.82,0,0,0,1.11,12.24,27.45,27.45,0,0,1,1.23,3.79c.26,1.55-.38,3.23-.35,4.66a6.37,6.37,0,0,0,0,1.8c1.63,5.3,10.56,4,10.22,11h2.5l0-3.66-2.33.63a9.2,9.2,0,0,1,1.4,5.55l2.14-.89-1.42-1.69c-1-1.23-2.79.54-1.76,1.77Z"/><path d="M1109.68,496.81a7.18,7.18,0,0,0-1.41-3.67c-.72-1-2-2-2.56-3.08-1-2.26.2-3.86.34-5.88a28.09,28.09,0,0,0-.51-8.58c-.5-2.14-3.6-7.39-2.21-9.34l-2.28-.3c1.17,3.52,2.35,7,3.51,10.57a22.48,22.48,0,0,1,1.25,4.54c.23,2-.56,3.69-.54,5.63a7.42,7.42,0,0,0,1.2,4.45,17.09,17.09,0,0,0,1.87,2.12c.64.72,3.73,4.5,2.52,1l-2.41.66,1.13,2.7c.62,1.46,3,.82,2.41-.67l-1.13-2.69c-.6-1.44-2.95-.9-2.41.66.63,1.82,2.27,4.09,4.42,3a1.23,1.23,0,0,0,.62-1.08,6,6,0,0,0-1.63-3.51c-.76-1-1.95-1.72-2.64-2.74-3.07-4.56-.9-3.76-.9-6.7,0-6.41-2.84-12.52-4.86-18.59a1.27,1.27,0,0,0-2.29-.3c-1.18,1.66-.82,3-.2,4.89,1.3,3.94,2.89,7.52,2.77,11.82-.07,2.72-1.62,5.67-.77,8.39.79,2.57,3.9,3.91,4.21,6.71.18,1.58,2.68,1.59,2.5,0Z"/><path d="M1116.73,502.71c1.4-2.62,3.44-6.11,3.68-9.14.17-2.09-.81-3.26-1.58-5.13-2-4.87,2.35-6.26,4.52-9.66a7.86,7.86,0,0,0,.72-6.49l-1.54,1.54c6.67,1.55-2.65,9.41-3.6,10.72a3.87,3.87,0,0,0-.64,3.9c.18.53.83.82,1.09,1.26,1.85,3.16,2.88,3.11,2.36,6.63s-2.33,6.49-2.8,10l2.29-.3c-1.79-3.38-1.57-6.27-1-9.92h-2.41a33.93,33.93,0,0,1,1.66,6.58c.21,1.43,2.42,1,2.45-.34.06-2.14-.48-4.66-.2-6.75a18.57,18.57,0,0,1,.48-1.87c.26-1.51.41-2.12-.64-3.37s-2.8.54-1.77,1.76l-.16.72a1.24,1.24,0,0,0-.62,1.08,55.24,55.24,0,0,1,.41,8.43l2.46-.33a33.83,33.83,0,0,0-1.66-6.57c-.37-1-2.19-1.34-2.41,0-.71,4.36-.89,7.83,1.23,11.85.46.87,2.14.78,2.28-.3.58-4.27,3.13-8.11,3.08-12.47a8.67,8.67,0,0,0-.79-3.82c-.91-1.8-3.4-2.74-2-5.33.7-1.28,2.56-2.23,3.43-3.56a11.05,11.05,0,0,0,1.88-5c.16-2.72-1.1-4.72-3.76-5.34a1.27,1.27,0,0,0-1.54,1.54c1.34,5.23-6.29,7.59-6.07,12.87a14.23,14.23,0,0,0,1.25,4.34c1.55,4.4-.13,7.27-2.27,11.28-.76,1.42,1.4,2.68,2.16,1.26Z"/><path d="M1119.09,486.27a23.69,23.69,0,0,1,2.34-4.7c.19-.28.37-.56.57-.83s.8-.69.28-.77-1.19,1.91-1.42,2.42l2.16,1.26a9.3,9.3,0,0,0,.65-5.51c-.28-1.58-2.69-.91-2.41.67a6.2,6.2,0,0,1-.4,3.58c-.62,1.45,1.49,2.73,2.16,1.26.57-1.26,2-3.24,1.64-4.69a2.17,2.17,0,0,0-2.85-1.34c-1.29.46-2.13,2-2.81,3.12a26.21,26.21,0,0,0-2.32,4.87c-.55,1.51,1.86,2.16,2.41.66Z"/><path d="M1124.91,507.51c2.24-4.36,5.35-6.29,9.86-7.85a22.73,22.73,0,0,0,6.25-2.87,21.57,21.57,0,0,0,5.24-5.66c1.53-2.3,2.42-6.21,4.68-7.8l-1.83-.75c2.24,7.81-6.47,13.85-12.63,16.13-5.21,1.94-8.36,4.63-11.89,9l2.09,1.21a16.77,16.77,0,0,1,4.4-7.44,1.25,1.25,0,0,0-1.77-1.77,19.3,19.3,0,0,0-5,8.55c-.34,1.13,1.28,2.21,2.08,1.22a39.76,39.76,0,0,1,4.9-5.31c2.06-1.76,4.16-2.3,6.58-3.29a29,29,0,0,0,7.47-4.22c4.38-3.53,7.86-9,6.22-14.74a1.26,1.26,0,0,0-1.84-.75c-2.21,1.55-2.78,3.75-4,6.09-2,3.81-4.66,7.08-8.66,8.93-6.07,2.79-10.91,3.6-14.23,10.05-.73,1.43,1.43,2.7,2.16,1.27Z"/><path d="M1145.54,495.14q2.14-4.29,4.27-8.59l-2,.26a1.75,1.75,0,0,1,.44,1.63c-.18,1.59,2.32,1.58,2.5,0a4.19,4.19,0,0,0-1.17-3.4,1.27,1.27,0,0,0-2,.25q-2.12,4.31-4.27,8.59c-.72,1.43,1.43,2.7,2.16,1.26Z"/><path d="M1130.61,513c2.27-3.93,7.67-2.14,11.26-2.75a16.32,16.32,0,0,0,6.67-2.74c3-2.06,5.09-4.57,8.6-5.9s7.17-2.16,10.72-3.2l-1.41-1.84c-1.32,3-6,2.34-8.57,3.55s-4.48,3.16-6.54,4.91c-6.44,5.49-14.54,6.44-22.6,8.2l1.22,2.09c1.64-1.48,2.33-3.24,4.65-3.9,1.75-.5,3.32-.34,5.05-1.05l-1.22-2.09a6.38,6.38,0,0,1-5.84,2.08c-1.61-.08-1.6,2.42,0,2.5a9.61,9.61,0,0,0,7.61-2.82c.86-.8,0-2.57-1.22-2.09-2.29,1-5,.48-7.19,1.65-1.78.95-2.13,2.62-3.61,3.95-1,.88.07,2.34,1.22,2.09,7.58-1.66,16-2.46,22.15-7.52,3.4-2.78,6.25-6,10.78-6.62,3-.42,4.91-.61,6.27-3.67a1.26,1.26,0,0,0-1.41-1.83c-4,1.18-8.36,2.07-12.22,3.79-3.53,1.56-5.7,4.54-9,6.39-5.46,3.06-13.94-.66-17.53,5.56a1.25,1.25,0,0,0,2.16,1.26Z"/><path d="M1133.15,520.61a1.25,1.25,0,0,0,0-2.5,1.25,1.25,0,0,0,0,2.5Z"/><path d="M1135.29,520.58c5.4.16,8,1.84,12.73-1.51a36.44,36.44,0,0,1,16.35-6.59l-1.59-1.21c0,.23-6.12,1.32-6.9,1.59a13.23,13.23,0,0,0-4.78,2.79c-2.94,2.7-4.48,4.72-8.91,4.59-3.31-.1-6.67-.52-10-.78-1.6-.13-1.6,2.37,0,2.5,7.36.58,13.63,2.45,19.2-3,3.47-3.39,6.43-3.75,10.75-5.05,1.8-.54,2.89-.68,3.12-2.63.11-.88-.88-1.33-1.58-1.2-4.35.76-8.81,1.56-12.71,3.75-2,1.1-3.62,3.25-5.61,4.11-3.42,1.48-6.65.25-10.09.15-1.61-.05-1.61,2.45,0,2.5Z"/><path class="cls-6" d="M567,258C553,155,456,67.28,335,34A174.71,174.71,0,0,0,307.52,0h-296Q5.65,5.78,0,12V565.93c29.1,32.28,63.43,54.94,100.81,64.69,20.15,5.26,39.38,13.75,56.17,26.07A153.64,153.64,0,0,0,248,686h.1a22,22,0,0,1,15.33,6c36.66,35.4,95.57,18,95.57,18,103-111.83,108.17-201.59,92.3-259.45,108.51-27.53,68.07-82.12,6.3-127.26C508.64,328,574.7,314.65,567,258Z"/><path class="cls-7" d="M451,450S655,587,601,722c0,0-45,54-96,34S360,583,359,450C359,450,451,460,451,450Z"/><path class="cls-7" d="M2042.53,449.84S2167,499,2216,661c0,0,25.67,67.49-29,63.94S2043.22,593.43,2001.83,467C2001.83,467,2045.57,459.37,2042.53,449.84Z"/><path class="cls-7" d="M3648.53,449.84s236,68.5,225.6,213.53c0,0-46.75,163.8-81.12,61.57C3751,600,3636.39,581.4,3595,455,3595,455,3651.57,459.37,3648.53,449.84Z"/></g><g id="gradient"><path class="cls-8" d="M-616-1450,1457,214l-27,489L-760,2571S-1362-772-616-1450Z"/><path class="cls-9" d="M984-1450,3057,214l-27,489L840,2571S238-772,984-1450Z"/><path class="cls-10" d="M2584-1450,4657,214l-27,489L2440,2571S1838-772,2584-1450Z"/></g><g id="savl"><path class="cls-2" d="M681.42,707.46l.09,0A10.66,10.66,0,1,0,687.35,687l-.24-.07c-9.91-5.12-40.5-11.88-40.5-11.88C663.72,696.28,679.68,707.47,681.42,707.46Z"/><path class="cls-2" d="M687.41,792.05l.07.06a10.67,10.67,0,0,0,15-1.49C706.23,786.07,708,779,704,774c0-.06.06,0,0,0-11-21-47-21-47-21C673,773,685.81,791.36,687.41,792.05Z"/><path class="cls-2" d="M590.69,854.24a.25.25,0,0,1,0,.08,10.67,10.67,0,0,0,12,9.13c5.84-.8,11.95-4.77,12.42-11.16,0-.08,0,.08,0,0,6.22-22.88-20.17-47.36-20.17-47.36C593.08,830.47,590,852.64,590.69,854.24Z"/><path class="cls-2" d="M2330.54,705.17h.09a10.67,10.67,0,0,0-3.08-21.11l-.24,0c-11.14-.61-41.81,5.76-41.81,5.76C2309.81,702.22,2329,705.89,2330.54,705.17Z"/><path class="cls-2" d="M2293.21,827.68l.05.07a10.67,10.67,0,0,0,15.07.66c4.35-4,7.1-10.73,3.85-16.24,0-.08.06.06,0,0-7.91-22.35-43.55-27.45-43.55-27.45C2281.64,806.78,2291.71,826.77,2293.21,827.68Z"/><path class="cls-2" d="M2216.32,917.13l0,.09a10.68,10.68,0,0,0,7.26,13.22c5.66,1.65,12.86.5,15.88-5.14,0-.08,0,.08,0,0,15-18.37.85-51.47.85-51.47C2228.17,896.4,2216.32,915.39,2216.32,917.13Z"/><path class="cls-2" d="M3933.45,780.74l.05.07a10.67,10.67,0,1,0,17.31-12.47l-.15-.19c-4.61-10.17-24.4-34.44-24.4-34.44C3926.5,761,3932.08,779.66,3933.45,780.74Z"/><path class="cls-2" d="M3935.41,918.05l.07.06a10.67,10.67,0,0,0,15-1.49c3.74-4.55,5.51-11.62,1.51-16.62-.05-.06.06,0,0,0-11-21-47-21-47-21C3921,899,3933.81,917.36,3935.41,918.05Z"/></g></svg>
