<?xml version="1.0" encoding="utf-8"?>
<!-- Generator: Adobe Illustrator 22.0.1, SVG Export Plug-In . SVG Version: 6.00 Build 0)  -->
<svg version="1.1" id="Layer_1" xmlns="http://www.w3.org/2000/svg" xmlns:xlink="http://www.w3.org/1999/xlink" x="0px" y="0px"
	 viewBox="0 0 16000 900" style="enable-background:new 0 0 16000 900;" xml:space="preserve">
<style type="text/css">
	.st0{fill:#1F2532;}
	.st1{fill:#FFFFFF;}
</style>
<g>
	<rect class="st0" width="1600" height="900"/>
</g>
<g>
	<path class="st1" d="M176.9,414.7v52.4h-15v-52.4h-14.1v-12.7h43.3v12.7H176.9z"/>
</g>
<g>
	<rect x="1600" class="st0" width="1600" height="900"/>
</g>
<g>
	<path class="st1" d="M1776.9,414.7v52.4h-15v-52.4h-14.1v-12.7h43.3v12.7H1776.9z"/>
	<path class="st1" d="M1833.7,454.5h-24.9l-4.9,12.6h-15.6l26.6-65h37l4.7,12.7H1834l5,12.6h22.4l4.9,12.7h-22.5l5.8,14.4h22.6
		l4.8,12.7h-38.2L1833.7,454.5z M1829.6,443l-8-21.4l-8.4,21.4H1829.6z"/>
	<path class="st1" d="M1884.6,467.1v-65h13.1L1933,444v-41.9h15v65h-13.1l-35.3-42.1v42.1H1884.6z"/>
</g>
<g>
	<rect x="3200" class="st0" width="1600" height="900"/>
</g>
<g>
	<path class="st1" d="M3376.9,414.7v52.4h-15v-52.4h-14.1v-12.7h43.3v12.7H3376.9z"/>
	<path class="st1" d="M3433.7,454.5h-24.9l-4.9,12.6h-15.6l26.6-65h37l4.7,12.7H3434l5,12.6h22.4l4.9,12.7h-22.5l5.8,14.4h22.6
		l4.8,12.7h-38.2L3433.7,454.5z M3429.6,443l-8-21.4l-8.4,21.4H3429.6z"/>
	<path class="st1" d="M3484.6,467.1v-65h13.1L3533,444v-41.9h15v65h-13.1l-35.3-42.1v42.1H3484.6z"/>
	<path class="st1" d="M3577.2,429.2l22.2-27.1h18.3l-26.3,30.8l28.4,34.2h-19.3l-23.3-28.9v28.9h-15v-65h15V429.2z"/>
	<path class="st1" d="M3670.9,402.1c8.6,0,17.7,1.3,25.6,9c5.8,5.6,9.4,13.2,9.4,23.3c0,10.2-3.5,17.7-8.9,23
		c-9,9.1-20.2,9.8-25.6,9.8h-21.1v-65H3670.9z M3665.3,454.4h4c3.1,0,9.9-0.3,14.8-4.4c3.5-2.9,6.3-8.5,6.3-15.7
		c0-7-2.8-11.5-5.4-14c-4.9-4.9-11.2-5.6-15.8-5.6h-4V454.4z"/>
</g>
<g>
	<rect x="4800" class="st0" width="1600" height="900"/>
</g>
<g>
	<path class="st1" d="M4976.9,414.7v52.4h-15v-52.4h-14.1v-12.7h43.3v12.7H4976.9z"/>
	<path class="st1" d="M5033.7,454.5h-24.9l-4.9,12.6h-15.6l26.6-65h37l4.7,12.7H5034l5,12.6h22.4l4.9,12.7h-22.5l5.8,14.4h22.6
		l4.8,12.7h-38.2L5033.7,454.5z M5029.6,443l-8-21.4l-8.4,21.4H5029.6z"/>
	<path class="st1" d="M5084.6,467.1v-65h13.1L5133,444v-41.9h15v65h-13.1l-35.3-42.1v42.1H5084.6z"/>
	<path class="st1" d="M5177.2,429.2l22.2-27.1h18.3l-26.3,30.8l28.4,34.2h-19.3l-23.3-28.9v28.9h-15v-65h15V429.2z"/>
	<path class="st1" d="M5270.9,402.1c8.6,0,17.7,1.3,25.6,9c5.8,5.6,9.4,13.2,9.4,23.3c0,10.2-3.5,17.7-8.9,23
		c-9,9.1-20.2,9.8-25.6,9.8h-21.1v-65H5270.9z M5265.3,454.4h4c3.1,0,9.9-0.3,14.8-4.4c3.5-2.9,6.3-8.5,6.3-15.7
		c0-7-2.8-11.5-5.4-14c-4.9-4.9-11.2-5.6-15.8-5.6h-4V454.4z"/>
	<path class="st1" d="M5332.4,402.1v65h-15v-65H5332.4z"/>
	<path class="st1" d="M5378.2,431.6h32.3v0.7c0,7.9-2.8,19.9-10,27.4c-7.2,7.5-15.5,8.9-23.2,8.9c-7.8,0-16.2-1.3-23.8-9.1
		c-3.8-3.9-9.6-11.8-9.6-24.8c0-10.6,3.9-19.1,9.4-24.7c8-8.3,17.8-9.5,25.6-9.5c5.4,0,12.2,0.9,18.2,4.9c4.4,2.9,8.2,7.5,10.5,11.6
		l-13.6,7.3c-1.3-2.5-3.2-5.2-5.8-7c-2.9-2.1-6.2-3.1-9.9-3.1c-5.9,0-10.3,2-13.5,5.3c-3.6,3.8-5.6,9.4-5.6,15.4
		c0,7.4,2.7,12.2,5.5,14.9c3.8,3.9,8.2,5.1,13.2,5.1c6.4,0,9.8-2.2,11.3-3.5c0.5-0.4,3.4-2.9,4.7-7.7h-15.7V431.6z"/>
</g>
<g>
	<rect x="6400" class="st0" width="1600" height="900"/>
</g>
<g>
	<path class="st1" d="M6576.9,414.7v52.4h-15v-52.4h-14.1v-12.7h43.3v12.7H6576.9z"/>
	<path class="st1" d="M6633.7,454.5h-24.9l-4.9,12.6h-15.6l26.6-65h37l4.7,12.7H6634l5,12.6h22.4l4.9,12.7h-22.5l5.8,14.4h22.6
		l4.8,12.7h-38.2L6633.7,454.5z M6629.6,443l-8-21.4l-8.4,21.4H6629.6z"/>
	<path class="st1" d="M6684.6,467.1v-65h13.1L6733,444v-41.9h15v65h-13.1l-35.3-42.1v42.1H6684.6z"/>
	<path class="st1" d="M6777.2,429.2l22.2-27.1h18.3l-26.3,30.8l28.4,34.2h-19.3l-23.3-28.9v28.9h-15v-65h15V429.2z"/>
	<path class="st1" d="M6870.9,402.1c8.6,0,17.7,1.3,25.6,9c5.8,5.6,9.4,13.2,9.4,23.3c0,10.2-3.5,17.7-8.9,23
		c-9,9.1-20.2,9.8-25.6,9.8h-21.1v-65H6870.9z M6865.3,454.4h4c3.1,0,9.9-0.3,14.8-4.4c3.5-2.9,6.3-8.5,6.3-15.7
		c0-7-2.8-11.5-5.4-14c-4.9-4.9-11.2-5.6-15.8-5.6h-4V454.4z"/>
	<path class="st1" d="M6932.4,402.1v65h-15v-65H6932.4z"/>
	<path class="st1" d="M6978.2,431.6h32.3v0.7c0,7.9-2.8,19.9-10,27.4c-7.2,7.5-15.5,8.9-23.2,8.9c-7.8,0-16.2-1.3-23.8-9.1
		c-3.8-3.9-9.6-11.8-9.6-24.8c0-10.6,3.9-19.1,9.4-24.7c8-8.3,17.8-9.5,25.6-9.5c5.4,0,12.2,0.9,18.2,4.9c4.4,2.9,8.2,7.5,10.5,11.6
		l-13.6,7.3c-1.3-2.5-3.2-5.2-5.8-7c-2.9-2.1-6.2-3.1-9.9-3.1c-5.9,0-10.3,2-13.5,5.3c-3.6,3.8-5.6,9.4-5.6,15.4
		c0,7.4,2.7,12.2,5.5,14.9c3.8,3.9,8.2,5.1,13.2,5.1c6.4,0,9.8-2.2,11.3-3.5c0.5-0.4,3.4-2.9,4.7-7.7h-15.7V431.6z"/>
	<path class="st1" d="M7102.1,410.1c6.1,5.9,10.1,14.5,10.1,24.6c0,8.7-3.1,17.6-10.1,24.4c-6,5.9-14.2,9.6-25.2,9.6
		c-12.2,0-20.5-4.9-25.4-9.6c-6.2-5.9-10.1-14.6-10.1-24.2c0-9.4,4.2-18.8,10-24.7c4.4-4.4,12.5-9.6,25.5-9.6
		C7087.1,400.6,7095.6,403.7,7102.1,410.1z M7062.6,420c-2.8,2.7-5.8,7.5-5.8,14.7c0,5.9,2,10.7,5.9,14.6c4.2,4,8.9,5.4,13.9,5.4
		c6.6,0,11.3-2.4,14.4-5.6c2.5-2.4,5.7-7,5.7-14.5c0-6.7-2.7-11.7-5.7-14.6c-3.2-3.1-8.4-5.6-14.3-5.6
		C7071.2,414.4,7066.1,416.5,7062.6,420z"/>
	<path class="st1" d="M7120.4,467.1l10.4-65h12.5l16.2,38.9l16.2-38.9h12.5l10.4,65h-15l-5.2-38.8l-16.3,38.8h-5.3l-16.3-38.8
		l-5.2,38.8H7120.4z"/>
</g>
<g>
	<rect x="8000" class="st0" width="1600" height="900"/>
</g>
<g>
	<path class="st1" d="M8176.9,414.7v52.4h-15v-52.4h-14.1v-12.7h43.3v12.7H8176.9z"/>
	<path class="st1" d="M8233.7,454.5h-24.9l-4.9,12.6h-15.6l26.6-65h37l4.7,12.7H8234l5,12.6h22.4l4.9,12.7h-22.5l5.8,14.4h22.6
		l4.8,12.7h-38.2L8233.7,454.5z M8229.6,443l-8-21.4l-8.4,21.4H8229.6z"/>
	<path class="st1" d="M8284.6,467.1v-65h13.1L8333,444v-41.9h15v65h-13.1l-35.3-42.1v42.1H8284.6z"/>
	<path class="st1" d="M8377.2,429.2l22.2-27.1h18.3l-26.3,30.8l28.4,34.2h-19.3l-23.3-28.9v28.9h-15v-65h15V429.2z"/>
	<path class="st1" d="M8470.9,402.1c8.6,0,17.7,1.3,25.6,9c5.8,5.6,9.4,13.2,9.4,23.3c0,10.2-3.5,17.7-8.9,23
		c-9,9.1-20.2,9.8-25.6,9.8h-21.1v-65H8470.9z M8465.3,454.4h4c3.1,0,9.9-0.3,14.8-4.4c3.5-2.9,6.3-8.5,6.3-15.7
		c0-7-2.8-11.5-5.4-14c-4.9-4.9-11.2-5.6-15.8-5.6h-4V454.4z"/>
	<path class="st1" d="M8532.4,402.1v65h-15v-65H8532.4z"/>
	<path class="st1" d="M8578.2,431.6h32.3v0.7c0,7.9-2.8,19.9-10,27.4c-7.2,7.5-15.5,8.9-23.2,8.9c-7.8,0-16.2-1.3-23.8-9.1
		c-3.8-3.9-9.6-11.8-9.6-24.8c0-10.6,3.9-19.1,9.4-24.7c8-8.3,17.8-9.5,25.5-9.5c5.4,0,12.2,0.9,18.2,4.9c4.4,2.9,8.2,7.5,10.5,11.6
		l-13.6,7.3c-1.3-2.5-3.2-5.2-5.8-7c-2.9-2.1-6.2-3.1-9.9-3.1c-5.9,0-10.3,2-13.5,5.3c-3.6,3.8-5.6,9.4-5.6,15.4
		c0,7.4,2.7,12.2,5.5,14.9c3.8,3.9,8.2,5.1,13.2,5.1c6.4,0,9.8-2.2,11.3-3.5c0.5-0.4,3.4-2.9,4.7-7.7h-15.7V431.6z"/>
	<path class="st1" d="M8702.1,410.1c6.1,5.9,10.1,14.5,10.1,24.6c0,8.7-3.1,17.6-10.1,24.4c-6,5.9-14.2,9.6-25.2,9.6
		c-12.2,0-20.5-4.9-25.4-9.6c-6.2-5.9-10.1-14.6-10.1-24.2c0-9.4,4.2-18.8,10-24.7c4.4-4.4,12.5-9.6,25.5-9.6
		C8687.1,400.6,8695.6,403.7,8702.1,410.1z M8662.6,420c-2.8,2.7-5.8,7.5-5.8,14.7c0,5.9,2,10.7,5.9,14.6c4.2,4,8.9,5.4,13.9,5.4
		c6.6,0,11.3-2.4,14.4-5.6c2.5-2.4,5.7-7,5.7-14.5c0-6.7-2.7-11.7-5.7-14.6c-3.2-3.1-8.4-5.6-14.3-5.6
		C8671.2,414.4,8666.1,416.5,8662.6,420z"/>
	<path class="st1" d="M8720.4,467.1l10.4-65h12.5l16.2,38.9l16.2-38.9h12.5l10.4,65h-15l-5.2-38.8l-16.3,38.8h-5.3l-16.3-38.8
		l-5.2,38.8H8720.4z"/>
	<path class="st1" d="M8868.7,414.7h-21.1v12.6h19.5V440h-19.5v27.1h-15v-65h36.1V414.7z"/>
	<path class="st1" d="M8884.1,455.2c-3.9-5-6.8-11.4-6.8-20c0-9.9,4.2-19.2,10-25.1c8-8,17.7-9.6,25.5-9.6c7.4,0,13.8,1.4,20.4,5.7
		l8.6-8.6l8.1,7.8l-8.5,8.5c4,5.4,6.7,11.8,6.7,20.4c0,10.6-4.3,19-10.1,24.7c-8.3,8-17.8,9.6-25.2,9.6c-7.6,0-14-1.7-20.5-5.8
		l-8.7,8.7l-8.1-7.8L8884.1,455.2z M8922.5,416.8c-2.2-1.1-5.6-2.3-9.8-2.3c-5.9,0-10.7,2-14.2,5.6c-2.8,2.8-5.8,7.4-5.8,14.9
		c0,3.5,0.6,6.3,2.2,9.5L8922.5,416.8z M8902.7,452.4c2.7,1.4,5.9,2.3,9.8,2.3c7.5,0,12.1-3.2,14.4-5.6c4.5-4.4,5.7-9.9,5.7-15.1
		c0-3.3-0.5-6-2.2-9.3L8902.7,452.4z"/>
</g>
<g>
	<rect x="9600" class="st0" width="1600" height="900"/>
</g>
<g>
	<path class="st1" d="M9776.9,414.7v52.4h-15v-52.4h-14.1v-12.7h43.3v12.7H9776.9z"/>
	<path class="st1" d="M9833.7,454.5h-24.9l-4.9,12.6h-15.6l26.6-65h37l4.7,12.7H9834l5,12.6h22.4l4.9,12.7h-22.5l5.8,14.4h22.6
		l4.8,12.7h-38.2L9833.7,454.5z M9829.6,443l-8-21.4l-8.4,21.4H9829.6z"/>
	<path class="st1" d="M9884.6,467.1v-65h13.1L9933,444v-41.9h15v65h-13.1l-35.3-42.1v42.1H9884.6z"/>
	<path class="st1" d="M9977.2,429.2l22.2-27.1h18.3l-26.3,30.8l28.4,34.2h-19.3l-23.3-28.9v28.9h-15v-65h15V429.2z"/>
	<path class="st1" d="M10070.9,402.1c8.6,0,17.7,1.3,25.6,9c5.8,5.6,9.4,13.2,9.4,23.3c0,10.2-3.5,17.7-8.9,23
		c-9,9.1-20.2,9.8-25.6,9.8h-21.1v-65H10070.9z M10065.3,454.4h4c3.1,0,9.9-0.3,14.8-4.4c3.5-2.9,6.3-8.5,6.3-15.7
		c0-7-2.8-11.5-5.4-14c-4.9-4.9-11.2-5.6-15.8-5.6h-4V454.4z"/>
	<path class="st1" d="M10132.4,402.1v65h-15v-65H10132.4z"/>
	<path class="st1" d="M10178.2,431.6h32.3v0.7c0,7.9-2.8,19.9-10,27.4c-7.2,7.5-15.5,8.9-23.2,8.9c-7.8,0-16.2-1.3-23.8-9.1
		c-3.8-3.9-9.6-11.8-9.6-24.8c0-10.6,3.9-19.1,9.4-24.7c8-8.3,17.8-9.5,25.5-9.5c5.4,0,12.2,0.9,18.2,4.9c4.4,2.9,8.2,7.5,10.5,11.6
		l-13.6,7.3c-1.3-2.5-3.2-5.2-5.8-7c-2.9-2.1-6.2-3.1-9.9-3.1c-5.9,0-10.3,2-13.5,5.3c-3.6,3.8-5.6,9.4-5.6,15.4
		c0,7.4,2.7,12.2,5.5,14.9c3.8,3.9,8.2,5.1,13.2,5.1c6.4,0,9.8-2.2,11.3-3.5c0.5-0.4,3.4-2.9,4.7-7.7h-15.7V431.6z"/>
	<path class="st1" d="M10302.1,410.1c6.1,5.9,10.1,14.5,10.1,24.6c0,8.7-3.1,17.6-10.1,24.4c-6,5.9-14.2,9.6-25.2,9.6
		c-12.2,0-20.5-4.9-25.4-9.6c-6.2-5.9-10.1-14.6-10.1-24.2c0-9.4,4.2-18.8,10-24.7c4.4-4.4,12.5-9.6,25.5-9.6
		C10287.1,400.6,10295.6,403.7,10302.1,410.1z M10262.6,420c-2.8,2.7-5.8,7.5-5.8,14.7c0,5.9,2,10.7,5.9,14.6
		c4.2,4,8.9,5.4,13.9,5.4c6.6,0,11.3-2.4,14.4-5.6c2.5-2.4,5.7-7,5.7-14.5c0-6.7-2.7-11.7-5.7-14.6c-3.2-3.1-8.4-5.6-14.3-5.6
		C10271.2,414.4,10266.1,416.5,10262.6,420z"/>
	<path class="st1" d="M10320.4,467.1l10.4-65h12.5l16.2,38.9l16.2-38.9h12.5l10.4,65h-15l-5.2-38.8l-16.3,38.8h-5.3l-16.3-38.8
		l-5.2,38.8H10320.4z"/>
	<path class="st1" d="M10468.7,414.7h-21.1v12.6h19.5V440h-19.5v27.1h-15v-65h36.1V414.7z"/>
	<path class="st1" d="M10484.1,455.2c-3.9-5-6.8-11.4-6.8-20c0-9.9,4.2-19.2,10-25.1c8-8,17.7-9.6,25.5-9.6c7.4,0,13.8,1.4,20.4,5.7
		l8.6-8.6l8.1,7.8l-8.5,8.5c4,5.4,6.7,11.8,6.7,20.4c0,10.6-4.3,19-10.1,24.7c-8.3,8-17.8,9.6-25.2,9.6c-7.6,0-14-1.7-20.5-5.8
		l-8.7,8.7l-8.1-7.8L10484.1,455.2z M10522.5,416.8c-2.2-1.1-5.6-2.3-9.8-2.3c-5.9,0-10.7,2-14.2,5.6c-2.8,2.8-5.8,7.4-5.8,14.9
		c0,3.5,0.6,6.3,2.2,9.5L10522.5,416.8z M10502.7,452.4c2.7,1.4,5.9,2.3,9.8,2.3c7.5,0,12.1-3.2,14.4-5.6c4.5-4.4,5.7-9.9,5.7-15.1
		c0-3.3-0.5-6-2.2-9.3L10502.7,452.4z"/>
	<path class="st1" d="M10582.7,402.1c8.3,0,13.5,2.7,16.6,5.7c2.7,2.6,5.7,7.3,5.7,14.5c0,4.1-0.9,9.2-5.1,13.3
		c-2.2,2.1-5.5,4.1-9.1,5l20,26.6h-18.3l-17.6-25.6v25.6h-15v-65H10582.7z M10574.9,431.6h3.4c2.7,0,6.4-0.3,9-2.8
		c1.1-1.1,2.4-3.1,2.4-6.3c0-3.7-1.8-5.7-3-6.6c-2.4-1.9-6.3-2-8.3-2h-3.5V431.6z"/>
	<path class="st1" d="M10662.3,402.1c8.6,0,17.7,1.3,25.6,9c5.8,5.6,9.4,13.2,9.4,23.3c0,10.2-3.5,17.7-8.9,23
		c-9,9.1-20.2,9.8-25.6,9.8h-21.1v-65H10662.3z M10656.8,454.4h4c3.1,0,9.9-0.3,14.8-4.4c3.5-2.9,6.3-8.5,6.3-15.7
		c0-7-2.8-11.5-5.4-14c-4.9-4.9-11.2-5.6-15.8-5.6h-4V454.4z"/>
</g>
<g>
	<rect x="11200" class="st0" width="1600" height="900"/>
</g>
<g>
	<path class="st1" d="M11376.9,414.7v52.4h-15v-52.4h-14.1v-12.7h43.3v12.7H11376.9z"/>
	<path class="st1" d="M11433.7,454.5h-24.9l-4.9,12.6h-15.6l26.6-65h37l4.7,12.7h-22.6l5,12.6h22.4l4.9,12.7h-22.5l5.8,14.4h22.6
		l4.8,12.7h-38.2L11433.7,454.5z M11429.6,443l-8-21.4l-8.4,21.4H11429.6z"/>
	<path class="st1" d="M11484.6,467.1v-65h13.1l35.3,41.9v-41.9h15v65h-13.1l-35.3-42.1v42.1H11484.6z"/>
	<path class="st1" d="M11577.2,429.2l22.2-27.1h18.3l-26.3,30.8l28.4,34.2h-19.3l-23.3-28.9v28.9h-15v-65h15V429.2z"/>
	<path class="st1" d="M11670.9,402.1c8.6,0,17.7,1.3,25.6,9c5.8,5.6,9.4,13.2,9.4,23.3c0,10.2-3.5,17.7-8.9,23
		c-9,9.1-20.2,9.8-25.6,9.8h-21.1v-65H11670.9z M11665.3,454.4h4c3.1,0,9.9-0.3,14.8-4.4c3.5-2.9,6.3-8.5,6.3-15.7
		c0-7-2.8-11.5-5.4-14c-4.9-4.9-11.2-5.6-15.8-5.6h-4V454.4z"/>
	<path class="st1" d="M11732.4,402.1v65h-15v-65H11732.4z"/>
	<path class="st1" d="M11778.2,431.6h32.3v0.7c0,7.9-2.8,19.9-10,27.4c-7.2,7.5-15.5,8.9-23.2,8.9c-7.8,0-16.2-1.3-23.8-9.1
		c-3.8-3.9-9.6-11.8-9.6-24.8c0-10.6,3.9-19.1,9.4-24.7c8-8.3,17.8-9.5,25.5-9.5c5.4,0,12.2,0.9,18.2,4.9c4.4,2.9,8.2,7.5,10.5,11.6
		l-13.6,7.3c-1.3-2.5-3.2-5.2-5.8-7c-2.9-2.1-6.2-3.1-9.9-3.1c-5.9,0-10.3,2-13.5,5.3c-3.6,3.8-5.6,9.4-5.6,15.4
		c0,7.4,2.7,12.2,5.5,14.9c3.8,3.9,8.2,5.1,13.2,5.1c6.4,0,9.8-2.2,11.3-3.5c0.5-0.4,3.4-2.9,4.7-7.7h-15.7V431.6z"/>
	<path class="st1" d="M11902.1,410.1c6.1,5.9,10.1,14.5,10.1,24.6c0,8.7-3.1,17.6-10.1,24.4c-6,5.9-14.2,9.6-25.2,9.6
		c-12.2,0-20.5-4.9-25.4-9.6c-6.2-5.9-10.1-14.6-10.1-24.2c0-9.4,4.2-18.8,10-24.7c4.4-4.4,12.5-9.6,25.5-9.6
		C11887.1,400.6,11895.6,403.7,11902.1,410.1z M11862.6,420c-2.8,2.7-5.8,7.5-5.8,14.7c0,5.9,2,10.7,5.9,14.6
		c4.2,4,8.9,5.4,13.9,5.4c6.6,0,11.3-2.4,14.4-5.6c2.5-2.4,5.7-7,5.7-14.5c0-6.7-2.7-11.7-5.7-14.6c-3.2-3.1-8.4-5.6-14.3-5.6
		C11871.2,414.4,11866.1,416.5,11862.6,420z"/>
	<path class="st1" d="M11920.4,467.1l10.4-65h12.5l16.2,38.9l16.2-38.9h12.5l10.4,65h-15l-5.2-38.8l-16.3,38.8h-5.3l-16.3-38.8
		l-5.2,38.8H11920.4z"/>
	<path class="st1" d="M12068.7,414.7h-21.1v12.6h19.5V440h-19.5v27.1h-15v-65h36.1V414.7z"/>
	<path class="st1" d="M12084.1,455.2c-3.9-5-6.8-11.4-6.8-20c0-9.9,4.2-19.2,10-25.1c8-8,17.7-9.6,25.5-9.6c7.4,0,13.8,1.4,20.4,5.7
		l8.6-8.6l8.1,7.8l-8.5,8.5c4,5.4,6.7,11.8,6.7,20.4c0,10.6-4.3,19-10.1,24.7c-8.3,8-17.8,9.6-25.2,9.6c-7.6,0-14-1.7-20.5-5.8
		l-8.7,8.7l-8.1-7.8L12084.1,455.2z M12122.5,416.8c-2.2-1.1-5.6-2.3-9.8-2.3c-5.9,0-10.7,2-14.2,5.6c-2.8,2.8-5.8,7.4-5.8,14.9
		c0,3.5,0.6,6.3,2.2,9.5L12122.5,416.8z M12102.7,452.4c2.7,1.4,5.9,2.3,9.8,2.3c7.5,0,12.1-3.2,14.4-5.6c4.5-4.4,5.7-9.9,5.7-15.1
		c0-3.3-0.5-6-2.2-9.3L12102.7,452.4z"/>
	<path class="st1" d="M12182.7,402.1c8.3,0,13.5,2.7,16.6,5.7c2.7,2.6,5.7,7.3,5.7,14.5c0,4.1-0.9,9.2-5.1,13.3
		c-2.2,2.1-5.5,4.1-9.1,5l20,26.6h-18.3l-17.6-25.6v25.6h-15v-65H12182.7z M12174.9,431.6h3.4c2.7,0,6.4-0.3,9-2.8
		c1.1-1.1,2.4-3.1,2.4-6.3c0-3.7-1.8-5.7-3-6.6c-2.4-1.9-6.3-2-8.3-2h-3.5V431.6z"/>
	<path class="st1" d="M12262.3,402.1c8.6,0,17.7,1.3,25.6,9c5.8,5.6,9.4,13.2,9.4,23.3c0,10.2-3.5,17.7-8.9,23
		c-9,9.1-20.2,9.8-25.6,9.8h-21.1v-65H12262.3z M12256.8,454.4h4c3.1,0,9.9-0.3,14.8-4.4c3.5-2.9,6.3-8.5,6.3-15.7
		c0-7-2.8-11.5-5.4-14c-4.9-4.9-11.2-5.6-15.8-5.6h-4V454.4z"/>
	<path class="st1" d="M12363.6,440.6c0,6.2-0.8,13.9-7.2,20.6c-6.2,6.4-13.5,7.4-20.3,7.4s-14-1-20.3-7.4
		c-6.4-6.6-7.2-14.3-7.2-20.6v-38.5h15v38.1c0,2.8,0.2,7.6,3.4,10.9c2.6,2.8,6.2,3.4,9.1,3.4s6.4-0.6,9.1-3.4
		c3.2-3.3,3.4-8.1,3.4-10.9v-38.1h15V440.6z"/>
	<path class="st1" d="M12421.1,402.1c8.6,0,17.7,1.3,25.6,9c5.8,5.6,9.4,13.2,9.4,23.3c0,10.2-3.5,17.7-8.9,23
		c-9,9.1-20.2,9.8-25.6,9.8h-21.1v-65H12421.1z M12415.5,454.4h4c3.1,0,9.9-0.3,14.8-4.4c3.5-2.9,6.3-8.5,6.3-15.7
		c0-7-2.8-11.5-5.4-14c-4.9-4.9-11.2-5.6-15.8-5.6h-4V454.4z"/>
</g>
<g>
	<rect x="12800" class="st0" width="1600" height="900"/>
</g>
<g>
	<path class="st1" d="M12976.9,414.7v52.4h-15v-52.4h-14.1v-12.7h43.3v12.7H12976.9z"/>
	<path class="st1" d="M13033.7,454.5h-24.9l-4.9,12.6h-15.6l26.6-65h37l4.7,12.7h-22.6l5,12.6h22.4l4.9,12.7h-22.5l5.8,14.4h22.6
		l4.8,12.7h-38.2L13033.7,454.5z M13029.6,443l-8-21.4l-8.4,21.4H13029.6z"/>
	<path class="st1" d="M13084.6,467.1v-65h13.1l35.3,41.9v-41.9h15v65h-13.1l-35.3-42.1v42.1H13084.6z"/>
	<path class="st1" d="M13177.2,429.2l22.2-27.1h18.3l-26.3,30.8l28.4,34.2h-19.3l-23.3-28.9v28.9h-15v-65h15V429.2z"/>
	<path class="st1" d="M13270.9,402.1c8.6,0,17.7,1.3,25.6,9c5.8,5.6,9.4,13.2,9.4,23.3c0,10.2-3.5,17.7-8.9,23
		c-9,9.1-20.2,9.8-25.6,9.8h-21.1v-65H13270.9z M13265.3,454.4h4c3.1,0,9.9-0.3,14.8-4.4c3.5-2.9,6.3-8.5,6.3-15.7
		c0-7-2.8-11.5-5.4-14c-4.9-4.9-11.2-5.6-15.8-5.6h-4V454.4z"/>
	<path class="st1" d="M13332.4,402.1v65h-15v-65H13332.4z"/>
	<path class="st1" d="M13378.2,431.6h32.3v0.7c0,7.9-2.8,19.9-10,27.4c-7.2,7.5-15.5,8.9-23.2,8.9c-7.8,0-16.2-1.3-23.8-9.1
		c-3.8-3.9-9.6-11.8-9.6-24.8c0-10.6,3.9-19.1,9.4-24.7c8-8.3,17.8-9.5,25.5-9.5c5.4,0,12.2,0.9,18.2,4.9c4.4,2.9,8.2,7.5,10.5,11.6
		l-13.6,7.3c-1.3-2.5-3.2-5.2-5.8-7c-2.9-2.1-6.2-3.1-9.9-3.1c-5.9,0-10.3,2-13.5,5.3c-3.6,3.8-5.6,9.4-5.6,15.4
		c0,7.4,2.7,12.2,5.5,14.9c3.8,3.9,8.2,5.1,13.2,5.1c6.4,0,9.8-2.2,11.3-3.5c0.5-0.4,3.4-2.9,4.7-7.7h-15.7V431.6z"/>
	<path class="st1" d="M13502.1,410.1c6.1,5.9,10.1,14.5,10.1,24.6c0,8.7-3.1,17.6-10.1,24.4c-6,5.9-14.2,9.6-25.2,9.6
		c-12.2,0-20.5-4.9-25.4-9.6c-6.2-5.9-10.1-14.6-10.1-24.2c0-9.4,4.2-18.8,10-24.7c4.4-4.4,12.5-9.6,25.5-9.6
		C13487.1,400.6,13495.6,403.7,13502.1,410.1z M13462.6,420c-2.8,2.7-5.8,7.5-5.8,14.7c0,5.9,2,10.7,5.9,14.6
		c4.2,4,8.9,5.4,13.9,5.4c6.6,0,11.3-2.4,14.4-5.6c2.5-2.4,5.7-7,5.7-14.5c0-6.7-2.7-11.7-5.7-14.6c-3.2-3.1-8.4-5.6-14.3-5.6
		C13471.2,414.4,13466.1,416.5,13462.6,420z"/>
	<path class="st1" d="M13520.4,467.1l10.4-65h12.5l16.2,38.9l16.2-38.9h12.5l10.4,65h-15l-5.2-38.8l-16.3,38.8h-5.3l-16.3-38.8
		l-5.2,38.8H13520.4z"/>
	<path class="st1" d="M13668.7,414.7h-21.1v12.6h19.5V440h-19.5v27.1h-15v-65h36.1V414.7z"/>
	<path class="st1" d="M13684.1,455.2c-3.9-5-6.8-11.4-6.8-20c0-9.9,4.2-19.2,10-25.1c8-8,17.7-9.6,25.5-9.6c7.4,0,13.8,1.4,20.4,5.7
		l8.6-8.6l8.1,7.8l-8.5,8.5c4,5.4,6.7,11.8,6.7,20.4c0,10.6-4.3,19-10.1,24.7c-8.3,8-17.8,9.6-25.2,9.6c-7.6,0-14-1.7-20.5-5.8
		l-8.7,8.7l-8.1-7.8L13684.1,455.2z M13722.5,416.8c-2.2-1.1-5.6-2.3-9.8-2.3c-5.9,0-10.7,2-14.2,5.6c-2.8,2.8-5.8,7.4-5.8,14.9
		c0,3.5,0.6,6.3,2.2,9.5L13722.5,416.8z M13702.7,452.4c2.7,1.4,5.9,2.3,9.8,2.3c7.5,0,12.1-3.2,14.4-5.6c4.5-4.4,5.7-9.9,5.7-15.1
		c0-3.3-0.5-6-2.2-9.3L13702.7,452.4z"/>
	<path class="st1" d="M13782.7,402.1c8.3,0,13.5,2.7,16.6,5.7c2.7,2.6,5.7,7.3,5.7,14.5c0,4.1-0.9,9.2-5.1,13.3
		c-2.2,2.1-5.5,4.1-9.1,5l20,26.6h-18.3l-17.6-25.6v25.6h-15v-65H13782.7z M13774.9,431.6h3.4c2.7,0,6.4-0.3,9-2.8
		c1.1-1.1,2.4-3.1,2.4-6.3c0-3.7-1.8-5.7-3-6.6c-2.4-1.9-6.3-2-8.3-2h-3.5V431.6z"/>
	<path class="st1" d="M13862.3,402.1c8.6,0,17.7,1.3,25.6,9c5.8,5.6,9.4,13.2,9.4,23.3c0,10.2-3.5,17.7-8.9,23
		c-9,9.1-20.2,9.8-25.6,9.8h-21.1v-65H13862.3z M13856.8,454.4h4c3.1,0,9.9-0.3,14.8-4.4c3.5-2.9,6.3-8.5,6.3-15.7
		c0-7-2.8-11.5-5.4-14c-4.9-4.9-11.2-5.6-15.8-5.6h-4V454.4z"/>
	<path class="st1" d="M13963.6,440.6c0,6.2-0.8,13.9-7.2,20.6c-6.2,6.4-13.5,7.4-20.3,7.4s-14-1-20.3-7.4
		c-6.4-6.6-7.2-14.3-7.2-20.6v-38.5h15v38.1c0,2.8,0.2,7.6,3.4,10.9c2.6,2.8,6.2,3.4,9.1,3.4s6.4-0.6,9.1-3.4
		c3.2-3.3,3.4-8.1,3.4-10.9v-38.1h15V440.6z"/>
	<path class="st1" d="M14021.1,402.1c8.6,0,17.7,1.3,25.6,9c5.8,5.6,9.4,13.2,9.4,23.3c0,10.2-3.5,17.7-8.9,23
		c-9,9.1-20.2,9.8-25.6,9.8h-21.1v-65H14021.1z M14015.5,454.4h4c3.1,0,9.9-0.3,14.8-4.4c3.5-2.9,6.3-8.5,6.3-15.7
		c0-7-2.8-11.5-5.4-14c-4.9-4.9-11.2-5.6-15.8-5.6h-4V454.4z"/>
	<path class="st1" d="M14104.1,414.7h-21.7v12.6h20.7V440h-20.7v14.4h21.7v12.7h-36.8v-65h36.8V414.7z"/>
	<path class="st1" d="M14131.3,402.1v52.4h20.2v12.7h-35.2v-65H14131.3z"/>
</g>
<g>
	<rect x="14400" class="st0" width="1600" height="900"/>
</g>
<g>
	<path class="st1" d="M14576.9,414.7v52.4h-15v-52.4h-14.1v-12.7h43.3v12.7H14576.9z"/>
	<path class="st1" d="M14633.7,454.5h-24.9l-4.9,12.6h-15.6l26.6-65h37l4.7,12.7h-22.6l5,12.6h22.4l4.9,12.7h-22.5l5.8,14.4h22.6
		l4.8,12.7h-38.2L14633.7,454.5z M14629.6,443l-8-21.4l-8.4,21.4H14629.6z"/>
	<path class="st1" d="M14684.6,467.1v-65h13.1l35.3,41.9v-41.9h15v65h-13.1l-35.3-42.1v42.1H14684.6z"/>
	<path class="st1" d="M14777.2,429.2l22.2-27.1h18.3l-26.3,30.8l28.4,34.2h-19.3l-23.3-28.9v28.9h-15v-65h15V429.2z"/>
	<path class="st1" d="M14870.9,402.1c8.6,0,17.7,1.3,25.6,9c5.8,5.6,9.4,13.2,9.4,23.3c0,10.2-3.5,17.7-8.9,23
		c-9,9.1-20.2,9.8-25.6,9.8h-21.1v-65H14870.9z M14865.3,454.4h4c3.1,0,9.9-0.3,14.8-4.4c3.5-2.9,6.3-8.5,6.3-15.7
		c0-7-2.8-11.5-5.4-14c-4.9-4.9-11.2-5.6-15.8-5.6h-4V454.4z"/>
	<path class="st1" d="M14932.4,402.1v65h-15v-65H14932.4z"/>
	<path class="st1" d="M14978.2,431.6h32.3v0.7c0,7.9-2.8,19.9-10,27.4c-7.2,7.5-15.5,8.9-23.2,8.9c-7.8,0-16.2-1.3-23.8-9.1
		c-3.8-3.9-9.6-11.8-9.6-24.8c0-10.6,3.9-19.1,9.4-24.7c8-8.3,17.8-9.5,25.5-9.5c5.4,0,12.2,0.9,18.2,4.9c4.4,2.9,8.2,7.5,10.5,11.6
		l-13.6,7.3c-1.3-2.5-3.2-5.2-5.8-7c-2.9-2.1-6.2-3.1-9.9-3.1c-5.9,0-10.3,2-13.5,5.3c-3.6,3.8-5.6,9.4-5.6,15.4
		c0,7.4,2.7,12.2,5.5,14.9c3.8,3.9,8.2,5.1,13.2,5.1c6.4,0,9.8-2.2,11.3-3.5c0.5-0.4,3.4-2.9,4.7-7.7h-15.7V431.6z"/>
	<path class="st1" d="M15102.1,410.1c6.1,5.9,10.1,14.5,10.1,24.6c0,8.7-3.1,17.6-10.1,24.4c-6,5.9-14.2,9.6-25.2,9.6
		c-12.2,0-20.5-4.9-25.4-9.6c-6.2-5.9-10.1-14.6-10.1-24.2c0-9.4,4.2-18.8,10-24.7c4.4-4.4,12.5-9.6,25.5-9.6
		C15087.1,400.6,15095.6,403.7,15102.1,410.1z M15062.6,420c-2.8,2.7-5.8,7.5-5.8,14.7c0,5.9,2,10.7,5.9,14.6
		c4.2,4,8.9,5.4,13.9,5.4c6.6,0,11.3-2.4,14.4-5.6c2.5-2.4,5.7-7,5.7-14.5c0-6.7-2.7-11.7-5.7-14.6c-3.2-3.1-8.4-5.6-14.3-5.6
		C15071.2,414.4,15066.1,416.5,15062.6,420z"/>
	<path class="st1" d="M15120.4,467.1l10.4-65h12.5l16.2,38.9l16.2-38.9h12.5l10.4,65h-15l-5.2-38.8l-16.3,38.8h-5.3l-16.3-38.8
		l-5.2,38.8H15120.4z"/>
	<path class="st1" d="M15268.7,414.7h-21.1v12.6h19.5V440h-19.5v27.1h-15v-65h36.1V414.7z"/>
	<path class="st1" d="M15284.1,455.2c-3.9-5-6.8-11.4-6.8-20c0-9.9,4.2-19.2,10-25.1c8-8,17.7-9.6,25.5-9.6c7.4,0,13.8,1.4,20.4,5.7
		l8.6-8.6l8.1,7.8l-8.5,8.5c4,5.4,6.7,11.8,6.7,20.4c0,10.6-4.3,19-10.1,24.7c-8.3,8-17.8,9.6-25.2,9.6c-7.6,0-14-1.7-20.5-5.8
		l-8.7,8.7l-8.1-7.8L15284.1,455.2z M15322.5,416.8c-2.2-1.1-5.6-2.3-9.8-2.3c-5.9,0-10.7,2-14.2,5.6c-2.8,2.8-5.8,7.4-5.8,14.9
		c0,3.5,0.6,6.3,2.2,9.5L15322.5,416.8z M15302.7,452.4c2.7,1.4,5.9,2.3,9.8,2.3c7.5,0,12.1-3.2,14.4-5.6c4.5-4.4,5.7-9.9,5.7-15.1
		c0-3.3-0.5-6-2.2-9.3L15302.7,452.4z"/>
	<path class="st1" d="M15382.7,402.1c8.3,0,13.5,2.7,16.6,5.7c2.7,2.6,5.7,7.3,5.7,14.5c0,4.1-0.9,9.2-5.1,13.3
		c-2.2,2.1-5.5,4.1-9.1,5l20,26.6h-18.3l-17.6-25.6v25.6h-15v-65H15382.7z M15374.9,431.6h3.4c2.7,0,6.4-0.3,9-2.8
		c1.1-1.1,2.4-3.1,2.4-6.3c0-3.7-1.8-5.7-3-6.6c-2.4-1.9-6.3-2-8.3-2h-3.5V431.6z"/>
	<path class="st1" d="M15462.3,402.1c8.6,0,17.7,1.3,25.6,9c5.8,5.6,9.4,13.2,9.4,23.3c0,10.2-3.5,17.7-8.9,23
		c-9,9.1-20.2,9.8-25.6,9.8h-21.1v-65H15462.3z M15456.8,454.4h4c3.1,0,9.9-0.3,14.8-4.4c3.5-2.9,6.3-8.5,6.3-15.7
		c0-7-2.8-11.5-5.4-14c-4.9-4.9-11.2-5.6-15.8-5.6h-4V454.4z"/>
	<path class="st1" d="M15563.6,440.6c0,6.2-0.8,13.9-7.2,20.6c-6.2,6.4-13.5,7.4-20.3,7.4s-14-1-20.3-7.4
		c-6.4-6.6-7.2-14.3-7.2-20.6v-38.5h15v38.1c0,2.8,0.2,7.6,3.4,10.9c2.6,2.8,6.2,3.4,9.1,3.4s6.4-0.6,9.1-3.4
		c3.2-3.3,3.4-8.1,3.4-10.9v-38.1h15V440.6z"/>
	<path class="st1" d="M15621.1,402.1c8.6,0,17.7,1.3,25.6,9c5.8,5.6,9.4,13.2,9.4,23.3c0,10.2-3.5,17.7-8.9,23
		c-9,9.1-20.2,9.8-25.6,9.8h-21.1v-65H15621.1z M15615.5,454.4h4c3.1,0,9.9-0.3,14.8-4.4c3.5-2.9,6.3-8.5,6.3-15.7
		c0-7-2.8-11.5-5.4-14c-4.9-4.9-11.2-5.6-15.8-5.6h-4V454.4z"/>
	<path class="st1" d="M15704.1,414.7h-21.7v12.6h20.7V440h-20.7v14.4h21.7v12.7h-36.8v-65h36.8V414.7z"/>
	<path class="st1" d="M15731.3,402.1v52.4h20.2v12.7h-35.2v-65H15731.3z"/>
	<path class="st1" d="M15796.7,414.7h-21.7v12.6h20.7V440h-20.7v14.4h21.7v12.7h-36.8v-65h36.8V414.7z"/>
	<path class="st1" d="M15831.7,402.1c8.3,0,13.5,2.7,16.6,5.7c2.7,2.6,5.7,7.3,5.7,14.5c0,4.1-0.9,9.2-5.1,13.3
		c-2.2,2.1-5.5,4.1-9.1,5l20,26.6h-18.3l-17.6-25.6v25.6h-15v-65H15831.7z M15823.9,431.6h3.4c2.7,0,6.4-0.3,9-2.8
		c1.1-1.1,2.4-3.1,2.4-6.3c0-3.7-1.8-5.7-3-6.6c-2.4-1.9-6.3-2-8.3-2h-3.5V431.6z"/>
</g>
</svg>
