<?xml version="1.0" encoding="utf-8"?>
<!-- Generator: Adobe Illustrator 22.0.1, SVG Export Plug-In . SVG Version: 6.00 Build 0)  -->
<svg version="1.1" id="Layer_1" xmlns="http://www.w3.org/2000/svg" xmlns:xlink="http://www.w3.org/1999/xlink" x="0px" y="0px"
	 viewBox="0 0 1600 900" style="enable-background:new 0 0 1600 900;" xml:space="preserve">
<style type="text/css">
	.st0{fill:#1F2532;}
	.st1{fill:#FFFFFF;}
	.st2{fill:#FF9207;}
</style>
<g>
	<rect class="st0" width="1600" height="900"/>
</g>
<g>
	<path class="st1" d="M77,178.1h14.1v-13.5h8.2V200h-8.2v-15H77v15h-8.2v-35.3H77V178.1z"/>
	<path class="st1" d="M127.8,193.3h-13.4l-2.7,6.7h-8.5l14.3-35.3h7.5l13.9,35.3h-8.5L127.8,193.3z M125.6,187.1l-4.3-11.9
		l-4.4,11.9H125.6z"/>
	<path class="st1" d="M155.3,164.7c4.5,0,7.3,1.5,9,3.1c1.5,1.4,3.1,4,3.1,7.9c0,2.2-0.5,5-2.8,7.2c-1.2,1.2-3,2.2-4.9,2.7
		l10.9,14.5h-10l-9.5-13.9V200h-8.2v-35.3H155.3z M151.1,180.7h1.9c1.5,0,3.5-0.2,4.9-1.5c0.6-0.6,1.3-1.7,1.3-3.4
		c0-2-1-3.1-1.6-3.6c-1.3-1-3.4-1.1-4.5-1.1h-1.9V180.7z"/>
	<path class="st1" d="M198.6,164.7c4.7,0,9.6,0.7,13.9,4.9c3.1,3,5.1,7.2,5.1,12.7c0,5.6-1.9,9.6-4.8,12.5c-4.9,4.9-11,5.3-13.9,5.3
		h-11.4v-35.3H198.6z M195.6,193.1h2.2c1.7,0,5.4-0.2,8.1-2.4c1.9-1.6,3.4-4.6,3.4-8.5c0-3.8-1.5-6.3-2.9-7.6c-2.6-2.6-6.1-3-8.6-3
		h-2.2V193.1z"/>
	<path class="st1" d="M253.6,185.6c0,3.4-0.4,7.6-3.9,11.2c-3.4,3.5-7.3,4-11,4c-3.7,0-7.6-0.5-11-4c-3.5-3.6-3.9-7.8-3.9-11.2
		v-20.9h8.2v20.7c0,1.5,0.1,4.1,1.9,5.9c1.4,1.5,3.4,1.9,4.9,1.9c1.5,0,3.5-0.3,4.9-1.9c1.7-1.8,1.9-4.4,1.9-5.9v-20.7h8.2V185.6z"
		/>
	<path class="st1" d="M284.5,164.7c1.9,0,6.3,0.1,9,2.7c2.3,2.2,2.5,5.1,2.5,6.7c0,1.4-0.2,3-1.2,4.5c-0.9,1.5-2.1,2.2-3,2.6
		c1.7,0.3,3.6,1.1,4.9,2.4c1.2,1.2,2.3,3.2,2.3,6.3c0,3.6-1.4,5.8-2.8,7.2c-2.9,2.8-7.2,3-9.3,3h-13.3v-35.3H284.5z M281.8,179h1.3
		c1.1,0,3-0.2,4.1-1c0.7-0.5,1.4-1.6,1.4-3.1s-0.7-2.5-1.4-3c-1.2-0.9-2.8-0.9-4.2-0.9h-1.3V179z M281.8,193.6h2
		c2.1,0,4.6-0.1,6-1.4c0.7-0.7,1.2-1.7,1.2-3c0-1.4-0.6-2.4-1.1-2.9c-1.4-1.3-4.2-1.3-5.8-1.3h-2.2V193.6z"/>
	<path class="st1" d="M317.6,164.7c4.5,0,7.3,1.5,9,3.1c1.5,1.4,3.1,4,3.1,7.9c0,2.2-0.5,5-2.8,7.2c-1.2,1.2-3,2.2-4.9,2.7
		l10.9,14.5h-10l-9.5-13.9V200h-8.2v-35.3H317.6z M313.4,180.7h1.9c1.5,0,3.5-0.2,4.9-1.5c0.6-0.6,1.3-1.7,1.3-3.4
		c0-2-1-3.1-1.6-3.6c-1.3-1-3.4-1.1-4.5-1.1h-1.9V180.7z"/>
	<path class="st1" d="M367.3,185.6c0,3.4-0.4,7.6-3.9,11.2c-3.4,3.5-7.3,4-11,4c-3.7,0-7.6-0.5-11-4c-3.5-3.6-3.9-7.8-3.9-11.2
		v-20.9h8.2v20.7c0,1.5,0.1,4.1,1.9,5.9c1.4,1.5,3.4,1.9,4.9,1.9c1.5,0,3.5-0.3,4.9-1.9c1.7-1.8,1.9-4.4,1.9-5.9v-20.7h8.2V185.6z"
		/>
	<path class="st1" d="M392,180.7h17.5v0.4c0,4.3-1.5,10.8-5.5,14.9c-3.9,4.1-8.4,4.8-12.6,4.8c-4.2,0-8.8-0.7-12.9-4.9
		c-2.1-2.1-5.2-6.4-5.2-13.5c0-5.8,2.1-10.4,5.1-13.4c4.3-4.5,9.7-5.1,13.9-5.1c2.9,0,6.6,0.5,9.9,2.6c2.4,1.6,4.5,4.1,5.7,6.3
		l-7.4,4c-0.7-1.4-1.7-2.8-3.1-3.8c-1.6-1.2-3.4-1.7-5.4-1.7c-3.2,0-5.6,1.1-7.3,2.9c-2,2.1-3,5.1-3,8.4c0,4,1.5,6.6,3,8.1
		c2.1,2.1,4.5,2.8,7.2,2.8c3.5,0,5.4-1.2,6.1-1.9c0.3-0.2,1.9-1.6,2.5-4.2H392V180.7z"/>
	<path class="st1" d="M447.6,171.5h-11.4v6.8h10.6v6.9h-10.6V200H428v-35.3h19.6V171.5z"/>
	<path class="st1" d="M484.9,169c3.3,3.2,5.5,7.9,5.5,13.4c0,4.7-1.7,9.5-5.5,13.2c-3.3,3.2-7.7,5.2-13.7,5.2
		c-6.6,0-11.1-2.7-13.8-5.2c-3.4-3.2-5.5-7.9-5.5-13.1c0-5.1,2.3-10.2,5.5-13.4c2.4-2.4,6.8-5.2,13.8-5.2
		C476.7,163.9,481.4,165.6,484.9,169z M463.4,174.4c-1.5,1.5-3.1,4.1-3.1,8c0,3.2,1.1,5.8,3.2,7.9c2.3,2.2,4.8,2.9,7.6,2.9
		c3.6,0,6.1-1.3,7.8-3c1.4-1.3,3.1-3.8,3.1-7.9c0-3.7-1.5-6.4-3.1-7.9c-1.7-1.7-4.6-3-7.8-3C468.1,171.4,465.4,172.5,463.4,174.4z"
		/>
	<path class="st1" d="M508.9,164.7c4.5,0,7.3,1.5,9,3.1c1.5,1.4,3.1,4,3.1,7.9c0,2.2-0.5,5-2.8,7.2c-1.2,1.2-3,2.2-4.9,2.7
		l10.9,14.5h-10l-9.5-13.9V200h-8.2v-35.3H508.9z M504.7,180.7h1.9c1.5,0,3.5-0.2,4.9-1.5c0.6-0.6,1.3-1.7,1.3-3.4
		c0-2-1-3.1-1.6-3.6c-1.3-1-3.4-1.1-4.5-1.1h-1.9V180.7z"/>
	<path class="st1" d="M561.8,193.3h-13.4l-2.7,6.7h-8.5l14.3-35.3h7.5l13.9,35.3h-8.5L561.8,193.3z M559.6,187.1l-4.3-11.9
		l-4.4,11.9H559.6z"/>
	<path class="st1" d="M587.1,171.5V200h-8.2v-28.5h-7.7v-6.9h23.5v6.9H587.1z"/>
	<path class="st1" d="M622.6,164.7c4.7,0,9.6,0.7,13.9,4.9c3.1,3,5.1,7.2,5.1,12.7c0,5.6-1.9,9.6-4.8,12.5c-4.9,4.9-11,5.3-13.9,5.3
		h-11.4v-35.3H622.6z M619.6,193.1h2.2c1.7,0,5.4-0.2,8.1-2.4c1.9-1.6,3.4-4.6,3.4-8.5c0-3.8-1.5-6.3-2.9-7.6c-2.6-2.6-6.1-3-8.6-3
		h-2.2V193.1z"/>
	<path class="st1" d="M667.7,171.5h-11.8v6.8h11.2v6.9h-11.2v7.8h11.8v6.9h-20v-35.3h20V171.5z"/>
	<path class="st1" d="M682.5,164.7v28.5h11v6.9h-19.1v-35.3H682.5z"/>
	<path class="st1" d="M718.1,171.5h-11.8v6.8h11.2v6.9h-11.2v7.8h11.8v6.9h-20v-35.3h20V171.5z"/>
	<path class="st1" d="M768.3,169c3.3,3.2,5.5,7.9,5.5,13.4c0,4.7-1.7,9.5-5.5,13.2c-3.3,3.2-7.7,5.2-13.7,5.2
		c-6.6,0-11.1-2.7-13.8-5.2c-3.4-3.2-5.5-7.9-5.5-13.1c0-5.1,2.3-10.2,5.5-13.4c2.4-2.4,6.8-5.2,13.8-5.2
		C760.2,163.9,764.8,165.6,768.3,169z M746.9,174.4c-1.5,1.5-3.1,4.1-3.1,8c0,3.2,1.1,5.8,3.2,7.9c2.3,2.2,4.8,2.9,7.6,2.9
		c3.6,0,6.1-1.3,7.8-3c1.4-1.3,3.1-3.8,3.1-7.9c0-3.7-1.5-6.4-3.1-7.9c-1.7-1.7-4.6-3-7.8-3C751.5,171.4,748.8,172.5,746.9,174.4z"
		/>
	<path class="st1" d="M792.4,164.7c3.1,0,6.5,0.4,9.3,2.9c3,2.6,3.4,6.1,3.4,8.6c0,4.5-1.7,6.9-3,8.3c-2.8,2.9-6.5,3.1-9,3.1h-5V200
		H780v-35.3H792.4z M788.1,180.9h2.9c1.1,0,3.1-0.1,4.4-1.3c0.7-0.7,1.3-2,1.3-3.5c0-1.5-0.5-2.7-1.3-3.4c-1.2-1.2-3-1.3-4.6-1.3
		h-2.8V180.9z"/>
	<path class="st1" d="M818.4,164.7v28.5h11v6.9h-19.1v-35.3H818.4z"/>
	<path class="st1" d="M854,171.5h-11.8v6.8h11.2v6.9h-11.2v7.8H854v6.9h-20v-35.3h20V171.5z"/>
	<path class="st1" d="M865.8,164.7l9,22.6l9-22.6h8.8l-15,35.3H872l-15-35.3H865.8z"/>
	<path class="st1" d="M916.5,171.5h-11.8v6.8H916v6.9h-11.2v7.8h11.8v6.9h-20v-35.3h20V171.5z"/>
	<path class="st1" d="M931.3,164.7v28.5h11v6.9h-19.1v-35.3H931.3z"/>
	<path class="st1" d="M965.1,173.3c-2.7-2.4-4.9-2.5-5.9-2.5c-1.1,0-2.5,0.2-3.4,1.2c-0.5,0.5-0.9,1.3-0.9,2.2c0,0.8,0.3,1.5,0.8,2
		c0.8,0.8,2.1,1.1,4.5,2l2.6,1c1.5,0.6,3.4,1.4,4.8,2.7c2.1,2,2.6,4.5,2.6,6.6c0,3.7-1.3,6.8-3.1,8.7c-3.1,3.3-7.7,3.6-10,3.6
		c-2.5,0-4.8-0.4-7-1.5c-1.8-0.9-3.9-2.5-5.2-3.9l4.2-5.8c0.9,0.9,2.3,2.1,3.3,2.7c1.4,0.8,2.8,1.3,4.5,1.3c1.1,0,2.5-0.2,3.7-1.2
		c0.7-0.6,1.3-1.5,1.3-2.9c0-1.2-0.5-1.9-1.2-2.5c-1-0.8-3.1-1.6-4.1-2l-2.9-1c-1.6-0.6-3.6-1.3-4.9-2.8c-1.9-2-2.1-4.5-2.1-6.1
		c0-3.1,1-5.8,3.1-7.9c2.5-2.5,5.5-3.2,8.7-3.2c2.4,0,6.4,0.4,10.5,3.5L965.1,173.3z"/>
	<path class="st1" d="M996,171.5h-11.8v6.8h11.2v6.9h-11.2v7.8H996v6.9h-20v-35.3h20V171.5z"/>
	<path class="st1" d="M1015.1,164.7c4.5,0,7.3,1.5,9,3.1c1.5,1.4,3.1,4,3.1,7.9c0,2.2-0.5,5-2.8,7.2c-1.2,1.2-3,2.2-4.9,2.7
		l10.9,14.5h-10l-9.5-13.9V200h-8.2v-35.3H1015.1z M1010.8,180.7h1.9c1.5,0,3.5-0.2,4.9-1.5c0.6-0.6,1.3-1.7,1.3-3.4
		c0-2-1-3.1-1.6-3.6c-1.3-1-3.4-1.1-4.5-1.1h-1.9V180.7z"/>
	<path class="st1" d="M1059.6,164.7c3.1,0,6.5,0.4,9.3,2.9c3,2.6,3.4,6.1,3.4,8.6c0,4.5-1.7,6.9-3,8.3c-2.8,2.9-6.5,3.1-9,3.1h-5
		V200h-8.2v-35.3H1059.6z M1055.3,180.9h2.9c1.1,0,3.1-0.1,4.4-1.3c0.7-0.7,1.3-2,1.3-3.5c0-1.5-0.5-2.7-1.3-3.4
		c-1.2-1.2-3-1.3-4.6-1.3h-2.8V180.9z"/>
	<path class="st1" d="M1095.1,193.3h-13.4l-2.7,6.7h-8.5l14.3-35.3h7.5l13.9,35.3h-8.5L1095.1,193.3z M1093.1,159.7
		c-1.2,1.1-2.9,1.7-4.7,1.7s-3.6-0.6-4.7-1.7c-0.9-0.9-1.4-2.2-1.4-3.5c0-1.3,0.5-2.6,1.4-3.5c1.2-1.1,2.9-1.7,4.7-1.7
		s3.6,0.6,4.7,1.7c0.9,0.9,1.4,2.2,1.4,3.5C1094.5,157.5,1094,158.8,1093.1,159.7z M1092.9,187.1l-4.3-11.9l-4.4,11.9H1092.9z
		 M1086.6,154.7c-0.4,0.4-0.6,1-0.6,1.4s0.2,1,0.6,1.4c0.4,0.4,1,0.6,1.8,0.6s1.4-0.3,1.8-0.6c0.4-0.4,0.6-1,0.6-1.4s-0.2-1-0.6-1.4
		c-0.4-0.4-1-0.6-1.8-0.6S1086.9,154.4,1086.6,154.7z"/>
	<path class="st1" d="M1139.6,180.7h17.5v0.4c0,4.3-1.5,10.8-5.5,14.9c-3.9,4.1-8.4,4.8-12.6,4.8c-4.2,0-8.8-0.7-12.9-4.9
		c-2.1-2.1-5.2-6.4-5.2-13.5c0-5.8,2.1-10.4,5.1-13.4c4.3-4.5,9.7-5.1,13.9-5.1c2.9,0,6.6,0.5,9.9,2.6c2.4,1.6,4.5,4.1,5.7,6.3
		l-7.4,4c-0.7-1.4-1.7-2.8-3.1-3.8c-1.6-1.2-3.4-1.7-5.4-1.7c-3.2,0-5.6,1.1-7.3,2.9c-2,2.1-3,5.1-3,8.4c0,4,1.5,6.6,3,8.1
		c2.1,2.1,4.5,2.8,7.2,2.8c3.5,0,5.4-1.2,6.1-1.9c0.3-0.2,1.9-1.6,2.5-4.2h-8.5V180.7z"/>
	<path class="st1" d="M1194.5,169c3.3,3.2,5.5,7.9,5.5,13.4c0,4.7-1.7,9.5-5.5,13.2c-3.3,3.2-7.7,5.2-13.7,5.2
		c-6.6,0-11.1-2.7-13.8-5.2c-3.4-3.2-5.5-7.9-5.5-13.1c0-5.1,2.3-10.2,5.5-13.4c2.4-2.4,6.8-5.2,13.8-5.2
		C1186.4,163.9,1191,165.6,1194.5,169z M1173.1,174.4c-1.5,1.5-3.1,4.1-3.1,8c0,3.2,1.1,5.8,3.2,7.9c2.3,2.2,4.8,2.9,7.6,2.9
		c3.6,0,6.1-1.3,7.8-3c1.4-1.3,3.1-3.8,3.1-7.9c0-3.7-1.5-6.4-3.1-7.9c-1.7-1.7-4.6-3-7.8-3C1177.7,171.4,1175,172.5,1173.1,174.4z"
		/>
	<path class="st1" d="M1217.3,164.7c4.7,0,9.6,0.7,13.9,4.9c3.1,3,5.1,7.2,5.1,12.7c0,5.6-1.9,9.6-4.8,12.5
		c-4.9,4.9-11,5.3-13.9,5.3h-11.4v-35.3H1217.3z M1214.3,193.1h2.2c1.7,0,5.4-0.2,8.1-2.4c1.9-1.6,3.4-4.6,3.4-8.5
		c0-3.8-1.5-6.3-2.9-7.6c-2.6-2.6-6.1-3-8.6-3h-2.2V193.1z"/>
	<path class="st1" d="M1254.8,171.5V200h-8.2v-28.5h-7.7v-6.9h23.5v6.9H1254.8z"/>
	<path class="st1" d="M1310.5,169c3.3,3.2,5.5,7.9,5.5,13.4c0,4.7-1.7,9.5-5.5,13.2c-3.3,3.2-7.7,5.2-13.7,5.2
		c-6.6,0-11.1-2.7-13.8-5.2c-3.4-3.2-5.5-7.9-5.5-13.1c0-5.1,2.3-10.2,5.5-13.4c2.4-2.4,6.8-5.2,13.8-5.2
		C1302.3,163.9,1306.9,165.6,1310.5,169z M1289,174.4c-1.5,1.5-3.1,4.1-3.1,8c0,3.2,1.1,5.8,3.2,7.9c2.3,2.2,4.8,2.9,7.6,2.9
		c3.6,0,6.1-1.3,7.8-3c1.4-1.3,3.1-3.8,3.1-7.9c0-3.7-1.5-6.4-3.1-7.9c-1.7-1.7-4.6-3-7.8-3C1293.7,171.4,1290.9,172.5,1289,174.4z"
		/>
	<path class="st1" d="M1339.1,180.7h17.5v0.4c0,4.3-1.5,10.8-5.5,14.9c-3.9,4.1-8.4,4.8-12.6,4.8c-4.2,0-8.8-0.7-12.9-4.9
		c-2.1-2.1-5.2-6.4-5.2-13.5c0-5.8,2.1-10.4,5.1-13.4c4.3-4.5,9.7-5.1,13.9-5.1c2.9,0,6.6,0.5,9.9,2.6c2.4,1.6,4.5,4.1,5.7,6.3
		l-7.4,4c-0.7-1.4-1.7-2.8-3.1-3.8c-1.6-1.2-3.4-1.7-5.4-1.7c-3.2,0-5.6,1.1-7.3,2.9c-2,2.1-3,5.1-3,8.4c0,4,1.5,6.6,3,8.1
		c2.1,2.1,4.5,2.8,7.2,2.8c3.5,0,5.4-1.2,6.1-1.9c0.3-0.2,1.9-1.6,2.5-4.2h-8.5V180.7z"/>
	<path class="st1" d="M1406.4,169c3.3,3.2,5.5,7.9,5.5,13.4c0,4.7-1.7,9.5-5.5,13.2c-3.3,3.2-7.7,5.2-13.7,5.2
		c-6.6,0-11.1-2.7-13.8-5.2c-3.4-3.2-5.5-7.9-5.5-13.1c0-5.1,2.3-10.2,5.5-13.4c2.4-2.4,6.8-5.2,13.8-5.2
		C1398.2,163.9,1402.9,165.6,1406.4,169z M1384.9,174.4c-1.5,1.5-3.1,4.1-3.1,8c0,3.2,1.1,5.8,3.2,7.9c2.3,2.2,4.8,2.9,7.6,2.9
		c3.6,0,6.1-1.3,7.8-3c1.4-1.3,3.1-3.8,3.1-7.9c0-3.7-1.5-6.4-3.1-7.9c-1.7-1.7-4.6-3-7.8-3C1389.6,171.4,1386.9,172.5,1384.9,174.4
		z"/>
	<path class="st1" d="M1418,200v-35.3h7.1l19.2,22.8v-22.8h8.2V200h-7.1l-19.2-22.9V200H1418z"/>
	<path class="st1" d="M1471.4,164.7c4.7,0,9.6,0.7,13.9,4.9c3.1,3,5.1,7.2,5.1,12.7c0,5.6-1.9,9.6-4.8,12.5
		c-4.9,4.9-11,5.3-13.9,5.3h-11.4v-35.3H1471.4z M1468.4,193.1h2.2c1.7,0,5.4-0.2,8.1-2.4c1.9-1.6,3.4-4.6,3.4-8.5
		c0-3.8-1.5-6.3-2.9-7.6c-2.6-2.6-6.1-3-8.6-3h-2.2V193.1z"/>
	<path class="st1" d="M1508.9,171.5V200h-8.2v-28.5h-7.7v-6.9h23.5v6.9H1508.9z"/>
	<path class="st1" d="M1526.2,188.7v-9.8c2.3,0.5,5.2,0.3,6.8-1.1c1-0.8,1.6-2.2,1.6-3.7c0-1.1-0.4-2-1-2.7c-0.8-0.8-1.8-1-2.5-1
		c-1.4,0-2.2,0.5-2.7,1c-0.6,0.6-1,1.9-0.9,3h-8.2c0.1-3.2,1.4-5.8,2.9-7.3c1.3-1.4,3.9-3.2,8.7-3.2c4.1,0,6.9,1.4,8.7,3.2
		c2.1,2.1,3,4.8,3,7.3c0,2.9-1.2,5.2-2.6,6.7c-1.1,1.2-3,2.7-6,3.1v4.5H1526.2z M1530.3,191.2c2.7,0,4.8,2.1,4.8,4.8
		s-2.1,4.8-4.8,4.8c-2.7,0-4.8-2.1-4.8-4.8S1527.6,191.2,1530.3,191.2z"/>
</g>
<g>
	<path class="st2" d="M1018,654H743h-93c-6.6,0-12-5.4-12-12V518c0-6.6,5.4-12,12-12h368c6.6,0,12,5.4,12,12v124
		C1030,648.6,1024.6,654,1018,654z"/>
</g>
<g>
	<polyline class="st2" points="697,652 697,689 745,652 	"/>
</g>
<g>
	<path class="st1" d="M658.4,394.9c6.7,0,14,0.9,20.1,6.3c6.6,5.7,7.5,13.3,7.5,18.5c0,9.6-3.7,15-6.6,18
		c-6.1,6.2-14.1,6.8-19.5,6.8h-10.8v26.8h-17.7v-76.4H658.4z M649.1,430h6.3c2.4,0,6.7-0.1,9.5-2.9c1.6-1.6,2.9-4.2,2.9-7.6
		c0-3.2-1.1-5.8-2.9-7.4c-2.6-2.5-6.4-2.9-9.9-2.9h-6V430z"/>
	<path class="st1" d="M724,394.9c9.8,0,15.9,3.2,19.5,6.6c3.2,3.1,6.7,8.6,6.7,17.1c0,4.8-1,10.8-6,15.6c-2.6,2.5-6.4,4.8-10.7,5.8
		l23.6,31.3h-21.6l-20.7-30.1v30.1h-17.7v-76.4H724z M714.8,429.6h4c3.2,0,7.6-0.3,10.6-3.3c1.3-1.3,2.9-3.7,2.9-7.4
		c0-4.3-2.1-6.6-3.6-7.8c-2.9-2.2-7.5-2.4-9.8-2.4h-4.1V429.6z"/>
	<path class="st1" d="M784.9,394.9v76.4h-17.7v-76.4H784.9z"/>
	<path class="st1" d="M813.2,394.9l19.4,48.9l19.4-48.9h19.1l-32.5,76.4h-12l-32.5-76.4H813.2z"/>
	<path class="st1" d="M916.6,456.8h-29l-5.9,14.4h-18.4l30.9-76.4h16.2l30.2,76.4h-18.4L916.6,456.8z M911.8,443.3l-9.4-25.6
		l-9.5,25.6H911.8z"/>
	<path class="st1" d="M971.4,409.8v61.5h-17.7v-61.5h-16.7v-14.9h51v14.9H971.4z"/>
</g>
<g>
	<path class="st1" d="M730.2,558.5c-5.7-5.2-10.5-5.5-12.7-5.5c-2.4,0-5.3,0.3-7.4,2.6c-1.1,1.1-1.9,2.9-1.9,4.8
		c0,1.8,0.6,3.2,1.7,4.2c1.8,1.7,4.4,2.4,9.5,4.3l5.7,2.2c3.3,1.3,7.4,3,10.3,5.8c4.4,4.2,5.5,9.7,5.5,14.2c0,7.9-2.7,14.8-6.7,18.9
		c-6.7,7.1-16.4,7.8-21.4,7.8c-5.4,0-10.2-0.8-14.9-3.2c-3.9-1.9-8.3-5.5-11.1-8.4l9.1-12.6c1.9,1.9,5,4.6,7,5.8
		c2.9,1.8,6,2.7,9.5,2.7c2.3,0,5.4-0.5,7.9-2.6c1.5-1.3,2.7-3.3,2.7-6.2c0-2.5-1-4.1-2.6-5.5c-2-1.7-6.7-3.4-8.8-4.2l-6.2-2.2
		c-3.5-1.3-7.6-2.9-10.5-6.1c-4-4.2-4.5-9.6-4.5-13.3c0-6.8,2-12.5,6.6-17.2c5.3-5.5,11.7-7,18.7-7c5.2,0,13.6,0.9,22.4,7.6
		L730.2,558.5z"/>
	<path class="st1" d="M753.6,616.2v-76.4h15.2l41,49.2v-49.2h17.4v76.4H812l-41-49.5v49.5H753.6z"/>
	<path class="st1" d="M888.1,601.8h-28.5l-5.8,14.4h-18.1l30.5-76.4h16l29.8,76.4h-18.1L888.1,601.8z M883.3,588.3l-9.3-25.6
		l-9.4,25.6H883.3z"/>
	<path class="st1" d="M937.8,571.7l25.8-31.8h21.3l-30.6,36.2l33,40.2h-22.4l-27.1-33.9v33.9h-17.4v-76.4h17.4V571.7z"/>
</g>
</svg>
