<svg id="Layer_1" data-name="Layer 1" xmlns="http://www.w3.org/2000/svg" viewBox="0 0 1600 900"><defs><style>.cls-1{fill:#fff;}</style></defs><title>FB-Chat 2.0Artboard 1</title><rect class="cls-1" x="137.05" y="12.5" width="1350.45" height="881" rx="11.5" ry="11.5"/><path d="M1476,13a11,11,0,0,1,11,11V882a11,11,0,0,1-11,11H148.55a11,11,0,0,1-11-11V24a11,11,0,0,1,11-11H1476m0-1H148.55a12,12,0,0,0-12,12V882a12,12,0,0,0,12,12H1476a12,12,0,0,0,12-12V24a12,12,0,0,0-12-12Z"/><path d="M652.75,445.23a10.87,10.87,0,0,1,1.43-1.1c1.62-1.21,3.24-2.41,4.88-3.59q4.56-3.29,9.23-6.38Q678,427.71,688.14,422a454.7,454.7,0,0,1,41-20.47l4.78-2.08c1.2-.52,4.82-2,1.63-.71,3.74-1.56,7.5-3.11,11.27-4.62,7-2.81,14.06-5.52,21.12-8.18,14.67-5.52,29.38-11,44.21-16.06a235.89,235.89,0,0,1,24.15-7.08c3.6-.81,7.24-1.54,10.9-2-3.77.5,1.75-.08,2.92-.16,2.15-.15,4.29-.23,6.44-.24,1.85,0,3.71.05,5.55.15.92.06,1.83.13,2.75.21.58.05,4.38.56,1.89.18-2.3-.35.7.15,1,.2.9.17,1.8.33,2.7.52,2.09.42,4.17.91,6.24,1.45,3.85,1,7.65,2.2,11.4,3.52q2.61.93,5.19,1.92c.87.33,1.72.68,2.58,1,5.48,2.15-1.91-.89,1.19.48,28.47,12.51,57.32,26.84,82.76,44.85.65.46,5,3.66,2.91,2.09s1.6,1.32,2.16,1.79a99.72,99.72,0,0,1,7.75,7.22q1.54,1.6,3,3.31a15.59,15.59,0,0,1,1.42,1.7c-.06.1-2.16-3.1-.9-1.13,1.85,2.88,3.52,5.76,5.21,8.72,1.11,2-.69-1.28-.57-1.46a11,11,0,0,0,.75,2.05,46.67,46.67,0,0,1,1.39,4.92c.16.73.26,1.46.42,2.19.5,2.28-.24-1.35-.2-1.33.61.42.12,4.91.08,5.69s-.32,4.16,0,1.39c.28-2.56,0,.12-.14.56-.36,1.6-.7,3.19-1.16,4.77s-1.06,3.1-1.59,4.66c1.4-4.1-.85,1.55-1.49,2.7q-1.2,2.18-2.56,4.26c-.45.69-1,1.35-1.4,2.05-1.49,2.5,2.06-2.27.12-.11a108.55,108.55,0,0,1-7.54,7.93c-1.45,1.34-3,2.58-4.49,3.87-1.71,1.47.46-.37.7-.54-.7.49-1.37,1-2.07,1.49-3.24,2.3-6.61,4.41-10.05,6.4a212,212,0,0,1-19.34,9.75c-.67.3-4.92,2.19-2.61,1.17s-2.61,1.07-3.36,1.37c-3.14,1.25-6.29,2.43-9.47,3.57a285,285,0,0,1-39.68,11q-5,1-9.94,1.81c-1.53.25-3.07.5-4.61.72a7.52,7.52,0,0,1-2.31.34l2.24-.3-2.32.29q-10.05,1.23-20.15,1.77a305.16,305.16,0,0,1-41.24-.58c-3.1-.25-6.21-.55-9.3-.9-.64-.07-6.34-.77-3.53-.41s0,0-.43-.07l-3.08-.46q-10.38-1.59-20.65-3.91A299.88,299.88,0,0,1,743,503.61c-2.87-1.07-6.88-1.94-9.41-3.7.12.08,3.3,1.43,1.2.51-.71-.32-1.43-.62-2.14-.93-1.9-.83-3.79-1.69-5.67-2.56q-9.16-4.26-18-9.16t-17.32-10.43q-4.23-2.77-8.37-5.7c-1.5-1.06-3-2.15-4.46-3.23-.28-.2-2.46-1.83-.55-.38s-.82-.67-1.16-.94a98,98,0,0,1-7.81-7c-1.13-1.14-2.19-2.34-3.27-3.53-.25-.28-1.93-2.38-.44-.46s-.52-.82-.77-1.2c-1-1.56-1.9-3.19-2.83-4.81-2-3.43.7,2.81-.26-.68-.38-1.4-.77-2.78-1.11-4.19-.19-.79,0-2.72-.08-.21-.06,3.2.06-1,.06-1.66s.1-1.45.07-2.16c-.12-2.16-.13,1.55-.32,1.78.56-.66.75-3.2,1-4.11.74-2.83.65.66-.44.9a10.81,10.81,0,0,0,1-1.82c.87-2.14-1.13,1.38-1.1,1.21.09-.47,1.77-1.88,1.94-2.06,7.43-7.39,8-21,0-28.28s-20.36-7.9-28.28,0c-13.51,13.45-17.3,34.82-10.85,52.6,6.63,18.24,20.41,30.83,35.65,42,25,18.38,53.24,32.29,82.62,42.12a322.08,322.08,0,0,0,184,5.61A312.67,312.67,0,0,0,971,535c15.92-7,31.15-15.58,44.14-27.3,27.64-24.93,38.21-67,15.15-98.62-10-13.73-23-24.27-37.25-33.44a518.87,518.87,0,0,0-45.59-25.83c-16.59-8.46-33.62-16.76-51.3-22.66a126.63,126.63,0,0,0-59.51-4.93c-17.48,2.58-34.13,8.68-50.67,14.67-15.55,5.63-31.09,11.3-46.46,17.39C707.57,366.87,676,381,647.39,400.1c-7.9,5.27-15.47,11-22.93,16.85-8.26,6.5-7.32,21.57,0,28.28,8.76,8,19.47,6.94,28.29,0Z"/><path d="M553.51,637.87c-2.16-4.37.48,3.74-.32-1-.25-1.5-2.25-5.15-.43-.76-.48-1.16-.19-3.43-.16-4.67s-.51-5.91-.1-1c-.24-2.92,1.66-6.59,2.46-9.34,1.44-5-1.91,3.42.45-1.22,1-1.91,1.91-3.82,3-5.68,1.66-2.85,3.53-5.54,5.4-8.25,3.06-4.45-2.66,2.92.9-1.15,1.08-1.23,2.11-2.51,3.21-3.73a161.73,161.73,0,0,1,15.59-14.71c4.17-3.57-3.26,2.3,1.17-.94,1.34-1,2.66-2,4-2.93q4-2.84,8.14-5.47,8.5-5.43,17.5-10,4.14-2.12,8.36-4.06a44.61,44.61,0,0,1,4.24-1.9c-4.78,1.58.1,0,.94-.37q9.35-3.75,19-6.66,8.89-2.68,18-4.65c3-.66,6.08-1.26,9.13-1.79,1.53-.27,3.06-.52,4.6-.76l3.07-.46c-2.76.36-3,.4-.71.1a254.05,254.05,0,0,1,37.2-1.66q9.32.3,18.58,1.32c1.54.17,3.1.29,4.63.55-5.33-.9-.11,0,.83.16q5.35.84,10.69,1.92A232,232,0,0,1,790,559.58c1.45.56,2.88,1.15,4.32,1.72,4.87,1.94-3.84-1.8.92.41,2.81,1.3,5.64,2.57,8.42,3.94q9,4.47,17.63,9.76c2.73,1.69,5.44,3.43,8.08,5.25,1.42,1,2.83,2,4.19,3-3.57-2.73.84.83,1.26,1.21,1.27,1.14,2.51,2.32,3.68,3.56.48.51,3.72,4.84,1.21,1.2.93,1.34,1.81,2.7,2.61,4.13q.79,1.41,1.5,2.88c-.91-2.3-1-2.4-.13-.28a83.4,83.4,0,0,1,2.46,8.64,25.6,25.6,0,0,1,.74,4c-.19-5.11,0,.35,0,1.21q.31,4.44.21,8.89c0,1.44-.1,2.88-.2,4.32s.15,7.57-.05,1.81c.18,5.27-2.28,11.73-3.88,16.69a53.41,53.41,0,0,1-3,8.07c2.46-4.76.13-.46-.31.47-.82,1.74-1.69,3.45-2.6,5.15a147.79,147.79,0,0,1-9.29,14.7c-2.84,4.07,2.76-3.24-.43.58-.94,1.12-1.86,2.26-2.82,3.37-2.23,2.59-4.57,5.1-7,7.52q-3.14,3.12-6.46,6c-1.1,1-2.23,1.92-3.37,2.86-.77.64-4.24,4-.58.52-4.43,4.23-10.71,7.48-16,10.44q-3.84,2.15-7.82,4a31.85,31.85,0,0,1-4,1.81c5.27-1.59-.27.07-1.2.42a165,165,0,0,1-21.87,6.63q-5.13,1.19-10.32,2.05s-5.63.9-2.55.43-2.62.31-2.58.3A208.13,208.13,0,0,1,718,718.57a245.24,245.24,0,0,1-24.83-1.33c-1.77-.19-3.54-.4-5.31-.61,4.76.56-2.7-.4-3.52-.53q-6.18-1-12.31-2.21a288.5,288.5,0,0,1-48.14-13.78c-5.46-2.14,3.43,1.78-1.83-.82-2.15-1.06-4.32-2-6.44-3.17A109.56,109.56,0,0,1,605,689.75q-2.07-1.43-4.07-2.93c3.75,2.82-1.8-1.59-2.43-2.13-2.94-2.56-5.76-5.25-8.49-8a222.73,222.73,0,0,1-15.39-17.81c2.84,3.6-.63-.85-1-1.32q-2-2.7-4-5.43c-2.33-3.17-4.62-6.37-6.92-9.56-6.08-8.48-17.69-13.41-27.36-7.18-8.41,5.42-13.7,18.28-7.17,27.36,19.2,26.75,39.45,54,69.62,69.17,30.54,15.32,65.92,22.85,99.78,25.78,34.28,3,68.93-1.47,100.64-15C825,731.16,848,711.48,864.5,687.57,880.73,664.08,890,634,886.44,605.35c-2.3-18.63-9-36-23.29-48.77-11.58-10.35-25.38-18.61-39.26-25.47-54.14-26.74-117.07-33.23-175.7-18.91-28.26,6.9-55.91,18.95-79.69,35.78-27.28,19.3-54.33,47.31-55.87,82.67-.42,9.66,2.09,18.83,6.34,27.41,4.66,9.4,18.72,12.75,27.37,7.18,9.62-6.2,12.15-17.32,7.17-27.37Z"/><path d="M977.82,545.55c3.44-1.66.48-.21-.21,0,1-.35,2.06-.73,3.11-1.05,1.31-.39,2.63-.71,4-1,.66-.14,4.11-.62,1.37-.31s.75,0,1.42,0c1.1-.06,2.2-.1,3.3-.1,2.8,0,5.54.25,8.32.44,3,.21-3.27-.69-.29,0,1.1.25,2.24.4,3.35.62q3.36.69,6.66,1.57c5,1.31,9.84,2.92,14.65,4.7q3.51,1.3,7,2.7l3.07,1.26c-.68-.28-3.64-1.61-.2-.05,4.54,2.07,9,4.18,13.44,6.55,3.87,2.09,7.67,4.34,11.34,6.78,1.82,1.22,3.58,2.52,5.37,3.79-3.2-2.27-.83-.66-.17-.1,1.25,1.06,2.51,2.1,3.73,3.2a114.35,114.35,0,0,1,9.11,9.44c2.44,2.76.12,0-.3-.46a20.57,20.57,0,0,1,2.2,3.09c1.27,1.87,2.47,3.8,3.59,5.77,1,1.75,1.94,3.54,2.81,5.35.09.18,2.11,4.71.85,1.75-1.09-2.55.16.48.4,1.11a99,99,0,0,1,3.87,13.07c.44,2,.74,4,1.14,6,.58,2.86-.35-3.69-.09-.79.12,1.27.27,2.53.37,3.8a106.12,106.12,0,0,1,.24,13c-.1,2.3-.31,4.58-.51,6.87-.11,1.24.2,3.54.13-.76a18.78,18.78,0,0,1-.5,3,105.69,105.69,0,0,1-3.28,13.35q-.91,2.91-2,5.76a12.85,12.85,0,0,1-1.12,2.83c2-2.45.92-2.09.2-.6-2,4.11-4,8.15-6.38,12.06-2.09,3.47-4.39,6.79-6.76,10.07-2.16,3,0,.07.35-.44a24.06,24.06,0,0,1-2.42,2.94q-2.21,2.61-4.54,5.12-4.42,4.74-9.27,9.07-2.28,2-4.64,4c-1,.81-2,1.65-3,2.4,2.11-1.52,1.56-1.21-.23.1A158.34,158.34,0,0,1,1025,725c-2.39,1.21-4.82,2.32-7.26,3.44-.65.3-3.54,1.46-.14.09l-3.3,1.32c-5,1.94-10,3.65-15.18,5.18a225.13,225.13,0,0,1-29.63,6.58l-3.54.52c3.92-.56.77-.11,0,0-2.38.26-4.75.54-7.14.76q-8,.73-16.09,1c-9.53.36-19.09.28-28.62-.29-5.05-.31-10.08-.81-15.12-1.35-3.81-.42-.08.06.57.1-1.55-.09-3.21-.46-4.74-.7q-3.94-.63-7.86-1.39a207.16,207.16,0,0,1-29.08-7.79c-2.48-.87-4.93-1.82-7.38-2.76-.86-.33-3.6-1.28.43.21-1.22-.45-2.4-1-3.58-1.59-4.51-2.07-8.92-4.32-13.22-6.79A150.59,150.59,0,0,1,821,713c-.85-.61-1.68-1.24-2.52-1.87,2.74,2,.53.4-.87-.77-2-1.68-4-3.42-5.93-5.2-7.7-7.09-20.77-8.19-28.28,0-7.08,7.71-8.22,20.72,0,28.28,32.79,30.17,75.1,44.45,118.77,49.09,45.11,4.8,92.47-.68,134.15-18.91,39.14-17.13,71.54-48.4,87.08-88.46,15.71-40.53,8.13-89.54-21.09-122-17.16-19.07-40.73-30.72-64.26-39.88-26.09-10.16-54.27-14.89-80.38-2.3-9.44,4.56-12.7,18.79-7.17,27.37,6.25,9.69,17.26,12,27.36,7.17Z"/><path d="M683.11,455.3c18.89,5,35.27,15.7,52.35,24.8,19.47,10.38,39.11,16.83,61.31,17.67,21,.8,42.32-.5,63.24-2,20.2-1.43,40.49-3.86,60.14-8.87,21.53-5.49,42.4-14.33,60.29-27.63,4.33-3.21,6.53-8.65,3.59-13.68-2.5-4.26-9.33-6.83-13.69-3.59-30.52,22.69-68.18,30.4-105.38,33.4-20.11,1.62-40.44,2.55-60.61,2.5-10.66,0-21.25-.7-31.55-3.54A127.65,127.65,0,0,1,747.7,464c-19.38-10.14-37.89-22.34-59.28-28-12.45-3.28-17.77,16-5.31,19.29Z"/><path d="M768,398.87c-9.43,3.08-14.33,12.79-12.08,22.35s12,14.93,21.39,13.66c9.83-1.32,18.77-9.46,18.56-19.89a15.12,15.12,0,0,0-8.25-13,31.23,31.23,0,0,0-6.09-2.14l-.74-.2c-1.08-.36-1-.27.29.27-1.36-1.39,1.07,1.07,1.16,1.24-2.52-4.77-9.16-6.23-13.68-3.58A10.18,10.18,0,0,0,765,411.3c2.49,4.69,7.13,6.76,12,8.07q.75.19,1.5.42c1.07.37,1,.32-.3-.16l-.85-.72a4.87,4.87,0,0,1-1.26-4.65c.15,1.81-.72.4.33-.16-.83.78-.8.82.09.15a8.78,8.78,0,0,1-1.1.68c-.63.33-.49.29.43-.12a13.15,13.15,0,0,1-1.66.47c1.67-.41.26-.07-.72-.15,2.25.19-.75-.86,1.09.17.82.77.85.8.1.08q1,1.49.48.54c-.35-.65-.26-.42.29.7-.26-1.11-.27-1,0,.46,0-1,.71-2.26-.1-.3.82-2-1.11,1.27.12-.28a3.69,3.69,0,0,1-1.65,1.55c.94-.54.8-.51-.43.11a10.23,10.23,0,0,0,7-12.31c-1.38-5-7.15-8.66-12.3-7Z"/><path d="M880.07,403.15c-7.68-4.58-17-1.63-22,5.28-4.75,6.5-3.21,16.13,2.85,21.26,6.38,5.4,15.64,6.43,22.45,1.17a19.85,19.85,0,0,0,7-20.9c-1.32-5.06-7.21-8.63-12.3-7a10.19,10.19,0,0,0-7,12.3c.33,1.25,0,.34,0-.36-.06,1.29-.06.31.16-.34-.14.4-1,2.06-.25,1,1-1.4-1.13,1,.08-.25.88-.9-1.09.22.14-.22.15-.05,2-.88,1-.6s1.16,0,1.32,0c.69.13.75.13.19,0-.71-.21-.51-.1.58.31-.92-.69-.42-.28.14.22-.92-.82-.13-.39.17.24a5,5,0,0,1-.13,4.44c.43-1.08.27-.25-.25.3q-1.5,1.05-.57.48c.49-.27.42-.26-.21.05-.17,0-2.38.34-1.43.34.56,0,.46,0-.3-.06a3.76,3.76,0,0,1-1.76-.41c4.5,2.68,11.18,1.16,13.69-3.59a10.19,10.19,0,0,0-3.59-13.68Z"/><path d="M632.05,646.7c-2.1-4.31,2.59-11.54,4.56-15.22a61.33,61.33,0,0,1,10.18-14.62c9.07-9.15,21.63-11.14,34-10.23,11.25.82,25,3.68,34.08,10.74,3.82,3,6.67,6.9,7.17,11.78.4,4-.76,6.76-4.09,9.37-4.26,3.33-3.5,10.65,0,14.14,4.2,4.2,9.87,3.34,14.14,0,10.83-8.47,12-24.33,6.88-36.24-5.74-13.24-19.11-20.68-32.29-24.86-14-4.43-29-6.37-43.58-4.15-14.79,2.26-27.17,10.21-36.16,22-9.84,12.94-20,31.28-12.18,47.36,2.36,4.86,9.27,6.16,13.68,3.59,5-2.9,6-8.81,3.59-13.69Z"/><path d="M676.73,617.58c-5.78-2-12.31,1.3-15.21,6.4s-2.71,12.32,1.91,16.45c6.25,5.59,15.18,3.06,19.47-3.52a13.9,13.9,0,0,0-1.6-17c-3.54-3.87-10.6-3.86-14.14,0a10.21,10.21,0,0,0,0,14.14l.19.21-1.56-2a4.53,4.53,0,0,1,.43.7l-1-2.39a5.75,5.75,0,0,1,.23.78l-.36-2.66a4.49,4.49,0,0,1,0,1.1l.36-2.66a5.84,5.84,0,0,1-.29,1.09l1-2.39a6,6,0,0,1-.71,1.23l1.57-2a5.43,5.43,0,0,1-.8.79l2-1.56a6.31,6.31,0,0,1-.71.42l2.39-1a5.28,5.28,0,0,1-.77.24l2.66-.36a4.61,4.61,0,0,1-.83,0l2.66.35-.28,0,2.39,1-.22-.17,2,1.57a2.53,2.53,0,0,1-.36-.37l1.56,2a3.68,3.68,0,0,1-.37-.64l1,2.39a3.55,3.55,0,0,1-.19-.71l.35,2.66a4.86,4.86,0,0,1,0-1l-.36,2.66a5,5,0,0,1,.28-1l-1,2.38a5.71,5.71,0,0,1,.66-1.15l-1.57,2a5.67,5.67,0,0,1,.73-.74l-2,1.56a5,5,0,0,1,.86-.51l-2.39,1a3.59,3.59,0,0,1,.72-.17l-2.66.35a2,2,0,0,1,.49,0l-2.66-.36a3.94,3.94,0,0,1,.77.19,10,10,0,0,0,12.3-7c1.27-5.58-1.69-10.45-7-12.3Z"/><path d="M989.6,638.36c8.92-13.11,23.74-22.47,39.57-24.37,14.62-1.76,33.59,5,31.28,22.75-.7,5.37,5.09,10,10,10,6,0,9.3-4.61,10-10,1.54-11.87-4.22-24.17-13.16-31.85-9.58-8.22-22.38-11.68-34.86-11.14-24.39,1.06-46.5,14.53-60.1,34.52-7.26,10.67,10.06,20.68,17.27,10.09Z"/><path d="M1027.69,640.57l3.27-1.65a9.62,9.62,0,0,0,4.78-10,7.47,7.47,0,0,0-1.19-3.72,10.12,10.12,0,0,0-6-4.59l-2.65-.36a9.94,9.94,0,0,0-5.05,1.36l-3.27,1.65a7.48,7.48,0,0,0-2.81,2.57,7.6,7.6,0,0,0-1.79,3.4,7.74,7.74,0,0,0-.18,4A7.47,7.47,0,0,0,1014,637a10.12,10.12,0,0,0,6,4.59l2.66.36a9.93,9.93,0,0,0,5-1.36Z"/><path d="M1077.76,549.77A462.21,462.21,0,0,1,1153.9,544c26.37,0,52.1-3.92,78.16-7.48,5.36-.73,8.28-7.59,7-12.3-1.59-5.77-6.93-7.72-12.31-7-12.57,1.71-25.14,3.6-37.75,5.07-13,1.52-25.92,1.67-39,1.69a473.12,473.12,0,0,0-77.56,6.5c-5.34.88-8.31,7.48-7,12.3,1.55,5.65,7,7.87,12.3,7Z"/><path d="M1101.06,560.32a548.3,548.3,0,0,1,69.49-10c11.44-.89,23-1,34.36-2.3a121.39,121.39,0,0,0,35.31-9.53c5-2.15,6.08-9.41,3.59-13.68-3-5.11-8.72-5.75-13.69-3.59-20.61,9-43.38,7.64-65.31,9.58A593.59,593.59,0,0,0,1095.75,541c-5.29,1.11-8.35,7.33-7,12.3,1.51,5.49,7,8.1,12.3,7Z"/><path d="M1281.58,406.91c-22.62,33.31-42.9,68.61-59.17,105.49-4.32,9.78-4.11,20.32,6.12,26.22,7.65,4.41,17.18,4,25.7,4.81a606,606,0,0,1,60.28,8.59,643.16,643.16,0,0,1,68.07,17.18c3.11,1,7.59,0,9.73-2.57,9.54-11.68-.31-24-12.49-27.76-10.83-3.34-22.13-5.19-33.25-7.24-20.74-3.83-43.53-7.5-60.42-21.19l-4.41,16.72,58.72-15.47c9.53-2.51,19-5.11,28.6-7.52,4.67-1.18,11.84-3.41,15.57.54L1389,488a552.48,552.48,0,0,1-109.93,31.92l12.3,7c-.23-.46-.31-.23-.25.7a6.29,6.29,0,0,1,1.22-1.8,31.43,31.43,0,0,1,4.21-3.94c3.75-3.23,7.54-6.42,11.31-9.63l21.12-18L1372.76,457c3.17-2.69,3.88-8.68,1.57-12.12-16.44-24.36-50.85,8.6-64.15,20.89-18.18,16.8-34.62,35.9-56.33,48.32l14.69,11.29A498.23,498.23,0,0,1,1300,418.26c2.1-5,1.49-10.71-3.59-13.69-4.47-2.61-11.2-1.23-13.68,3.59a493.26,493.26,0,0,0-27.12,63.29c-3.61,10.38-6.51,20.93-9.74,31.42-2.75,8.93-11.62,13.36-14.48,22.47-3.44,11,12.53,17.31,18.28,7.71a41.18,41.18,0,0,0,5.83-26.25l-17.07,7.07c7.32,5.71,15.34,8,24.51,5.69,12.48-3.14,7.19-22.43-5.31-19.29-1.56.39-3.68.54-5.06-.54-3.25-2.53-6.88-3.85-10.92-2.07-3.28,1.44-6.64,5.23-6.15,9.14.74,5.94,0,11-3.1,16.15l18.28,7.71c.93-3,4.81-5.42,6.79-7.75a39.18,39.18,0,0,0,7.21-13.22c3.46-10.29,6.08-20.87,9.6-31.15A455.86,455.86,0,0,1,1300,418.26l-17.27-10.1a519.63,519.63,0,0,0-33.44,111.94c-1.47,8.32,6.63,15.91,14.69,11.3,19.49-11.15,35.28-27.23,51.25-42.75,7.44-7.23,15-14.48,23.24-20.79a120.51,120.51,0,0,1,13.63-9.09,16.94,16.94,0,0,1,4.85-2.14s2.26-.6,2.25-.25c0,.79-3.16-2.93-2.1-1.36l1.56-12.12-49.77,42.36-24.14,20.54c-8,6.82-15.68,15.07-12.58,26.42,1.52,5.56,7,7.95,12.3,7a553.34,553.34,0,0,0,109.93-31.92c6.9-2.81,10-10.79,4.41-16.72-14.43-15.3-39-4.64-55.92-.19l-66.43,17.49c-6.73,1.78-10.39,11.87-4.41,16.72,15.85,12.85,34.68,19.33,54.44,23.47,9.59,2,19.27,3.59,28.88,5.52,4.65.93,9.28,1.94,13.88,3.12a38.53,38.53,0,0,1,6,1.63c.44.21.83.52,1.29.7,2.48,1-.37.38-.19-1.28l1.36-5,.45-.21,9.73-2.57a651.76,651.76,0,0,0-111-24q-14.13-1.8-28.32-3c-3.31-.27-6-.21-8.93-1.2-.59-.2-1.25-.57-1.26-.52.29-2,1,2.26,1,2.26s1.3-3.15,1.48-3.53q11.42-25,24.78-49.05,15.38-27.69,33.23-53.9c7.24-10.68-10.08-20.7-17.27-10.09Z"/><path d="M1265.75,517.85a22.22,22.22,0,0,1,15,8.21l2-15.71a36.15,36.15,0,0,1-17.8,6.06c-5.39.3-10,4.37-10,10,0,5.17,4.58,10.3,10,10a57,57,0,0,0,27.9-8.79c5.76-3.7,6.26-10.66,2-15.7a38.77,38.77,0,0,0-23.79-13.36c-5.33-.77-10.74,1.32-12.3,7-1.29,4.69,1.61,11.52,7,12.3Z"/><path d="M571.65,557c-25.36-13.51-54-14.08-82-16.33a289,289,0,0,1-85.49-20.39l-5.32,19.29q81.87,15.54,162.51,36.77V557.08c-3.11,1.31-5.19,1.27-7.51-1.31-4.09-4.55-13-3.6-15.71,2-3.74,7.66-1.93,17,6,21.18l7.7-18.28A1002.39,1002.39,0,0,0,447.2,536.37Q434,534,420.68,532.07c-8.86-1.31-18.25-3.4-26.95-.21-8,2.94-14,9.23-20,15L353.51,566l-46.22,43.82L321.43,624a446.44,446.44,0,0,1,73.46-64.5l-12.12-15.7a540.76,540.76,0,0,1-96.17,61.9c-10,5-3,22.25,7.71,18.28,2-.74,2.2-.67,4,.69,8,6,19-5.69,13.68-13.68l-6-9-1.56,12.11,44.77-38.89c14.72-12.78,29.95-25.16,44.22-38.44,6.79-6.32,11.34-14.43,10.43-23.95s-6-17.41-11.42-24.92q-17.13-23.85-34.33-47.65c-5.89-8.18-12.86-16.26-17.41-25.29-2.49-5-3.75-11.93,2-14.62l-12.12-1.56q24.27,25,46,52.33c13.83,17.43,25.86,36.56,41.38,52.59,27.58,28.48,65.94,41.79,104.31,47.71,22.09,3.41,44.39,4.89,66.69,6l-5.05-18.63-14.23,8.56c-11,6.63-1,23.93,10.1,17.27L594,556c8.74-5.26,4.72-18.15-5-18.64-36.78-1.82-74.41-4.17-109.22-17.23-16.39-6.15-31.86-15.26-44.48-27.46-15.56-15-27.28-33.63-40.52-50.63a702,702,0,0,0-50-57.45c-3.31-3.41-8.09-3.45-12.12-1.56-17.2,8.07-16.1,30.07-8,44.12,4.53,7.84,10.37,15,15.65,22.36L358,474.17q8.58,11.91,17.16,23.83c3.32,4.62,10.74,12.9,8.6,19.24-1.13,3.34-5.12,6-7.65,8.18l-11.94,10.37-22.39,19.44L290.28,600c-3.14,2.74-3.89,8.65-1.56,12.12l6,9,13.68-13.69A21,21,0,0,0,289,604.64l7.71,18.28a564.8,564.8,0,0,0,100.21-65c8.77-7.08-2.81-22.2-12.12-15.7a469.44,469.44,0,0,0-77.5,67.62c-8.69,9.48,4.76,23,14.14,14.14l38.28-36.28,18.77-17.81c6-5.66,11.76-12.33,18.4-17.21,5.47-4,12.25-2.22,18.48-1.29q12.81,1.89,25.58,4.13,25.07,4.38,49.86,10Q518.88,572,546.54,580c10.73,3.1,17.87-12.93,7.71-18.28q2.6,2.38,1.13,6.18l-15.7,2c6.55,7.3,17.81,10.29,27,6.46,4.15-1.73,7.34-4.84,7.34-9.64a10.18,10.18,0,0,0-7.34-9.65q-80.58-21.21-162.51-36.77c-12.85-2.44-17.14,14.5-5.32,19.29a301.71,301.71,0,0,0,85.7,20.66c25.84,2.39,53.51,1.51,77,14,11.35,6.05,21.47-11.2,10.09-17.27Z"/><path d="M438.51,539.24c5.86-3,12.32-4.68,18.39-7.22,4.6-1.92,8-5.63,7.17-11a10,10,0,0,0-9.82-8.67,162.17,162.17,0,0,1-39-5.21c-7.88-2.08-13.59,4.94-12.3,12.3.33,1.84.72,3.68,1,5.53l14.69-11.3a13.82,13.82,0,0,1-6.59-6.73l-7,12.3c1.64-.42.41.11-.71,0a19.89,19.89,0,0,0,2.17-.13c1.91-.06,3.83,0,5.73.09q3.59.18,7.15.53l3.44.36c.46.05,4.38.55,3,.36,5.6.78,11.18,1.77,16.69,3.06,2.54.6,5.07,1.26,7.56,2,1,.31,2,.63,2.95,1l1.57.59c1.21.45-1.56-.79.11.06.82.41,1.62.87,2.44,1.27.36.18.69.46,1,.67-.29-.17-1.53-1.64-.73-.54,1.22,1.66-.43-.72-.27-.43a5,5,0,0,1-.7-4.31c-.4,1.11,1.93-2.6,1.25-2,.63-.56,4.23-2.21,1.92-1.43,1.6-.54,1.88,0,.15-.23-2-.32,1.65.53-1-.23-2.13-.59-4.22-1.24-6.29-2-.08,0-1.48-.59-.51-.19s-.75-.33-1-.43c-1.34-.62-2.68-1.24-4-1.9-4.8-2.37-9.48-5-14.08-7.76-8.21-4.9-16.62-10-23.79-16.36-11.59-10.27-19.74-23.06-27.5-36.31-4.07-6.94-7.8-14.17-12.85-20.46-4.25-5.28-9.39-9.83-13.44-15.27a21.87,21.87,0,0,1-3.92-7.22,10.66,10.66,0,0,1-.14-3.3,13.68,13.68,0,0,0,.64-3c.3.37-1.56,2.52-1.43,2.41-1.72,1.57-7.45,2.15-9.5,1.48-1.45-.47-1.22-1.34-.07.21.79,1.08-1-1.48-.2-.25.31.46.62.92.92,1.39.74,1.16,1.41,2.35,2.06,3.56,1.37,2.54,2.58,5.17,3.76,7.81.15.34.76,1.82,0,.06l.61,1.5q.6,1.54,1.17,3.09a178.88,178.88,0,0,0,13.26,28.4c10.32,17.6,23.54,33.32,36.65,48.86,2.82,3.35,8.53,3.67,12.12,1.57,4.14-2.43,5.24-6.85,4.6-11.3-2.55-17.44-17.07-30.28-26-44.56l1.37,5,0-.67-12.65,9.65.15,0-6-4.6c.46.82.8,1.7,1.24,2.52,6.12,11.33,23.39,1.25,17.27-10.09-1.66-3.08-3.42-6.56-7.38-7.14-6.17-.9-12.82,2.5-12.66,9.64.11,4.81,3.07,8.46,5.77,12.19s5.68,7.52,8.47,11.32c4.89,6.68,9.91,13.63,11.13,22l16.71-9.73c-13.47-16-26.89-32.12-36.79-50.64-6.73-12.56-10-27-17.85-39-3.8-5.8-9.56-11.74-17.24-9.52-8.38,2.42-10.43,12.61-10.23,20.16.5,18.09,18.83,29.57,26.9,43.22,9.56,16.16,18.61,32.85,31.92,46.33,9.36,9.49,20.61,16.85,32,23.7,10,6,21.24,12.91,32.87,15.13,6.08,1.16,12.72.88,17.32-3.87a15.21,15.21,0,0,0,1.93-18.17c-3.48-5.47-9.92-8.17-15.76-10.26a122.64,122.64,0,0,0-20.35-5,226,226,0,0,0-22.76-2.86c-5.07-.35-10.52-.72-15.5.54-4.77,1.22-9,7.36-7,12.3,3.29,8,8,14.54,15.77,18.69,8.15,4.37,16.17-2.8,14.69-11.29-.32-1.85-.72-3.68-1-5.53L410,526.45a185.81,185.81,0,0,0,44.28,5.93l-2.66-19.64c-7.68,3.2-15.75,5.42-23.18,9.23-11.45,5.88-1.34,23.14,10.1,17.27Z"/><path d="M394.16,498.33,338.08,501l-27.54,1.32-13.78.66-6.88.33c-1.11.06-2.21.11-3.31.12-.21.5.24.7,1.33.61l2.57,4.41c-1.82-4.88,7.21-11.44,11.76-12.07,4.15-.57,8.35,1.09,12.4,1.8a91.05,91.05,0,0,0,18.94,1.3c18-.61,42.87-7.61,58,5.83L389,495.58c.24-.94.21-.11-1-.23-1.48-.15-3.51-.5-5.22-.84-6.32-1.23-12.2-1.78-18.48.06-4.91,1.44-9.2,3.61-14.42,3.53-5.77-.08-11.46-1.4-17.18-2.06-6.07-.7-11.58,0-17.59.83a20.42,20.42,0,0,1-5.82.11c-1.44-.2-1.27-1.22-.63-.13,1.17,2-.11-1.69.08-.8-1.5-6.9-9.14-11-15.66-9a11.48,11.48,0,0,0-6.58,16.8,10.24,10.24,0,0,0,11.29,4.6l69.55-17.87-7.71-1c2.8,2,6.83,4.11,8.88,6.64l-2.58-4.41-.08-2.42,2.57-4.42c-.84,1.06-1,.69-3.29.85l-10.56.76-21.1,1.51c-5.39.39-10,4.32-10,10,0,5.12,4.58,10.39,10,10l21.1-1.51c6.23-.45,13.19-.14,19.2-2s11.89-6.69,12.1-13.46c.25-7.86-6-11.73-11.72-15.73-2.91-2-5.7-4.48-9.47-4.48s-7.6,1.63-11.08,2.53l-19.64,5-41.48,10.66,11.29,4.6-.42-.7,1,7.7.28-.77-2.57,4.41.74-.63-4.41,2.57,1-.3h-5.32l.95.25-4.41-2.58c-1.79-1.84-.25.23.22,1.35a18.45,18.45,0,0,0,1.81,3.33,19.93,19.93,0,0,0,6.55,5.9c5.12,2.92,11.09,3.21,16.78,2.49s10.65-1.49,16.28-.82c5.88.71,11.71,2,17.65,2.12s11.16-1.26,16.6-3.17,8.79-1.44,14.31-.47c11.16,1.95,24.33-1.1,27.52-13.56.85-3.31.09-7.38-2.57-9.73-13.26-11.76-30.81-14.49-48-13.49-10,.57-19.93,2.08-29.95,1.85-9-.21-17.85-4-26.88-3-16,1.75-31.8,16.37-30.53,33.39a14.11,14.11,0,0,0,8.44,12c4.73,2.13,10,1.48,15,1.24l30.5-1.46,69.85-3.33c12.81-.61,12.89-20.62,0-20Z"/><path d="M384.45,511.43l-59.13,23.23-29.57,11.62L281,552.09c-3.51,1.38-9.12,4.9-12.83,4.76l5.05,1.36v.09l2.57,4.41c.79,2.35-1,2.45,2-.18a35.12,35.12,0,0,1,4.57-3.17c4.27-2.64,8.62-5.17,13-7.7a265.72,265.72,0,0,1,27.94-14.6,152.06,152.06,0,0,1,27.85-8.58,112.87,112.87,0,0,0,28.42-10l-5,1.36,1.42-.13-7.07-2.93.75.59L367,513l.24.91,1-7.71-.48.68,3.59-3.59-49.29,30.21c-10.95,6.71-.92,24,10.1,17.27l33.14-20.32c5.34-3.27,11-6.3,16.14-9.89,5.93-4.15,7.36-12.33,1.9-17.58-5.93-5.7-12.11-2.41-18.2.57-4.76,2.33-10.07,3.55-15.2,4.74C339,510.8,328.41,513.4,318,517.72a269.62,269.62,0,0,0-31.25,15.76c-9.46,5.47-21,10.7-27.45,19.83-3.24,4.58-4.81,10.61-2.34,15.92,3.18,6.81,10.61,8.88,17.5,6.75,11.83-3.67,23.37-9.15,34.91-13.68l80.37-31.59c5-2,8.53-6.7,7-12.3-1.32-4.78-7.25-9-12.3-7Z"/><path d="M662.94,382.59c-13.31,4.63-25.92-2.75-36.46-10.52-12.11-8.91-23.22-19.66-34.16-29.95a376.89,376.89,0,0,1-32.27-34.82c-9.27-11.23-19.75-18.51-33.22-23.86-12-4.74-25.31-7.77-33.64-18.35-2.7-3.42-8.62-3.6-12.12-1.56a26.42,26.42,0,0,0-12.69,17.06c-1.08,4.81,1.43,11.43,7,12.3,14.49,2.28,29,4.41,43.46,6.82,4.14.69,8.58,1.57,12.29,3.34a13.74,13.74,0,0,1,3.88,2.48c1,1,1.07,1.47,1.1,1.93l12.65-9.64A160.81,160.81,0,0,1,508,279.16l-5,18.63c17.77-.62,30.37,13.84,40.54,26.56,11.61,14.54,23.5,28.5,37,41.4,25.51,24.49,57,51.69,95,44.83,5.31-1,8.32-7.43,7-12.3-1.54-5.6-7-7.94-12.3-7-16,2.88-31.49-4.6-44.4-13.31-14.72-9.92-27.8-22.68-40.18-35.33-12.84-13.14-23.29-28.11-35.64-41.63-12.1-13.25-28.37-23.89-46.94-23.24a10.09,10.09,0,0,0-5.05,18.64,180.12,180.12,0,0,0,45.53,20.67c6,1.78,13-3.18,12.66-9.64-.84-14.46-12.76-22.38-25.75-25.76-7.17-1.86-14.69-2.6-22-3.75l-27.65-4.34,7,12.3c.55-2.47,1.26-3.8,3.5-5.11L479,279.24c8.62,10.92,21.88,15.88,34.52,20.51,5.8,2.12,11.59,4.21,17,7.33,5.94,3.47,10.51,8.47,14.87,13.73a396.13,396.13,0,0,0,34.13,36.7c12.22,11.41,24.62,23.13,38.26,32.84,14.52,10.33,32.76,17.69,50.48,11.53,5.1-1.77,8.49-6.85,7-12.3-1.36-4.95-7.18-8.77-12.3-7Z"/><path d="M642.44,438.41c-1.07,1.11,2.43-1.39.37-.35l2.39-1a8.23,8.23,0,0,1-1.59.46l2.65-.36a7.68,7.68,0,0,1-1.66,0l2.66.36a7.84,7.84,0,0,1-1.59-.46l2.39,1c-2.07-1,1.43,1.46.36.35-3.65-3.76-10.53-3.94-14.14,0a10.19,10.19,0,0,0,0,14.14,15.83,15.83,0,0,0,22.31,0c3.64-3.76,4-10.45,0-14.14s-10.26-4-14.15,0Z"/><path d="M637.05,439.26c-17.6,3.6-32.78,14.78-50.55,17.57-6.53,1-13.76.68-19.44-3s-9.25-10.09-12.72-15.78c-8.32-13.64-18.09-25.12-33-31.82-14.37-6.46-29.81-8.95-45.43-10.1-8.84-.66-17.77-.4-26.59-1.3-6.38-.65-16.19-3.31-16-11.3l-17.07,7.07c14.05,14.86,34.43,12.71,52.8,10.27,15.73-2.1,31.12-.62,45.93,5.28a86.74,86.74,0,0,1,36,26.92c10,12.83,16.47,30,34.46,33.33,22.46,4.1,42.87-14,60.23-25.56l-12.12-15.71a76.21,76.21,0,0,1-22,17.39,69.49,69.49,0,0,1-13,5.15c-4,1.15-8.82,2.78-12.84,1-4.4-2-8.55-5.52-12.46-8.31-4.42-3.15-8.76-6.4-13-9.81a335.31,335.31,0,0,1-25.4-22.7l-2,15.71c.06-.05,1.28-1.1,1.26-1.11l7.71-18.28a125.77,125.77,0,0,0-35.9-6.65,134.8,134.8,0,0,0-17.4.69,16,16,0,0,0-3.43.22q-3-.35,1.33,3.72c2.56,1.89,2.92,3.45,1.05,4.69,0,0-.71,0-.38.43s4.06,1.26,4.58,1.45c5.08,1.86,11-2.08,12.3-7,1.54-5.58-1.89-10.44-7-12.3-9.2-3.37-20.33-3.08-25.82,6.35s.11,20.48,10.58,22.28c4.12.71,8.12-.09,12.25-.37a114,114,0,0,1,14.67,0,106.46,106.46,0,0,1,27.83,5.8c10.6,3.63,18-13.4,7.71-18.27-7-3.29-15-3.66-21.46,1.11-5.06,3.74-7,10.78-2,15.7a338.71,338.71,0,0,0,29.61,26c5.16,4,10.39,7.93,15.75,11.67s10.58,7.65,16.91,9.06c12.06,2.7,25.79-2.67,36.51-7.87a91.21,91.21,0,0,0,28.19-21.59c7.12-8.05-2.14-22.33-12.12-15.7-7.94,5.28-15.79,10.77-23.9,15.8-6.19,3.84-14.28,8.86-22,7.59-6-1-9.9-6.57-13-11.26-4.18-6.33-8.11-12.69-13-18.53-19.86-23.66-51.27-37.81-82.13-37.33-10,.16-19.71,2.54-29.65,3-7.78.38-15.86-.48-21.47-6.42-6.1-6.46-16.89-1.34-17.07,7.08-.21,10.07,5.37,18.76,13.47,24.39,8.33,5.8,19,6.91,28.82,7.28,16.16.62,32.45.94,48.07,5.62a57.65,57.65,0,0,1,19.19,9.46c6.15,4.86,10.16,11.27,14.18,17.87,4.34,7.12,8.93,14.41,15.49,19.71a43.27,43.27,0,0,0,27.12,9.44c22.75.25,41.09-14.31,62.69-18.74,5.29-1.08,8.35-7.34,7-12.3-1.52-5.5-7-8.07-12.31-7Z"/><path d="M725.61,369c-2.17-8-5.52-16.46-11.85-22.09a22.1,22.1,0,0,0-12.78-5.7c-4.79-.45-9.07,1.86-13.69,1.86-4.32,0-8.86-2.11-12.75-3.82-2.94-1.29-6.11-2.62-7.79-5.49-3.49-6-1.57-15.22-1.3-21.74.79-18.5-5.8-35-20.13-47-15.83-13.32-35.49-18.57-55.26-23.1s-40.95-9.26-54.53-25.61L523.41,232a156.18,156.18,0,0,0,49.09,22.26c16.83,4.3,33.82,5.53,48.63,15.43a67.85,67.85,0,0,1,25.79,32.61c3,8.38,4.36,17.4,9.62,24.83,4.76,6.73,11.18,11.83,18.3,15.89,12.3,7,33,11.87,36.88,27.58,2.61,10.73,20.56,8.75,19.64-2.66-1.16-14.39-3.81-28.41-16.39-37.19-5.6-3.91-12.35-5.57-18.32-8.79a49.71,49.71,0,0,1-14-11.56c-8-9.26-12.82-21-16.5-32.47-2.19-6.87-4.57-13.69-9.23-19.32s-11.22-8.91-18.07-10.83c-8.53-2.38-17.53-3.44-26.24-5l-29.43-5.26c-5.32-.95-10.78,1.44-12.31,7-1.33,4.84,1.64,11.35,7,12.3l31.4,5.62c8.7,1.56,18.2,2.29,26.55,5.34,6.54,2.39,8.59,7.8,10.6,14.05a168.69,168.69,0,0,0,8.67,22.28c6.81,14,17,27.09,30.8,34.78,6.22,3.48,14.79,4.9,19.94,10.05,4.72,4.73,5,12.76,5.52,19L731,365.29c-4.14-17-19.43-26.55-34.22-33.56-6.58-3.12-13.75-6.15-19.29-11-6.72-5.85-7.93-13.55-10.58-21.67a87.88,87.88,0,0,0-27.19-40.26c-14.32-11.85-30.39-17.44-48.45-20.94-20.94-4.07-40.06-11.07-57.76-23.14-4.08-2.77-10.11-1.16-12.9,2.58-3.16,4.22-2.49,9.19.78,13.13,12,14.47,30,22.19,47.79,27,18.6,5,38.89,7.12,55.65,17.28A47.53,47.53,0,0,1,641,290.19c4.06,6.65,4.76,13.43,4.48,21.1-.31,8.25-1.19,16.59.85,24.72a30.05,30.05,0,0,0,17,20c5.1,2.36,10.53,4.83,16,6,6.35,1.38,11.66.68,17.91-.64,2.65-.56,2.52-.72,4.4,1.79,2.41,3.21,3.58,7.29,4.62,11.1,3.37,12.41,22.67,7.14,19.28-5.32Z"/><path d="M773.92,344.18c12.87,0,12.89-20,0-20s-12.89,20,0,20Z"/><path d="M775,351.07l9.68,9.48c5.93,5.8,17.52,1.82,17.07-7.07A74.8,74.8,0,0,0,787,311.6c-2.74-3.6-6.64-5.88-11.3-4.6-4,1.09-7.72,5.32-7.34,9.64l2,22.4c1.15,12.9,18.73,12.82,20,0,1.73-17.37-10.09-32-23.53-41.39-13.65-9.56-30.94-12.76-44.13-23.07a17.27,17.27,0,0,1-3.39-3.1c-1.14-1.6-.21-.17-.18-.05.11.49.4-1.56.41-1.59A46.7,46.7,0,0,0,722,255.3c.16-9.24-2.46-18.32-5.93-26.79s-7.83-16.67-11.4-25.16a137.59,137.59,0,0,1-7.89-26.13,131.81,131.81,0,0,1-.12-51.64c0-.22,1.2-4,1-4.32.57,1-5.58,1.23-5.33.92s2.57,5.34,2.84,6.41c2.27,8.82,4.44,17.56,7.35,26.21,5.88,17.43,13.2,34.33,19.39,51.64,3,8.35,5.71,16.8,7.86,25.4s3.21,17.13,5.17,25.63c2.23,9.71,6.29,19,13.49,26.12,6.58,6.47,14.89,10.65,22.3,16C784.62,309.7,794.88,324.69,800,341l18.28-7.7a117.4,117.4,0,0,0-55-49.69c-10.52-4.53-22-7.13-32.08-12.57-4.63-2.49-7.46-5.52-11.06-9.16l-.81-1.37c.49,3-.43,5-2.78,5.92-.05.16-1-.06-1-.1-.14.38,1.93,4.33,2.2,5.09l19.29-5.32q-20.44-53.68-45.14-105.61l-17.27,10.1,38.53,66.72,9.38,16.26c3.06,5.3,5.78,12,10,16.57,9.27,10,26.49,2.25,20.39-11.67l-17.27,10.1c1.78,2.45.6.47.63.36L751,263a6.22,6.22,0,0,1-2-2.59c-1.66-4.16-4.9-7.34-9.65-7.34-4.07,0-8.93,3.07-9.64,7.34l-1.32,7.95h19.28c-7.29-23.95-11.51-48.14-15.21-72.85-3.63-24.18-17.18-42.4-32.51-60.66-6.4-7.63-19.84.52-16.71,9.73l18.57,54.59c1.59,4.69,5.89,7.93,11,7.16,4.56-.68,9.08-4.79,8.67-9.82a369.11,369.11,0,0,0-13.26-72.81c-3.57-12.34-22.88-7.09-19.28,5.32a342.52,342.52,0,0,1,12.54,67.49L721,193.83q-9.28-27.29-18.56-54.59L685.76,149c6.65,7.92,13.26,15.89,18.45,24.87,5.44,9.39,7.88,19.28,9.33,30a446.42,446.42,0,0,0,14.8,69.85c2.65,8.71,17.57,10.3,19.28,0l1.33-8H729.66a31.14,31.14,0,0,0,11.2,14.54c5.15,3.79,13.33-.17,14.69-6,1.28-5.46.73-11.15-2.64-15.78-7.64-10.51-22.43-1.69-17.27,10.1l.27.61-1-7.71-.12.44,4.6-6a8.07,8.07,0,0,1,7.86.38l-2-3.43-3.45-6-7.41-12.84-13.83-24-28.65-49.62c-6.52-11.3-22.73-1.38-17.27,10.1q23.58,49.53,43.12,100.83c1.92,5.05,6.74,8.51,12.3,7,4.92-1.35,8.82-7.2,7-12.31-2.88-8-7-16.55-16-19-8.24-2.24-18,1.75-20.71,10.24-2.73,8.74,3.44,17.42,9.59,23s13.22,9.18,20.77,12.28c13.79,5.65,27.6,9.35,40.13,17.78A97.48,97.48,0,0,1,801,343.41c5.52,9.72,21.71,3.26,18.28-7.7a102.91,102.91,0,0,0-28-44.9C784.64,284.7,777.15,280,769.68,275c-6.71-4.45-11.61-9.57-14-17.39-2.72-8.73-3.59-17.91-5.6-26.8a250.92,250.92,0,0,0-8.29-28c-6.51-18.46-14.38-36.42-20.55-55-2.94-8.88-4.51-18.21-7.51-27C711,113,705.94,104.72,697.28,103c-10.82-2.14-17.77,6.89-19.76,16.39A154.39,154.39,0,0,0,684.68,207c3.6,9.1,8.23,17.71,12,26.72,3.34,7.92,6.45,16.93,4.87,25.63-1.07,5.93-3.39,11.21-1.77,17.37,1.38,5.23,5.37,9.28,9.46,12.56,8.18,6.55,17.45,10.86,27,15.05,14.3,6.28,36,15.69,34.08,34.68h20l-2-22.4-18.63,5.05c7.11,9.33,11.51,20,12.1,31.79l17.07-7.07-9.68-9.48c-9.21-9-23.36,5.12-14.14,14.14Z"/><path d="M883.76,329.32c-1.06-11.83-7.57-20.51-16-28.37-3.77-3.5-7.71-6.82-11.19-10.6-2.81-3-5-6.06-5.61-10.07-1-7.35,2-15.65,2.58-23a112.49,112.49,0,0,0-.56-23.13c-2-16.41-6.78-32-13.22-47.16-3.5-8.23-7.42-16.24-11.68-24.1-1.55-2.87-6.59-11.19-4.38-13.54l-15.71-2q12.7,28.26,25.4,56.52c4,8.91,8.55,17.75,11.73,27,3,8.83,2.81,16.84,1.7,26-1.09,9-1.86,18.22,1.45,26.85a49.76,49.76,0,0,0,12.25,17.91c4.83,4.67,10.28,8.63,15.39,13a78.17,78.17,0,0,1,7.45,7.11,26.21,26.21,0,0,1,2.31,2.95c.46.7.9,1.41,1.31,2.15.73,1.36.8,1.48.19.36l2.93-7.07,5.11-1.56a1.93,1.93,0,0,1-1-.42c-.52-.56-1.49-.91-2.07-1.44a9.16,9.16,0,0,1-2.59-4.25l-18.28,7.71,8.6,15.8c6.15,11.3,23.43,1.22,17.27-10.1l-8.6-15.8c-5.37-9.88-21.66-3.18-18.28,7.71a29.72,29.72,0,0,0,17,19.09c9.78,4,22.56-1.58,19.64-13.91-3.23-13.6-17.57-22.76-27.51-31.17-4.65-3.93-9.38-8-11.9-13.5-3.14-6.8-1.4-15.71-.52-23.18,1.13-9.5.86-18.69-2.07-27.88-2.86-9-7.16-17.56-11-26.15l-28.68-63.82c-2.63-5.86-11.64-6.34-15.7-2-12.08,12.84-3.44,28.78,3.39,41.77,7.49,14.27,13.8,29.15,17.61,44.86,3.88,16,3.62,31.16,1.23,47.32-1.21,8.21-1.12,15.95,2.4,23.59A48.92,48.92,0,0,0,844,306.18c4.16,4.22,8.79,7.94,13,12.16a31.58,31.58,0,0,1,4.79,5.8,13.92,13.92,0,0,1,2,5.18c.49,5.38,4.25,10,10,10,5,0,10.49-4.59,10-10Z"/><path d="M929.87,362.18A249.28,249.28,0,0,0,945,316c1.67-7.71,3.75-16.09,1.69-23.93-1.92-7.29-7.16-12.41-11.15-18.53-5.83-9-10.58-21.33-6.51-31.92,2.17-5.64,7.18-9.43,11.67-13.16,5.47-4.55,10.61-9.35,14.15-15.61a48.68,48.68,0,0,0,.89-45.54l-8.63,15c15.69-1.22,9,24.62,5.74,32.33a60.76,60.76,0,0,1-12.36,18.6c-6,6.2-12.51,11.77-15.41,20.2s-1.18,17.87,5.34,24.12c4.89,4.7,11.72,6.3,16,11.73,7.07,9,7.71,22.53,6.16,33.42-2.85,20.14-11.44,38.88-11,59.55l18.64-5a64.92,64.92,0,0,1-12.29-27c-2.17-11.1-.4-22.71.14-33.89l-18.63,5.05a155,155,0,0,1,13.23,36.84c2.45,10.87,20.33,8.67,19.64-2.66a305.43,305.43,0,0,0-8.13-54.05l-7,12.3c7.55-2.94,12.32-9,12.82-17.19.44-7.14-3.08-14.39-9.53-17.74-11.4-5.94-21.53,11.32-10.1,17.27,2,1.05.17.14-.07-.3s-.49-2.46-.24-.24c-.14-1.24-.61.6.18-.22a3.72,3.72,0,0,1,1.63-.86c-5.15,2-8.39,6.59-7,12.3a274.68,274.68,0,0,1,7.42,48.73L962,352.89a175.69,175.69,0,0,0-15.24-41.62C942,302,928.55,307,928.09,316.32c-.64,13.19-2,26.12.57,39.21A78.32,78.32,0,0,0,943,387.33c2.72,3.6,6.65,5.87,11.29,4.6a10.16,10.16,0,0,0,7.34-9.65c-.41-18.91,7.58-36.44,10.38-54.9,2.31-15.23,1.49-31.84-6.49-45.43a44.34,44.34,0,0,0-16.87-16.2c-1.35-.76-2.68-1.57-4-2.31-.09-.05-1.39-1.66-.82-.67s-.2-.67-.14-1.26c.33-3.05,2.46-5.5,4.49-7.63,6.32-6.65,12.7-12.75,17.56-20.65a78.49,78.49,0,0,0,9.83-24.1c2.35-10.72,2.67-22.42-2.86-32.28-5-8.95-15.13-15.33-25.51-14.52-7.81.61-12.13,8-8.64,15A27.46,27.46,0,0,1,940,197c-2,7-6.67,11.7-12.16,16.3-6.27,5.25-12.43,10.56-16,18.1A43.82,43.82,0,0,0,908,255.44,66.17,66.17,0,0,0,916,279.71a71,71,0,0,0,5.93,8.87c2.16,2.83,5.18,5.91,5.68,9.57.6,4.29-1.11,9.3-2,13.44q-1.42,6.44-3.2,12.77a220.53,220.53,0,0,1-9.74,27.72c-2.14,5-1.47,10.73,3.59,13.69,4.22,2.47,11.52,1.39,13.68-3.59Z"/><path d="M934.54,259.58a135.63,135.63,0,0,1,8.2-24c1.71-3.7,3.57-7.34,5.59-10.89.88-1.55,2-3.06,2.74-4.68,1.35-1.23,1.38-1.4.08-.48a4.62,4.62,0,0,1-4.93-1.7l-1.36-5.05c.34,2.95-1.78,6.79-2.77,9.73l-3.83,11.34,19.28,5.32a55.47,55.47,0,0,0,.41-33.44c-3.69-12.3-23-7.06-19.29,5.32a36.43,36.43,0,0,1-.4,22.8c-4.07,12.26,15.18,17.46,19.28,5.32L962.65,224c1.81-5.37,3.64-10.88.84-16.31-4.75-9.22-16.91-10.1-24.41-3.84-6.75,5.64-10.82,15.31-14.33,23.19a164.88,164.88,0,0,0-9.5,27.18c-3.13,12.49,16.16,17.82,19.29,5.32Z"/><path d="M983.94,384.06a80.38,80.38,0,0,1,23-34.19c11.9-10.55,26.88-15.4,41.14-21.81,28-12.61,47.35-36.74,59.86-64.22a255.15,255.15,0,0,0,9.52-24c1.9-5.61,3.2-13.8,8.76-17l-13.69-3.59c6.8,12.53,3,28.36-2.34,40.75s-13.28,23.23-22.68,32.62a147.19,147.19,0,0,1-32.94,24.4c-14,7.72-29.48,12.13-41.49,23C998.78,353,987,369.62,976.77,385.84L995,393.55c2.53-17.6,9.59-34.08,21.38-47.47,3.57-4.05,4-10.15,0-14.14-3.63-3.64-10.55-4.07-14.14,0a108.84,108.84,0,0,0-26.52,56.29c-.71,4.94.79,9.79,5.79,11.8A10.09,10.09,0,0,0,994,395.94c9.35-14.87,20.07-29.9,33.14-41.76,6.26-5.67,14.06-8.83,21.7-12.18a183.45,183.45,0,0,0,19.68-10c26.46-15.55,49.18-38,60.87-66.72,7.28-17.87,9.85-38.62.33-56.16-2.59-4.78-9.1-6.2-13.68-3.59-13.85,7.92-16.34,25.44-21.64,39.11-5.2,13.43-11.93,26.67-20.73,38.11a91.8,91.8,0,0,1-35.77,28c-15.6,7-30.85,12.65-44,23.93a100.16,100.16,0,0,0-29.26,44c-4.15,12.21,15.16,17.45,19.28,5.31Z"/><path d="M1102.54,295.54q10.51-27.57,20.85-55.21l-16.72,4.42c2.77,2.27,3.78,4.23,3.57,7.8-.75,12.86,19.25,12.82,20,0a26.69,26.69,0,0,0-9.43-22c-6.06-5-13.94-3-16.71,4.42q-10.33,27.63-20.85,55.21c-1.93,5,2.13,11,7,12.3,5.64,1.54,10.37-1.92,12.31-7Z"/><path d="M1022.2,413.88c4.11-13.07,21.12-15.77,32.72-16.74,17.46-1.45,33.65-3.26,49.72-10.73,15.4-7.16,27.28-18.37,38.39-30.94,5.26-6,10.66-11.82,17.25-16.33A134,134,0,0,1,1182,327.46c18.57-8.22,37.63-15.43,56.44-23.08l-12.3-12.3c-1.18,7.15-5.29,11.62-12.41,13.11-8.23,1.72-16.2,2-24.09,5.23-14,5.68-25.54,15.37-36,26.05s-19.83,22-31,31.78c-13.22,11.63-29.14,17.6-45.58,23.24q-34.26,11.75-68.71,23l7.71,18.28c6.71-4.73,9.21-10.69,12.45-17.88,2.29-5.05,4.82-7.58,9.7-9.2,12.49-4.12,26.11-3.9,37.33-11.57l-13.68-13.68c-7.15,9.73-19.15,14.65-31,14.22-12.87-.46-12.86,19.54,0,20,19.34.69,36.94-8.72,48.26-24.13,5.92-8.05-5.67-19.15-13.68-13.68-10.07,6.88-23.56,6-34.85,10.4-6.83,2.66-12.71,6.67-16.81,12.84-2,3-3.19,6.33-4.62,9.59-.8,1.85-1.58,4.67-3.21,5.82-4.06,2.85-6.2,7.68-4.09,12.48,1.92,4.36,7,7.37,11.8,5.79q32.11-10.47,64.08-21.39c19.08-6.52,37.9-13,53.87-25.66,12.14-9.63,22.18-21.5,32.82-32.68,9.42-9.89,19.94-20.42,32.86-25.24,9.68-3.61,20.35-2.62,29.75-7a33.61,33.61,0,0,0,18.34-24.33c1.08-6.55-4.45-15.49-12.3-12.3-17.77,7.22-35.62,14.3-53.32,21.71-16.8,7-32.77,15.14-45.48,28.52-6.14,6.46-11.62,13.54-18.19,19.59a83,83,0,0,1-19.39,13.16c-16.06,8-32.94,7.69-50.28,10-18.69,2.46-37.51,11.27-43.56,30.51-3.87,12.31,15.43,17.57,19.29,5.32Z"/><path d="M1039.09,462c12.87,0,12.89-20,0-20s-12.89,20,0,20Z"/><path d="M1054.84,460.17c16.94-2.76,33.64,5.33,50.59-.13,14.77-4.77,25-16.3,35.71-26.88,23-22.76,54.32-31.71,84.67-40.17l-11.29-4.6-.23-.48v-5.32c.58-2.25,1.53-1.13-1-.72-1.92.31-4,1.42-5.84,2-3.93,1.33-7.89,2.58-11.84,3.86a220.06,220.06,0,0,0-24.07,9.07,81,81,0,0,0-21,13.7c-6.18,5.66-10.9,12.72-15.78,19.49-4.24,5.88-8.84,11.76-15.42,15.11-7.14,3.63-15.56,4.08-23.41,4.36-20.58.73-41.2.93-61.79,1.38-12.86.29-12.9,20.29,0,20l54.92-1.21c15.35-.34,32-.83,45-10.13,11.94-8.56,18-21.8,27.92-32.2,9.46-9.9,22.51-14.85,35.24-19.07,7.61-2.53,15.33-4.78,22.82-7.65,8.6-3.3,18.58-12.42,11.7-22.32-2.55-3.67-6.78-5.85-11.29-4.6-31.64,8.82-64.36,18.58-89.17,41.18-9.66,8.8-18.34,21.6-31.22,25.87-7.71,2.56-16.19,1.27-24.08.33-9-1.07-17.52-1.66-26.5-.19-5.34.87-8.31,7.49-7,12.3,1.56,5.67,7,7.86,12.3,7Z"/><rect class="cls-1" x="137.05" y="643.91" width="1350.45" height="249.59" rx="11.5" ry="11.5"/><path d="M1476,644.41a11,11,0,0,1,11,11V882a11,11,0,0,1-11,11H148.55a11,11,0,0,1-11-11V655.41a11,11,0,0,1,11-11H1476m0-1H148.55a12,12,0,0,0-12,12V882a12,12,0,0,0,12,12H1476a12,12,0,0,0,12-12V655.41a12,12,0,0,0-12-12Z"/></svg>
