<svg xmlns="http://www.w3.org/2000/svg" xmlns:xlink="http://www.w3.org/1999/xlink" viewBox="0 0 1600 900"><defs><style>.cls-1{fill:none;}.cls-2{clip-path:url(#clip-path);}.cls-3{fill:url(#radial-gradient);}.cls-4{fill:url(#radial-gradient-2);}.cls-5{clip-path:url(#clip-path-2);}.cls-6{fill:#1f2532;}.cls-7{fill:#494d56;}.cls-8{fill:#ff9207;}.cls-9{fill:#fff;}.cls-10{fill:url(#radial-gradient-3);}.cls-11{fill:url(#radial-gradient-4);}.cls-12{clip-path:url(#clip-path-3);}.cls-13{fill:url(#radial-gradient-5);}.cls-14{fill:url(#radial-gradient-6);}</style><clipPath id="clip-path"><rect class="cls-1" x="-1620.67" y="-0.5" width="1601.1" height="901.12"/></clipPath><radialGradient id="radial-gradient" cx="-826.62" cy="329.9" r="664.27" gradientTransform="translate(170.76 114.94) scale(1.21 0.66)" gradientUnits="userSpaceOnUse"><stop offset="0.06" stop-color="#fff"/><stop offset="0.14" stop-color="#eaebec" stop-opacity="0.91"/><stop offset="0.57" stop-color="#7e8189" stop-opacity="0.42"/><stop offset="0.87" stop-color="#3a3f4a" stop-opacity="0.12"/><stop offset="1" stop-color="#1f2532" stop-opacity="0"/></radialGradient><radialGradient id="radial-gradient-2" cx="-815.19" cy="299.04" r="782.32" gradientTransform="translate(1.01 219.08) scale(1 0.49)" gradientUnits="userSpaceOnUse"><stop offset="0.27" stop-color="#1f2532" stop-opacity="0"/><stop offset="0.39" stop-color="#1f2532" stop-opacity="0.2"/><stop offset="0.78" stop-color="#1f2532" stop-opacity="0.78"/><stop offset="1" stop-color="#1f2532"/></radialGradient><clipPath id="clip-path-2"><rect class="cls-1" x="-0.67" y="-0.51" width="1601.1" height="901.13"/></clipPath><radialGradient id="radial-gradient-3" cx="514.16" cy="329.88" r="664.27" gradientTransform="translate(170.76 114.94) scale(1.21 0.66)" gradientUnits="userSpaceOnUse"><stop offset="0.06" stop-color="#9994ff"/><stop offset="0.14" stop-color="#8e8aec" stop-opacity="0.91"/><stop offset="0.57" stop-color="#535489" stop-opacity="0.42"/><stop offset="0.87" stop-color="#2e324a" stop-opacity="0.12"/><stop offset="1" stop-color="#1f2532" stop-opacity="0"/></radialGradient><radialGradient id="radial-gradient-4" cx="803.81" cy="299.02" r="782.32" gradientTransform="translate(1.01 219.07) scale(1 0.49)" xlink:href="#radial-gradient-2"/><clipPath id="clip-path-3"><rect class="cls-1" x="1619.34" y="-0.51" width="1601.1" height="901.13"/></clipPath><radialGradient id="radial-gradient-5" cx="1854.95" cy="329.89" r="664.27" gradientTransform="translate(170.76 114.94) scale(1.21 0.66)" gradientUnits="userSpaceOnUse"><stop offset="0.06" stop-color="#b7ffaa"/><stop offset="0.14" stop-color="#a9eb9f" stop-opacity="0.91"/><stop offset="0.57" stop-color="#5f8165" stop-opacity="0.42"/><stop offset="0.87" stop-color="#313f40" stop-opacity="0.12"/><stop offset="1" stop-color="#1f2532" stop-opacity="0"/></radialGradient><radialGradient id="radial-gradient-6" cx="2422.82" cy="299.03" r="782.32" gradientTransform="translate(1.01 219.07) scale(1 0.49)" xlink:href="#radial-gradient-2"/></defs><title>OPGAVE2</title><g id="Layer_4" data-name="Layer 4"><g class="cls-2"><polygon class="cls-3" points="143.98 779.2 -1798.06 779.2 -1841.07 -113.12 185.07 -113.12 143.98 779.2"/><ellipse class="cls-4" cx="-814.69" cy="365.39" rx="944.35" ry="470.84"/></g><g class="cls-5"><rect class="cls-6" x="-0.54" y="-0.51" width="1600.98" height="901.13"/><polygon class="cls-7" points="1054.24 563.67 528.19 563.67 595.71 408.59 1002.47 408.59 1054.24 563.67"/><rect class="cls-7" x="1023.21" y="563.67" width="10.13" height="206.08"/><rect class="cls-7" x="546.2" y="563.67" width="10.13" height="206.08"/><rect class="cls-7" x="983.42" y="563.67" width="10.13" height="65.8"/><rect class="cls-7" x="600.69" y="563.67" width="10.13" height="70.3"/><polygon class="cls-8" points="962.97 430.77 620.05 430.77 610.82 238.46 972.34 238.46 962.97 430.77"/><polyline class="cls-8" points="765.25 430.77 766.1 481.04 818.76 481.04 818.76 430.77"/><polyline class="cls-8" points="818.76 463.9 847.72 463.57 858.93 502.49 724.51 502.49 735.73 464.85 765.82 464.51"/><polygon class="cls-9" points="951.9 419.97 629.88 419.97 622.74 250.11 958.71 250.11 951.9 419.97"/><polygon class="cls-10" points="1763.98 779.19 -178.06 779.19 -221.07 -113.13 1805.06 -113.13 1763.98 779.19"/><path class="cls-6" d="M725,406.84a123.86,123.86,0,0,1,1.4-15.74,141.56,141.56,0,0,1,3.47-16.18c1.22-4.31,2.62-8.58,3.8-12.9.56-2,.8-4.16,1.21-6.23a112.66,112.66,0,0,1,5.58-19.07A79.25,79.25,0,0,1,756,311.25,52.25,52.25,0,0,1,772.85,299a42.54,42.54,0,0,1,22-3.67A45.59,45.59,0,0,1,818.44,305a66.41,66.41,0,0,1,17.52,21,97.82,97.82,0,0,1,7.9,18.81c1.17,3.79,2.92,12.84,3.15,13.32a17.7,17.7,0,0,1,.62,2.22c.29.95.28,1.82.61,2.78.74,2.1,1.5,4.19,2,6.34,1.59,6.22,3.26,12.48,4.33,18.82.84,5,1.25,10.13,1.79,15.21.06.55.1,4.12.09,4.48a56,56,0,0,1-2.76,17.62c-2.82,8.1-7.9,14.31-15.7,18.06a35.9,35.9,0,0,1-13.58,3.6c-7.93.43-14.1,4.17-19.29,9.86a53.73,53.73,0,0,0-9.95,16.11,6.33,6.33,0,0,0-.47,2.43q-.06,17.76,0,35.53v1.15a8.19,8.19,0,0,1-1.91,0,10.93,10.93,0,0,0-3.74-.08c-1.94.34-2.26.15-2.26-.95,0-11.81,0-23.62,0-35.43a11,11,0,0,0-1.45-4.81,52.59,52.59,0,0,0-11-16,27.74,27.74,0,0,0-12.5-7.17,45.07,45.07,0,0,0-5.34-.7c-7.69-.92-14.78-3.27-20.6-8.65a30.75,30.75,0,0,1-7.85-12,49.62,49.62,0,0,1-3-14.85C725.15,411.62,724.92,408.18,725,406.84Z"/><polyline class="cls-8" points="824.74 515.13 876.3 514.83 896.27 550.05 656.93 550.05 676.9 515.99 730.48 515.68"/><path class="cls-6" d="M791,483.37l68.84.35c5.32,0,10.64,0,16,.31,5.72.28,11.68.92,16.53,4.54,7.17,5.35,10.24,15.95,11.37,25.95,1.65,14.71.21,29.63-1.23,44.37L900.2,582.5q-1.73,17.64-3.49,35.27c-2.46,24.24-13.62,130.68-15.8,156.63H701.78c-2.18-25.95-13.6-132.39-16.06-156.63q-1.79-17.62-3.49-35.27l-2.31-23.61c-1.44-14.74-2.88-29.66-1.23-44.37,1.13-10,4.2-20.6,11.37-25.95,4.85-3.62,10.81-4.26,16.53-4.54,5.32-.26,10.64-.28,16-.31l68.84-.35"/><path class="cls-6" d="M893.61,613.85a56.3,56.3,0,0,0,45.06-26.13,11.05,11.05,0,0,0,1.76-4.1,12.4,12.4,0,0,0-.55-4.78L928.6,534.15c-3.07-12.15-6.14-24.3-9.29-36.43-3-11.59-6.2-23.38-12.71-33.43a42.63,42.63,0,0,0-7.33-8.73,68.24,68.24,0,0,0-10.4-7.15c-7.88-4.71-17-7.64-25.9-10.1-10.75-3-12.3-4-23-7.41-4.25-1.36-1.88-3-4.75-6.46s-85.24,0-88.88,3.29c-8.3,7.47-17.15,7.58-27.91,10.58-8.84,2.46-18,5.39-25.89,10.1a67.84,67.84,0,0,0-10.41,7.15,42.59,42.59,0,0,0-7.32,8.73c-6.51,10-9.7,21.84-12.71,33.43-3.16,12.13-6.22,24.28-9.29,36.43l-11.28,44.69a12.22,12.22,0,0,0-.56,4.78,11.05,11.05,0,0,0,1.76,4.1,56.3,56.3,0,0,0,45.07,26.13"/><ellipse class="cls-6" cx="895.95" cy="664.44" rx="17.9" ry="19.34"/><rect class="cls-6" x="861.03" y="664.89" width="59.7" height="97.34" transform="translate(-94.26 137.08) rotate(-8.36)"/><ellipse class="cls-6" cx="691.96" cy="670.14" rx="17.9" ry="19.34"/><rect class="cls-6" x="666.83" y="672.06" width="59.7" height="97.34" transform="translate(1281.18 1535.08) rotate(-171.64)"/><ellipse class="cls-11" cx="805.31" cy="365.38" rx="944.35" ry="470.84"/></g><g class="cls-12"><polygon class="cls-13" points="3383.98 779.19 1441.95 779.19 1398.93 -113.12 3425.07 -113.12 3383.98 779.19"/><ellipse class="cls-14" cx="2425.32" cy="365.39" rx="944.35" ry="470.84"/></g></g></svg>
