<svg xmlns="http://www.w3.org/2000/svg" xmlns:xlink="http://www.w3.org/1999/xlink" viewBox="0 0 1600 900"><defs><style>.cls-1{fill:none;}.cls-2{clip-path:url(#clip-path);}.cls-3{fill:#1f2532;}.cls-4{fill:#494d56;}.cls-5{fill:#ff9207;}.cls-6{fill:#fff;}.cls-7{fill:url(#radial-gradient);}.cls-8{fill:url(#radial-gradient-2);}.cls-9{clip-path:url(#clip-path-2);}.cls-10{fill:url(#radial-gradient-3);}.cls-11{fill:url(#radial-gradient-4);}</style><clipPath id="clip-path"><rect class="cls-1" x="-0.67" y="-0.5" width="1601.1" height="901.12"/></clipPath><radialGradient id="radial-gradient" cx="793.38" cy="329.9" r="664.27" gradientTransform="translate(-166.6 114.94) scale(1.21 0.66)" gradientUnits="userSpaceOnUse"><stop offset="0.06" stop-color="#fff"/><stop offset="0.14" stop-color="#eaebec" stop-opacity="0.91"/><stop offset="0.57" stop-color="#7e8189" stop-opacity="0.42"/><stop offset="0.87" stop-color="#3a3f4a" stop-opacity="0.12"/><stop offset="1" stop-color="#1f2532" stop-opacity="0"/></radialGradient><radialGradient id="radial-gradient-2" cx="804.81" cy="299.04" r="782.32" gradientTransform="translate(0.01 219.08) scale(1 0.49)" gradientUnits="userSpaceOnUse"><stop offset="0.27" stop-color="#1f2532" stop-opacity="0"/><stop offset="0.39" stop-color="#1f2532" stop-opacity="0.2"/><stop offset="0.78" stop-color="#1f2532" stop-opacity="0.78"/><stop offset="1" stop-color="#1f2532"/></radialGradient><clipPath id="clip-path-2"><rect class="cls-1" x="1619.33" y="-0.51" width="1601.1" height="901.13"/></clipPath><radialGradient id="radial-gradient-3" cx="2134.16" cy="329.88" r="664.27" gradientTransform="translate(-166.6 114.94) scale(1.21 0.66)" gradientUnits="userSpaceOnUse"><stop offset="0.06" stop-color="#9994ff"/><stop offset="0.14" stop-color="#8e8aec" stop-opacity="0.91"/><stop offset="0.57" stop-color="#535489" stop-opacity="0.42"/><stop offset="0.87" stop-color="#2e324a" stop-opacity="0.12"/><stop offset="1" stop-color="#1f2532" stop-opacity="0"/></radialGradient><radialGradient id="radial-gradient-4" cx="2423.81" cy="299.02" r="782.32" gradientTransform="translate(0.01 219.07) scale(1 0.49)" xlink:href="#radial-gradient-2"/></defs><title>OPGAVE2</title><g id="Layer_4" data-name="Layer 4"><g class="cls-2"><rect class="cls-3" x="-0.54" y="-0.5" width="1600.98" height="901.12"/><polygon class="cls-4" points="1054.24 563.68 528.19 563.68 595.72 408.6 1002.47 408.6 1054.24 563.68"/><rect class="cls-4" x="1023.21" y="563.68" width="10.13" height="206.08"/><rect class="cls-4" x="546.2" y="563.68" width="10.13" height="206.08"/><rect class="cls-4" x="983.42" y="563.68" width="10.13" height="65.8"/><rect class="cls-4" x="600.69" y="563.68" width="10.13" height="70.3"/><polygon class="cls-5" points="962.97 430.78 620.05 430.78 610.82 238.47 972.34 238.47 962.97 430.78"/><polyline class="cls-5" points="765.25 430.78 766.1 481.06 818.76 481.06 818.76 430.78"/><polyline class="cls-5" points="818.76 463.92 847.72 463.59 858.93 502.5 724.52 502.5 735.73 464.87 765.82 464.52"/><polygon class="cls-6" points="951.9 419.99 629.88 419.99 622.75 250.12 958.71 250.12 951.9 419.99"/><polygon class="cls-7" points="1763.98 779.2 -178.06 779.2 -221.07 -113.12 1805.07 -113.12 1763.98 779.2"/><path class="cls-3" d="M725,406.85a123.86,123.86,0,0,1,1.4-15.74,138.88,138.88,0,0,1,3.48-16.17c1.21-4.32,2.61-8.58,3.79-12.9.56-2,.8-4.16,1.22-6.24a111.61,111.61,0,0,1,5.57-19.06,79.39,79.39,0,0,1,15.63-25.48A52.51,52.51,0,0,1,772.85,299a42.66,42.66,0,0,1,22-3.67A45.56,45.56,0,0,1,818.44,305,66.38,66.38,0,0,1,836,326a97.91,97.91,0,0,1,7.9,18.82c1.17,3.79,2.93,12.83,3.15,13.32a18.07,18.07,0,0,1,.63,2.21c.28.95.27,1.83.61,2.79.73,2.09,1.5,4.18,2,6.34,1.59,6.22,3.26,12.47,4.33,18.81.85,5,1.25,10.14,1.79,15.21.06.55.1,4.12.09,4.48a56.39,56.39,0,0,1-2.75,17.63c-2.83,8.09-7.91,14.3-15.71,18.05a35.71,35.71,0,0,1-13.58,3.6c-7.93.43-14.1,4.17-19.29,9.86a54.06,54.06,0,0,0-9.95,16.11,6.53,6.53,0,0,0-.47,2.43q0,17.77,0,35.53v1.16a7.67,7.67,0,0,1-1.91,0,10.93,10.93,0,0,0-3.74-.08c-1.94.35-2.26.15-2.25-.95,0-11.81,0-23.62,0-35.43a10.83,10.83,0,0,0-1.46-4.81,52.71,52.71,0,0,0-11-16,27.78,27.78,0,0,0-12.5-7.17,43.07,43.07,0,0,0-5.34-.69c-7.69-.92-14.78-3.28-20.6-8.65a30.72,30.72,0,0,1-7.85-12,49.56,49.56,0,0,1-3-14.84C725.15,411.63,724.92,408.19,725,406.85Z"/><polyline class="cls-5" points="824.75 515.15 876.3 514.85 896.27 550.06 656.93 550.06 676.9 516 730.48 515.69"/><path class="cls-3" d="M791,483.38l68.84.35c5.32,0,10.65.06,16,.32,5.71.27,11.67.92,16.52,4.53,7.17,5.36,10.24,16,11.37,25.95,1.65,14.71.21,29.63-1.23,44.37l-2.31,23.62q-1.71,17.63-3.49,35.26c-2.46,24.25-13.62,130.68-15.8,156.64H701.78c-2.18-26-13.6-132.39-16.06-156.64q-1.79-17.62-3.49-35.26l-2.31-23.62c-1.44-14.74-2.88-29.66-1.23-44.37,1.13-10,4.2-20.59,11.37-25.95,4.85-3.61,10.81-4.26,16.53-4.53,5.32-.26,10.64-.29,16-.32l68.84-.35"/><path class="cls-3" d="M893.61,613.87a56.32,56.32,0,0,0,45.07-26.13,11.29,11.29,0,0,0,1.76-4.1,12.37,12.37,0,0,0-.56-4.78l-11.28-44.7c-3.07-12.15-6.14-24.3-9.29-36.42-3-11.6-6.2-23.38-12.71-33.43a42.38,42.38,0,0,0-7.33-8.74,66.52,66.52,0,0,0-10.4-7.14c-7.87-4.72-17-7.64-25.89-10.11-10.76-3-12.31-4-23-7.41-4.26-1.35-1.89-3-4.76-6.45s-85.23,0-88.88,3.28c-8.29,7.48-17.15,7.59-27.91,10.58-8.84,2.47-18,5.39-25.89,10.11a66.52,66.52,0,0,0-10.4,7.14,42.38,42.38,0,0,0-7.33,8.74c-6.51,10.05-9.7,21.83-12.71,33.43-3.15,12.12-6.22,24.27-9.29,36.42l-11.28,44.7a12.37,12.37,0,0,0-.56,4.78,11.29,11.29,0,0,0,1.76,4.1,56.32,56.32,0,0,0,45.07,26.13"/><ellipse class="cls-3" cx="895.95" cy="664.45" rx="17.9" ry="19.34"/><rect class="cls-3" x="861.04" y="664.91" width="59.7" height="97.34" transform="matrix(0.99, -0.15, 0.15, 0.99, -94.27, 137.08)"/><ellipse class="cls-3" cx="691.97" cy="670.16" rx="17.9" ry="19.34"/><rect class="cls-3" x="666.83" y="672.08" width="59.7" height="97.34" transform="translate(1281.18 1535.11) rotate(-171.64)"/><ellipse class="cls-8" cx="805.31" cy="365.39" rx="944.35" ry="470.84"/></g><g class="cls-9"><polygon class="cls-10" points="3383.98 779.19 1441.94 779.19 1398.93 -113.13 3425.06 -113.13 3383.98 779.19"/><ellipse class="cls-11" cx="2425.31" cy="365.38" rx="944.35" ry="470.84"/></g></g></svg>
