<svg xmlns="http://www.w3.org/2000/svg" xmlns:xlink="http://www.w3.org/1999/xlink" viewBox="0 0 1600 900"><defs><style>.cls-1{fill:none;}.cls-2{clip-path:url(#clip-path);}.cls-3{fill:url(#radial-gradient);}.cls-4{fill:url(#radial-gradient-2);}.cls-5{clip-path:url(#clip-path-2);}.cls-6{fill:#1f2532;}.cls-7{fill:#494d56;}.cls-8{fill:#ff9207;}.cls-9{fill:#fff;}.cls-10{fill:url(#radial-gradient-3);}.cls-11{fill:url(#radial-gradient-4);}</style><clipPath id="clip-path"><rect class="cls-1" x="-1620.67" y="-0.51" width="1601.1" height="901.13"/></clipPath><radialGradient id="radial-gradient" cx="-1105.84" cy="329.88" r="664.27" gradientTransform="translate(508.12 114.94) scale(1.21 0.66)" gradientUnits="userSpaceOnUse"><stop offset="0.06" stop-color="#9994ff"/><stop offset="0.14" stop-color="#8e8aec" stop-opacity="0.91"/><stop offset="0.57" stop-color="#535489" stop-opacity="0.42"/><stop offset="0.87" stop-color="#2e324a" stop-opacity="0.12"/><stop offset="1" stop-color="#1f2532" stop-opacity="0"/></radialGradient><radialGradient id="radial-gradient-2" cx="-816.19" cy="299.02" r="782.32" gradientTransform="translate(2.01 219.07) scale(1 0.49)" gradientUnits="userSpaceOnUse"><stop offset="0.27" stop-color="#1f2532" stop-opacity="0"/><stop offset="0.39" stop-color="#1f2532" stop-opacity="0.2"/><stop offset="0.78" stop-color="#1f2532" stop-opacity="0.78"/><stop offset="1" stop-color="#1f2532"/></radialGradient><clipPath id="clip-path-2"><rect class="cls-1" x="-0.66" y="-0.51" width="1601.1" height="901.13"/></clipPath><radialGradient id="radial-gradient-3" cx="234.95" cy="329.89" r="664.27" gradientTransform="translate(508.12 114.94) scale(1.21 0.66)" gradientUnits="userSpaceOnUse"><stop offset="0.06" stop-color="#b7ffaa"/><stop offset="0.14" stop-color="#a9eb9f" stop-opacity="0.91"/><stop offset="0.57" stop-color="#5f8165" stop-opacity="0.42"/><stop offset="0.87" stop-color="#313f40" stop-opacity="0.12"/><stop offset="1" stop-color="#1f2532" stop-opacity="0"/></radialGradient><radialGradient id="radial-gradient-4" cx="802.82" cy="299.03" r="782.32" xlink:href="#radial-gradient-2"/></defs><title>OPGAVE2</title><g id="Layer_4" data-name="Layer 4"><g class="cls-2"><polygon class="cls-3" points="143.98 779.19 -1798.06 779.19 -1841.07 -113.13 185.06 -113.13 143.98 779.19"/><ellipse class="cls-4" cx="-814.69" cy="365.38" rx="944.35" ry="470.84"/></g><g class="cls-5"><rect class="cls-6" x="-0.54" y="-0.51" width="1600.98" height="901.13"/><polygon class="cls-7" points="1054.25 563.68 528.2 563.68 595.72 408.59 1002.48 408.59 1054.25 563.68"/><rect class="cls-7" x="1023.22" y="563.68" width="10.13" height="206.08"/><rect class="cls-7" x="546.2" y="563.68" width="10.13" height="206.08"/><rect class="cls-7" x="983.43" y="563.68" width="10.13" height="65.8"/><rect class="cls-7" x="600.7" y="563.68" width="10.13" height="70.3"/><polygon class="cls-8" points="962.98 430.77 620.05 430.77 610.83 238.47 972.34 238.47 962.98 430.77"/><polyline class="cls-8" points="765.26 430.77 766.11 481.05 818.77 481.05 818.77 430.77"/><polyline class="cls-8" points="818.77 463.91 847.72 463.58 858.93 502.5 724.52 502.5 735.73 464.86 765.83 464.52"/><polygon class="cls-9" points="951.9 419.98 629.88 419.98 622.75 250.11 958.72 250.11 951.9 419.98"/><polygon class="cls-10" points="1763.98 779.19 -178.05 779.19 -221.07 -113.12 1805.07 -113.12 1763.98 779.19"/><path class="cls-6" d="M725,406.84a120.46,120.46,0,0,1,1.4-15.74,141.39,141.39,0,0,1,3.47-16.17c1.22-4.31,2.61-8.58,3.8-12.9.56-2,.79-4.16,1.21-6.24a110.74,110.74,0,0,1,5.58-19.06,79.3,79.3,0,0,1,15.62-25.48A52.62,52.62,0,0,1,772.85,299a42.7,42.7,0,0,1,22-3.67A45.76,45.76,0,0,1,818.45,305,66.57,66.57,0,0,1,836,326a99.1,99.1,0,0,1,7.9,18.81c1.16,3.79,2.92,12.84,3.14,13.32a16.45,16.45,0,0,1,.63,2.21c.28.95.27,1.83.61,2.79.74,2.1,1.5,4.19,2,6.34,1.58,6.22,3.25,12.47,4.32,18.82.85,5,1.26,10.13,1.8,15.21.06.54.09,4.12.09,4.47a56.36,56.36,0,0,1-2.76,17.63c-2.82,8.09-7.9,14.31-15.7,18.05a35.58,35.58,0,0,1-13.58,3.6c-7.93.43-14.11,4.17-19.3,9.86a54,54,0,0,0-9.94,16.11,6.55,6.55,0,0,0-.48,2.44q0,17.76,0,35.52v1.16a7.67,7.67,0,0,1-1.91,0,10.88,10.88,0,0,0-3.73-.08c-1.94.35-2.26.15-2.26-.95,0-11.81,0-23.62,0-35.43a11,11,0,0,0-1.45-4.81,52.84,52.84,0,0,0-11-16,27.68,27.68,0,0,0-12.51-7.17,44.8,44.8,0,0,0-5.34-.7c-7.68-.92-14.78-3.28-20.59-8.65a30.64,30.64,0,0,1-7.85-12,49.7,49.7,0,0,1-3-14.85C725.16,411.63,724.93,408.18,725,406.84Z"/><polyline class="cls-8" points="824.75 515.14 876.31 514.84 896.27 550.06 656.94 550.06 676.9 516 730.49 515.69"/><path class="cls-6" d="M791,483.38l68.84.34c5.33,0,10.65.06,16,.32,5.71.28,11.68.92,16.52,4.54,7.17,5.35,10.25,15.95,11.37,25.95,1.66,14.7.22,29.63-1.22,44.36l-2.31,23.62q-1.73,17.64-3.49,35.26c-2.47,24.25-13.63,130.69-15.8,156.64H701.78c-2.17-25.95-13.59-132.39-16-156.64q-1.8-17.62-3.5-35.26l-2.3-23.62c-1.45-14.73-2.89-29.66-1.23-44.36,1.12-10,4.2-20.6,11.37-25.95,4.85-3.62,10.81-4.26,16.52-4.54,5.32-.26,10.65-.29,16-.32l68.84-.34"/><path class="cls-6" d="M893.61,613.86a56.3,56.3,0,0,0,45.07-26.13,11.12,11.12,0,0,0,1.76-4.1,12.38,12.38,0,0,0-.55-4.78q-5.65-22.35-11.29-44.69c-3.06-12.15-6.13-24.3-9.29-36.43-3-11.59-6.2-23.38-12.71-33.43a42.33,42.33,0,0,0-7.32-8.74,67.47,67.47,0,0,0-10.4-7.14c-7.88-4.71-17.06-7.64-25.9-10.1-10.76-3-12.31-4-23-7.42-4.26-1.35-1.89-3-4.75-6.45s-85.24,0-88.88,3.28c-8.3,7.48-17.16,7.59-27.91,10.59-8.84,2.46-18,5.39-25.9,10.1a67.47,67.47,0,0,0-10.4,7.14,42.33,42.33,0,0,0-7.32,8.74c-6.51,10.05-9.7,21.84-12.72,33.43q-4.73,18.19-9.28,36.43-5.65,22.33-11.29,44.69a12.38,12.38,0,0,0-.55,4.78,11.12,11.12,0,0,0,1.76,4.1,56.3,56.3,0,0,0,45.07,26.13"/><ellipse class="cls-6" cx="895.96" cy="664.45" rx="17.9" ry="19.34"/><rect class="cls-6" x="861.04" y="664.9" width="59.7" height="97.34" transform="translate(-94.27 137.09) rotate(-8.36)"/><ellipse class="cls-6" cx="691.97" cy="670.15" rx="17.9" ry="19.34"/><rect class="cls-6" x="666.83" y="672.07" width="59.7" height="97.34" transform="translate(1281.19 1535.09) rotate(-171.64)"/><ellipse class="cls-11" cx="805.32" cy="365.39" rx="944.35" ry="470.84"/></g></g></svg>
