<svg xmlns="http://www.w3.org/2000/svg" viewBox="0 0 770 275.34"><defs><style>.cls-1{fill:#ff9207;}</style></defs><title>Asset 5</title><g id="Layer_2" data-name="Layer 2"><g id="Siren"><path class="cls-1" d="M31.45,128c-3.41,8.73-5.76,14.37-7,17.33a138.53,138.53,0,0,1-8.22,16C9.56,166.54,6.32,169.24,0,175c.39-1.23.86-8.59,1.21-23.83.29-12.29.44-24.69.47-37,0-3.81-.06-6-.17-6.67,6.14-5.52,9.26-8.2,15.58-13.35a12.06,12.06,0,0,1,.27,3.49c-.09,14.18-1.62,28.6-2.79,42.85,3.51-9.18,7.26-18.31,11.17-27.33,2.13-5.07,5.23-10.11,5.94-13.27A25.07,25.07,0,0,0,31.47,89c6.47-5,9.75-7.48,16.37-12.18a9,9,0,0,1,.37,3.33c.12,14.8-1.37,29.86-2.52,44.74,6-14.73,12.14-29.29,18.91-43.67a95.77,95.77,0,0,1,7.86-13.8l1.83-1q5.37-3,12.44-6.4c-2.68,3.83-5.69,9.57-9.06,18Q75.1,84.61,69.75,98.8c-4.09,10.6-6.14,16-10.26,25.82-4.69,10.75-8.63,17.62-11.78,22-7.11,4.28-10.61,6.5-17.48,11.21.3-.86.57-5.23.85-15.26C31.23,137.48,31.36,132.55,31.45,128Z" transform="translate(0 -2.93)"/><path class="cls-1" d="M131.44,42.8c-4.28,9.07-6.93,18.86-9.74,28.44-1.2,4.46-2.91,13.21-5.18,25.54-.64,3.29-1.83,10.09-3.6,18.74-6.2,2.87-9.28,4.3-15.39,7.2,1.62-6.68,3.38-14.38,5.26-22.49.17-.74.72-3,1.65-7-6.23,2.68-9.32,4-15.44,6.86-.34,1.74-.51,2.6-.86,4.32-.72,3.5-2,10.41-3.72,19.12-6,3.15-9,4.74-14.82,8,1.53-6.58,3.27-14.34,5.26-22.74,1.52-6.45,3.81-14.59,6.73-23.8A197.32,197.32,0,0,1,92,58.66l1.44-.72c2.92-1.51,6.3-3.14,10.17-4.86-4.2,8.76-7,18.21-10,27.41-.09.3-.46,1.72-1.14,4.29,5.43-2.75,8.16-4.1,13.66-6.75.64,1.13,1,1.71,1.61,2.88a314.1,314.1,0,0,1,11.74-33l1.63-.71Q125.54,45.13,131.44,42.8Z" transform="translate(0 -2.93)"/><path class="cls-1" d="M169.09,31.06c-1,4.41-1.5,7.18-2.52,13.21l-4.8,1.24a193.32,193.32,0,0,0-20.86,6.55c1.07.36,1.61.55,2.69.94-.33,1.14-1.14,4.15-2.44,9.39q-.54,2.05-1.21,4.84c7.12-2.17,10.7-3.21,17.92-5.2-1.1,6.16-1.66,9.38-2.8,15.73-7.16,1.68-10.72,2.57-17.79,4.44-1,5.28-2,12-3.14,19.51,4.85-1.17,12.13-2.8,22-4.65-1.17,6.65-1.77,9.84-3,15.52-3.72.34-5.57.52-9.25.93-9.29,1.11-18.27,4.13-27.15,6.89v-.16c0-.38.53-3.21,1.68-9.36,1.34-7.15,2.59-13.7,3.68-18.81,1.86-8.55,4-17.54,6.39-26.13.91-3.21,1.95-6.52,3.11-9.82-2.85,1.24-5.52,2.44-8,3.58,1.1-5.88,1.64-8.65,2.71-13.28,5.51-2.31,12.15-4.93,20-7.78C150.93,36.94,158.49,34.32,169.09,31.06Z" transform="translate(0 -2.93)"/><path class="cls-1" d="M207,21.56c-.83,4.66-1.26,7.64-2.13,14.19l-4.93,1a186.05,186.05,0,0,0-21.42,5.41c1.13.49,1.69.75,2.82,1.27-.31,1.23-1.05,4.48-2.26,10.18-.34,1.49-.71,3.24-1.12,5.27,7.33-1.76,11-2.59,18.42-4.18-1,6.76-1.48,10.3-2.49,17.29-7.37,1.25-11,1.91-18.32,3.34-.89,5.8-1.8,13.21-2.76,21.48,5-.84,12.53-2,22.66-3.2-1,7.3-1.57,10.8-2.65,17-3.83,0-5.74.1-9.54.22-9.51.38-18.86,2.8-28.07,4.94l0-.17c0-.42.46-3.43,1.49-10.12,1.2-7.77,2.34-15,3.35-20.57,1.71-9.54,3.67-19.09,6-28.51.86-3.48,1.85-7,3-10.57q-4.41,1.65-8.22,3.2c1-6.37,1.45-9.34,2.39-14.19,5.67-2,12.5-4.31,20.49-6.77C188.4,26.53,196.15,24.29,207,21.56Z" transform="translate(0 -2.93)"/><path class="cls-1" d="M245.71,14c-.66,5-1,8.19-1.71,15.32L239,30a173.86,173.86,0,0,0-21.87,4.32c1.18.63,1.77,1,2.95,1.62-.29,1.33-1,4.85-2.05,11.07q-.47,2.43-1,5.77c7.5-1.37,11.27-2,18.82-3.22-.83,7.41-1.26,11.31-2.13,19-7.52.85-11.27,1.31-18.73,2.32-.77,6.39-1.54,14.58-2.3,23.7,5.13-.54,12.83-1.23,23.17-1.88-.88,8-1.33,11.88-2.25,18.59-3.92-.2-5.88-.29-9.78-.43-9.65-.26-19.3,1.64-28.76,3.24l0-.19c0-.47.36-3.72,1.24-11,1-8.52,2-16.46,2.92-22.62,1.52-10.45,3.3-20.92,5.44-31.26.8-3.79,1.72-7.65,2.76-11.44-3,1-5.8,1.93-8.4,2.85.82-6.95,1.22-10.17,2-15.33,5.8-1.76,12.77-3.71,20.92-5.79C226.77,18.08,234.68,16.22,245.71,14Z" transform="translate(0 -2.93)"/><path class="cls-1" d="M285.06,8.4c-.48,5.3-.73,8.79-1.26,16.55l-5.09.45a164.57,164.57,0,0,0-22.2,3.27c1.22.77,1.83,1.17,3.06,2-.26,1.44-.85,5.26-1.8,12.06q-.42,2.64-.91,6.29c7.63-1,11.45-1.46,19.11-2.31-.68,8.12-1,12.4-1.74,20.86-7.63.47-11.44.75-19,1.37-.65,7-1.24,16.07-1.79,26.12,5.21-.27,13.05-.56,23.53-.69-.71,8.82-1.07,13-1.82,20.38-4-.44-6-.64-9.94-1-9.74-.84-19.61.62-29.24,1.76l0-.21c-.06-.51.25-4.05,1-12.12.82-9.35,1.65-18.11,2.43-24.89,1.42-11.48,3-22.87,4.81-34.29.72-4.14,1.56-8.33,2.52-12.43q-4.57,1.29-8.53,2.53c.64-7.6,1-11.1,1.56-16.63,5.89-1.5,13-3.14,21.26-4.84C265.86,11.57,273.89,10.08,285.06,8.4Z" transform="translate(0 -2.93)"/><path class="cls-1" d="M324.86,4.7c-.31,5.67-.47,9.44-.81,17.86l-5.14.19A154.92,154.92,0,0,0,296.5,25c1.26.92,1.89,1.39,3.15,2.36-.22,1.56-.73,5.69-1.54,13.1-.24,1.93-.5,4.21-.78,6.86,7.71-.65,11.56-.94,19.28-1.46-.51,8.85-.78,13.54-1.33,22.78-7.69.14-11.53.24-19.2.51-.62,9.54-1,19.12-1.25,28.68,5.27,0,13.18,0,23.74.36-.53,9.66-.8,14.27-1.36,22.27-4-.65-6-1-10-1.56-9.75-1.35-19.78-.26-29.51.49l0-.23c-.08-.57.12-4.42.64-13.28.6-10.27,1.24-19.91,1.88-27.35,1.19-12.55,2.54-25,4.12-37.53.64-4.5,1.4-9,2.26-13.48-3.07.74-5.94,1.49-8.61,2.22.46-8.29.68-12.09,1.1-18,6-1.25,13.13-2.57,21.48-3.91C305.49,7,313.6,5.88,324.86,4.7Z" transform="translate(0 -2.93)"/><path class="cls-1" d="M364.92,2.93c-.13,6-.21,10.08-.38,19.15l-5.15,0a143.94,143.94,0,0,0-22.52,1.28c1.29,1.06,1.94,1.61,3.23,2.72-.19,1.69-.61,6.15-1.28,14.19-.21,2.08-.42,4.55-.65,7.44,7.74-.33,11.62-.47,19.35-.67-.35,9.6-.54,14.69-.93,24.73-7.7-.17-11.56-.23-19.27-.28-.44,10.44-.56,20.89-.69,31.33,5.29.18,13.22.56,23.78,1.29-.34,10.5-.52,15.52-.9,24.21-4-.83-6-1.24-10.07-2-9.7-1.79-19.8-1-29.56-.57l0-.26c-.1-.62,0-4.81.31-14.51.32-10,.72-20,1.32-29.92.86-13.66,2-27.29,3.41-40.9.55-4.88,1.22-9.8,2-14.58q-4.64,1-8.65,1.94c.27-9,.39-13.14.63-19.53,6-1,13.21-2,21.61-3C345.47,4.35,353.63,3.59,364.92,2.93Z" transform="translate(0 -2.93)"/><path class="cls-1" d="M405.06,3.06c0,6.38,0,10.7,0,20.42l-5.15-.28a135.3,135.3,0,0,0-22.5.33c1.31,1.21,2,1.83,3.28,3.09-.16,1.81-.49,6.61-1,15.26-.17,2.25-.34,4.91-.52,8,7.74,0,11.6,0,19.32.07-.21,10.34-.32,15.83-.55,26.68-7.68-.45-11.53-.65-19.23-1-.28,11.33-.22,22.66-.17,34,5.28.36,13.19,1,23.69,2.1-.17,11.35-.26,16.78-.47,26.15-4-1-6-1.48-10-2.44-9.58-2.17-19.7-1.63-29.42-1.45l-.05-.27c-.11-.68-.13-5.26,0-15.78.14-10.82.34-21.7.76-32.55.62-14.78,1.49-29.56,2.71-44.31.47-5.27,1-10.57,1.72-15.7q-4.64.82-8.65,1.68c.09-9.76.13-14.2.18-21C365,5.3,372.2,4.59,380.6,4,385.62,3.61,393.78,3.21,405.06,3.06Z" transform="translate(0 -2.93)"/><path class="cls-1" d="M445.08,5.09c.15,6.69.22,11.26.35,21.59-2.05-.21-3.07-.31-5.12-.5-9.62-.93-17.08-1.07-22.38-.59,1.33,1.35,2,2,3.32,3.45-.13,1.92-.39,7-.8,16.31-.14,2.4-.27,5.25-.4,8.59,7.69.26,11.52.41,19.17.77Q439.13,69,439,83.29c-7.6-.71-11.41-1.05-19.06-1.66-.11,12.21.05,24.42.31,36.63,5.24.51,13.07,1.42,23.45,2.8q0,14-.09,28.06c-3.95-1.14-5.94-1.7-9.91-2.8-9.41-2.49-19.47-2.14-29.09-2.14l-.05-.3c-.12-.74-.23-5.65-.3-17-.07-11.7,0-23.44.24-35.16q.69-23.86,2-47.7c.38-5.66.87-11.33,1.47-16.79-3.07.44-5.94.92-8.6,1.41-.08-10.48-.13-15.23-.24-22.51,6-.51,13.21-.91,21.58-1.16C425.74,4.77,433.88,4.73,445.08,5.09Z" transform="translate(0 -2.93)"/><path class="cls-1" d="M484.82,9c.24,6.94.36,11.74.59,22.64-2-.3-3-.45-5.06-.73-9.51-1.34-16.9-1.77-22.14-1.48,1.33,1.49,2,2.24,3.33,3.79-.11,2-.3,7.45-.61,17.3-.1,2.55-.2,5.59-.3,9.15,7.6.51,11.39.79,18.93,1.41q0,15.19.06,30.37c-7.49-.94-11.25-1.39-18.8-2.24,0,13.06.32,26.12.73,39.17,5.15.64,12.87,1.75,23.05,3.38q.12,14.94.25,29.87c-3.89-1.25-5.83-1.86-9.74-3.08-9.18-2.76-19.11-2.53-28.56-2.68,0-.13,0-.19-.06-.32-.13-.79-.33-6.05-.57-18.28q-.36-18.83-.22-37.71.41-25.52,1.45-51c.31-6,.72-12,1.24-17.84-3,.35-5.88.75-8.51,1.17-.23-11.17-.34-16.23-.59-23.9,6-.27,13.12-.37,21.42-.26C465.66,7.81,473.73,8.13,484.82,9Z" transform="translate(0 -2.93)"/><path class="cls-1" d="M524.08,14.8c.3,7.12.44,12.1.73,23.48l-5-.94C510.49,35.61,503.2,34.88,498,35c1.33,1.61,2,2.43,3.32,4.1-.09,2.14-.24,7.82-.46,18.21-.09,2.69-.16,5.89-.23,9.65,7.47.76,11.19,1.17,18.59,2q.13,16,.25,32c-7.33-1.15-11-1.7-18.42-2.77.13,13.86.57,27.71,1.05,41.56,5,.75,12.58,2,22.51,3.87q.23,15.77.49,31.53c-3.78-1.34-5.68-2-9.48-3.31-8.51-2.83-19-3.32-27.86-3l-.05-.34c-.15-.84-.43-6.43-.79-19.45-.38-13.35-.6-26.75-.61-40.13q.15-27.06,1-54.1c.25-6.37.6-12.73,1.06-18.81-3,.26-5.8.58-8.4.93-.33-11.82-.5-17.14-.85-25.16,5.89,0,13,.18,21.16.66C505.18,12.72,513.15,13.41,524.08,14.8Z" transform="translate(0 -2.93)"/><path class="cls-1" d="M562.68,22.46c.29,7.2.44,12.33.75,24.1l-4.87-1.14c-9.14-2.12-16.28-3.14-21.34-3.19,1.31,1.72,2,2.6,3.27,4.38-.08,2.23-.2,8.14-.37,19-.07,2.81-.13,6.16-.18,10.1,7.3,1,10.93,1.51,18.14,2.59q.18,16.75.34,33.49c-7.11-1.32-10.7-2-17.92-3.23.2,14.59.7,29.17,1.25,43.75,4.9.83,12.22,2.24,21.82,4.24q.3,16.5.64,33c-3.65-1.4-5.48-2.1-9.17-3.48-6.28-2.36-15.19-3.23-27-3.28,0-.14,0-.22-.06-.36-.15-.89-.5-6.79-.95-20.51-.45-14.08-.78-28.24-.88-42.37,0-19,.08-38,.63-56.95.21-6.68.52-13.33.93-19.67q-4.41.27-8.23.69c-.41-12.39-.61-17.95-1-26.24,5.8.23,12.77.75,20.82,1.6C544.13,19.5,552,20.56,562.68,22.46Z" transform="translate(0 -2.93)"/><path class="cls-1" d="M600.43,32c.24,7.17.36,12.38.62,24.44l-4.72-1.34c-8.89-2.49-15.85-3.79-20.79-4,1.28,1.81,1.91,2.74,3.19,4.62-.08,2.29-.2,8.39-.35,19.66-.07,2.91-.12,6.4-.17,10.49,7.1,1.2,10.62,1.82,17.6,3.12q.15,17.36.32,34.73c-6.87-1.48-10.34-2.21-17.33-3.64.22,15.23.74,30.44,1.31,45.66,4.72.9,11.78,2.4,21,4.52.21,11.42.41,22.83.66,34.25-3.49-1.44-5.25-2.16-8.78-3.59-6-2.43-14.58-3.33-25.89-3.37,0-.15,0-.23-.06-.38-.15-.92-.54-7.08-1-21.44-.51-14.74-.88-29.57-1-44.36q-.12-29.75.46-59.47c.19-6.94.48-13.83.87-20.38-2.86.08-5.54.24-8,.44-.43-12.87-.64-18.62-1.06-27.08,5.69.49,12.51,1.32,20.4,2.55C582.31,28.13,590,29.56,600.43,32Z" transform="translate(0 -2.93)"/><path class="cls-1" d="M637.15,43.36c.11,7,.18,12.23.33,24.43l-4.56-1.53c-8.59-2.85-15.33-4.42-20.12-4.82,1.23,1.9,1.84,2.87,3.07,4.83-.09,2.34-.23,8.56-.41,20.14-.08,3-.14,6.58-.2,10.79,6.85,1.4,10.24,2.12,17,3.61q.07,17.85.17,35.7c-6.58-1.62-9.91-2.42-16.62-4,.16,15.75.63,31.5,1.19,47.24,4.51.95,11.26,2.51,20,4.71q.22,17.6.53,35.2c-3.31-1.45-5-2.18-8.33-3.63-5.71-2.47-13.85-3.35-24.65-3.35,0-.16,0-.24-.06-.39-.14-1-.51-7.29-1-22.2-.52-15.32-.89-30.7-1-46.05q-.11-30.79.5-61.57c.19-7.15.49-14.24.89-20.93-2.78,0-5.39.06-7.81.19-.39-13.24-.58-19.12-.95-27.64,5.56.76,12.21,1.91,19.89,3.52C619.54,38.6,627,40.4,637.15,43.36Z" transform="translate(0 -2.93)"/><path class="cls-1" d="M672.65,56.58c-.09,6.66-.12,11.84-.15,24l-4.37-1.71c-8.23-3.19-14.73-5-19.34-5.61,1.17,2,1.75,3,2.91,5-.1,2.36-.3,8.63-.57,20.41-.1,3-.19,6.7-.27,11,6.56,1.59,9.8,2.41,16.21,4.08q-.11,18.18-.15,36.35c-6.24-1.73-9.41-2.59-15.81-4.28.06,16.15.43,32.31.89,48.46,4.28,1,10.66,2.56,18.92,4.8q.09,17.91.24,35.82c-3.09-1.45-4.65-2.17-7.8-3.62-5.36-2.47-13-3.3-23.25-3.22l-.05-.4c-.14-1-.47-7.44-.91-22.76-.45-15.76-.75-31.58-.81-47.37q0-31.61.77-63.18c.23-7.3.57-14.5,1-21.27-2.69-.11-5.2-.13-7.55-.08-.28-13.47-.42-19.42-.67-27.86,5.4,1,11.86,2.52,19.29,4.53C655.63,50.89,662.85,53.08,672.65,56.58Z" transform="translate(0 -2.93)"/><path class="cls-1" d="M706.75,71.63c-.37,6.16-.54,11.2-.83,23.23L701.76,93c-7.83-3.52-14-5.62-18.47-6.39,1.09,2,1.64,3,2.72,5.09-.14,2.35-.43,8.6-.84,20.46-.14,3.07-.26,6.74-.39,11.08,6.23,1.76,9.3,2.67,15.37,4.51q-.37,18.33-.64,36.65c-5.87-1.83-8.85-2.74-14.89-4.53-.11,16.41.09,32.82.37,49.22,4,1,10,2.58,17.67,4.82q-.13,18-.23,36.05c-2.85-1.41-4.29-2.12-7.21-3.54-5-2.42-12.11-3.19-21.68-3l0-.4c-.12-1-.38-7.49-.67-23.08-.31-16.06-.48-32.18-.4-48.28.18-21.41.58-42.81,1.31-64.21.31-7.37.72-14.62,1.24-21.38-2.58-.21-5-.32-7.26-.36-.11-13.55-.15-19.49-.21-27.69,5.22,1.31,11.46,3.14,18.62,5.56C690.4,65,697.35,67.58,706.75,71.63Z" transform="translate(0 -2.93)"/><path class="cls-1" d="M739.26,88.5c-.75,5.47-1.09,10.26-1.75,21.94-1.55-.83-2.34-1.24-3.91-2.06-7.37-3.84-13.27-6.2-17.48-7.16,1,2,1.49,3,2.47,5.13-.18,2.31-.61,8.45-1.23,20.26-.18,3-.38,6.71-.57,11,5.86,1.92,8.75,2.91,14.43,4.92q-.74,18.26-1.31,36.52c-5.45-1.9-8.23-2.85-13.88-4.72-.35,16.5-.38,33-.39,49.49,3.71.95,9.23,2.54,16.3,4.75q-.47,17.92-.92,35.86c-2.58-1.36-3.89-2-6.54-3.41-4.52-2.33-11.1-3-20-2.69l0-.4c-.09-1-.23-7.45-.3-23.12-.08-16.22,0-32.47.24-48.71.45-21.54,1.12-43.06,2.17-64.59.42-7.36.94-14.57,1.58-21.23-2.46-.32-4.78-.53-6.93-.66.15-13.47.24-19.3.46-27.1,5,1.61,11,3.8,17.87,6.65C723.66,80.91,730.31,83.89,739.26,88.5Z" transform="translate(0 -2.93)"/><path class="cls-1" d="M770,107.19c-1.22,4.56-1.8,9-2.91,20.11l-3.64-2.21c-6.87-4.14-12.42-6.77-16.4-7.93.88,2,1.32,3,2.19,5.11-.26,2.23-.86,8.17-1.76,19.75-.25,3-.53,6.6-.82,10.87,5.46,2.08,8.14,3.14,13.41,5.3q-1.22,18-2.2,36c-5-2-7.55-2.94-12.76-4.87-.69,16.39-1.08,32.79-1.42,49.19,3.38.93,8.41,2.47,14.79,4.61q-.88,17.58-1.83,35.18l-5.81-3.21c-4-2.2-10-2.76-18.1-2.31,0-.16,0-.23,0-.39-.06-1,0-7.29.21-22.87.26-16.18.6-32.39,1.16-48.58.82-21.44,1.86-42.85,3.36-64.25.57-7.27,1.25-14.34,2-20.8q-3.51-.64-6.58-1c.5-13.19.78-18.83,1.37-26,4.8,1.92,10.51,4.48,17,7.77C755.22,98.61,761.54,102,770,107.19Z" transform="translate(0 -2.93)"/></g></g></svg>
