<svg id="Layer_1" data-name="Layer 1" xmlns="http://www.w3.org/2000/svg" viewBox="0 0 1600 900"><defs><style>.cls-1{fill:#0071bc;}.cls-2{fill:#39b54a;}.cls-3{fill:#006837;}.cls-4{fill:#736357;}.cls-5{fill:#998675;}.cls-6{fill:#c7b299;}.cls-7{fill:#22b573;}.cls-8{fill:#009245;}.cls-9{fill:#8cc63f;}</style></defs><title>BAGGRUND</title><path class="cls-1" d="M1205.14,788.82c-6.14,0-11.08,5.13-14.19,10.43s-5.33,11.36-9.86,15.55c-1.73,1.6-4,3.34-3.69,5.68a6.38,6.38,0,0,0,1.54,3c3.88,5,8,10.28,13.86,12.79A33.82,33.82,0,0,0,1203,838.4c4.81.47,9.64.75,14.46,1,6.34.37,12.68.74,19,.81,4,0,8,0,11.83-1.3,5-1.7,9.09-5.35,13-8.9a36.67,36.67,0,0,0,6.16-6.6,12.25,12.25,0,0,0,2.24-8.55c-.61-3.86-3.56-6.88-6.43-9.53s-6.06-5.4-9.91-6.4c-3.17-.82-6.52-.39-9.78-.68-8.26-.72-15.42-5.91-23.45-8-4.86-1.26-10-1.34-15-1.41ZM1600,710.12V900H926.87c.63-5.79,0-11.61-4.49-14.93-2.68-2-6.15-2.52-9.4-3.37-14.58-3.84-26.24-15.41-40.89-19-11.4-2.8-24.41-.76-34.1-7.38-2.32-1.59-4.33-3.61-6.78-5-4.63-2.59-10.22-2.54-15.42-3.61-7.81-1.61-15-5.84-22.9-6.85-5-.63-10.28,0-15.1-1.09l1.19-1.94a4.26,4.26,0,0,0,.84-2.32c-.06-1.17-1-2-1.93-2.81a50.82,50.82,0,0,1-8.71-9.81,24.93,24.93,0,0,0-3.27-4.29,12.69,12.69,0,0,0-6-3,5.56,5.56,0,0,0,.26-1.05c.22-1.39,0-2.81.22-4.21.29-2,1.4-3.95,1.37-6,0-2.26-1.42-4.25-2.75-6.08-2.32-3.17-4.67-6.39-7.75-8.84-5.69-4.52-13.22-5.94-19.45-9.68-3.13-1.87-5.9-4.32-9.09-6.1a14.64,14.64,0,0,0-8.78-2.09c8.42-8.2,19.06-14.07,29.46-19.74l38.59-21c3.08-1.68,6.33-3.53,7.93-6.65,2.54-4.93-.24-11.25-4.7-14.56s-10.13-4.37-15.57-5.46c-45.65-9.14-89.69-26.31-136-31.5-8-.9-16.08-1.44-24-3.15-9.9-2.16-19.3-6.12-28.92-9.31q-6.26-2.07-12.65-3.69c22.4-5.6,45.23-10.6,68.16-8.7,6.73.56,13.43,1.71,20.18,1.65,12.3-.1,24.19-4.18,36.36-6,9.31-1.41,18.75-1.49,28.16-1.57l63.57-.53c13.31-.11,26.67-.22,39.88,1.46,7.1.91,15.4,3.4,17.47,10.25l-32.27,5.89c-1.65.3-3.42.67-4.57,1.89s-1.38,3-2.2,4.44c-2.72,4.77-11.17,5.43-11.6,10.9a149.27,149.27,0,0,0,50.6.82c8.08-1.25,16.64-3.12,24.19,0,8,5.92,18.91,4.4,28.63,2.27,46.52-10.2,94.8-2.33,142.24,1.87a914.54,914.54,0,0,0,124.42,2.48c3.75-.18,7.69-.35,11.06,1.32s5.8,5.84,4.21,9.24a9.43,9.43,0,0,1-4.1,3.85c-11.07,6.37-25,5.87-36.41,11.53-10.39,5.12-18.38,15.12-29.68,17.65-4.79,1.07-9.82.69-14.56,1.94s-9.47,4.93-9.48,9.83c6,4.36,14,4.62,21.39,4.71l233.73,2.81c23.35.29,47.24.66,69.13,8.79,7,2.58,14.24,6,21.45,6a6.63,6.63,0,0,0,1,3.12c1.72,2.76,5.27,3.6,8.44,4.34a120.08,120.08,0,0,1,19.72,6.4q-1.83,2.67-3.53,5.44c-1.58,2.58-3.11,5.59-2.26,8.48a11.26,11.26,0,0,0,3.07,4.43c9.18,9.52,19.51,19.31,32.58,21.36a62.86,62.86,0,0,0,9.9.51l31.94,0a21.11,21.11,0,0,0,7.35-.87,17.73,17.73,0,0,0,5.29-3.38,12.76,12.76,0,0,0,5.14,4.57,16.19,16.19,0,0,0,6.12.94c5.68.11,11.38,0,17.06-.27a30.21,30.21,0,0,0,7.47-1.07c6-1.88,10.29-7,14.22-11.91a15.93,15.93,0,0,0,4.72-12.44l.33-10.63a6.64,6.64,0,0,0-.16-2.18,6.48,6.48,0,0,0-1.63-2.43,50.59,50.59,0,0,0-6.55-5.86,15.56,15.56,0,0,0-4.59-2.59,14.14,14.14,0,0,0-4.15-.56,32.08,32.08,0,0,0-17.19,4.76,16.22,16.22,0,0,0-1.12-5c-2.48-6.2-8.58-10-13.51-14.51a44.51,44.51,0,0,0-6.11-5.21,30.68,30.68,0,0,0-7-2.86c-8.16-2.55-16.84-5.12-25.12-3l-.12,0-3.76.93a3.86,3.86,0,0,1,2.22-3.28c2.05-.88,4.89.05,6.32-1.66,1.18-1.4.49-3.57,1.15-5.27,1.06-2.71,4.87-3,7.62-2s5.47,2.63,8.34,2.18c1.6-.24,3.07-1.14,4.69-1.13a3.26,3.26,0,0,0,1.59-.14c1.39-.71.32-2.76.06-4.3-.51-3,2.71-5.09,5.45-6.36l8.36-3.87a6.47,6.47,0,0,0,2.46-1.63c.6-.75.85-1.73,1.46-2.47,1-1.19,2.66-1.48,4.14-1.92s3.11-1.36,3.25-2.9c.08-.79-.25-1.68.21-2.33.24-.34.66-.52.93-.84.71-.78.34-2,.09-3a10,10,0,0,1,6.62-11.4c3-.88,6.46-.32,9.08-2,.71-.46,1.44-1.11,2.28-1,1.22.2,1.55,1.77,2.31,2.75,1.67,2.12,5.13,1.09,7.59,2.21s3.36,4.06,4,6.67c1,4,2,8.18,1.16,12.23A8.75,8.75,0,0,0,1600,710.12Zm-531.38,124.5c.34-5.73-1.47-11.35-2.12-17a14,14,0,0,0-.89-4.31,9.81,9.81,0,0,0-2.21-2.88,27.58,27.58,0,0,0-9.63-6.06c-3.74-1.38-7.74-1.94-11.53-3.17a63,63,0,0,1-11.72-5.59l.16-.28a2.56,2.56,0,0,0-3-.68,12.82,12.82,0,0,0-2.77,1.81c-5.32,3.82-13.23,3.06-17.92,7.65a20.6,20.6,0,0,0-3.48,5.22l-10.57,20a5.05,5.05,0,0,0-.85,3.11,3.8,3.8,0,0,0,1.17,2c2.28,2.29,5.67,3,8.47,4.65s5.2,4.4,8,6.25c4.09,2.67,9.11,3.46,14,3.89,3.2.28,6.56.42,9.49-.9,3.63-1.63,6.49-5.41,10.47-5.38,2.87,0,5.33,2.09,8.15,2.6,2.28.42,4.6-.21,6.83-.83,3.16-.89,6.59-2,8.4-4.69A10.67,10.67,0,0,0,1068.62,834.62Z"/><path class="cls-2" d="M1475.57,617.59a18.5,18.5,0,0,1,5-3.41c2.69-1.39,6.31-2.59,8.42-.42,2.76,2.85-.34,8.21,2,11.38,1.51,2,4.76,2,6.74.49a8.44,8.44,0,0,0,2.81-6.71c0-1.93-.42-3.95.32-5.73,1-2.47,4-3.64,6.66-3.4s5.07,1.59,7.39,2.91c2-4.08,4-8.23,7.25-11.42s7.88-5.29,12.3-4.27c.63-3.5,4.46-6.85,7.56-5.1,2.81,1.59,3.25,6.36,6.44,6.87a6,6,0,0,0,3.72-1.07l10.12-5.51a4.25,4.25,0,0,0,2.14-1.9c.72-1.83-1.2-4.18,0-5.72.62-.77,1.72-.87,2.68-1.08,7.91-1.72,10.41-12.91,18.08-15.5,5.16-1.74,10.31,1,14.72,4.64V710.12a8.75,8.75,0,0,1-3-.93c.83-4.05-.17-8.22-1.16-12.23-.65-2.61-1.57-5.56-4-6.67s-5.92-.09-7.59-2.21c-.76-1-1.09-2.55-2.31-2.75-.84-.13-1.57.52-2.28,1-2.62,1.7-6.08,1.14-9.08,2a10,10,0,0,0-6.62,11.4c.25,1,.62,2.24-.09,3-.27.32-.69.5-.93.84-.46.65-.13,1.54-.21,2.33-.14,1.54-1.76,2.47-3.25,2.9s-3.15.73-4.14,1.92c-.61.74-.86,1.72-1.46,2.47a6.47,6.47,0,0,1-2.46,1.63l-8.36,3.87c-2.74,1.27-6,3.39-5.45,6.36.26,1.54,1.33,3.59-.06,4.3a3.26,3.26,0,0,1-1.59.14c-1.62,0-3.09.89-4.69,1.13-2.87.45-5.58-1.24-8.34-2.18s-6.56-.68-7.62,2c-.66,1.7,0,3.87-1.15,5.27-1.43,1.71-4.27.78-6.32,1.66a3.86,3.86,0,0,0-2.22,3.28l-17.29,4.3a24.62,24.62,0,0,0-4,1.25,21.82,21.82,0,0,0-4.87,3.34c-.71.6-1.41,1.21-2.11,1.83a21.78,21.78,0,0,0-7-5.9,29.23,29.23,0,0,0-8-2.1l-6.22-1c-2.52-.41-5.16-.82-7.56.05a23.84,23.84,0,0,0-3.89,2.15c-11.22-4.88-24.76-1.58-37.31-1.76a64.11,64.11,0,0,1-32.09-9.24,9.05,9.05,0,0,1,6.32-3.93,152.28,152.28,0,0,0,2.43-21.18c1.81-2.5,5.58-2,8.65-1.67s7.21-1.09,6.92-4.16-5-5.2-3.65-7.92c.75-1.47,2.75-1.6,4.39-1.53l25.29,1a12.11,12.11,0,0,0,1.23-10.93c1.26-2.47,4.6-2.67,7.33-3.12s6-2.66,5-5.24a8.39,8.39,0,0,0-2.1-2.48c-2.88-3-2.44-8.17,0-11.59s6.32-5.46,10.2-7c1-.41,2.19-.94,2.5-2,.47-1.55-1.22-3-1.3-4.6-.11-2.3,2.81-3.43,5.12-3.45s5.06.17,6.44-1.68.3-4.9,1.32-7.13c1.84-4,8.76-2.67,11.23-6.36,1.57-2.34.53-5.56,1.37-8.25A7,7,0,0,1,1475.57,617.59Z"/><path class="cls-3" d="M1457.34,605.35c-6-7.35-9.49-16.86-8.66-26.36l-13.06-4.08a7.44,7.44,0,0,1-3.28-1.68c-2.54-2.69.05-7,.1-10.67,0-2.73-1.43-5.31-1.42-8,0-5.19,5.15-8.85,10.07-10.53s10.41-2.45,14.26-5.93c-3.3-.28-3.8-5.28-1.82-7.93s5.25-4.17,7.09-6.91c3.23-4.8,1.23-11.85,4.7-16.47,1.28-1.7,3.2-2.88,4.26-4.73,2-3.46.08-8.17-3.23-10.39s-7.57-2.47-11.55-2.12c-2.62.24-5.53.63-7.65-.94a6.23,6.23,0,0,1-1-.93,25.46,25.46,0,0,0-2.4-2.78c-3.31-2.76-9.08-1.13-11.9-4.38-2.65-3.05-.37-8.11,3.15-10.09s7.76-2,11.69-2.94a26.62,26.62,0,0,0,19.66-21c.23-1.38.23-3.06-.93-3.85a4.52,4.52,0,0,0-2.85-.37c-5.51.34-12.26-4.43-10-9.46a10.35,10.35,0,0,1,3.47-3.65c9.05-6.85,18.83-14,30.16-14.68,4.16-.25,9.56-.39,10.84-4.36a8.66,8.66,0,0,0,.23-3.09c-.13-3.34-.43-7-2.83-9.36-3.22-3.1-8.37-2.22-12.81-1.86a40.66,40.66,0,0,1-31-11c3.7-1.82,6.8-4.64,9.86-7.4q18.45-16.64,37.73-32.32a62.24,62.24,0,0,0-24.4-6.12c-3.3-1.44-1.68-6.77,1.39-8.68s7.08-2.53,9.24-5.43c2.35-3.16,1.43-7.48,1.41-11.48,0-.31,0-.6,0-.9a18,18,0,0,1,14-16.53c4.33-.89,9.5-.4,12.42-3.72,4.29-4.9-.95-12.7-7-15.06a4.13,4.13,0,0,0-3-.3,5.41,5.41,0,0,0-2.13,2.37c-2.37,3.71-8.65,5.72-10.78,1.87-2.35-4.26,3.32-8.18,7.41-10.81,12.08-7.8,16-23.34,19-37.42.11-6.26,9.16-10,10.19-16.22.5-3-1.12-5.94-1-9,.08-3.44,2.3-6.42,3.39-9.68s.36-7.85-3-8.67c-.69,3.58-2.31,8-6,8.13-3.25.12-5.37-3.53-5.73-6.76-.76-6.75,2.61-13.2,5.87-19.16s6.86-12.19,13-15.1c2.11-1,4.44-1.56,6.39-2.84,8-5.27,4.67-17.75,8.2-26.66,2.3-5.82,7.76-10.36,8.51-16.58.5-4.15-1.25-8.31-.9-12.48.78-9.24,11.23-15.17,12.77-24.32.26-1.53.27-3.15,1-4.52,2.29-4.21,9.46-2,11.18,2.48s.07,9.43-1.06,14.09c-5.57,22.92,3.3,48.6,21.45,63.54V572.64c-4.41-3.61-9.56-6.38-14.72-4.64-7.67,2.59-10.17,13.78-18.08,15.5-1,.21-2.06.31-2.68,1.08-1.22,1.54.7,3.89,0,5.72a4.25,4.25,0,0,1-2.14,1.9l-10.12,5.51a6,6,0,0,1-3.72,1.07c-3.19-.51-3.63-5.28-6.44-6.87-3.1-1.75-6.93,1.6-7.56,5.1-4.42-1-9.09,1.08-12.3,4.27s-5.26,7.34-7.25,11.42c-2.32-1.32-4.73-2.66-7.39-2.91s-5.64.93-6.66,3.4c-.74,1.78-.33,3.8-.32,5.73a8.44,8.44,0,0,1-2.81,6.71c-2,1.54-5.23,1.52-6.74-.49-2.39-3.17.71-8.53-2-11.38-2.11-2.17-5.73-1-8.42.42a18.5,18.5,0,0,0-5,3.41A37,37,0,0,1,1457.34,605.35Z"/><path class="cls-1" d="M1600,0V149.16c-18.15-14.94-27-40.62-21.45-63.54,1.13-4.66,2.78-9.62,1.06-14.09s-8.89-6.69-11.18-2.48c-.74,1.37-.75,3-1,4.52-1.54,9.15-12,15.08-12.77,24.32-.35,4.17,1.4,8.33.9,12.48-.75,6.22-6.21,10.76-8.51,16.58-3.53,8.91-.2,21.39-8.2,26.66-1.95,1.28-4.28,1.84-6.39,2.84-6.09,2.91-9.71,9.19-13,15.1s-6.63,12.41-5.87,19.16c.36,3.23,2.48,6.88,5.73,6.76,3.64-.13,5.26-4.55,6-8.13,3.35.82,4.09,5.4,3,8.67s-3.31,6.24-3.39,9.68c-.07,3,1.55,6,1,9-1,6.18-10.08,10-10.19,16.22-3,14.08-6.91,29.62-19,37.42-4.09,2.63-9.76,6.55-7.41,10.81,2.13,3.85,8.41,1.84,10.78-1.87a5.41,5.41,0,0,1,2.13-2.37,4.13,4.13,0,0,1,3,.3c6.07,2.36,11.31,10.16,7,15.06-2.92,3.32-8.09,2.83-12.42,3.72a18,18,0,0,0-14,16.53c0,.3,0,.59,0,.9a1217.19,1217.19,0,0,1-214.88-172.74c-7-7-15.85-14.81-25.48-12.45-6.12,1.49-10.45,6.71-14.83,11.23-19.74,20.4-47.36,30.7-71.65,45.38-30.94,18.71-56.7,44.73-81.51,71-52.44,55.55-103,114.18-166.24,157-14.42,9.76-30.51,20-37.29,35.6-29-24.43-72.12-25.63-109-37.62-20-6.51-38.64-16.53-57.54-25.78-31.87-15.6-64.71-29.11-97.53-42.61l-73-30c-15.74-6.47-31.86-13-48.86-13.84-14.27-.67-28.37,2.77-42.24,6.18l-34.76,8.55c-4.59,1.13-9.32,2.32-13.1,5.16-3.54,2.67-5.93,6.55-8.57,10.11-17.32,23.39-46.43,34.26-73.88,43.94L125.07,439.63q.65-6.18,1.36-12.34c2.72-23.36,6.08-47.77-2.2-69.78-1.4-3.72-3.14-7.42-3.33-11.39-.26-5.26,2.24-10.22,4.66-14.9l23.23-44.73c11-21.15,22.08-42.5,37.4-60.75,48.76-58.11,130.65-75,206.39-79.35s154.44-.25,224.23-30c25.22-10.75,49-25.84,76-30.85,19.11-3.56,41.82-.3,52.76,15.77-5-24.47-35.68-35.24-60.21-30.53s-45.72,19.7-69.05,28.64a146.68,146.68,0,0,1-85.47,5.79,367.69,367.69,0,0,0,91.37-47.65,285.82,285.82,0,0,0-113.13,48.25c-5.08,3.62-10.13,7.47-16,9.61-5.22,1.9-10.83,2.35-16.36,2.79l-74.51,5.88c.87-24.73,27.64-39.48,51.3-46.77S504.68,62.63,515,40.13c-78.3,14.78-138.21,83.95-216.76,97.37-26.64,4.56-54.22,2.39-80.57,8.42-30.66,7-57.67,24.64-83.94,41.93A576,576,0,0,1,151.48,0Z"/><path class="cls-4" d="M1596.51,777a6.64,6.64,0,0,1,.16,2.18l-.33,10.63a15.93,15.93,0,0,1-4.72,12.44c-3.93,4.89-8.23,10-14.22,11.91a30.21,30.21,0,0,1-7.47,1.07c-5.68.29-11.38.38-17.06.27a16.19,16.19,0,0,1-6.12-.94,12.76,12.76,0,0,1-5.14-4.57c7.47-6.42,13-14.89,17.05-23.85,2.27-5,4.14-10.52,3.74-15.82a32.08,32.08,0,0,1,17.19-4.76,14.14,14.14,0,0,1,4.15.56,15.56,15.56,0,0,1,4.59,2.59,50.59,50.59,0,0,1,6.55,5.86A6.48,6.48,0,0,1,1596.51,777Z"/><path class="cls-5" d="M1477.33,751.42c.7-.62,1.4-1.23,2.11-1.83a21.82,21.82,0,0,1,4.87-3.34,24.62,24.62,0,0,1,4-1.25l17.29-4.3,3.76-.93.12,0c8.28-2.11,17,.46,25.12,3a30.68,30.68,0,0,1,7,2.86,44.51,44.51,0,0,1,6.11,5.21c4.93,4.5,11,8.31,13.51,14.51a16.22,16.22,0,0,1,1.12,5c.4,5.3-1.47,10.86-3.74,15.82-4.1,9-9.58,17.43-17.05,23.85a17.73,17.73,0,0,1-5.29,3.38,21.11,21.11,0,0,1-7.35.87l-31.94,0a62.86,62.86,0,0,1-9.9-.51c-13.07-2-23.4-11.84-32.58-21.36a11.26,11.26,0,0,1-3.07-4.43c-.85-2.89.68-5.9,2.26-8.48q1.69-2.78,3.53-5.44A123.5,123.5,0,0,1,1477.33,751.42Z"/><path class="cls-6" d="M874.07,448.4c6.78-15.6,22.87-25.84,37.29-35.6,63.27-42.8,113.8-101.43,166.24-157,24.81-26.29,50.57-52.31,81.51-71,24.29-14.68,51.91-25,71.65-45.38,4.38-4.52,8.71-9.74,14.83-11.23,9.63-2.36,18.51,5.4,25.48,12.45A1217.19,1217.19,0,0,0,1486,313.38c0,4,.94,8.32-1.41,11.48-2.16,2.9-6.18,3.52-9.24,5.43s-4.69,7.24-1.39,8.68a62.24,62.24,0,0,1,24.4,6.12q-19.27,15.68-37.73,32.32c-3.06,2.76-6.16,5.58-9.86,7.4a40.66,40.66,0,0,0,31,11c4.44-.36,9.59-1.24,12.81,1.86,2.4,2.32,2.7,6,2.83,9.36a8.66,8.66,0,0,1-.23,3.09c-1.28,4-6.68,4.11-10.84,4.36-11.33.71-21.11,7.83-30.16,14.68a10.35,10.35,0,0,0-3.47,3.65c-2.29,5,4.46,9.8,10,9.46a4.52,4.52,0,0,1,2.85.37c1.16.79,1.16,2.47.93,3.85a26.62,26.62,0,0,1-19.66,21c-3.93.92-8.17,1-11.69,2.94s-5.8,7-3.15,10.09c2.82,3.25,8.59,1.62,11.9,4.38a25.46,25.46,0,0,1,2.4,2.78c-5.27,5.39-16.55,4.91-20-2.33a53,53,0,0,1-10.28,16.51l-10.6-16.17-15.41,12.78a35.37,35.37,0,0,1-11.18-12.54q-5.09,5.48-10.16,10.94a24.07,24.07,0,0,0-11.83-9.09l-7.11,12.56-20.57-15.72c-3.07,5.24-4.29,11.34-6.64,16.95s-6.38,11.12-12.29,12.53-13.18-3.64-11.91-9.59l-13.92,16.15-12.22-12.73L1264,521.94a39,39,0,0,0-15.31-27l-12.63,15.89c-.24-8-12.29-10.65-18.5-5.62s-7.82,13.7-9,21.61l-8.88-12a39.81,39.81,0,0,0-13,12.43c-3.54-6.87-15.21-7-18.9-.2l-12.64-10a28.12,28.12,0,0,0-8.37,10.54,18,18,0,0,1-6.3-7.31l-11.13,15.38-18.55-18.09A32.81,32.81,0,0,0,1100.25,530c-.84-8.71-16.13-10.14-18.57-1.74l-9.69-8.83a54.59,54.59,0,0,0-11.16,12.43l-9.75-8.82a27.84,27.84,0,0,0-7.08,10.44,19.41,19.41,0,0,1-12.09-6.76l-10.42,12.7c-6.44-4.66-16.44-3.34-21.45,2.84l-8.74-8.09a78.21,78.21,0,0,0-12.14,18.67c-7.59-3.93-15.75-8-24.25-7s-16.7,9.2-14.2,17.37A29.11,29.11,0,0,0,921.56,546L917.33,565l-11.4-12.95a28.63,28.63,0,0,0-8.6,10.2,53.27,53.27,0,0,1-12.64-11.65,24.1,24.1,0,0,0-8,10.05l-9.6-5.42-12.34,17c-4.19-5.13-8.72-10.5-15-12.63s-14.69.62-16.15,7.09c-2.17-4.2-8.51-1.55-12.21,1.38a180.58,180.58,0,0,1-65.35,32.73l-.07,0c-.66-1.29-1.32-2.58-2-3.87-3.93,3.31-9.85.91-14.34-1.58L723.51,592c-7-3.91-14.13-7.86-20.11-13.24,1.6,3.24-3,6.6-6.49,5.66s-5.85-4.08-8.52-6.52-6.79-4.3-9.78-2.27-2.88,6.61-5.2,9.39c-2.95,3.53-8.92,2.81-12.35-.25a18.18,18.18,0,0,1-4.5-6.86c60.5-16.06,139.18-49.16,190.71-83.24,8.12-5.38,16.5-11.43,20.3-20.39,2.79-6.58,2.77-14,4.72-20.85A41.1,41.1,0,0,1,874.07,448.4Z"/><path class="cls-5" d="M1428.15,760.2a10.8,10.8,0,0,1,1.17-5.24,16,16,0,0,1,8.69-7.89c1.86-.7,3.84-1,5.63-1.91.35-.17.69-.36,1-.56a23.84,23.84,0,0,1,3.89-2.15c2.4-.87,5-.46,7.56-.05l6.22,1a29.23,29.23,0,0,1,8,2.1,21.78,21.78,0,0,1,7,5.9,123.5,123.5,0,0,0-20.06,22.64,120.08,120.08,0,0,0-19.72-6.4c-3.17-.74-6.72-1.58-8.44-4.34A6.63,6.63,0,0,1,1428.15,760.2Z"/><path class="cls-7" d="M691.05,627.58c24.78-1.89,49.64-3,74.28-6.24,31.63-4.15,62.74-11.77,94.38-15.83,95.39-12.26,191.86,8,288,7.06,82.17-.8,164.53-17.09,246.06-6.81,21.13,2.67,44.27,6.65,63.54-.41a37,37,0,0,0,18.23,12.24,7,7,0,0,0-1.69,2.8c-.84,2.69.2,5.91-1.37,8.25-2.47,3.69-9.39,2.32-11.23,6.36-1,2.23.15,5.17-1.32,7.13s-4.13,1.66-6.44,1.68-5.23,1.15-5.12,3.45c.08,1.63,1.77,3,1.3,4.6-.31,1.06-1.47,1.59-2.5,2-3.88,1.57-7.78,3.61-10.2,7s-2.85,8.55,0,11.59a8.39,8.39,0,0,1,2.1,2.48c1,2.58-2.23,4.79-5,5.24s-6.07.65-7.33,3.12a12.11,12.11,0,0,1-1.23,10.93l-25.29-1c-1.64-.07-3.64.06-4.39,1.53-1.39,2.72,3.36,4.87,3.65,7.92s-3.85,4.44-6.92,4.16-6.84-.83-8.65,1.67a152.28,152.28,0,0,1-2.43,21.18,9.05,9.05,0,0,0-6.32,3.93,64.11,64.11,0,0,0,32.09,9.24c12.55.18,26.09-3.12,37.31,1.76-.33.2-.67.39-1,.56-1.79.87-3.77,1.21-5.63,1.91a16,16,0,0,0-8.69,7.89,10.8,10.8,0,0,0-1.17,5.24c-7.21,0-14.48-3.41-21.45-6-21.89-8.13-45.78-8.5-69.13-8.79l-233.73-2.81c-7.43-.09-15.39-.35-21.39-4.71,0-4.9,4.74-8.59,9.48-9.83s9.77-.87,14.56-1.94c11.3-2.53,19.29-12.53,29.68-17.65,11.45-5.66,25.34-5.16,36.41-11.53a9.43,9.43,0,0,0,4.1-3.85c1.59-3.4-.85-7.58-4.21-9.24s-7.31-1.5-11.06-1.32A914.54,914.54,0,0,1,1037,680.06c-47.44-4.2-95.72-12.07-142.24-1.87-9.72,2.13-20.63,3.65-28.63-2.27-7.55-3.14-16.11-1.27-24.19,0a149.27,149.27,0,0,1-50.6-.82c.43-5.47,8.88-6.13,11.6-10.9.82-1.44,1.07-3.22,2.2-4.44s2.92-1.59,4.57-1.89L842,652c-2.07-6.85-10.37-9.34-17.47-10.25-13.21-1.68-26.57-1.57-39.88-1.46l-63.57.53c-9.41.08-18.85.16-28.16,1.57-12.17,1.83-24.06,5.91-36.36,6-6.75.06-13.45-1.09-20.18-1.65-22.93-1.9-45.76,3.1-68.16,8.7h0A188.74,188.74,0,0,0,540,650.47a1019.43,1019.43,0,0,1,147.34-22.6Z"/><path class="cls-8" d="M746,600.84l.07,0a180.58,180.58,0,0,0,65.35-32.73c3.7-2.93,10-5.58,12.21-1.38,1.46-6.47,9.87-9.22,16.15-7.09s10.81,7.5,15,12.63l12.34-17,9.6,5.42a24.1,24.1,0,0,1,8-10.05,53.27,53.27,0,0,0,12.64,11.65,28.63,28.63,0,0,1,8.6-10.2L917.33,565,921.56,546a29.11,29.11,0,0,1,19.15,17.16c-2.5-8.17,5.71-16.44,14.2-17.37s16.66,3.1,24.25,7a78.21,78.21,0,0,1,12.14-18.67l8.74,8.09c5-6.18,15-7.5,21.45-2.84l10.42-12.7a19.41,19.41,0,0,0,12.09,6.76,27.84,27.84,0,0,1,7.08-10.44l9.75,8.82A54.59,54.59,0,0,1,1072,519.38l9.69,8.83c2.44-8.4,17.73-7,18.57,1.74a32.81,32.81,0,0,1,10.56-12.37l18.55,18.09,11.13-15.38a18,18,0,0,0,6.3,7.31,28.12,28.12,0,0,1,8.37-10.54l12.64,10c3.69-6.79,15.36-6.67,18.9.2a39.81,39.81,0,0,1,13-12.43l8.88,12c1.19-7.91,2.79-16.57,9-21.61s18.26-2.37,18.5,5.62L1248.69,495a39,39,0,0,1,15.31,27l8.09-14.05,12.22,12.73,13.92-16.15c-1.27,5.95,6,11,11.91,9.59s9.95-6.93,12.29-12.53,3.57-11.71,6.64-16.95l20.57,15.72,7.11-12.56a24.07,24.07,0,0,1,11.83,9.09q5.07-5.47,10.16-10.94a35.37,35.37,0,0,0,11.18,12.54l15.41-12.78,10.6,16.17a53,53,0,0,0,10.28-16.51c3.4,7.24,14.68,7.72,20,2.33a6.23,6.23,0,0,0,1,.93c2.12,1.57,5,1.18,7.65.94,4-.35,8.23-.1,11.55,2.12s5.21,6.93,3.23,10.39c-1.06,1.85-3,3-4.26,4.73-3.47,4.62-1.47,11.67-4.7,16.47-1.84,2.74-5.11,4.25-7.09,6.91s-1.48,7.65,1.82,7.93c-3.85,3.48-9.34,4.26-14.26,5.93S1431,549.33,1431,554.52c0,2.73,1.45,5.31,1.42,8,0,3.69-2.64,8-.1,10.67a7.44,7.44,0,0,0,3.28,1.68l13.06,4.08c-.83,9.5,2.61,19,8.66,26.36-19.27,7.06-42.41,3.08-63.54.41-81.53-10.28-163.89,6-246.06,6.81-96.17.95-192.64-19.32-288-7.06-31.64,4.06-62.75,11.68-94.38,15.83-24.64,3.24-49.5,4.35-74.28,6.24l13.05-10.22L714.36,621C717.83,608.33,733.27,604.22,746,600.84Z"/><path class="cls-5" d="M1205.14,788.9c5,.07,10.13.15,15,1.41,8,2.07,15.19,7.26,23.45,8,3.26.29,6.61-.14,9.78.68,3.85,1,7,3.7,9.91,6.4s5.82,5.67,6.43,9.53a12.25,12.25,0,0,1-2.24,8.55,36.67,36.67,0,0,1-6.16,6.6c-3.92,3.55-8,7.2-13,8.9-3.78,1.27-7.84,1.35-11.83,1.3-6.35-.07-12.69-.44-19-.81-4.82-.29-9.65-.57-14.46-1a33.82,33.82,0,0,1-10.17-2.15c-5.85-2.51-10-7.75-13.86-12.79a6.38,6.38,0,0,1-1.54-3c-.27-2.34,2-4.08,3.69-5.68,4.53-4.19,6.75-10.23,9.86-15.55s8-10.43,14.19-10.43Z"/><path class="cls-4" d="M1030.52,795.56a63,63,0,0,0,11.72,5.59c3.79,1.23,7.79,1.79,11.53,3.17a27.58,27.58,0,0,1,9.63,6.06,9.81,9.81,0,0,1,2.21,2.88,14,14,0,0,1,.89,4.31c.65,5.7,2.46,11.32,2.12,17a10.67,10.67,0,0,1-1.51,5.34c-1.81,2.73-5.24,3.8-8.4,4.69-2.23.62-4.55,1.25-6.83.83-2.82-.51-5.28-2.57-8.15-2.6-4,0-6.84,3.75-10.47,5.38-2.93,1.32-6.29,1.18-9.49.9-4.87-.43-9.89-1.22-14-3.89-2.85-1.85-5.11-4.54-8-6.25s-6.19-2.36-8.47-4.65a3.8,3.8,0,0,1-1.17-2,5.05,5.05,0,0,1,.85-3.11l10.57-20a20.6,20.6,0,0,1,3.48-5.22c4.69-4.59,12.6-3.83,17.92-7.65a12.82,12.82,0,0,1,2.77-1.81,2.56,2.56,0,0,1,3,.68Z"/><path class="cls-2" d="M412.52,639.51l.14-1.53c23.78-2.86,47,7.61,70.76,10.52,15.14,1.85,30.47.61,45.71,1.22q5.43.21,10.83.75a188.74,188.74,0,0,1,28.22,4.94h0q6.39,1.62,12.65,3.69c9.62,3.19,19,7.15,28.92,9.31,7.88,1.71,16,2.25,24,3.15,46.27,5.19,90.31,22.36,136,31.5,5.44,1.09,11.12,2.15,15.57,5.46s7.24,9.63,4.7,14.56c-1.6,3.12-4.85,5-7.93,6.65l-38.59,21c-10.4,5.67-21,11.54-29.46,19.74a8,8,0,0,0-1.72.38,28.88,28.88,0,0,0-4.2,2.1c-3.89,2.08-8.25,3.09-12.33,4.77a80.17,80.17,0,0,0-9.52,4.93l-13.84,8c-4.63,2.66-9.36,5.42-12.73,9.56-.09.11-.19.23-.27.35l-22.69-11.19c-3.88-1.91-7.8-3.84-12-4.78a54.52,54.52,0,0,0-10.61-.93l-17.11-.39a11.06,11.06,0,0,0-8.38,2.48c-6,4-12,8.11-16.34,13.87a15.85,15.85,0,0,0-3.19,6.82c-.76,4.84,2.07,9.73,6.05,12.58s8.95,4,13.81,4.57a73.52,73.52,0,0,0,18.63-.18c10.28-1.42,20.81-5,30.77-2.08,2,.58,3.92,1.42,5.9,1.92-2.34,3.36-4.58,6.79-7.59,9.56-1.73,1.59-3.85,3.28-3.83,5.62s2.43,4.17,4.79,4.49,4.74-.38,7.1-.78c8.32-1.42,16.76,1,25.18,1.55,2.7.17,5.53.13,8-1.06.79-.39,1.56-.9,2.34-1.32a8.94,8.94,0,0,0,3.34,4.27,20.36,20.36,0,0,0,10.08,4.11,8.41,8.41,0,0,0,4.58-.59c1.45-.71,2.52-2,3.85-2.93,1.71-1.17,3.82-1.67,5.7-2.51a5.23,5.23,0,0,0,.4,1.15,8.85,8.85,0,0,0,3.49,3.17l7.87,4.87c3.48,2.17,7.42,4.42,11.44,3.6,2.61-.52,4.79-2.28,7.28-3.2a24.1,24.1,0,0,1,7.38-1.06l12.67-.48c3.56-.14,7.27-.31,10.4-2,3.64-2,6-5.64,8.09-9.17.36-.59.73-1.19,1.08-1.78,4.82,1.09,10.11.46,15.1,1.09,7.92,1,15.09,5.24,22.9,6.85,5.2,1.07,10.79,1,15.42,3.61,2.45,1.37,4.46,3.39,6.78,5,9.69,6.62,22.7,4.58,34.1,7.38,14.65,3.61,26.31,15.18,40.89,19,3.25.85,6.72,1.37,9.4,3.37,4.46,3.32,5.12,9.14,4.49,14.93H137.54q-6.93-117.68-13.85-235.33-.59-10-1.16-19.91a125.42,125.42,0,0,1,25.55.51c6.08.74,12.19,1.93,18.27,1.22,4.27-.49,8.36-1.9,12.56-2.81,6.88-1.5,14-1.63,21-1.76l76.19-1.4c12.48-.23,25-.46,37.37-1.87,13.56-1.53,27-4.47,40.59-5.37a167.29,167.29,0,0,1,47.55,4.17A90.25,90.25,0,0,0,412.52,639.51Zm139.23,150.8c3.82-1.25,7.59-5.81,5-8.89-1.9-2.25-5.69-1.57-8-3.34-3.09-2.33-2.09-7.22-3.69-10.74-2.78-6.07-11.28-5.67-18-5.68a48.16,48.16,0,0,1-14.59-2.3c-2.4-.77-5.19-2.43-4.89-4.93.14-1.15.94-2.1,1.35-3.19.95-2.54-.42-5.47-2.54-7.17s-4.82-2.42-7.44-3.1c-14.16-3.7-28.4-7.41-43-8.5-2.29-.17-4.68-.3-6.66-1.44-4.57-2.61-5.63-9.64-10.62-11.3-3.3-1.1-7.25.66-10.26-1.08-1.95-1.12-2.89-3.39-3.74-5.47q-2.49-6.07-5.56-11.88a3.78,3.78,0,0,0-1.9-2.06,3.85,3.85,0,0,0-2.77.55L387.24,713c-1.44.7-3,1.48-3.72,2.91s-.52,3.1-1,4.6c-.58,1.79-2.06,3.1-3.48,4.33-5.41,4.65-10.95,9.39-17.58,12s-14.64,2.91-20.51-1.16c-1.74-1.2-3.6-2.84-5.66-2.35a10.2,10.2,0,0,0-3,1.8c-5.82,3.77-14.87-1.23-20,3.44-1.64,1.48-2.52,3.74-4.38,4.93-1.38.89-3.09,1-4.68,1.46-7.49,2-11.95,11.42-8.77,18.49a8.53,8.53,0,0,1,1.07,3.07c.14,3.68-5,4.67-7.59,7.33a6.31,6.31,0,0,0-.32,8.06l-10,2.32c-5.76,2.63-12.37,7.6-11,13.78,1.63,7.36,12.57,7.48,17.51,13.17,1.43,1.64,2.53,3.89,4.65,4.38,1.69.4,3.38-.52,5.09-.85,6.06-1.2,11.6,4.9,17.75,4.26,3.62-.37,6.54-3,9.73-4.77s7.74-2.46,10,.38c1.15,1.43,1.43,3.47,2.73,4.77,3.24,3.22,8.52-.82,10.67-4.85s5.1-9.18,9.59-8.34c1.61.3,3,1.4,4.54,1.86,3.91,1.14,7.84-1.8,11.91-2a18.11,18.11,0,0,1,6.4,1.17l20.85,6.46c4.78,1.48,9.63,3,14.64,3.2a9.91,9.91,0,0,0,4.71-.7c2.48-1.18,4-4,6.59-4.84,5.68-1.86,9.54,6.34,15.29,8,6.75,1.9,13.4-5.88,20.19-4.1,1.88.49,3.55,1.7,5.48,1.94,7.49.93,10-11.81,17.52-12.81,4.6-.62,9.15,3.66,13.52,2.09,2.4-.86,4.14-3.38,6.68-3.55s4.48,1.86,6.88,1.9c4.82.09,6.83-7.28,11.62-7.9,3.08-.41,6,2.25,9,1.82,4.22-.59,5.47-6,5.72-10.27A19.07,19.07,0,0,0,551.75,790.31Z"/><path class="cls-5" d="M874.07,448.4a41.1,41.1,0,0,0-1.78,5c-1.95,6.87-1.93,14.27-4.72,20.85-3.8,9-12.18,15-20.3,20.39-51.53,34.08-130.21,67.18-190.71,83.24-.7-1.69-1.27-3.46-1.82-5.2a12.18,12.18,0,0,1-23-5.47c-4.43,4.65-9.75,9.27-16.17,9.57s-13.17-6.23-10.64-12.14q-4.95,7.23-9.88,14.47A107.58,107.58,0,0,1,583.31,564c-3.19,8.41-9.9,18.67-18.45,15.82-2.52-.84-4.52-2.76-6.31-4.73a70.76,70.76,0,0,1-15-25.71,153.3,153.3,0,0,1-20,21l-6.42-7.91c-.11,5.4-7.79,7.77-12.42,5s-6.74-8.27-8.44-13.39l-7.3,6.3q-4.27-7.18-8.53-14.38l-7.55,13.11a56.92,56.92,0,0,1-11.22-19.44A65.94,65.94,0,0,0,447.3,558l-8.46-8.43c-.41,3.59-.93,7.4-3.29,10.13s-7.26,3.52-9.4.62c-1.15-1.57-1.19-3.7-2.1-5.41-3.45-6.49-13.51-1.46-17.64,4.62s-10.16,14-16.89,11c-5.35-2.34-6.12-10.15-11.09-13.22-7-4.29-14.95,3.34-20.09,9.69s-15.45,12.2-20.41,5.7c-.35,4.49-5.35,7.71-9.8,7s-7.95-4.58-9.24-8.9c-2.48,8.08-16.54,8.14-19.09.07a39.56,39.56,0,0,1-17.15,14.38c1.45-7-7-13.77-13.53-10.82-3.21,1.47-5.41,4.56-8.52,6.24s-8.18.81-8.5-2.71c-2,5.77-6.69,12.91-12.31,10.54-1.69-.71-2.92-2.19-4.51-3.09-4.52-2.59-10.29.24-14,3.91s-6.67,8.35-11.39,10.56-12,0-12.09-5.21c-2.84,7.53-12.79,11.38-20,7.7-3.69-1.89-7.5-5.5-11.32-3.87-4.57,2-4.85,10.18-9.82,10.48a9.16,9.16,0,0,1-4-1.13c-10.1-4.22-21.45-1.23-31.94,2.43-.7-15.52-1.22-31-1.4-46.59a1074.54,1074.54,0,0,1,5.73-124l190.51-67.18c27.45-9.68,56.56-20.55,73.88-43.94,2.64-3.56,5-7.44,8.57-10.11,3.78-2.84,8.51-4,13.1-5.16l34.76-8.55c13.87-3.41,28-6.85,42.24-6.18,17,.8,33.12,7.37,48.86,13.84l73,30c32.82,13.5,65.66,27,97.53,42.61,18.9,9.25,37.54,19.27,57.54,25.78C802,422.77,845.12,424,874.07,448.4Z"/><path class="cls-4" d="M707.69,843.67a12.15,12.15,0,0,1-.21-2.83,22,22,0,0,1,.52-5.79,4.68,4.68,0,0,1,.17-.53,7.21,7.21,0,0,1,3.11-4.11l.09.07c2.55-3.33,8.16-3.2,10.42-6.73.38-.6.65-1.28,1.07-1.86a8.16,8.16,0,0,1,2.12-1.84,17.51,17.51,0,0,1,10.45-4l13.71-1.48a40.43,40.43,0,0,1,8.79-.3,17.18,17.18,0,0,1,2,.33,12.69,12.69,0,0,1,6,3,24.93,24.93,0,0,1,3.27,4.29,50.82,50.82,0,0,0,8.71,9.81c.89.76,1.87,1.64,1.93,2.81a4.26,4.26,0,0,1-.84,2.32l-1.19,1.94c-.35.59-.72,1.19-1.08,1.78-2.14,3.53-4.45,7.21-8.09,9.17-3.13,1.69-6.84,1.86-10.4,2l-12.67.48a24.1,24.1,0,0,0-7.38,1.06c-2.49.92-4.67,2.68-7.28,3.2-4,.82-8-1.43-11.44-3.6L711.58,848a8.85,8.85,0,0,1-3.49-3.17A5.23,5.23,0,0,1,707.69,843.67Z"/><path class="cls-5" d="M659.36,800.57c.08-.12.18-.24.27-.35,3.37-4.14,8.1-6.9,12.73-9.56l13.84-8a80.17,80.17,0,0,1,9.52-4.93c4.08-1.68,8.44-2.69,12.33-4.77a28.88,28.88,0,0,1,4.2-2.1,8,8,0,0,1,1.72-.38,14.64,14.64,0,0,1,8.78,2.09c3.19,1.78,6,4.23,9.09,6.1,6.23,3.74,13.76,5.16,19.45,9.68,3.08,2.45,5.43,5.67,7.75,8.84,1.33,1.83,2.72,3.82,2.75,6.08,0,2.06-1.08,4-1.37,6-.19,1.4,0,2.82-.22,4.21a5.56,5.56,0,0,1-.26,1.05,17.18,17.18,0,0,0-2-.33,40.43,40.43,0,0,0-8.79.3L735.43,816a17.51,17.51,0,0,0-10.45,4,8.16,8.16,0,0,0-2.12,1.84c-.42.58-.69,1.26-1.07,1.86-2.26,3.53-7.87,3.4-10.42,6.73l-.09-.07a7.21,7.21,0,0,0-3.11,4.11l-8.87-3.88a10.37,10.37,0,0,0-5.18-1.26,10.23,10.23,0,0,0-4.12,1.79l-5.66,3.51c-.58.36-1.17.74-1.72,1.16a18,18,0,0,1-.16-4.4,13.3,13.3,0,0,0,.09-3.67,8.44,8.44,0,0,0-2.06-3.68,65.36,65.36,0,0,0-5.2-5.33c-3.8-3.61-8-7.43-13.27-7.82a12.77,12.77,0,0,0-6.19,1.15A16,16,0,0,1,659.36,800.57Z"/><path class="cls-8" d="M656.56,577.88a18.18,18.18,0,0,0,4.5,6.86c3.43,3.06,9.4,3.78,12.35.25,2.32-2.78,2.19-7.35,5.2-9.39s7.11-.17,9.78,2.27,5,5.58,8.52,6.52,8.09-2.42,6.49-5.66c6,5.38,13.08,9.33,20.11,13.24l6.15,3.42c4.49,2.49,10.41,4.89,14.34,1.58.67,1.29,1.33,2.58,2,3.87-12.72,3.38-28.16,7.49-31.63,20.18l-10.26-3.66-13.05,10.22-3.75.29A1019.43,1019.43,0,0,0,540,650.47q-5.4-.54-10.83-.75c-15.24-.61-30.57.63-45.71-1.22-23.78-2.91-47-13.38-70.76-10.52l-.14,1.53a90.25,90.25,0,0,1-10.88-2.06,167.29,167.29,0,0,0-47.55-4.17c-13.62.9-27,3.84-40.59,5.37-12.4,1.41-24.89,1.64-37.37,1.87l-76.19,1.4c-7.05.13-14.15.26-21,1.76-4.2.91-8.29,2.32-12.56,2.81-6.08.71-12.19-.48-18.27-1.22a125.42,125.42,0,0,0-25.55-.51c-.65-11.5-1.27-23-1.79-34.52,10.49-3.66,21.84-6.65,31.94-2.43a9.16,9.16,0,0,0,4,1.13c5-.3,5.25-8.52,9.82-10.48,3.82-1.63,7.63,2,11.32,3.87,7.17,3.68,17.12-.17,20-7.7.12,5.21,7.37,7.43,12.09,5.21s7.69-6.88,11.39-10.56,9.47-6.5,14-3.91c1.59.9,2.82,2.38,4.51,3.09,5.62,2.37,10.33-4.77,12.31-10.54.32,3.52,5.4,4.4,8.5,2.71s5.31-4.77,8.52-6.24c6.49-2.95,15,3.84,13.53,10.82a39.56,39.56,0,0,0,17.15-14.38c2.55,8.07,16.61,8,19.09-.07,1.29,4.32,4.79,8.17,9.24,8.9s9.45-2.5,9.8-7c5,6.5,15.26.66,20.41-5.7s13.13-14,20.09-9.69c5,3.07,5.74,10.88,11.09,13.22,6.73,3,12.76-4.92,16.89-11s14.19-11.11,17.64-4.62c.91,1.71.95,3.84,2.1,5.41,2.14,2.9,7,2.1,9.4-.62s2.88-6.54,3.29-10.13L447.3,558a65.94,65.94,0,0,1,14.41-18.25,56.92,56.92,0,0,0,11.22,19.44l7.55-13.11q4.26,7.2,8.53,14.38l7.3-6.3c1.7,5.12,3.8,10.63,8.44,13.39s12.31.39,12.42-5l6.42,7.91a153.3,153.3,0,0,0,20-21,70.76,70.76,0,0,0,15,25.71c1.79,2,3.79,3.89,6.31,4.73,8.55,2.85,15.26-7.41,18.45-15.82a107.58,107.58,0,0,0,11.74,15.1q4.94-7.25,9.88-14.47c-2.53,5.91,4.22,12.44,10.64,12.14s11.74-4.92,16.17-9.57a12.18,12.18,0,0,0,23,5.47C655.29,574.42,655.86,576.19,656.56,577.88Z"/><path class="cls-1" d="M122.53,644.76q.57,10,1.16,19.91Q130.62,782.33,137.54,900H0V0H151.48a576,576,0,0,0-17.75,187.85C160,170.56,187,152.94,217.67,145.92c26.35-6,53.93-3.86,80.57-8.42C376.79,124.08,436.7,54.91,515,40.13c-10.32,22.5-37.83,29.94-61.48,37.22s-50.43,22-51.3,46.77l74.51-5.88c5.53-.44,11.14-.89,16.36-2.79,5.86-2.14,10.91-6,16-9.61A285.82,285.82,0,0,1,622.21,57.59a367.69,367.69,0,0,1-91.37,47.65,146.68,146.68,0,0,0,85.47-5.79c23.33-8.94,44.52-23.93,69.05-28.64s55.19,6.06,60.21,30.53C734.63,85.27,711.92,82,692.81,85.57c-27,5-50.78,20.1-76,30.85-69.79,29.72-148.5,25.64-224.23,30S235,167.63,186.19,225.74c-15.32,18.25-26.42,39.6-37.4,60.75l-23.23,44.73c-2.42,4.68-4.92,9.64-4.66,14.9.19,4,1.93,7.67,3.33,11.39,8.28,22,4.92,46.42,2.2,69.78q-.72,6.16-1.36,12.34a1074.54,1074.54,0,0,0-5.73,124c.18,15.54.7,31.07,1.4,46.59C121.26,621.75,121.88,633.26,122.53,644.76Z"/><path class="cls-4" d="M682.62,835.84c.55-.42,1.14-.8,1.72-1.16l5.66-3.51a10.23,10.23,0,0,1,4.12-1.79,10.37,10.37,0,0,1,5.18,1.26l8.87,3.88a4.68,4.68,0,0,0-.17.53,22,22,0,0,0-.52,5.79,12.15,12.15,0,0,0,.21,2.83c-1.88.84-4,1.34-5.7,2.51-1.33.92-2.4,2.22-3.85,2.93a8.41,8.41,0,0,1-4.58.59,20.36,20.36,0,0,1-10.08-4.11,8.94,8.94,0,0,1-3.34-4.27,4.29,4.29,0,0,1-.11-1.89A6,6,0,0,1,682.62,835.84Z"/><path class="cls-5" d="M655.83,812.09a12.77,12.77,0,0,1,6.19-1.15c5.23.39,9.47,4.21,13.27,7.82a65.36,65.36,0,0,1,5.2,5.33,8.44,8.44,0,0,1,2.06,3.68,13.3,13.3,0,0,1-.09,3.67,18,18,0,0,0,.16,4.4,6,6,0,0,0-2.59,3.59,4.29,4.29,0,0,0,.11,1.89c-.78.42-1.55.93-2.34,1.32-2.44,1.19-5.27,1.23-8,1.06-8.42-.55-16.86-3-25.18-1.55-2.36.4-4.73,1.1-7.1.78s-4.78-2.1-4.79-4.49,2.1-4,3.83-5.62c3-2.77,5.25-6.2,7.59-9.56,1-1.44,2-2.87,3.11-4.23A23.74,23.74,0,0,1,655.83,812.09Z"/><path class="cls-4" d="M636.67,789.38l22.69,11.19a16,16,0,0,0-3.53,11.52,23.74,23.74,0,0,0-8.54,6.94c-1.1,1.36-2.11,2.79-3.11,4.23-2-.5-3.93-1.34-5.9-1.92-10-2.94-20.49.66-30.77,2.08a73.52,73.52,0,0,1-18.63.18c-4.86-.58-9.82-1.72-13.81-4.57s-6.81-7.74-6.05-12.58a15.85,15.85,0,0,1,3.19-6.82c4.29-5.76,10.38-9.87,16.34-13.87a11.06,11.06,0,0,1,8.38-2.48l17.11.39a54.52,54.52,0,0,1,10.61.93C628.87,785.54,632.79,787.47,636.67,789.38Z"/><path class="cls-9" d="M556.74,781.42c2.6,3.08-1.17,7.64-5,8.89A19.07,19.07,0,0,1,536,788.37c-.25,4.26-1.5,9.68-5.72,10.27-3.08.43-6-2.23-9-1.82-4.79.62-6.8,8-11.62,7.9-2.4,0-4.48-2.06-6.88-1.9s-4.28,2.69-6.68,3.55c-4.37,1.57-8.92-2.71-13.52-2.09-7.48,1-10,13.74-17.52,12.81-1.93-.24-3.6-1.45-5.48-1.94-6.79-1.78-13.44,6-20.19,4.1-5.75-1.62-9.61-9.82-15.29-8-2.61.86-4.11,3.66-6.59,4.84a9.91,9.91,0,0,1-4.71.7c-5-.22-9.86-1.72-14.64-3.2l-20.85-6.46a18.11,18.11,0,0,0-6.4-1.17c-4.07.24-8,3.18-11.91,2-1.57-.46-2.93-1.56-4.54-1.86-4.49-.84-7.44,4.32-9.59,8.34s-7.43,8.07-10.67,4.85c-1.3-1.3-1.58-3.34-2.73-4.77-2.29-2.84-6.85-2.15-10-.38s-6.11,4.4-9.73,4.77c-6.15.64-11.69-5.46-17.75-4.26-1.71.33-3.4,1.25-5.09.85-2.12-.49-3.22-2.74-4.65-4.38-4.94-5.69-15.88-5.81-17.51-13.17-1.37-6.18,5.24-11.15,11-13.78l10-2.32a6.31,6.31,0,0,1,.32-8.06c2.55-2.66,7.73-3.65,7.59-7.33a8.53,8.53,0,0,0-1.07-3.07c-3.18-7.07,1.28-16.48,8.77-18.49,1.59-.42,3.3-.57,4.68-1.46,1.86-1.19,2.74-3.45,4.38-4.93,5.13-4.67,14.18.33,20-3.44a10.2,10.2,0,0,1,3-1.8c2.06-.49,3.92,1.15,5.66,2.35,5.87,4.07,13.89,3.82,20.51,1.16s12.17-7.39,17.58-12c1.42-1.23,2.9-2.54,3.48-4.33.49-1.5.28-3.21,1-4.6s2.28-2.21,3.72-2.91l27.19-13.19a3.85,3.85,0,0,1,2.77-.55,3.78,3.78,0,0,1,1.9,2.06q3.06,5.81,5.56,11.88c.85,2.08,1.79,4.35,3.74,5.47,3,1.74,7,0,10.26,1.08,5,1.66,6,8.69,10.62,11.3,2,1.14,4.37,1.27,6.66,1.44,14.59,1.09,28.83,4.8,43,8.5,2.62.68,5.33,1.41,7.44,3.1s3.49,4.63,2.54,7.17c-.41,1.09-1.21,2-1.35,3.19-.3,2.5,2.49,4.16,4.89,4.93a48.16,48.16,0,0,0,14.59,2.3c6.68,0,15.18-.39,18,5.68,1.6,3.52.6,8.41,3.69,10.74C551.05,779.85,554.84,779.17,556.74,781.42Z"/></svg>