<svg id="Layer_4" data-name="Layer 4" xmlns="http://www.w3.org/2000/svg" viewBox="0 0 116.11 148.16"><defs><style>.cls-1{fill:#736357;}.cls-2{fill:#603813;}.cls-3{fill:#534741;}.cls-4{fill:#ff0;}.cls-5{fill:#f7931e;}.cls-6{fill:#42210b;}</style></defs><title>BÅL</title><path class="cls-1" d="M1081.83,645.48a30.77,30.77,0,0,0-2.27-7.44,30.09,30.09,0,0,0-1.72-3.34,1.18,1.18,0,0,1-.25-1,1.07,1.07,0,0,1,.37-.42l2.53-2.12a6.17,6.17,0,0,1,1.58-1.06,5.74,5.74,0,0,1,1.48-.31,60.83,60.83,0,0,1,12.57.47,7.63,7.63,0,0,1,4,1.2,5.42,5.42,0,0,1,1.78,3.43c.73,4.46-2,8.85-5.37,11.84a9.75,9.75,0,0,1-5.22,2.71c-2.37.25-4.64-.92-6.75-2-.83-.45-1.76-1-1.93-2l-.17-.25-.57.37Z" transform="translate(-985.9 -504.67)"/><path class="cls-2" d="M1041.5,626.26l.6-.34a15.61,15.61,0,0,0,1.67-1.11c.83-.65,1.57-1.42,2.43-2a17.22,17.22,0,0,1,4.7-2.18l.19-.07c4.9-1.65,9.9-3.11,14.53-5.43,3-1.49,6.17-3.39,9.41-2.61a1.93,1.93,0,0,1,1.63,2.1,13.09,13.09,0,0,1-1.15,5.41c-.7,1.89-1.47,3.89-3.06,5.13a10.74,10.74,0,0,1-2,1.14l-5.43,2.66a12.66,12.66,0,0,1-2.74,1.1,18.36,18.36,0,0,1-3,.32,40.59,40.59,0,0,0-7.69,1.46c-2.81.75-5.6,1.59-8.35,2.54h0a2.31,2.31,0,0,0-1.58.42,1,1,0,0,0-.16.2q-4.22,1.49-8.31,3.29a15.47,15.47,0,0,0-5.74-3.8c1.62-1,3.26-2,4.9-3q4-2.4,8.14-4.64Z" transform="translate(-985.9 -504.67)"/><path class="cls-3" d="M1067.32,642.29a20.32,20.32,0,0,1,3.44-2.83,9,9,0,0,1,3.09-1.51,9.8,9.8,0,0,1,2.65-.09l3.06.18a30.77,30.77,0,0,1,2.27,7.44l0,.07-1.63,1.07a17.9,17.9,0,0,1-2.16,1.26,16.07,16.07,0,0,1-4.81,1.07c-2.61.31-5.64.47-7.43-1.45a.69.69,0,0,1-.11-.13,2.06,2.06,0,0,1-.57-1.39,2.46,2.46,0,0,1,.27-1A10.05,10.05,0,0,1,1067.32,642.29Z" transform="translate(-985.9 -504.67)"/><path class="cls-1" d="M1067.32,642.29a10.05,10.05,0,0,0-1.88,2.74,2.46,2.46,0,0,0-.27,1,2.06,2.06,0,0,0,.57,1.39c-4.78,2.35-9.71,4.48-15,5.14a14.21,14.21,0,0,1-6-.31,7.26,7.26,0,0,1-4.52-3.68,9.53,9.53,0,0,1-.23-6,32.59,32.59,0,0,0,1.17-6,3.08,3.08,0,0,1,.31-1.61c.58-.22,1.16-.42,1.74-.62h0l9.72-.11a24,24,0,0,1,4.87.28A13.67,13.67,0,0,1,1067.32,642.29Z" transform="translate(-985.9 -504.67)"/><path class="cls-4" d="M1054.92,558c2.88,5.32,6,11,5.18,17a22.8,22.8,0,0,1-2.21,6.53,71.27,71.27,0,0,1-19.59,24.82,8,8,0,0,0-1.91,1.93c-1.12,1.88-.6,4.76-2.44,6l-.93,0c-4.71-2-7.57-6.68-9.93-11.2-4.12-7.86-7.76-16.14-8.92-24.94-1.47-11.12,1.1-22.34,3.64-33.27a1.53,1.53,0,0,1,.46-.93,1.37,1.37,0,0,1,1.07-.15c3.32.64,4.74,4.51,5.56,7.8l2,8a3.1,3.1,0,0,0,.65,1.45,2,2,0,0,0,2.52.07,4.73,4.73,0,0,0,1.52-2.24c2.37-6.26-.09-13.29.76-19.93.63-4.94,3.07-9.44,5.46-13.81.19-.35.44-.75.83-.8.58-.08,1,.56,1.17,1.1A289,289,0,0,0,1054.92,558Z" transform="translate(-985.9 -504.67)"/><path class="cls-5" d="M1055,602.94c3.14-1,5.07-4.1,6.74-6.95a25.53,25.53,0,0,0,4.78-16.25l.45-19.61c2.58,1,4.29,3.52,5.45,6,3,6.42,3.28,13.69,3.58,20.75l.33,8.13a8.87,8.87,0,0,1-.36,3.67c-1.27,3.2-5.45,3.82-8.88,3.94l-12.08.42Z" transform="translate(-985.9 -504.67)"/><path class="cls-6" d="M1053.78,614.48a2.45,2.45,0,0,1-.22,1.44,4.39,4.39,0,0,1-.84.94,6.26,6.26,0,0,0-1.82,3.72,17.22,17.22,0,0,0-4.7,2.18c-.86.63-1.6,1.4-2.43,2a15.61,15.61,0,0,1-1.67,1.11l-.45-.16a8.43,8.43,0,0,0,.27-2.24,32.63,32.63,0,0,1,0-4.74c.48-3.54,3.3-6.33,6.36-8.18a3.65,3.65,0,0,1,1.88-.66,2.82,2.82,0,0,1,1.69.76A5.66,5.66,0,0,1,1053.78,614.48Z" transform="translate(-985.9 -504.67)"/><path class="cls-2" d="M1041.65,625.76a2.21,2.21,0,0,1-.15.5l-1,.53q-4.11,2.25-8.14,4.64l-1.43-.52a38.79,38.79,0,0,1-7.25-4l-8.19-5.37a7,7,0,0,1-1.77-1.49,17.4,17.4,0,0,1-1.28-2.64,4.64,4.64,0,0,1-.63-1.4,2.19,2.19,0,0,1,1.24-2.09,6.4,6.4,0,0,1,2.5-.58,7.42,7.42,0,0,1,3.51.22,8.29,8.29,0,0,1,2.18,1.54C1027.14,620.08,1034.35,623.12,1041.65,625.76Z" transform="translate(-985.9 -504.67)"/><path class="cls-3" d="M1033.24,638.24a5.56,5.56,0,0,1,.42.54,8.26,8.26,0,0,1,.83,7.39,10.1,10.1,0,0,1-5.14,5.5,13.48,13.48,0,0,1-9,.71,17.64,17.64,0,0,1-2.48-.84,16.64,16.64,0,0,1-6.45-5,10.23,10.23,0,0,0,1.87-3.78,20.51,20.51,0,0,0,0-6c3-2.36,6.45-4.34,10.12-3.76a16.08,16.08,0,0,1,3.9,1.34l.15.07A15.47,15.47,0,0,1,1033.24,638.24Z" transform="translate(-985.9 -504.67)"/><path class="cls-5" d="M1025.57,518.7a9.7,9.7,0,0,1-1.87,6.66,4.07,4.07,0,0,0-.94,1.46,4.58,4.58,0,0,0,0,1.28,5.82,5.82,0,0,1-.83,3.43l-1.93.08c-1.13,0-2.47.44-3.28-.32a2.67,2.67,0,0,1-.63-1.72,62.71,62.71,0,0,1,1.84-23.14c.23-.82.7-1.81,1.55-1.76a1.66,1.66,0,0,1,.87.4c2.07,1.58,2.94,4.24,3.7,6.74A28.67,28.67,0,0,1,1025.57,518.7Z" transform="translate(-985.9 -504.67)"/><path class="cls-1" d="M1013.33,636.79a20.51,20.51,0,0,1,0,6,10.23,10.23,0,0,1-1.87,3.78,29.74,29.74,0,0,1-3.28,3.55,8.57,8.57,0,0,1-2.38,1.82,8.37,8.37,0,0,1-5,.09c-2.92-.57-6-1.32-8.13-3.37a16.84,16.84,0,0,1-3.41-5.55c-1.57-3.5-3.15-7.1-3.36-10.92-.11-2.17.37-4.6,2.14-5.86,1.35-1,3.13-1,4.79-1l15.65-.15.73-.75c.76-1.46,3.09-1.43,4.23-.24a5.39,5.39,0,0,1,1,4.67c-.27,1.63-.91,3.18-1.13,4.82A14.88,14.88,0,0,0,1013.33,636.79Z" transform="translate(-985.9 -504.67)"/><path class="cls-5" d="M1006.77,598.27l-.11.36a46.31,46.31,0,0,1-10.39-4.39,5.28,5.28,0,0,1-1.56-1.21,5.55,5.55,0,0,1-.69-1.35c-1.56-4-2.77-8.34-1.68-12.47.09-.36.3-.8.68-.8a.81.81,0,0,1,.46.17l3.62,2.14a9.73,9.73,0,0,1,2.76,2.12c1.45,1.8,1.44,4.32,1.87,6.58A15.77,15.77,0,0,0,1006.77,598.27Z" transform="translate(-985.9 -504.67)"/></svg>