<svg id="Layer_3" data-name="Layer 3" xmlns="http://www.w3.org/2000/svg" viewBox="0 0 173.11 248.86"><defs><style>.cls-1{fill:#fcee21;}.cls-2{fill:#ed1e79;}.cls-3{fill:#603813;}.cls-4{fill:#42210b;}.cls-5{fill:#fff;}.cls-6{fill:#f15a24;}.cls-7{fill:red;}.cls-8{fill:blue;}</style></defs><title>FIGUR1</title><path class="cls-1" d="M375.14,594.32c.93.53,2,1.67,1.27,2.48-.41.48-1.15.41-1.77.3l-5.24-.93a2.11,2.11,0,1,1-2.79,2.33c-2.14.85-1.79,4.68-4,5.33-1.44.42-2.84-1-3.09-2.52s.24-3,.42-4.47c.76-6.2-3.7-11.66-7.57-16.56-7.26-9.21-13.35-19.27-19.23-29.43.26-2.65.51-5.31.73-8,7.71,9.36,15.41,18.85,21.12,29.56,2.93,5.52,5.45,11.51,10.14,15.65C368.09,590.69,371.71,592.38,375.14,594.32Z" transform="translate(-203.54 -443.04)"/><path class="cls-2" d="M356.91,462.65c.56.78-.32,1.79-1.16,2.24a21.32,21.32,0,0,1-4.86,1.67l-20.5,5.26c-.44-1.41-.94-2.8-1.51-4.16a63.91,63.91,0,0,0,16.28-3.47c3.46-1.23,7.06-2.77,10.66-2.09A1.69,1.69,0,0,1,356.91,462.65Z" transform="translate(-203.54 -443.04)"/><path class="cls-1" d="M246.24,521.58a44.62,44.62,0,0,0-.74-9.5c-.76-3.87-2.16-7.61-3.22-11.41a37.74,37.74,0,0,1-1.23-5.94l3.61-.92a11.07,11.07,0,0,0,.72,3.65,1.24,1.24,0,0,0,.58.77,1.29,1.29,0,0,0,.94-.08l5.75-2a19.55,19.55,0,0,0-.22,3.33,5.51,5.51,0,0,0,6.28-1.35,9.12,9.12,0,0,1,1.48-1.67,5,5,0,0,1,3.06-.58,2.16,2.16,0,0,1,1.18.26c.72.52.49,1.65.09,2.44s-.9,1.73-.49,2.52a1.72,1.72,0,0,0,2.16.59,5,5,0,0,0,1.85-1.59l4.37-5.26c.55,2.28,1.09,4.57,1.63,6.85.12.49.31,1,.79,1.18s.95-.26,1.28-.65a14.9,14.9,0,0,0,1.59-16.54l-.09-.36L295,480.9l35.41-9.08a93.62,93.62,0,0,1,3.5,19.5,272.86,272.86,0,0,1,.86,39c-.21,4.2-.51,8.38-.88,12.57-.22,2.66-.47,5.32-.73,8-.29,2.9-.59,5.79-.89,8.69-.15,1.43-.3,2.88-.58,4.29l-.3-.12c-4.42-1.72-9.29-1.73-14-1.71l-45.62.15q-9.13,0-18.26.06c-.39-.78-.75-1.58-1.07-2.4a61.59,61.59,0,0,0-2.88-7.26c-1.48-2.68-3.82-5.15-5.48-7.74C244.49,537.07,246.09,529.28,246.24,521.58Zm77.56,9.35c2.93-1.4,5.32-4.32,5.25-7.56a4.34,4.34,0,0,0-1.88-3.69,18.79,18.79,0,0,1-14.71,2.38c-4.62-1.3-8.81-3.74-13.22-5.62-.74-.32-1.65-.59-2.27-.08-.82.67-.32,2,.23,2.89,3.16,5.22,6.87,10.86,12.75,12.48a20.14,20.14,0,0,0,4.31.58C317.5,532.47,320.87,532.33,323.8,530.93Zm-.87-35.85a3.79,3.79,0,0,0,2.1-5c.15-1.54-2.44-2.6-3.95-2.29a4,4,0,0,0-3,4.67A3.9,3.9,0,0,0,322.93,495.08Zm-18.54,1.66c1.82-.66,3.67-2.22,3.37-4.13a3.94,3.94,0,0,0-4.11-3.26,3.62,3.62,0,0,0-3.07,4.13A4.73,4.73,0,0,0,304.39,496.74Z" transform="translate(-203.54 -443.04)"/><path class="cls-3" d="M243.84,591.28q-.74-11.88-1.5-23.77a5.68,5.68,0,0,1,.58-3.63,3.27,3.27,0,0,1,1.65-1.21,8.57,8.57,0,0,1,2.87-.43,48.21,48.21,0,0,0,2.34,4.79c4.3,7.53,11.39,13,18.51,18,3.64,2.54,7.58,5.3,9,9.52.65,2,.94,4.52,2.88,5.31,1.53.1,2-2.07,1.64-3.54s-1.17-3.17-.26-4.41a15.12,15.12,0,0,0,6.87,1.2l-5-5.29a14.25,14.25,0,0,1,5.7-1.68c0-1.52-1.74-2.49-3.26-2.41s-2.92.83-4.41,1.12c-3.82.76-7.54-1.5-10.68-3.8-6.95-5.07-13.56-11.13-17.32-18.8q9.13,0,18.26-.06l45.62-.15c4.74,0,9.61,0,14,1.71l.3.12a3.51,3.51,0,0,1,1.42,1,4.52,4.52,0,0,1,.74,2.56,147.93,147.93,0,0,1-2.75,41.77c-.39,1.87-.89,3.85-2.3,5.15a8.06,8.06,0,0,1-3.29,1.62,43.56,43.56,0,0,1-11.62,1.46c-1.27,0-2.54,0-3.81,0h-2.32l-45,0h-9.63a13.73,13.73,0,0,1-5.78-.83c-1.79-.83-3.25-2.7-2.94-4.64l.76-.05q-.28-4.35-.55-8.7Q244.22,597.22,243.84,591.28Z" transform="translate(-203.54 -443.04)"/><path class="cls-4" d="M332.25,682.3a20.36,20.36,0,0,1,.36,7,2.19,2.19,0,0,1-2.79,2.46q-14.75-.09-29.48-.46a3.85,3.85,0,0,1-1.69-.31c-1-.53-1.28-1.79-1.41-2.9-.42-3.4-.25-7.08,1.66-9.92.5-.75,1.11-1.42,1.55-2.19,1.26-2.23,1-5,.85-7.51a1.82,1.82,0,0,1,.32-1.41c.51-.52,1.37-.26,2.1-.27a2.57,2.57,0,0,0,2.07-1.21,4.28,4.28,0,0,0,3.88,2.31,1.37,1.37,0,0,0,.95-.4,1.64,1.64,0,0,0,.32-.87c0-.17,0-.33.08-.5,1-.18,2.09-.7,3-.19,1.18.7.79,2.44.63,3.8a7.28,7.28,0,0,0,6.39,7.77c2.25.18,4.55-.72,6.73-.14A7,7,0,0,1,332.25,682.3Z" transform="translate(-203.54 -443.04)"/><path class="cls-2" d="M241.62,485.38a65.7,65.7,0,0,1,2-7.29c2.47-7.4,5.62-14.83,11.15-20.34,6.44-6.41,15.38-9.51,24-12.42a36.84,36.84,0,0,1,9-2.23,31.57,31.57,0,0,1,7.26.48,56.86,56.86,0,0,1,14.21,3.75,36.91,36.91,0,0,1,15.63,13,40.41,40.41,0,0,1,3.94,7.36c.57,1.36,1.07,2.75,1.51,4.16L295,480.9l-17.37,4.46-32.95,8.45-3.61.92c-.07-.52-.11-1.05-.14-1.58A29.47,29.47,0,0,1,241.62,485.38Z" transform="translate(-203.54 -443.04)"/><path class="cls-5" d="M329,523.37c.07,3.24-2.32,6.16-5.25,7.56s-6.3,1.54-9.54,1.38a20.14,20.14,0,0,1-4.31-.58c-5.88-1.62-9.59-7.26-12.75-12.48-.55-.91-1.05-2.22-.23-2.89.62-.51,1.53-.24,2.27.08,4.41,1.88,8.6,4.32,13.22,5.62a18.79,18.79,0,0,0,14.71-2.38A4.34,4.34,0,0,1,329,523.37Z" transform="translate(-203.54 -443.04)"/><path d="M325,490a3.79,3.79,0,0,1-2.1,5,3.9,3.9,0,0,1-4.82-2.66,4,4,0,0,1,3-4.67C322.59,487.44,325.18,488.5,325,490Z" transform="translate(-203.54 -443.04)"/><path class="cls-1" d="M305.79,665.55a5.91,5.91,0,0,1-.81-2.32c-.29-2.41.62-4.79,1.39-7.09a69,69,0,0,0,1.37-38.77h2.32c1.27,0,2.54,0,3.81,0v.52a44.29,44.29,0,0,1,2.06,17.07c-.19,2.55-.61,5.09-1,7.62Q313,654.32,311,666.09c0,.17-.05.33-.08.5a1.64,1.64,0,0,1-.32.87,1.37,1.37,0,0,1-.95.4A4.28,4.28,0,0,1,305.79,665.55Z" transform="translate(-203.54 -443.04)"/><path d="M307.76,492.61c.3,1.91-1.55,3.47-3.37,4.13a4.73,4.73,0,0,1-3.81-3.26,3.62,3.62,0,0,1,3.07-4.13A3.94,3.94,0,0,1,307.76,492.61Z" transform="translate(-203.54 -443.04)"/><path class="cls-1" d="M285.87,583.69c1.52-.08,3.29.89,3.26,2.41a14.25,14.25,0,0,0-5.7,1.68l5,5.29a15.12,15.12,0,0,1-6.87-1.2c-.91,1.24-.16,2.93.26,4.41s-.11,3.64-1.64,3.54c-1.94-.79-2.23-3.33-2.88-5.31-1.38-4.22-5.32-7-9-9.52-7.12-4.95-14.21-10.43-18.51-18a48.21,48.21,0,0,1-2.34-4.79h.41l5.61,0c3.76,7.67,10.37,13.73,17.32,18.8,3.14,2.3,6.86,4.56,10.68,3.8C282.95,584.52,284.35,583.77,285.87,583.69Z" transform="translate(-203.54 -443.04)"/><path class="cls-4" d="M280.86,689.89a1.17,1.17,0,0,1-.11.74,1.15,1.15,0,0,1-.94.33l-33,.93a3.37,3.37,0,0,1-1.78-.28,2.9,2.9,0,0,1-1.17-2.13,9.48,9.48,0,0,1,3.36-8.74,8.33,8.33,0,0,0,2.37-2.2,5.24,5.24,0,0,0,.25-3.37,17.68,17.68,0,0,1-.49-5.68c.31-1.88,1.71-3.76,3.61-3.87a3.11,3.11,0,0,0,1.59-.23.45.45,0,0,0,.13-.11c1.12,1.48,3.64,2,4.71.49a.86.86,0,0,0,.1-.16,8.25,8.25,0,0,1,3.88,7,10.12,10.12,0,0,0,.1,3.39c.82,2.47,4.14,2.9,6.7,2.45s5.41-1.27,7.59.15,2.59,4.38,2.79,7Z" transform="translate(-203.54 -443.04)"/><path class="cls-4" d="M277.7,485.72a14.9,14.9,0,0,1-1.59,16.54c-.33.39-.8.79-1.28.65s-.67-.69-.79-1.18c-.54-2.28-1.08-4.57-1.63-6.85L268,500.14a5,5,0,0,1-1.85,1.59,1.72,1.72,0,0,1-2.16-.59c-.41-.79.09-1.72.49-2.52s.63-1.92-.09-2.44a2.16,2.16,0,0,0-1.18-.26,5,5,0,0,0-3.06.58,9.12,9.12,0,0,0-1.48,1.67,5.51,5.51,0,0,1-6.28,1.35,19.55,19.55,0,0,1,.22-3.33l-5.75,2a1.29,1.29,0,0,1-.94.08,1.24,1.24,0,0,1-.58-.77,11.07,11.07,0,0,1-.72-3.65l32.95-8.45Z" transform="translate(-203.54 -443.04)"/><path class="cls-1" d="M254.66,665.28l-.12-.16c-1-1.61-.95-3.67-.81-5.58q1.52-21.08,3-42.14h6A266,266,0,0,0,259.89,663a4.81,4.81,0,0,1-.42,2.59.86.86,0,0,1-.1.16C258.3,667.28,255.78,666.76,254.66,665.28Z" transform="translate(-203.54 -443.04)"/><path class="cls-1" d="M253.46,562.21l-5.61,0h-.41c-1.16-2.68-2.2-5.42-3.46-8-.12-2.89-.15-5.79,0-8.68,0-.24,0-.49.05-.73,1.66,2.59,4,5.06,5.48,7.74a61.59,61.59,0,0,1,2.88,7.26C252.71,560.63,253.07,561.43,253.46,562.21Z" transform="translate(-203.54 -443.04)"/><path class="cls-6" d="M210.63,531.49a13.16,13.16,0,0,1-1.61-.64,3.63,3.63,0,0,1-1.56-1.19A3.43,3.43,0,0,1,207,528c-.26-5.19,3.71-9.48,6.14-14.07q.2-.36.36-.72c.69-.55,1.34-1.17,2-1.77,2.61-2.43,5.43-4.86,8.88-5.78,3-.78,6.49-.51,9.2-1.58a23.84,23.84,0,0,0,3.91.66,4.23,4.23,0,0,0,2.15-.21,3.61,3.61,0,0,0,1.51-1.49,10.82,10.82,0,0,0,1.11-2.36c1.06,3.8,2.46,7.54,3.22,11.41a44.62,44.62,0,0,1,.74,9.5c-.41.3-.84.56-1.25.82l-9.65,5.9a14.17,14.17,0,0,1-3.84,1.85c-1.85.46-3.79.15-5.68.26-3.11.18-6.07,1.48-9.17,1.78A14.63,14.63,0,0,1,210.63,531.49Z" transform="translate(-203.54 -443.04)"/><path class="cls-1" d="M244.4,560.7c-.18-2.16-.33-4.32-.42-6.48,1.26,2.6,2.3,5.34,3.46,8a8.57,8.57,0,0,0-2.87.43C244.51,562,244.45,561.35,244.4,560.7Z" transform="translate(-203.54 -443.04)"/><path class="cls-7" d="M244,544.81c0,.24,0,.49-.05.73-.15,2.89-.12,5.79,0,8.68.09,2.16.24,4.32.42,6.48a88.34,88.34,0,0,0-16.88,1c-1.28.2-2.71.52-3.44,1.6a5,5,0,0,0-.63,2c-.5,2.91-1,5.82-1.49,8.74a14.46,14.46,0,0,0-.26,4.9,13.56,13.56,0,0,0,1.58,3.94,28.86,28.86,0,0,0,5.55,7.82,11.57,11.57,0,0,0,8.72,3.33,13,13,0,0,0,6.29-2.76q.39,6,.76,11.9a7.58,7.58,0,0,1-2.26,1.53,13.43,13.43,0,0,1-6.12.66c-5.3-.23-11.13-.7-14.87-4.47-2-2.08-3.16-4.88-4.22-7.61-1.68-4.34-3.37-8.69-4.67-13.15-3.48-12-4.14-24.58-3.71-37,.13-3.93.43-8,1.88-11.63a14.63,14.63,0,0,0,6,.7c3.1-.3,6.06-1.6,9.17-1.78,1.89-.11,3.83.2,5.68-.26a14.17,14.17,0,0,0,3.84-1.85l9.65-5.9c.41-.26.84-.52,1.25-.82C246.09,529.28,244.49,537.07,244,544.81Z" transform="translate(-203.54 -443.04)"/><path class="cls-6" d="M244.4,560.7c0,.65.11,1.31.17,2a3.27,3.27,0,0,0-1.65,1.21,5.68,5.68,0,0,0-.58,3.63q.75,11.89,1.5,23.77a13,13,0,0,1-6.29,2.76,11.57,11.57,0,0,1-8.72-3.33,28.86,28.86,0,0,1-5.55-7.82,13.56,13.56,0,0,1-1.58-3.94A14.46,14.46,0,0,1,222,574c.5-2.92,1-5.83,1.49-8.74a5,5,0,0,1,.63-2c.73-1.08,2.16-1.4,3.44-1.6A88.34,88.34,0,0,1,244.4,560.7Z" transform="translate(-203.54 -443.04)"/><path class="cls-8" d="M228.27,481c1.36-1.95,3.69-3.38,6-3,2.6.44,4.36,2.87,5.46,5.26.41.88,1,1.93,1.86,2.14a29.47,29.47,0,0,0-.71,7.77c0,.53.07,1.06.14,1.58a37.74,37.74,0,0,0,1.23,5.94,10.82,10.82,0,0,1-1.11,2.36,3.61,3.61,0,0,1-1.51,1.49,4.23,4.23,0,0,1-2.15.21,23.84,23.84,0,0,1-3.91-.66,11,11,0,0,1-5.68-3.28c-2.86-3.35-2.6-8.29-1.95-12.65a17.12,17.12,0,0,1,2.16-7Z" transform="translate(-203.54 -443.04)"/><path class="cls-8" d="M213.53,513.2a10.14,10.14,0,0,1-2,1.28,5.17,5.17,0,0,1-4.85,0c-1.75-1.1-2.29-3.38-2.59-5.43-.65-4.38-.92-8.93.47-13.13a20.78,20.78,0,0,1,10.09-11.44A32.17,32.17,0,0,1,228.27,481l-.14.21a17.12,17.12,0,0,0-2.16,7c-.65,4.36-.91,9.3,1.95,12.65a11,11,0,0,0,5.68,3.28c-2.71,1.07-6.23.8-9.2,1.58-3.45.92-6.27,3.35-8.88,5.78C214.87,512,214.22,512.65,213.53,513.2Z" transform="translate(-203.54 -443.04)"/></svg>