<svg id="Layer_5" data-name="Layer 5" xmlns="http://www.w3.org/2000/svg" viewBox="0 0 228.78 232.68"><defs><style>.cls-1{fill:#39b54a;}.cls-2{fill:#006837;}.cls-3{fill:#fff;}.cls-4{fill:#42210b;}.cls-5{fill:#603813;}.cls-6{fill:#fcee21;}.cls-7{fill:blue;}.cls-8{fill:#f15a24;}.cls-9{fill:red;}</style></defs><title>FIGUR2</title><path class="cls-1" d="M1147.36,525.64l-2.64,5a28.77,28.77,0,0,1-2.52-5.81,13,13,0,0,1,.6-9.66c1.57-2.94,4.51-4.85,7.33-6.63,2-1.27,4.32-2.59,6.63-2.25-.31.87-.65,1.73-1,2.58-1.89,4.51-4.2,8.88-6.49,13.2C1148.63,523.24,1148,524.44,1147.36,525.64Z" transform="translate(-1120.68 -453.39)"/><path class="cls-2" d="M1166.2,467.82c1.72.07,2.66,2.94,1.44,4.15-1.21,4.43-4.23,8.14-5.84,12.44s-1.75,8.83-2.59,13.26a51.43,51.43,0,0,1-2.45,8.6c-2.31-.34-4.61,1-6.63,2.25-2.82,1.78-5.76,3.69-7.33,6.63a13,13,0,0,0-.6,9.66,28.77,28.77,0,0,0,2.52,5.81l-2.58,4.86c-1,1.87-2.07,3.83-3.92,4.85-3.16,1.74-7,0-10.21-1.62l-4.83-2.54a5.57,5.57,0,0,1-1.93-1.41c-1.57-2.09.42-4.93,2.19-6.85a70.74,70.74,0,0,0,14-22.75c1.56-4.11,2.79-8.46,5.53-11.9,3.17-4,8-6.3,11.32-10.2s4.64-8.72,7.65-12.63C1163,469.07,1164.49,467.76,1166.2,467.82Z" transform="translate(-1120.68 -453.39)"/><path class="cls-3" d="M1250.9,520.68c1.39,2.33-.13,5.27-1.67,7.51-2.68,3.89-5.75,7.88-10.19,9.5a24.59,24.59,0,0,1-7.7,1.06l-6.79.2a9.21,9.21,0,0,1-4-.49,8.54,8.54,0,0,1-2.56-2c-2.13-2.2-4.14-4.67-4.92-7.63s0-6.51,2.46-8.27a7.22,7.22,0,0,0,4.49,4,17,17,0,0,0,5.94.66A80.34,80.34,0,0,0,1250.9,520.68Z" transform="translate(-1120.68 -453.39)"/><path d="M1228.05,497.63c.72.56,1.43,1.11,1,1.92a9.52,9.52,0,0,1-2.15,3.3,3.26,3.26,0,0,1-3.66.61c-1.63-1-1.51-3.51-.39-5a4.25,4.25,0,0,1,2.43-1.73A2.64,2.64,0,0,1,1228.05,497.63Z" transform="translate(-1120.68 -453.39)"/><path d="M1241.43,496.55c2.2,0,5.9,1.6,5.56,4.77a3,3,0,0,1-2.21,2.23,6.4,6.4,0,0,1-6.28-2.44,3.06,3.06,0,0,1,.17-3.56A3.79,3.79,0,0,1,1241.43,496.55Z" transform="translate(-1120.68 -453.39)"/><path d="M1310.39,500.72a3.79,3.79,0,0,1,.62,2.14c-.15.86-1,1.39-1.81,1.75a18.32,18.32,0,0,1-2.77,1,32.58,32.58,0,0,0-.26-11.53c-1.53-6.64-5.94-12.25-10.81-17a84.09,84.09,0,0,0-13.94-11,26.64,26.64,0,0,0-7.58-3.55c-3.69-.92-7.55-.49-11.36-.4s-7.83-.14-11.75-.18a57.89,57.89,0,0,1,10.63-7.62c1.36-.76,3.14-1.43,4.34-.46a8.85,8.85,0,0,1,1.32,1.81c1.4,1.84,4.07,1.93,6.38,1.86l9.89-.32c1.68-.06,3.54-.05,4.8,1.06s1.08,3.72-.58,4l10.47,6.09a5.73,5.73,0,0,1,2.08,1.69,9.15,9.15,0,0,1,.82,2.8c1.35,5.62,8.26,8.58,9.53,14.21C1311.42,491.56,1308.49,496.52,1310.39,500.72Z" transform="translate(-1120.68 -453.39)"/><path class="cls-4" d="M1166.64,636.7a33.15,33.15,0,0,1,5.09,1.72l.26.11c2.13.93,4.66,2.55,4.24,4.84-.38,2.07-2.91,2.86-4.31,4.44-2,2.19-1.47,5.54-1.92,8.45a12.23,12.23,0,0,1-1.71,4.57,2.44,2.44,0,0,1-1,1,2.35,2.35,0,0,1-1.46,0c-3.31-.81-5.87-3.48-9.11-4.54-2.84-.92-6-.52-8.87-1.19-3.78-.88-6.9-3.47-9.87-6-2-1.65-4.1-4.26-2.78-6.46a5.46,5.46,0,0,1,1.69-1.55c3.23-2.24,7-4.58,10.82-3.66a38.58,38.58,0,0,1,4.48,1.87c1.51.57,3.35.76,4.64-.22a9.42,9.42,0,0,0,1.8-2.34C1160,635.77,1163.4,635.91,1166.64,636.7Z" transform="translate(-1120.68 -453.39)"/><path class="cls-4" d="M1221.4,656.75c1.35.11,2.63.27,3.6.34l.45,0a4.91,4.91,0,0,1,3.88,5.93c-.29,1-.92,1.92-1.31,2.91-2,5,2.32,10.64.85,15.79a1.92,1.92,0,0,1-.5.93,2.22,2.22,0,0,1-1.55.37,105.08,105.08,0,0,1-28.91-4.73c-2.29-.71-5-2.26-4.66-4.63.13-.8.63-1.49.82-2.27.25-1,0-2.16.62-3a3,3,0,0,1,1.48-.94c2.81-1,5.88-.9,8.83-1.34s6.1-1.69,7.43-4.36c.61-1.22.79-2.63,1.56-3.76C1215.06,656.47,1218.4,656.5,1221.4,656.75Z" transform="translate(-1120.68 -453.39)"/><path class="cls-5" d="M1274.5,627.17a12.78,12.78,0,0,1-6.32,5.76c-2.86,1.09-6,.83-9.07.51q-10.23-1.1-20.37-2.88-4-.7-7.9-1.51-2.76-.57-5.51-1.18-12-2.72-23.85-6.4a22,22,0,0,1-7.61-3.55,11.37,11.37,0,0,1-1.69-1.71,13.93,13.93,0,0,1-2.67-5.73,25.75,25.75,0,0,1,.41-11.67c1.69-6.67,4.93-13,5.19-19.9.19-4.89-.91-10.54,2.47-14.08a7.64,7.64,0,0,1,3.07-1.94c3.36-1.15,7.58-.34,11.21.62,12,3.19,24.06,6.39,35.68,10.8a77.41,77.41,0,0,0,8.38,2.88c7.5,1.87,15.39.9,23.11,1.48,2.3.17,5,.84,5.73,3l-.08.06a7.76,7.76,0,0,1,1,1.78,10.67,10.67,0,0,1,.76,4,26.32,26.32,0,0,1-1.48,7.66q-3.42,11.52-6.86,23A39.88,39.88,0,0,1,1274.5,627.17Z" transform="translate(-1120.68 -453.39)"/><path class="cls-6" d="M1202.13,553.21c-.43,1.83-.9,3.66-1.2,5.47a72.45,72.45,0,0,1-40.55-25.77,18.66,18.66,0,0,0-3.63-3.94c-2.71-1.94-6.32-2.09-9.39-3.33.64-1.2,1.27-2.4,1.91-3.59,2.29-4.32,4.6-8.69,6.49-13.2,2.2.45,4.31,1.3,5.24,3.25.68,1.41.53,3,.57,4.61.18,8.1,5.45,15.23,11.44,20.68A70.15,70.15,0,0,0,1202.13,553.21Z" transform="translate(-1120.68 -453.39)"/><path class="cls-6" d="M1189.51,610.48a13.93,13.93,0,0,0,2.67,5.73c-4.31.42-8.36,2.92-11.32,6.17-3.49,3.81-5.73,8.56-7.93,13.24-.43.92-.86,1.85-1.2,2.8a33.15,33.15,0,0,0-5.09-1.72,42,42,0,0,1,2-5.28c2.14-4.88,4.56-9.72,8.13-13.68C1180.1,614,1184.58,611.14,1189.51,610.48Z" transform="translate(-1120.68 -453.39)"/><path class="cls-6" d="M1225.33,627.87q2.75.61,5.51,1.18a18.62,18.62,0,0,0-4,4.38c-2.34,3.77-2.41,8.47-2.4,12.91a71.4,71.4,0,0,0,.59,10.75c-1-.07-2.25-.23-3.6-.34a90.33,90.33,0,0,1-.88-17,21.31,21.31,0,0,1,1.45-7.81A9.56,9.56,0,0,1,1225.33,627.87Z" transform="translate(-1120.68 -453.39)"/><path class="cls-6" d="M1250.73,462c3.92,0,7.9.28,11.75.18s7.67-.52,11.36.4a26.64,26.64,0,0,1,7.58,3.55,84.09,84.09,0,0,1,13.94,11c4.87,4.76,9.28,10.37,10.81,17a32.58,32.58,0,0,1,.26,11.53c-.28,2.26-.7,4.52-1.14,6.75q-5.46,27.84-13.57,55a91.66,91.66,0,0,1-6,16.1l0,0a7.76,7.76,0,0,0-1-1.78l.08-.06c-.68-2.2-3.43-2.87-5.73-3-7.72-.58-15.61.39-23.11-1.48a77.41,77.41,0,0,1-8.38-2.88c-11.62-4.41-23.66-7.61-35.68-10.8-3.63-1-7.85-1.77-11.21-.62a19.41,19.41,0,0,1,.28-4.21c.3-1.81.77-3.64,1.2-5.47.3-1.27.58-2.54.77-3.8.33-2.23.36-4.5.55-6.75a99.56,99.56,0,0,1,2.73-14.6l3.72-15.51c3-12.4,6-25,12.49-36,2.49-4.22,5.55-8.24,9.72-10.83C1237.63,462.31,1244.11,461.87,1250.73,462Zm-1.5,66.24c1.54-2.24,3.06-5.18,1.67-7.51a80.34,80.34,0,0,1-25,4.53,17,17,0,0,1-5.94-.66,7.22,7.22,0,0,1-4.49-4c-2.5,1.76-3.24,5.31-2.46,8.27s2.79,5.43,4.92,7.63a8.54,8.54,0,0,0,2.56,2,9.21,9.21,0,0,0,4,.49l6.79-.2a24.59,24.59,0,0,0,7.7-1.06C1243.48,536.07,1246.55,532.08,1249.23,528.19ZM1247,501.32c.34-3.17-3.36-4.81-5.56-4.77a3.79,3.79,0,0,0-2.76,1,3.06,3.06,0,0,0-.17,3.56,6.4,6.4,0,0,0,6.28,2.44A3,3,0,0,0,1247,501.32Zm-17.89-1.77c.38-.81-.33-1.36-1-1.92a2.64,2.64,0,0,0-2.72-.95,4.25,4.25,0,0,0-2.43,1.73c-1.12,1.54-1.24,4.08.39,5a3.26,3.26,0,0,0,3.66-.61A9.52,9.52,0,0,0,1229.1,499.55Z" transform="translate(-1120.68 -453.39)"/><path class="cls-7" d="M1349.1,677.9a5.74,5.74,0,0,1-1.29,2.34c-1.39,1.47-3.54,1.91-5.56,2a25.32,25.32,0,0,1-19.23-7.51,16.87,16.87,0,0,0,1.69-4.84c.31-1.41.56-2.87.73-4.33a15.66,15.66,0,0,1,3.69-.72c3.77-.42,7.71-.74,11.23.67,4,1.59,6.8,5.17,8.79,9a4.54,4.54,0,0,1,.3.67A10.42,10.42,0,0,1,1349.1,677.9Z" transform="translate(-1120.68 -453.39)"/><path class="cls-7" d="M1349.41,673.49a15.21,15.21,0,0,1,0,1.66,4.54,4.54,0,0,0-.3-.67c-2-3.78-4.82-7.36-8.79-9-3.52-1.41-7.46-1.09-11.23-.67a15.66,15.66,0,0,0-3.69.72c.67-5.74,0-11.68-3.33-16.25a23.13,23.13,0,0,0-1.94-2.26l3.64-4.44a9.16,9.16,0,0,1,3.54-3c2.06-.78,4.36,0,6.42.83a19.8,19.8,0,0,1,6.42,3.48c2.56,2.37,3.67,5.86,4.68,9.19C1346.9,659.77,1349,666.53,1349.41,673.49Z" transform="translate(-1120.68 -453.39)"/><path class="cls-8" d="M1272.23,642.44c0,3.15,0,6.3,0,9.44a5.74,5.74,0,0,1-.52,2.94c-.82,1.39-2.69,1.82-4.28,1.58a42,42,0,0,1-4.63-1.43c-3.64-1-7.51-.21-11.29-.38s-8-1.87-9-5.52c-.6-2.21.21-4.57,1.33-6.58s2.49-2.71,3.34-4.85c1.45-2.25,4.31-3.28,7-3.23a23.87,23.87,0,0,1,7.78,2l8,3a2.66,2.66,0,0,1,2.28,3.09Z" transform="translate(-1120.68 -453.39)"/><path class="cls-8" d="M1323,674.75a7.81,7.81,0,0,1-.81,1.19,11.5,11.5,0,0,1-5.46,3.39,25.61,25.61,0,0,1-6.57,1.17,57.56,57.56,0,0,1-6.39-27.6,35.44,35.44,0,0,1,2.28-12.55,13.69,13.69,0,0,1,2.3-3.9l.26.08a11.41,11.41,0,0,1,4,3l6.29,6.3c.42.42.83.83,1.24,1.26a23.13,23.13,0,0,1,1.94,2.26c3.38,4.57,4,10.51,3.33,16.25-.17,1.46-.42,2.92-.73,4.33A16.87,16.87,0,0,1,1323,674.75Z" transform="translate(-1120.68 -453.39)"/><path class="cls-9" d="M1305.52,680.47c-.78,0-1.55-.09-2.32-.16-2.92-.26-5.9-.64-8.76,0-3.14.71-5.87,2.6-8.86,3.8-5.29,2.12-11.18,2-16.88,1.9a35.32,35.32,0,0,1-9.18-1c-4.07-1.17-7.92-3.83-12.13-3.36a5.45,5.45,0,0,1-2.41,0,3.85,3.85,0,0,1-1.58-1.25c-5.62-6.51-8.23-14.93-10.31-23.34a33.47,33.47,0,0,0,19.54,10.12c6.29.86,12.69-.12,19,.3C1283.85,668.29,1295,674.1,1305.52,680.47Z" transform="translate(-1120.68 -453.39)"/><path class="cls-9" d="M1310.18,680.5a42.61,42.61,0,0,1-4.66,0c-10.56-6.37-21.67-12.18-33.87-13-6.33-.42-12.73.56-19-.3a33.47,33.47,0,0,1-19.54-10.12c-.32-1.29-.63-2.57-.93-3.85-.69-2.92-1.39-5.92-1-8.9.73-5.25,4.64-9.28,7.56-13.77q10.14,1.79,20.37,2.88c3,.32,6.21.58,9.07-.51a12.78,12.78,0,0,0,6.32-5.76l4.78-1.76a9.29,9.29,0,0,1,2.91-.73,8.36,8.36,0,0,1,4.61,1.68c5.6,3.61,10.67,8.84,17.3,9.57a21.68,21.68,0,0,1,4.27.52,13.69,13.69,0,0,0-2.3,3.9,35.44,35.44,0,0,0-2.28,12.55A57.56,57.56,0,0,0,1310.18,680.5Zm-37.9-28.62c0-3.14,0-6.29,0-9.44a2.66,2.66,0,0,0-2.28-3.09l-8-3a23.87,23.87,0,0,0-7.78-2c-2.68,0-5.54,1-7,3.23-.85,2.14-2.23,2.84-3.34,4.85s-1.93,4.37-1.33,6.58c1,3.65,5.25,5.35,9,5.52s7.65-.63,11.29.38a42,42,0,0,0,4.63,1.43c1.59.24,3.46-.19,4.28-1.58A5.74,5.74,0,0,0,1272.28,651.88Z" transform="translate(-1120.68 -453.39)"/></svg>