<svg id="Layer_2" data-name="Layer 2" xmlns="http://www.w3.org/2000/svg" viewBox="0 0 753.29 900"><defs><style>.cls-1{fill:#754c24;}.cls-2{fill:#f15a24;}.cls-3{fill:#fbb03b;}.cls-4{fill:#fcee21;}</style></defs><title>FORGRUND</title><path class="cls-1" d="M147.83,0c-14.57,65.27-18.14,123.49-14.42,190.26A199,199,0,0,1,252,139.56c24.47-1.74,49.7,1,73.08-6.43,13.81-4.39,26.26-12.14,38.55-19.82l63-39.32c4.44-2.78,9-5.69,11.86-10.1,7.23-11.28,2.06-30.34,14.12-36.17-1.09,10.44.06,24.31,10.25,26.8,6.9,1.68,13.37-3.37,19.49-7A53.87,53.87,0,0,1,526.17,43,376.34,376.34,0,0,0,418.79,93.62c-8.19,5.6-17,16.18-11,24,3.71,4.81,10.82,4.89,16.87,4.35A312,312,0,0,0,546.07,85.28c29.22-15.93,62.55-37.26,93-23.83a196.19,196.19,0,0,0-98.36,37.24c23.1,11.82,51.24,6.23,75.42-3.18S663.65,73,689.43,70.14s55.79,8.34,63.85,33c-24.84-16.87-58.22-20.39-86-9.06a47.84,47.84,0,0,1,26.24,16.07c-29.83-10.94-62.25,2.78-92.79,11.55-91,26.1-190.19,7.76-281.16,33.84C232.15,180.6,158,248.14,124.93,332.83c-2.25,5.76-4.35,11.79-4.06,18s2.93,12,4.88,17.83c9.38,28.31,2.67,59-1.83,88.53C103.32,592,133,763.65,137.54,900H0V0Z"/><path class="cls-2" d="M545.85,134.82l12,6.69a7.59,7.59,0,0,0,1.23-3.61,9.63,9.63,0,0,1,.21-2.06,1.78,1.78,0,0,1,1.41-1.35,5,5,0,0,0,.88,0c.78-.21.91-1.38,1.66-1.67s1.44.45,1.89,1.1c2.12-1.78,4.69-3.58,7.4-3.07,1.39.26,2.71,1.13,4.11.9.84-.14,1.68-.66,2.47-.34a5.07,5.07,0,0,1,1,.74,5.15,5.15,0,0,0,3.2.62,8.11,8.11,0,0,1-4.19,3.68c-.5.19-1.09.41-1.2.93,0,.21,0,.43,0,.64a1.8,1.8,0,0,1-.69,1l-3,2.77c-.43.39-.89.89-.78,1.46s.94.89,1.6.91a7.37,7.37,0,0,0,3.43-.73,3.88,3.88,0,0,1,2.48-.72,3,3,0,0,1,1.11.65l2,1.56a1.46,1.46,0,0,1,.58.72c.08.31-.16.7-.47.65a7,7,0,0,0,2.69.91l-1.27,2.11a4.65,4.65,0,0,0,5.63,2.45,5.51,5.51,0,0,0-.25,2.41,1.88,1.88,0,0,0,1.6,1.6l-.81,1.54a6.67,6.67,0,0,1,2.27,1.26c1.93,1.87,1,5.3,2.58,7.5.24.34.55.71.48,1.13a1.07,1.07,0,0,1-.87.74c-1.14.28-2.29-.31-3.42-.65s-2.61-.32-3.18.71l-2.15-2.38a3.56,3.56,0,0,0-3.69,2l-1-1.35-1.22,1.48a12.92,12.92,0,0,1-2-2.82c-.67-.94-1.94-1.69-2.94-1.11-.73.43-1,1.42-1.77,1.78a1.4,1.4,0,0,1-1.9-1.1l-1.36,1a44.29,44.29,0,0,0-4.27-8.59,3.73,3.73,0,0,0-1.15-1.28,1.35,1.35,0,0,0-1.61.1,2,2,0,0,0-.42,1.06l-.73,3.94a2.41,2.41,0,0,1-.46,1.2.83.83,0,0,1-1.15.14,11,11,0,0,0-.17,4,1.26,1.26,0,0,1-.83.08c-.69.38,0,1.64-.59,2.17-.39.35-1.05.06-1.29-.41a4,4,0,0,1-.25-1.53c-.18-2.07-1.64-3.76-3-5.3a1.64,1.64,0,0,0-1-.67c-.31,0-.61.14-.92.11-.83-.09-.89-1.27-.71-2.08l.85-3.9c.26-1.19.48-2.56-.26-3.52-.37-.48-.94-.79-1.29-1.28-1-1.38.14-3.24,1.23-4.54l2-2.4a.89.89,0,0,0,.29-.67.88.88,0,0,0-.41-.5,69.26,69.26,0,0,0-9.11-5.61c-.34-.18-.8-.32-.92-.68-.26-.76,0-.75.5-.53"/><path class="cls-3" d="M472.09,139.54l-6.69,12a7.59,7.59,0,0,0,3.61,1.23,9.63,9.63,0,0,1,2.06.21,1.78,1.78,0,0,1,1.35,1.41,5,5,0,0,0,0,.88c.21.78,1.38.91,1.67,1.66s-.45,1.44-1.1,1.89c1.78,2.12,3.58,4.69,3.07,7.4-.26,1.39-1.13,2.71-.9,4.11.14.84.66,1.68.34,2.47a5.07,5.07,0,0,1-.74,1,5.15,5.15,0,0,0-.62,3.2,8.11,8.11,0,0,1-3.68-4.19c-.19-.5-.41-1.09-.93-1.2-.21,0-.43,0-.64,0a1.8,1.8,0,0,1-1-.69l-2.77-3c-.39-.43-.89-.89-1.46-.78s-.89.94-.91,1.6a7.37,7.37,0,0,0,.73,3.43,3.88,3.88,0,0,1,.72,2.48,3,3,0,0,1-.65,1.11l-1.56,2a1.46,1.46,0,0,1-.72.58c-.31.08-.7-.16-.65-.47a7,7,0,0,0-.91,2.69l-2.11-1.27a4.65,4.65,0,0,0-2.45,5.63,5.51,5.51,0,0,0-2.41-.25,1.88,1.88,0,0,0-1.6,1.6l-1.54-.81a6.67,6.67,0,0,1-1.26,2.27c-1.87,1.93-5.3,1-7.5,2.58-.34.24-.71.55-1.13.48a1.07,1.07,0,0,1-.74-.87c-.28-1.14.31-2.29.65-3.42s.32-2.61-.71-3.18l2.38-2.15a3.56,3.56,0,0,0-2-3.69l1.35-1-1.48-1.22a12.92,12.92,0,0,1,2.82-2c.94-.67,1.69-1.94,1.11-2.94-.43-.73-1.42-1-1.78-1.77a1.4,1.4,0,0,1,1.1-1.9l-1-1.36A44.29,44.29,0,0,0,450,161a3.73,3.73,0,0,0,1.28-1.15,1.35,1.35,0,0,0-.1-1.61,2,2,0,0,0-1.06-.42l-3.94-.73a2.41,2.41,0,0,1-1.2-.46.83.83,0,0,1-.14-1.15,11,11,0,0,0-4-.17,1.26,1.26,0,0,1-.08-.83c-.38-.69-1.64,0-2.17-.59-.35-.39-.06-1.05.41-1.29a4,4,0,0,1,1.53-.25c2.07-.18,3.76-1.64,5.3-3a1.64,1.64,0,0,0,.67-1c0-.31-.14-.61-.11-.92.09-.83,1.27-.89,2.08-.71l3.9.85c1.19.26,2.56.48,3.52-.26.48-.37.79-.94,1.28-1.29,1.38-1,3.24.14,4.54,1.23l2.4,2a.89.89,0,0,0,.67.29.88.88,0,0,0,.5-.41,69.26,69.26,0,0,0,5.61-9.11c.18-.34.32-.8.68-.92.76-.26.75,0,.53.5"/><path class="cls-4" d="M592.84,110.19l4.71-8.45a5.35,5.35,0,0,0-2.54-.87,6.78,6.78,0,0,1-1.45-.14,1.25,1.25,0,0,1-1-1,3.52,3.52,0,0,0,0-.62c-.15-.55-1-.64-1.18-1.17s.32-1,.78-1.33c-1.25-1.49-2.52-3.3-2.16-5.22.19-1,.8-1.91.64-2.9-.1-.59-.46-1.19-.24-1.74a3.57,3.57,0,0,1,.52-.72,3.63,3.63,0,0,0,.44-2.26,5.71,5.71,0,0,1,2.6,3c.13.35.29.77.66.85.15,0,.3,0,.45,0a1.27,1.27,0,0,1,.71.48l1.95,2.14c.27.3.63.63,1,.55s.63-.66.64-1.13a5.19,5.19,0,0,0-.51-2.42,2.73,2.73,0,0,1-.51-1.75,2.14,2.14,0,0,1,.46-.78l1.1-1.38a1,1,0,0,1,.51-.41c.22-.05.49.11.46.33a4.9,4.9,0,0,0,.64-1.89l1.49.89a3.28,3.28,0,0,0,1.72-4,3.88,3.88,0,0,0,1.7.18,1.33,1.33,0,0,0,1.13-1.13l1.09.57a4.7,4.7,0,0,1,.89-1.6c1.32-1.36,3.73-.73,5.29-1.82.24-.17.5-.39.79-.34a.75.75,0,0,1,.52.61,4.7,4.7,0,0,1-.46,2.41c-.24.79-.22,1.84.5,2.24l-1.67,1.52A2.51,2.51,0,0,0,616,83.5l-.95.7,1,.86a9.1,9.1,0,0,1-2,1.39c-.66.47-1.19,1.37-.79,2.07.3.51,1,.71,1.26,1.25a1,1,0,0,1-.78,1.34l.7,1a31.2,31.2,0,0,0-6.06,3,2.63,2.63,0,0,0-.9.81,1,1,0,0,0,.07,1.14,1.41,1.41,0,0,0,.75.3l2.78.51a1.7,1.7,0,0,1,.85.32.58.58,0,0,1,.1.81,7.76,7.76,0,0,0,2.82.12.89.89,0,0,1,.05.58c.27.49,1.16,0,1.53.41s0,.74-.29.91a2.83,2.83,0,0,1-1.08.18,6.83,6.83,0,0,0-3.74,2.13,1.16,1.16,0,0,0-.47.72c0,.22.1.43.08.65-.06.58-.89.63-1.47.5l-2.75-.6a3,3,0,0,0-2.48.18c-.34.26-.56.66-.9.91-1,.69-2.28-.1-3.2-.86l-1.69-1.41a.62.62,0,0,0-.47-.2.62.62,0,0,0-.35.29,48.8,48.8,0,0,0-4,6.42c-.12.24-.22.56-.48.65-.54.18-.53,0-.37-.35"/></svg>